<svg xmlns="http://www.w3.org/2000/svg" width="1889.671" height="910.189" viewBox="0 0 1889.671 910.189">
  <g id="Icon_Group" data-name="Icon Group" transform="translate(-4.717 -1355.918)">
    <g id="Watch_Left" data-name="Watch Left" transform="translate(1297.452 2183.531) rotate(-30)">
      <path id="Path_3" data-name="Path 3" d="M26.473,15.433a4.943,4.943,0,1,1-9.887,0V5.478a4.943,4.943,0,1,1,9.887,0Z" transform="translate(22.96 -0.5)" fill="#ffcc4d"/>
      <path id="Path_4" data-name="Path 4" d="M11.96,67.622a3.679,3.679,0,0,1-1.646-.393,3.76,3.76,0,0,1-1.649-5.01l22.1-44.8a3.662,3.662,0,0,1,6.589,0l22.1,44.8a3.759,3.759,0,0,1-1.646,5.01,3.662,3.662,0,0,1-4.941-1.671l-18.8-38.125-18.8,38.125A3.683,3.683,0,0,1,11.96,67.622Z" transform="translate(10.73 21.357)" fill="#ffac33"/>
      <path id="Path_5" data-name="Path 5" d="M40.635,44.606a2.435,2.435,0,0,1-1.735-.729L4.527,9.029a2.513,2.513,0,0,1,0-3.52,2.43,2.43,0,0,1,3.47,0L40.635,38.594,73.268,5.507a2.433,2.433,0,0,1,3.473,0,2.512,2.512,0,0,1,0,3.52L42.373,43.876a2.451,2.451,0,0,1-1.738.729Z" transform="translate(4.154 5.796)" fill="#58595b"/>
      <path id="Path_6" data-name="Path 6" d="M81.381,43.6c0,21.993-17.586,39.82-39.284,39.82S2.815,65.59,2.815,43.6,20.4,3.772,42.1,3.772,81.381,21.6,81.381,43.6Z" transform="translate(2.692 4.315)" fill="#dd2e44"/>
      <path id="Path_7" data-name="Path 7" d="M65.71,37.67A29.664,29.664,0,0,1,36.248,67.537,29.665,29.665,0,0,1,6.789,37.67,29.665,29.665,0,0,1,36.248,7.8,29.663,29.663,0,0,1,65.71,37.67Z" transform="translate(8.541 10.243)" fill="#e6e7e8"/>
      <path id="Path_8" data-name="Path 8" d="M74.835,1.757A14.579,14.579,0,0,0,64.42,6.132L85.253,27.249A14.989,14.989,0,0,0,89.566,16.69,14.836,14.836,0,0,0,74.835,1.757Zm-59.517,0A14.584,14.584,0,0,1,25.733,6.132L4.9,27.249A14.989,14.989,0,0,1,.587,16.69,14.834,14.834,0,0,1,15.318,1.757Z" transform="translate(-0.587 1.35)" fill="#ffcc4d"/>
      <path id="Path_9" data-name="Path 9" d="M32.417,36.688H20.058a2.471,2.471,0,0,1-2.472-2.472V11.972a2.472,2.472,0,1,1,4.943,0V31.745h9.887a2.472,2.472,0,1,1,0,4.943Z" transform="translate(24.432 12.745)" fill="#414042"/>
    </g>
    <g id="Watch_Right" data-name="Watch Right" transform="translate(763.48 1353.102) rotate(25)">
      <path id="Path_3-2" data-name="Path 3" d="M26.473,15.433a4.943,4.943,0,1,1-9.887,0V5.478a4.943,4.943,0,1,1,9.887,0Z" transform="translate(22.96 -0.5)" fill="#ffcc4d"/>
      <path id="Path_4-2" data-name="Path 4" d="M11.96,67.622a3.679,3.679,0,0,1-1.646-.393,3.76,3.76,0,0,1-1.649-5.01l22.1-44.8a3.662,3.662,0,0,1,6.589,0l22.1,44.8a3.759,3.759,0,0,1-1.646,5.01,3.662,3.662,0,0,1-4.941-1.671l-18.8-38.125-18.8,38.125A3.683,3.683,0,0,1,11.96,67.622Z" transform="translate(10.73 21.357)" fill="#ffac33"/>
      <path id="Path_5-2" data-name="Path 5" d="M40.635,44.606a2.435,2.435,0,0,1-1.735-.729L4.527,9.029a2.513,2.513,0,0,1,0-3.52,2.43,2.43,0,0,1,3.47,0L40.635,38.594,73.268,5.507a2.433,2.433,0,0,1,3.473,0,2.512,2.512,0,0,1,0,3.52L42.373,43.876a2.451,2.451,0,0,1-1.738.729Z" transform="translate(4.154 5.796)" fill="#58595b"/>
      <path id="Path_6-2" data-name="Path 6" d="M81.381,43.6c0,21.993-17.586,39.82-39.284,39.82S2.815,65.59,2.815,43.6,20.4,3.772,42.1,3.772,81.381,21.6,81.381,43.6Z" transform="translate(2.692 4.315)" fill="#dd2e44"/>
      <path id="Path_7-2" data-name="Path 7" d="M65.71,37.67A29.664,29.664,0,0,1,36.248,67.537,29.665,29.665,0,0,1,6.789,37.67,29.665,29.665,0,0,1,36.248,7.8,29.663,29.663,0,0,1,65.71,37.67Z" transform="translate(8.541 10.243)" fill="#e6e7e8"/>
      <path id="Path_8-2" data-name="Path 8" d="M74.835,1.757A14.579,14.579,0,0,0,64.42,6.132L85.253,27.249A14.989,14.989,0,0,0,89.566,16.69,14.836,14.836,0,0,0,74.835,1.757Zm-59.517,0A14.584,14.584,0,0,1,25.733,6.132L4.9,27.249A14.989,14.989,0,0,1,.587,16.69,14.834,14.834,0,0,1,15.318,1.757Z" transform="translate(-0.587 1.35)" fill="#ffcc4d"/>
      <path id="Path_9-2" data-name="Path 9" d="M32.417,36.688H20.058a2.471,2.471,0,0,1-2.472-2.472V11.972a2.472,2.472,0,1,1,4.943,0V31.745h9.887a2.472,2.472,0,1,1,0,4.943Z" transform="translate(24.432 12.745)" fill="#414042"/>
    </g>
    <g id="Pen" transform="translate(170.244 1383.004)">
      <path id="Path_10" data-name="Path 10" d="M9.832,39.146C5.489,43.491,1.186,46.23.219,45.264s1.775-5.27,6.117-9.612,8.646-7.084,9.612-6.117S14.174,34.8,9.832,39.146Z" transform="translate(-0.025 41.943)" fill="#c1694f"/>
      <path id="Path_11" data-name="Path 11" d="M14.793,32.542,9.548,27.3A69.8,69.8,0,0,0,3.9,36.27,47.818,47.818,0,0,0,.811,43.027l1.747,1.747,1.747,1.747a48.033,48.033,0,0,0,6.757-3.092,69.646,69.646,0,0,0,8.97-5.645l-5.24-5.242Z" transform="translate(1.13 38.937)" fill="#ffcc4d"/>
      <path id="Path_12" data-name="Path 12" d="M77.832,2.691c-8.737-8.74-44.9,25.45-46.643,27.2S27.966,33.221,28.9,34.15l-5.242,5.242C18.408,44.637,2.679,63.859,4.426,65.607l5.245,5.245,5.242,5.242C16.661,77.841,35.885,62.112,41.13,56.87l5.242-5.242c.929.929,2.514-.549,4.261-2.3s35.938-37.9,27.2-46.64Z" transform="translate(6.253 0.625)" fill="#31373d"/>
      <path id="Path_13" data-name="Path 13" d="M36.154,33.426c.21-.208.895-.927,1.913-2.019L18.731,12.074c-1.092,1.016-1.809,1.7-2.019,1.913-1.747,1.747-3.223,3.332-2.294,4.261l8.737,8.74,8.74,8.737c.927.924,2.511-.551,4.259-2.3Z" transform="translate(20.733 16.533)" fill="#ffcc4d"/>
      <path id="Path_14" data-name="Path 14" d="M53.152,3.868C50.861,1.577,47.8-.826,43.434,1.359S25.359,12.336,19.019,18.673c-3.268,3.268-3.082,5.2-1.856,5.351,2.029.262,3.386.218,5.245-1.639a9.474,9.474,0,0,0,2.182-5.025s7.539-5.789,13.49-9.338,8.077-4.157,10.158-2.076,4.914-2.079,4.914-2.079Z" transform="translate(23.992 -0.5)" fill="#ffac33"/>
      <path id="Path_15" data-name="Path 15" d="M28.895,3.552,40.371,15.028a31.589,31.589,0,0,0,2.022-4.97L33.865,1.531a32.171,32.171,0,0,0-4.97,2.022Z" transform="translate(42.46 1.017)" fill="#ffac33"/>
    </g>
    <g id="Scale" transform="translate(1620.315 2000)">
      <path id="Path_16" data-name="Path 16" d="M73.429,83.791a9.882,9.882,0,0,1-13.98,0L3.519,27.862a9.885,9.885,0,0,1,0-13.982L14.006,3.4a9.887,9.887,0,0,1,13.982,0L83.912,59.323a9.887,9.887,0,0,1,0,13.98L73.429,83.791Z" transform="translate(-0.622 -0.5)" fill="#ffcc4d"/>
      <path id="Path_17" data-name="Path 17" d="M12.085,13.907a2.472,2.472,0,1,1-3.495-3.5l8.74-8.74,3.495,3.5ZM26.064,17.4a2.471,2.471,0,1,1-3.495-3.495l3.5-3.5,3.495,3.5-3.5,3.495Zm3.5,13.979a2.471,2.471,0,0,1-3.495-3.495l8.74-8.74c1.2,1.2,2.3,2.294,3.495,3.5Zm13.98,3.495a2.47,2.47,0,1,1-3.492-3.495l3.495-3.5c1.2,1.2,2.294,2.293,3.495,3.5l-3.5,3.495Zm3.5,13.982a2.472,2.472,0,0,1-3.5-3.495l8.74-8.737,3.495,3.495ZM64.516,66.336a2.471,2.471,0,0,1-3.495-3.495L69.76,54.1,73.255,57.6Zm-3.5-13.982a2.47,2.47,0,1,1-3.495-3.492l3.5-3.495,3.492,3.492-3.495,3.5Z" transform="translate(10.039 1.223)" fill="#292f33"/>
    </g>
    <path id="Triangle" d="M87.262,82.49,7.482,2.71C3.638-1.136.492.167.492,5.6V79.593a9.916,9.916,0,0,0,9.887,9.887H84.367C89.805,89.48,91.108,86.336,87.262,82.49ZM42.428,69.707H25.208a4.958,4.958,0,0,1-4.943-4.943V47.541c0-2.719,1.574-3.369,3.495-1.448L43.877,66.212c1.92,1.92,1.268,3.495-1.448,3.495Z" transform="translate(1455.67 1406.6) rotate(14)" fill="#ffcc4d"/>
    <g id="Snow" transform="translate(484.174 1464.626)">
      <path id="Path_38" data-name="Path 38" d="M28.3,68.683V21.3L40.237,9.363a2.472,2.472,0,0,0-3.495-3.5L28.3,14.306V2.971a2.472,2.472,0,0,0-4.943,0V14.306L14.922,5.866a2.472,2.472,0,0,0-3.495,3.5L23.36,21.3V68.683L11.427,80.616a2.471,2.471,0,0,0,3.495,3.495l8.438-8.438V87.007a2.472,2.472,0,0,0,4.943,0V75.672l8.438,8.438a2.471,2.471,0,1,0,3.495-3.495Z" transform="translate(15.361 -0.5)" fill="#88c9f9"/>
      <path id="Path_39" data-name="Path 39" d="M82.4,44.724a2.421,2.421,0,0,0-3.028-1.747l-16.3,4.367L22.039,23.651,17.671,7.35A2.472,2.472,0,0,0,12.9,8.63l3.09,11.528-9.817-5.67a2.421,2.421,0,0,0-3.376.9,2.421,2.421,0,0,0,.9,3.376l9.815,5.668L1.984,27.524A2.419,2.419,0,0,0,.236,30.551,2.421,2.421,0,0,0,3.264,32.3l16.3-4.367L60.6,51.627l4.367,16.3a2.472,2.472,0,0,0,4.775-1.28l-3.09-11.528,9.817,5.667a2.471,2.471,0,1,0,2.472-4.281l-9.815-5.668,11.525-3.087a2.426,2.426,0,0,0,1.747-3.03Z" transform="translate(-0.126 6.849)" fill="#88c9f9"/>
      <path id="Path_40" data-name="Path 40" d="M80.655,27.528l-11.528-3.09,9.817-5.667a2.473,2.473,0,1,0-2.472-4.283l-9.815,5.665L69.745,8.627a2.472,2.472,0,0,0-4.775-1.28L60.6,23.648l-41.039,23.7-16.3-4.37A2.421,2.421,0,0,0,.237,44.726a2.418,2.418,0,0,0,1.747,3.028L13.51,50.841,3.7,56.508a2.472,2.472,0,0,0,2.472,4.281l9.817-5.668-3.09,11.525a2.473,2.473,0,0,0,4.778,1.283l4.37-16.305L63.081,27.934l16.3,4.37a2.471,2.471,0,1,0,1.273-4.775Z" transform="translate(-0.125 6.845)" fill="#88c9f9"/>
    </g>
    <g id="Snow_4" data-name="Snow 4" transform="translate(258.083 1706.984)">
      <path id="Path_38-2" data-name="Path 38" d="M28.3,68.683V21.3L40.237,9.363a2.472,2.472,0,0,0-3.495-3.5L28.3,14.306V2.971a2.472,2.472,0,0,0-4.943,0V14.306L14.922,5.866a2.472,2.472,0,0,0-3.495,3.5L23.36,21.3V68.683L11.427,80.616a2.471,2.471,0,0,0,3.495,3.495l8.438-8.438V87.007a2.472,2.472,0,0,0,4.943,0V75.672l8.438,8.438a2.471,2.471,0,1,0,3.495-3.495Z" transform="translate(15.361 -0.5)" fill="#88c9f9"/>
      <path id="Path_39-2" data-name="Path 39" d="M82.4,44.724a2.421,2.421,0,0,0-3.028-1.747l-16.3,4.367L22.039,23.651,17.671,7.35A2.472,2.472,0,0,0,12.9,8.63l3.09,11.528-9.817-5.67a2.421,2.421,0,0,0-3.376.9,2.421,2.421,0,0,0,.9,3.376l9.815,5.668L1.984,27.524A2.419,2.419,0,0,0,.236,30.551,2.421,2.421,0,0,0,3.264,32.3l16.3-4.367L60.6,51.627l4.367,16.3a2.472,2.472,0,0,0,4.775-1.28l-3.09-11.528,9.817,5.667a2.471,2.471,0,1,0,2.472-4.281l-9.815-5.668,11.525-3.087a2.426,2.426,0,0,0,1.747-3.03Z" transform="translate(-0.126 6.849)" fill="#88c9f9"/>
      <path id="Path_40-2" data-name="Path 40" d="M80.655,27.528l-11.528-3.09,9.817-5.667a2.473,2.473,0,1,0-2.472-4.283l-9.815,5.665L69.745,8.627a2.472,2.472,0,0,0-4.775-1.28L60.6,23.648l-41.039,23.7-16.3-4.37A2.421,2.421,0,0,0,.237,44.726a2.418,2.418,0,0,0,1.747,3.028L13.51,50.841,3.7,56.508a2.472,2.472,0,0,0,2.472,4.281l9.817-5.668-3.09,11.525a2.473,2.473,0,0,0,4.778,1.283l4.37-16.305L63.081,27.934l16.3,4.37a2.471,2.471,0,1,0,1.273-4.775Z" transform="translate(-0.125 6.845)" fill="#88c9f9"/>
    </g>
    <g id="Snow_3" data-name="Snow 3" transform="translate(877.609 2093.316)">
      <path id="Path_38-3" data-name="Path 38" d="M28.3,68.683V21.3L40.237,9.363a2.472,2.472,0,0,0-3.495-3.5L28.3,14.306V2.971a2.472,2.472,0,0,0-4.943,0V14.306L14.922,5.866a2.472,2.472,0,0,0-3.495,3.5L23.36,21.3V68.683L11.427,80.616a2.471,2.471,0,0,0,3.495,3.495l8.438-8.438V87.007a2.472,2.472,0,0,0,4.943,0V75.672l8.438,8.438a2.471,2.471,0,1,0,3.495-3.495Z" transform="translate(15.361 -0.5)" fill="#88c9f9"/>
      <path id="Path_39-3" data-name="Path 39" d="M82.4,44.724a2.421,2.421,0,0,0-3.028-1.747l-16.3,4.367L22.039,23.651,17.671,7.35A2.472,2.472,0,0,0,12.9,8.63l3.09,11.528-9.817-5.67a2.421,2.421,0,0,0-3.376.9,2.421,2.421,0,0,0,.9,3.376l9.815,5.668L1.984,27.524A2.419,2.419,0,0,0,.236,30.551,2.421,2.421,0,0,0,3.264,32.3l16.3-4.367L60.6,51.627l4.367,16.3a2.472,2.472,0,0,0,4.775-1.28l-3.09-11.528,9.817,5.667a2.471,2.471,0,1,0,2.472-4.281l-9.815-5.668,11.525-3.087a2.426,2.426,0,0,0,1.747-3.03Z" transform="translate(-0.126 6.849)" fill="#88c9f9"/>
      <path id="Path_40-3" data-name="Path 40" d="M80.655,27.528l-11.528-3.09,9.817-5.667a2.473,2.473,0,1,0-2.472-4.283l-9.815,5.665L69.745,8.627a2.472,2.472,0,0,0-4.775-1.28L60.6,23.648l-41.039,23.7-16.3-4.37A2.421,2.421,0,0,0,.237,44.726a2.418,2.418,0,0,0,1.747,3.028L13.51,50.841,3.7,56.508a2.472,2.472,0,0,0,2.472,4.281l9.817-5.668-3.09,11.525a2.473,2.473,0,0,0,4.778,1.283l4.37-16.305L63.081,27.934l16.3,4.37a2.471,2.471,0,1,0,1.273-4.775Z" transform="translate(-0.125 6.845)" fill="#88c9f9"/>
    </g>
    <g id="Snow_2" data-name="Snow 2" transform="translate(1598 1615.4)">
      <path id="Path_38-4" data-name="Path 38" d="M28.3,68.683V21.3L40.237,9.363a2.472,2.472,0,0,0-3.495-3.5L28.3,14.306V2.971a2.472,2.472,0,0,0-4.943,0V14.306L14.922,5.866a2.472,2.472,0,0,0-3.495,3.5L23.36,21.3V68.683L11.427,80.616a2.471,2.471,0,0,0,3.495,3.495l8.438-8.438V87.007a2.472,2.472,0,0,0,4.943,0V75.672l8.438,8.438a2.471,2.471,0,1,0,3.495-3.495Z" transform="translate(15.361 -0.5)" fill="#88c9f9"/>
      <path id="Path_39-4" data-name="Path 39" d="M82.4,44.724a2.421,2.421,0,0,0-3.028-1.747l-16.3,4.367L22.039,23.651,17.671,7.35A2.472,2.472,0,0,0,12.9,8.63l3.09,11.528-9.817-5.67a2.421,2.421,0,0,0-3.376.9,2.421,2.421,0,0,0,.9,3.376l9.815,5.668L1.984,27.524A2.419,2.419,0,0,0,.236,30.551,2.421,2.421,0,0,0,3.264,32.3l16.3-4.367L60.6,51.627l4.367,16.3a2.472,2.472,0,0,0,4.775-1.28l-3.09-11.528,9.817,5.667a2.471,2.471,0,1,0,2.472-4.281l-9.815-5.668,11.525-3.087a2.426,2.426,0,0,0,1.747-3.03Z" transform="translate(-0.126 6.849)" fill="#88c9f9"/>
      <path id="Path_40-4" data-name="Path 40" d="M80.655,27.528l-11.528-3.09,9.817-5.667a2.473,2.473,0,1,0-2.472-4.283l-9.815,5.665L69.745,8.627a2.472,2.472,0,0,0-4.775-1.28L60.6,23.648l-41.039,23.7-16.3-4.37A2.421,2.421,0,0,0,.237,44.726a2.418,2.418,0,0,0,1.747,3.028L13.51,50.841,3.7,56.508a2.472,2.472,0,0,0,2.472,4.281l9.817-5.668-3.09,11.525a2.473,2.473,0,0,0,4.778,1.283l4.37-16.305L63.081,27.934l16.3,4.37a2.471,2.471,0,1,0,1.273-4.775Z" transform="translate(-0.125 6.845)" fill="#88c9f9"/>
    </g>
    <g id="Spaceship" transform="translate(535.063 2171.639) rotate(16)">
      <path id="Path_18" data-name="Path 18" d="M80.812,33.06c-1.7,8.011-22.764,15.376-42.794,11.12S1.744,24.627,3.447,16.616,24.671,8.492,44.7,12.75,82.515,25.049,80.812,33.06Z" transform="translate(0.335 7.583)" fill="#ffd983"/>
      <path id="Path_19" data-name="Path 19" d="M68.578,62.842l-4.943-34.6L21.617,15.88,1.844,62.842Z" transform="translate(-1.844 16.297)" fill="#ffd983"/>
      <path id="Path_20" data-name="Path 20" d="M85.007,35.362c2.144-10.089-14.518-22.179-37.217-27S4.951,7.8,2.807,17.89s14.518,22.179,37.217,27S82.862,45.451,85.007,35.362Z" transform="translate(-0.7 2.305)" fill="#67757f"/>
      <path id="Path_21" data-name="Path 21" d="M2.258,9.857l1.023,5.722L84.514,32.846,88,27.591Z" transform="translate(-1.234 7.434)" fill="#67757f"/>
      <path id="Path_22" data-name="Path 22" d="M89.4,34.085C91.673,23.4,74.03,10.6,50,5.494S4.637,4.9,2.367,15.586,17.739,39.068,41.773,44.176,87.132,44.767,89.4,34.085Z" transform="translate(-1.363 -2.082)" fill="#9aaab4"/>
      <path id="Path_23" data-name="Path 23" d="M78.209,27.6c1.7-8.011-13.153-17.957-33.181-22.214S7.382,4.175,5.679,12.186,18.832,30.143,38.861,34.4,76.506,35.614,78.209,27.6Z" transform="translate(3.605 -1.974)" fill="#ccd6dd"/>
      <path id="Path_24" data-name="Path 24" d="M55.435,17.9c.851-4.006-8.2-9.323-20.217-11.878s-22.449-1.378-23.3,2.628,8.2,9.323,20.217,11.878S54.583,21.908,55.435,17.9Z" transform="translate(12.899 -0.194)" fill="#e1e8ed"/>
      <path id="Path_25" data-name="Path 25" d="M11.918,11.317C12.768,7.31,19.323.256,36.246,3.852s20.04,12.707,19.19,16.713-11.283,5.183-23.3,2.627-21.071-7.87-20.218-11.876Z" transform="translate(12.9 -2.862)" fill="#5dadec"/>
      <path id="Path_26" data-name="Path 26" d="M20.08,21.879a2.472,2.472,0,1,0-2.472-2.472A2.472,2.472,0,0,0,20.08,21.879Z" transform="translate(21.357 17.85)" fill="#8ccaf7"/>
      <path id="Path_27" data-name="Path 27" d="M28.113,22.564a2.472,2.472,0,1,0-2.472-2.472A2.472,2.472,0,0,0,28.113,22.564Z" transform="translate(33.179 18.858)" fill="#8ccaf7"/>
      <path id="Path_28" data-name="Path 28" d="M35.584,21.085a2.472,2.472,0,1,0-2.472-2.472A2.472,2.472,0,0,0,35.584,21.085Z" transform="translate(44.173 16.682)" fill="#8ccaf7"/>
      <path id="Path_29" data-name="Path 29" d="M39.175,15.6c.431-.529-.077-1.657-1.135-2.52s-2.265-1.133-2.7-.6.077,1.657,1.135,2.52S38.744,16.128,39.175,15.6Z" transform="translate(47.23 10.888)" fill="#8ccaf7"/>
      <path id="Path_30" data-name="Path 30" d="M6.4,8.278c1.317-.358,2.24-1.181,2.062-1.84s-1.392-.9-2.709-.545-2.24,1.182-2.062,1.84S5.086,8.636,6.4,8.278Z" transform="translate(0.847 1.357)" fill="#8ccaf7"/>
      <path id="Path_31" data-name="Path 31" d="M6.239,14.847a2.472,2.472,0,1,0-2.472-2.472A2.472,2.472,0,0,0,6.239,14.847Z" transform="translate(0.988 7.501)" fill="#8ccaf7"/>
      <path id="Path_32" data-name="Path 32" d="M12.463,19.237a2.472,2.472,0,1,0-2.472-2.472A2.472,2.472,0,0,0,12.463,19.237Z" transform="translate(10.147 13.962)" fill="#8ccaf7"/>
      <path id="Path_33" data-name="Path 33" d="M40.717,9.947c.426-2-4.641-4.777-11.317-6.2S16.966,2.806,16.541,4.808,21.182,9.585,27.858,11,40.291,11.95,40.717,9.947Z" transform="translate(19.748 -2.756)" fill="#8ccaf7"/>
    </g>
    <g id="Planet" transform="translate(1063.492 1464.626)">
      <path id="Path_34" data-name="Path 34" d="M33.364,53.363A26.432,26.432,0,1,0,6.932,26.932,26.432,26.432,0,0,0,33.364,53.363Z" transform="translate(9.89 -0.5)" fill="#ffcc4d"/>
      <path id="Path_35" data-name="Path 35" d="M14.091,36.758a6.185,6.185,0,0,1-5.445-2.266,25.9,25.9,0,0,0,1.948,3.925,6.086,6.086,0,0,0,6.278-.673A7.351,7.351,0,0,0,14.091,36.758ZM45.869,1.8c.111.811-.462,1.236-1.854.9-2.36-.573-4.432,1.918-5.621,4-2.341,4.1-12,8.71-12,5.158,0-1.678-8.532,2.084-9.622.4-1.031-1.592-4.11-.979-4.748-2.887a26.335,26.335,0,0,0-5.042,13.4,8.713,8.713,0,0,0,3.342,3.772c1.631.816,9.209,3.777,10.317,1.886,1.846-3.154,12.924-.922,12.66-2.581-.507-3.176,6-.568,8.337-4.661,1.191-2.084,3.789-3.683,6.152-3.109,2.758.67,6.162-4.061,5.9-9.877A26.453,26.453,0,0,0,45.869,1.8Zm7.862,39.979a7.579,7.579,0,0,1-2.41.806c-5.556.6-6.757,4.956-10.485,4.209-1.92-.386-4.54,3-7.539,3.205a54.152,54.152,0,0,0-5.9.761,26.292,26.292,0,0,0,26.331-8.982Z" transform="translate(9.956 1.416)" fill="#f4900c"/>
      <path id="Path_36" data-name="Path 36" d="M56.295,2.938a26.435,26.435,0,0,1,6.313,4.951c6.157-.388,9.911,1.06,9.6,4.392-.163,1.743-1.446,3.811-3.537,6.018-5.21,5.489-15.594,11.854-27.361,16.318-8.179,3.1-15.468,4.7-20.678,4.78-5.3.087-8.448-1.391-8.161-4.456.188-2.014,1.859-4.464,4.578-7.062-.047-.63-.1-1.253-.1-1.891a26.4,26.4,0,0,1,.732-6.083C7.047,27.278.126,35.4.126,41.73c0,8.619,12.759,11.266,30.34,7.309A105.623,105.623,0,0,0,43.38,45.21a114.6,114.6,0,0,0,25.7-13.142C79.714,24.7,86.634,16.576,86.634,10.244c0-8.616-12.759-11.266-30.34-7.306Z" transform="translate(-0.126 0.444)" fill="#e85e00"/>
      <path id="Path_37" data-name="Path 37" d="M11.385,23.982a27.976,27.976,0,0,0-4.647,5.887c-1.211,2.106-2.242,4.476-2.086,6.6.087,2.116,1.686,3.376,3.851,3.96a22.828,22.828,0,0,0,7,.566,62.562,62.562,0,0,0,14.437-2.385,91.493,91.493,0,0,0,13.878-5.032A105.276,105.276,0,0,0,68.866,17.805c.91-.823,1.906-1.6,2.778-2.437a19.991,19.991,0,0,0,2.249-2.711c1.29-1.9,2.042-4.12.828-5.813-1.211-1.72-3.7-2.657-6.063-3.141a24.8,24.8,0,0,0-7.489-.274A22.958,22.958,0,0,1,68.8,2.646c2.546.227,5.368.741,7.435,3.018a5.646,5.646,0,0,1,1.3,4.315,10.27,10.27,0,0,1-1.392,4.041A22.682,22.682,0,0,1,73.8,17.353c-.87,1-1.752,1.92-2.65,2.875A84.841,84.841,0,0,1,45.793,37.922c-9.432,4.251-19.709,7.195-30.3,6.807a24.416,24.416,0,0,1-8-1.354,9,9,0,0,1-3.707-2.511,6.142,6.142,0,0,1-1.456-4.385,13.645,13.645,0,0,1,3.334-7.356,24.1,24.1,0,0,1,5.724-5.141Z" transform="translate(3.089 2.576)" fill="#f4900c"/>
    </g>
    <g id="Trophy_Right" data-name="Trophy Right" transform="translate(1812.754 1823.094) rotate(21)">
      <path id="Path_41" data-name="Path 41" d="M13.121,9.685h14.83c2.729,0,4.639-.257,4.639,2.472V7.213A4.7,4.7,0,0,0,27.951,2.27H8.178C3.235,2.27-.678,7.522.763,14.628c0,0,4.427,23.172,4.738,24.613.823,3.811,5.25,7.519,9.988,7.519h17.2c2.731,0-.1-4.686-.1-7.415V34.4a4.7,4.7,0,0,1-4.639,4.943H18.065c-2.729,0-4.531-2.575-4.943-4.943S9.206,16.277,9.206,16.277C8.383,11.538,10.39,9.685,13.121,9.685Zm63.8,0H62.09c-2.729,0-7.254-.257-7.254,2.472V7.213c0-2.729,4.526-4.943,7.254-4.943H81.863c4.943,0,8.858,5.252,7.415,12.358,0,0-4.036,23.281-4.377,24.717-.875,3.707-5.047,7.415-9.887,7.415H57.352c-2.729,0-2.516-4.686-2.516-7.415V34.4c0,2.729,4.526,4.943,7.254,4.943h9.887c2.729,0,4.533-2.575,4.943-4.943s3.915-18.125,3.915-18.125c.821-4.738-1.184-6.592-3.915-6.592ZM51.949,51.7c0-17.2-6.7,0-6.7,0s-7.415-17.2-7.415,0S29.7,76.419,29.7,76.419H60.085S51.949,68.9,51.949,51.7Z" transform="translate(-0.461 2.105)" fill="#ffac33"/>
      <path id="Path_42" data-name="Path 42" d="M61.959,16.187c0,16.746-16.733,44.964-27.188,44.964S7.583,32.933,7.583,16.187C7.583,3.347,10.055.569,15,.569,18.394.569,29.89.5,34.771.5l17.3,0c7.21,0,9.887,1.691,9.887,15.688Z" transform="translate(10.021 -0.5)" fill="#ffcc4d"/>
      <path id="Path_43" data-name="Path 43" d="M53.95,37.685c0,2.729.561,4.943-2.168,4.943H12.236c-2.731,0-2.776-2.215-2.776-4.943V35.213c0-2.729,2.877-4.943,5.452-4.943h34.4a4.791,4.791,0,0,1,4.639,4.943v2.472Z" transform="translate(12.783 43.311)" fill="#c1694f"/>
      <path id="Path_44" data-name="Path 44" d="M61.836,37.286c0,1.878.408,3.4-3.095,3.4H11.163c-3.193,0-3.7-1.52-3.7-3.4v-.618a3.669,3.669,0,0,1,3.7-3.4H58.742a3.152,3.152,0,0,1,3.095,3.4v.618Z" transform="translate(9.84 47.726)" fill="#c1694f"/>
    </g>
    <g id="Trophy_Left" data-name="Trophy Left" transform="translate(21.255 1675.034) rotate(-42)">
      <path id="Path_41-2" data-name="Path 41" d="M13.121,9.685h14.83c2.729,0,4.639-.257,4.639,2.472V7.213A4.7,4.7,0,0,0,27.951,2.27H8.178C3.235,2.27-.678,7.522.763,14.628c0,0,4.427,23.172,4.738,24.613.823,3.811,5.25,7.519,9.988,7.519h17.2c2.731,0-.1-4.686-.1-7.415V34.4a4.7,4.7,0,0,1-4.639,4.943H18.065c-2.729,0-4.531-2.575-4.943-4.943S9.206,16.277,9.206,16.277C8.383,11.538,10.39,9.685,13.121,9.685Zm63.8,0H62.09c-2.729,0-7.254-.257-7.254,2.472V7.213c0-2.729,4.526-4.943,7.254-4.943H81.863c4.943,0,8.858,5.252,7.415,12.358,0,0-4.036,23.281-4.377,24.717-.875,3.707-5.047,7.415-9.887,7.415H57.352c-2.729,0-2.516-4.686-2.516-7.415V34.4c0,2.729,4.526,4.943,7.254,4.943h9.887c2.729,0,4.533-2.575,4.943-4.943s3.915-18.125,3.915-18.125c.821-4.738-1.184-6.592-3.915-6.592ZM51.949,51.7c0-17.2-6.7,0-6.7,0s-7.415-17.2-7.415,0S29.7,76.419,29.7,76.419H60.085S51.949,68.9,51.949,51.7Z" transform="translate(-0.461 2.105)" fill="#ffac33"/>
      <path id="Path_42-2" data-name="Path 42" d="M61.959,16.187c0,16.746-16.733,44.964-27.188,44.964S7.583,32.933,7.583,16.187C7.583,3.347,10.055.569,15,.569,18.394.569,29.89.5,34.771.5l17.3,0c7.21,0,9.887,1.691,9.887,15.688Z" transform="translate(10.021 -0.5)" fill="#ffcc4d"/>
      <path id="Path_43-2" data-name="Path 43" d="M53.95,37.685c0,2.729.561,4.943-2.168,4.943H12.236c-2.731,0-2.776-2.215-2.776-4.943V35.213c0-2.729,2.877-4.943,5.452-4.943h34.4a4.791,4.791,0,0,1,4.639,4.943v2.472Z" transform="translate(12.783 43.311)" fill="#c1694f"/>
      <path id="Path_44-2" data-name="Path 44" d="M61.836,37.286c0,1.878.408,3.4-3.095,3.4H11.163c-3.193,0-3.7-1.52-3.7-3.4v-.618a3.669,3.669,0,0,1,3.7-3.4H58.742a3.152,3.152,0,0,1,3.095,3.4v.618Z" transform="translate(9.84 47.726)" fill="#c1694f"/>
    </g>
    <g id="Shield" transform="translate(280.021 2000)">
      <path id="Path_45" data-name="Path 45" d="M45.008,20.273,27.706.5H.518l34.6,42.018L63.6,30.777Z" transform="translate(-0.518 -0.5)" fill="#55acee"/>
      <path id="Path_46" data-name="Path 46" d="M35.819.5l-17.3,19.773L31.84,38.346l3.033-3.681L63.008.5Z" transform="translate(25.972 -0.5)" fill="#3b88c3"/>
      <path id="Path_47" data-name="Path 47" d="M47.131,20.489a4.9,4.9,0,0,0-4.62-6.656H26.033a4.944,4.944,0,0,0-4.943,4.943,4.87,4.87,0,0,0,.324,1.713,26.366,26.366,0,1,0,25.718,0Z" transform="translate(10.359 19.122)" fill="#ffac33"/>
      <path id="Path_48" data-name="Path 48" d="M30.349,57.379A19.773,19.773,0,1,0,10.576,37.606,19.773,19.773,0,0,0,30.349,57.379Z" transform="translate(14.284 25.008)" fill="#ffd983"/>
      <path id="Path_49" data-name="Path 49" d="M35.45,48.028a1.727,1.727,0,0,1-1-.324l-7.1-5.089-7.1,5.089A1.724,1.724,0,0,1,17.6,45.784l2.647-8.542L13.22,32.286a1.723,1.723,0,0,1,1.011-3.112l8.71-.013,2.773-8.329a1.725,1.725,0,0,1,3.272,0l2.726,8.329,8.755.013a1.723,1.723,0,0,1,1.011,3.112l-7.034,4.956,2.647,8.542a1.724,1.724,0,0,1-1.641,2.244Z" transform="translate(17.142 27.688)" fill="#ffac33"/>
    </g>
    <g id="Rocket_1" data-name="Rocket 1" transform="translate(1775.714 1433.029)">
      <path id="Path_62" data-name="Path 62" d="M.588,27.8,20.361,10.5l39.547,2.472,2.472,39.546-17.3,19.773s0-14.827-14.83-29.66S.588,27.8.588,27.8Z" transform="translate(-0.521 14.217)" fill="#a0041e"/>
      <path id="Path_63" data-name="Path 63" d="M.561,55.832S.472,36.111,7.938,28.644s27.292-6.953,27.292-6.953,0,19.311-7.417,26.726S.561,55.832.561,55.832Z" transform="translate(-0.561 30.675)" fill="#ffac33"/>
      <path id="Path_64" data-name="Path 64" d="M14.473,43.273a9.887,9.887,0,1,0-9.887-9.887A9.887,9.887,0,0,0,14.473,43.273Z" transform="translate(5.364 33.348)" fill="#ffcc4d"/>
      <path id="Path_65" data-name="Path 65" d="M75.61.5S50.893.5,21.234,25.216C6.4,37.574,6.4,59.819,11.347,64.762s27.188,4.943,39.547-9.887C75.61,25.216,75.61.5,75.61.5Z" transform="translate(10.962 -0.5)" fill="#55acee"/>
      <path id="Path_66" data-name="Path 66" d="M31.945,5.5a9.877,9.877,0,0,0-9,5.833A9.853,9.853,0,0,1,36,24.383,9.875,9.875,0,0,0,31.945,5.5Z" transform="translate(32.382 6.858)"/>
      <path id="Path_67" data-name="Path 67" d="M7.588,50.678s0-9.887,2.472-12.358S42.193,11.134,44.662,13.6s-22.247,32.131-24.719,34.6S7.588,50.678,7.588,50.678Z" transform="translate(9.781 18.529)" fill="#a0041e"/>
    </g>
    <g id="Rocket_2" data-name="Rocket 2" transform="translate(126.428 2169.74)">
      <path id="Path_62-2" data-name="Path 62" d="M.588,27.8,20.361,10.5l39.547,2.472,2.472,39.546-17.3,19.773s0-14.827-14.83-29.66S.588,27.8.588,27.8Z" transform="translate(-0.521 14.217)" fill="#a0041e"/>
      <path id="Path_63-2" data-name="Path 63" d="M.561,55.832S.472,36.111,7.938,28.644s27.292-6.953,27.292-6.953,0,19.311-7.417,26.726S.561,55.832.561,55.832Z" transform="translate(-0.561 30.675)" fill="#ffac33"/>
      <path id="Path_64-2" data-name="Path 64" d="M14.473,43.273a9.887,9.887,0,1,0-9.887-9.887A9.887,9.887,0,0,0,14.473,43.273Z" transform="translate(5.364 33.348)" fill="#ffcc4d"/>
      <path id="Path_65-2" data-name="Path 65" d="M75.61.5S50.893.5,21.234,25.216C6.4,37.574,6.4,59.819,11.347,64.762s27.188,4.943,39.547-9.887C75.61,25.216,75.61.5,75.61.5Z" transform="translate(10.962 -0.5)" fill="#55acee"/>
      <path id="Path_66-2" data-name="Path 66" d="M31.945,5.5a9.877,9.877,0,0,0-9,5.833A9.853,9.853,0,0,1,36,24.383,9.875,9.875,0,0,0,31.945,5.5Z" transform="translate(32.382 6.858)"/>
      <path id="Path_67-2" data-name="Path 67" d="M7.588,50.678s0-9.887,2.472-12.358S42.193,11.134,44.662,13.6s-22.247,32.131-24.719,34.6S7.588,50.678,7.588,50.678Z" transform="translate(9.781 18.529)" fill="#a0041e"/>
    </g>
    <g id="Bag_Right" data-name="Bag Right" transform="translate(21.526 1907) rotate(14)">
      <path id="Path_50" data-name="Path 50" d="M30.1,67.234C-1.99,19.966,19.167,7.3,23.1,5.443c.368-.173.6-.26.606-.264A2.466,2.466,0,0,0,25.01,2.4,2.5,2.5,0,0,0,22.575.5H12.55c-9.375,0-22.564,27.188,2.5,69.206.373.625,12.539,0,12.539,0C28.972,69.706,30.863,68.368,30.1,67.234ZM77.757.5H67.871a2.473,2.473,0,0,0-1.112,4.679c.01,0,.235.091.6.264C71.232,7.3,92.1,19.966,60.456,67.234c-.759,1.134,1.107,2.472,2.472,2.472,0,0,12,.625,12.363,0C100.007,27.688,87,.5,77.757.5Z" transform="translate(-0.592 -0.5)" fill="#c1694f"/>
      <path id="Path_51" data-name="Path 51" d="M16.724,68.829l.01.025c-.158-.724,13.256-3.428,12.489-4.563-32.087-47.268-10.93-59.932-7-61.791H11.672C2.3,2.5-8.38,29.688,16.724,68.829ZM76.889,2.5H66.484c3.876,1.859,24.741,14.523-6.9,61.791-.759,1.134,12.319,4.546,12.324,4.538C96.663,29.688,86.133,2.5,76.889,2.5Z" transform="translate(0.281 2.444)" fill="#662113"/>
      <path id="Path_52" data-name="Path 52" d="M18.3,20.273A2.49,2.49,0,0,1,15.787,17.8c0-8.2-5.013-12.358-10.025-12.358-1.162,0-.2-1.933.072-3.045A2.5,2.5,0,0,1,8.268.5H20.8c9.37,0,12.205,15.166,12.5,16.894a2.455,2.455,0,0,1-.559,2,2.536,2.536,0,0,1-1.916.875Zm40.325,0A2.471,2.471,0,0,0,61.092,17.8c0-8.2,4.943-12.358,9.887-12.358,1.144,0,.193-1.933-.072-3.045a2.467,2.467,0,0,0-2.4-1.9H56.149C46.91.5,44.114,15.666,43.825,17.393a2.472,2.472,0,0,0,2.437,2.879Z" transform="translate(6.191 -0.5)" fill="#c1694f"/>
      <path id="Path_53" data-name="Path 53" d="M6.583,70.763s0,9.887,9.887,9.887H56.016s9.887,0,9.887-9.887V16.386S65.9,6.5,56.016,6.5H16.47c-9.887,0-9.887,9.887-9.887,9.887Z" transform="translate(8.224 8.33)" fill="#be1931"/>
      <path id="Path_54" data-name="Path 54" d="M46.658,54.989H17a7.207,7.207,0,0,1-7.415-7.415v-34.6a2.472,2.472,0,0,1,4.943,0v34.6A2.262,2.262,0,0,0,17,50.046h29.66a2.261,2.261,0,0,0,2.472-2.472v-34.6a2.472,2.472,0,0,1,4.943,0v34.6A7.207,7.207,0,0,1,46.658,54.989Z" transform="translate(12.639 14.217)" fill="#a0041e"/>
      <path id="Path_55" data-name="Path 55" d="M16.583,26.971A2.421,2.421,0,0,1,19.055,24.5H24a2.421,2.421,0,0,1,2.472,2.472V39.33A2.421,2.421,0,0,1,24,41.8H19.055a2.421,2.421,0,0,1-2.472-2.472Z" transform="translate(22.941 34.82)" fill="#fff"/>
    </g>
    <g id="Bag_Left" data-name="Bag Left" transform="matrix(0.966, -0.259, 0.259, 0.966, 1493.522, 1794.384)">
      <path id="Path_50-2" data-name="Path 50" d="M30.1,67.234C-1.99,19.966,19.167,7.3,23.1,5.443c.368-.173.6-.26.606-.264A2.466,2.466,0,0,0,25.01,2.4,2.5,2.5,0,0,0,22.575.5H12.55c-9.375,0-22.564,27.188,2.5,69.206.373.625,12.539,0,12.539,0C28.972,69.706,30.863,68.368,30.1,67.234ZM77.757.5H67.871a2.473,2.473,0,0,0-1.112,4.679c.01,0,.235.091.6.264C71.232,7.3,92.1,19.966,60.456,67.234c-.759,1.134,1.107,2.472,2.472,2.472,0,0,12,.625,12.363,0C100.007,27.688,87,.5,77.757.5Z" transform="translate(-0.592 -0.5)" fill="#c1694f"/>
      <path id="Path_51-2" data-name="Path 51" d="M16.724,68.829l.01.025c-.158-.724,13.256-3.428,12.489-4.563-32.087-47.268-10.93-59.932-7-61.791H11.672C2.3,2.5-8.38,29.688,16.724,68.829ZM76.889,2.5H66.484c3.876,1.859,24.741,14.523-6.9,61.791-.759,1.134,12.319,4.546,12.324,4.538C96.663,29.688,86.133,2.5,76.889,2.5Z" transform="translate(0.281 2.444)" fill="#662113"/>
      <path id="Path_52-2" data-name="Path 52" d="M18.3,20.273A2.49,2.49,0,0,1,15.787,17.8c0-8.2-5.013-12.358-10.025-12.358-1.162,0-.2-1.933.072-3.045A2.5,2.5,0,0,1,8.268.5H20.8c9.37,0,12.205,15.166,12.5,16.894a2.455,2.455,0,0,1-.559,2,2.536,2.536,0,0,1-1.916.875Zm40.325,0A2.471,2.471,0,0,0,61.092,17.8c0-8.2,4.943-12.358,9.887-12.358,1.144,0,.193-1.933-.072-3.045a2.467,2.467,0,0,0-2.4-1.9H56.149C46.91.5,44.114,15.666,43.825,17.393a2.472,2.472,0,0,0,2.437,2.879Z" transform="translate(6.191 -0.5)" fill="#c1694f"/>
      <path id="Path_53-2" data-name="Path 53" d="M6.583,70.763s0,9.887,9.887,9.887H56.016s9.887,0,9.887-9.887V16.386S65.9,6.5,56.016,6.5H16.47c-9.887,0-9.887,9.887-9.887,9.887Z" transform="translate(8.224 8.33)" fill="#be1931"/>
      <path id="Path_54-2" data-name="Path 54" d="M46.658,54.989H17a7.207,7.207,0,0,1-7.415-7.415v-34.6a2.472,2.472,0,0,1,4.943,0v34.6A2.262,2.262,0,0,0,17,50.046h29.66a2.261,2.261,0,0,0,2.472-2.472v-34.6a2.472,2.472,0,0,1,4.943,0v34.6A7.207,7.207,0,0,1,46.658,54.989Z" transform="translate(12.639 14.217)" fill="#a0041e"/>
      <path id="Path_55-2" data-name="Path 55" d="M16.583,26.971A2.421,2.421,0,0,1,19.055,24.5H24a2.421,2.421,0,0,1,2.472,2.472V39.33A2.421,2.421,0,0,1,24,41.8H19.055a2.421,2.421,0,0,1-2.472-2.472Z" transform="translate(22.941 34.82)" fill="#fff"/>
    </g>
    <g id="Pencil" transform="translate(1884.548 2134.355) rotate(93)">
      <path id="Path_56" data-name="Path 56" d="M54.1,49.99c-1.6-5.193-4.214-14.976-5.747-18.7-1.238-3.006-2.4-6.026-3.816-7.45a3.8,3.8,0,0,0-5.3.143s-6.1,4.14-8.29,6.879c-2.739,2.18-6.884,8.3-6.884,8.3a3.792,3.792,0,0,0-.148,5.3c1.424,1.421,4.444,2.578,7.452,3.816,3.722,1.532,13.508,4.142,18.7,5.747C50.956,54.291,54.369,50.878,54.1,49.99Z" transform="translate(32.271 32.365)" fill="#d99e82"/>
      <path id="Path_57" data-name="Path 57" d="M33.616,12.933a7.281,7.281,0,0,1,0,10.3l-10.3,10.3a7.286,7.286,0,0,1-10.3,0l-10.3-10.3a7.286,7.286,0,0,1,0-10.3l10.3-10.3a7.281,7.281,0,0,1,10.3,0Z" transform="translate(-0.583 -0.5)" fill="#ea596e"/>
      <path id="Path_58" data-name="Path 58" d="M66.92,46.236,56.613,56.543,46.324,66.837,7.7,28.213l20.6-20.6Z" transform="translate(9.885 9.97)" fill="#ffcc4d"/>
      <path id="Path_59" data-name="Path 59" d="M32.383,38.926s6.7,3.68,8.5,1.871S39,32.307,39,32.307s-6.342.119-6.614,6.619Z" transform="translate(46.214 46.309)" fill="#292f33"/>
      <path id="Path_60" data-name="Path 60" d="M2.488,23.005l20.6-20.6L35.962,15.279l-20.6,20.6Z" transform="translate(2.219 2.303)" fill="#ccd6dd"/>
      <path id="Path_61" data-name="Path 61" d="M3.53,24.045l20.6-20.6L26.7,6.021l-20.6,20.6ZM8.678,29.2l20.6-20.6,2.575,2.575-20.6,20.6Z" transform="translate(3.753 3.836)" fill="#99aab5"/>
    </g>
  </g>
</svg>
