<svg xmlns="http://www.w3.org/2000/svg" width="31.252" height="37.185" viewBox="0 0 31.252 37.185">
  <g id="Lock_Pop_Up" data-name="Lock Pop Up" transform="translate(-3638.5 70.313)">
    <path id="Path_68" data-name="Path 68" d="M23.412,6.1c-.945,0-2.022.023-3.268.049-1.509.032-3.219.068-5.189.074-2.084.006-3.87-.025-5.427-.052-1.093-.019-2.038-.035-2.879-.035-1.887,0-3.7.074-4.226.613-.558.577-.634,2.618-.634,4.539A14.378,14.378,0,0,0,5.729,21.06a12.9,12.9,0,0,0,9.4,4.179,12.9,12.9,0,0,0,9.4-4.179,14.378,14.378,0,0,0,3.941-9.773c0-1.888-.084-3.9-.7-4.521-.587-.586-2.437-.667-4.349-.667h0m0-1.789c5.845,0,6.841.847,6.841,6.977,0,8.354-6.772,15.741-15.126,15.741S0,19.641,0,11.287C0,3.049,1.455,4.434,14.4,4.434h.553C18.531,4.422,21.291,4.31,23.412,4.31Z" transform="translate(3639 -60.655)" fill="#707070"/>
    <path id="Path_68_-_Outline" data-name="Path 68 - Outline" d="M23.412,3.81c3,0,4.841.213,5.966,1.336,1.15,1.148,1.375,3.121,1.375,6.141a16.2,16.2,0,0,1-1.226,6.173,16.717,16.717,0,0,1-3.341,5.173A15.866,15.866,0,0,1,21.221,26.2a14.634,14.634,0,0,1-12.19,0,15.866,15.866,0,0,1-4.964-3.564A16.716,16.716,0,0,1,.726,17.46,16.2,16.2,0,0,1-.5,11.287c0-3.119.2-5.02,1.278-6.13S3.6,3.846,6.65,3.846c.862,0,1.815.017,2.919.036,1.545.027,3.317.058,5.378.051C16.9,3.927,18.6,3.891,20.1,3.859,21.355,3.833,22.442,3.81,23.412,3.81ZM15.126,26.527c7.928,0,14.626-6.979,14.626-15.241,0-3.173-.293-4.646-1.082-5.433C27.8,4.981,26.08,4.81,23.412,4.81c-.959,0-2.041.023-3.295.049-1.5.032-3.208.067-5.166.074-2.071.006-3.849-.024-5.4-.051-1.1-.019-2.048-.036-2.9-.036-2.711,0-4.336.16-5.154,1.006C.663,6.713.5,8.5.5,11.287.5,19.548,7.2,26.527,15.126,26.527ZM23.412,5.6c2.4,0,4.024.136,4.7.813.706.7.85,2.458.85,4.875A14.882,14.882,0,0,1,24.886,21.4a13.393,13.393,0,0,1-9.76,4.335A13.393,13.393,0,0,1,5.366,21.4,14.882,14.882,0,0,1,1.289,11.287c0-2.453.132-4.222.774-4.887.617-.638,2.212-.766,4.586-.766.846,0,1.792.016,2.887.035,1.551.027,3.329.058,5.417.051,1.965-.006,3.673-.042,5.18-.074C21.383,5.621,22.461,5.6,23.412,5.6Zm-8.285,19.14a12.4,12.4,0,0,0,9.034-4.022,13.873,13.873,0,0,0,3.8-9.429,23.9,23.9,0,0,0-.116-2.677c-.125-1.039-.33-1.38-.441-1.491-.521-.521-3.045-.521-4-.521s-2.014.023-3.257.049c-1.512.032-3.224.068-5.2.074-2.1.006-3.883-.025-5.437-.052-1.092-.019-2.033-.035-2.87-.035a24.65,24.65,0,0,0-2.569.1c-.991.113-1.244.3-1.3.36s-.268.354-.388,1.472a27.189,27.189,0,0,0-.1,2.72,13.873,13.873,0,0,0,3.8,9.429A12.4,12.4,0,0,0,15.126,24.739Z" transform="translate(3639 -60.655)" fill="#707070"/>
    <path id="Path_69" data-name="Path 69" d="M4.131,18.906h0c.549,0,1.207-.013,1.968-.027,1.181-.023,2.674-.051,4.481-.046,1.321,0,2.46.019,3.466.032.855.011,1.594.021,2.233.021a13.07,13.07,0,0,0,2.523-.147,15.631,15.631,0,0,0,.039-1.934l0-.255a9.833,9.833,0,0,0-2.446-7.1A8.109,8.109,0,0,0,10.556,7.2h-.074A7.217,7.217,0,0,0,4.97,9.861a10.263,10.263,0,0,0-2.351,6.69c0,.256,0,.5,0,.724,0,.57-.007,1.2.027,1.567a11.6,11.6,0,0,0,1.488.065m0,1.789c-3.57,0-3.3-.5-3.3-4.144,0-6.114,4.244-11.2,9.745-11.143S20.627,9.075,20.627,16.551c.065,4.8.223,4.1-10.052,4.071C7.626,20.613,5.568,20.695,4.131,20.695Z" transform="translate(3643.404 -75.22)" fill="#707070"/>
    <path id="Path_69_-_Outline" data-name="Path 69 - Outline" d="M4.131,21.195v-1c.561,0,1.224-.013,1.993-.027,1.076-.021,2.414-.046,4.006-.046h.446c1.315,0,2.451.019,3.453.032.86.011,1.6.021,2.25.021,1.895,0,3.074-.084,3.5-.511.389-.4.376-1.33.354-2.878l0-.234c0-7.773-4.937-10.595-9.557-10.643h-.088c-5.046,0-9.152,4.775-9.152,10.644,0,.254,0,.492,0,.717-.008,1.384-.012,2.219.31,2.543s1.19.385,2.493.385v1c-1.676,0-2.631-.105-3.2-.679-.615-.618-.61-1.554-.6-3.254,0-.223,0-.459,0-.711a12.551,12.551,0,0,1,2.9-8.177,9.47,9.47,0,0,1,7.252-3.467h.1a10.345,10.345,0,0,1,7.439,2.938c2.033,2.053,3.107,5.062,3.108,8.7l0,.223c.026,1.809.041,2.9-.642,3.595s-1.9.809-4.208.809c-.654,0-1.4-.01-2.263-.021-1-.013-2.133-.028-3.443-.032H10.13c-1.582,0-2.916.025-3.987.046C5.37,21.182,4.7,21.195,4.131,21.195Zm0-1.789h0a12.41,12.41,0,0,1-1.557-.07l-.392-.055-.036-.395c-.036-.392-.032-1.014-.029-1.615,0-.226,0-.466,0-.721A10.763,10.763,0,0,1,4.59,9.536,7.709,7.709,0,0,1,10.482,6.7h.077A8.6,8.6,0,0,1,16.748,9.1a10.313,10.313,0,0,1,2.59,7.443l0,.252a15.391,15.391,0,0,1-.045,2.02l-.052.323-.316.082a13.117,13.117,0,0,1-2.649.163c-.645,0-1.384-.01-2.24-.021-1.006-.013-2.143-.028-3.461-.032-1.8-.005-3.293.023-4.47.046C5.344,19.394,4.684,19.406,4.131,19.406ZM3.12,18.383c.234.014.56.024,1.011.024.544,0,1.2-.013,1.958-.027,1.182-.023,2.678-.051,4.493-.046,1.322,0,2.463.019,3.469.032.854.011,1.59.021,2.229.021a19.75,19.75,0,0,0,2.059-.075c.018-.409.01-1,0-1.5l0-.262a9.353,9.353,0,0,0-2.3-6.743A7.621,7.621,0,0,0,10.551,7.7h-.072a6.724,6.724,0,0,0-5.129,2.49,9.764,9.764,0,0,0-2.232,6.365c0,.257,0,.5,0,.726C3.114,17.648,3.112,18.053,3.12,18.383Z" transform="translate(3643.404 -75.22)" fill="#707070"/>
  </g>
</svg>
