<svg xmlns="http://www.w3.org/2000/svg" width="22" height="17.369" viewBox="0 0 22 17.369">
  <path id="Mail_White" data-name="Mail White" d="M19,0H3A2.949,2.949,0,0,0,0,2.895V14.474a2.949,2.949,0,0,0,3,2.895H19a2.949,2.949,0,0,0,3-2.895V2.895A2.949,2.949,0,0,0,19,0Zm0,1.93a1.023,1.023,0,0,1,.329.054L11,8.414,2.671,1.984A1.024,1.024,0,0,1,3,1.93Zm0,13.509H3a1.019,1.019,0,0,1-.707-.283A.948.948,0,0,1,2,14.474V3.937L10.375,10.4a1.028,1.028,0,0,0,1.25,0L20,3.937V14.474a.948.948,0,0,1-.293.682A1.019,1.019,0,0,1,19,15.439Z" fill="#fff"/>
</svg>
