<svg xmlns="http://www.w3.org/2000/svg" xmlns:xlink="http://www.w3.org/1999/xlink" xmlns:lucid="lucid" width="886" height="285"><g transform="translate(-7 -30)" lucid:page-tab-id="0_0"><path d="M540 178.5c0 49.7-40.3 90-90 90s-90-40.3-90-90 40.3-90 90-90 90 40.3 90 90z" stroke="#3a414a" fill="#fff"/><use xlink:href="#a" transform="matrix(1,0,0,1,365.00000000000017,93.50218262795391) translate(77.28395061728395 67.32638888888889)"/><use xlink:href="#b" transform="matrix(1,0,0,1,365.00000000000017,93.50218262795391) translate(39.7067901234568 80.65972222222221)"/><use xlink:href="#c" transform="matrix(1,0,0,1,365.00000000000017,93.50218262795391) translate(74.83024691358025 80.65972222222221)"/><use xlink:href="#d" transform="matrix(1,0,0,1,365.00000000000017,93.50218262795391) translate(81.29629629629629 93.99305555555554)"/><use xlink:href="#e" transform="matrix(1,0,0,1,365.00000000000017,93.50218262795391) translate(39.38271604938272 107.32638888888887)"/><use xlink:href="#f" transform="matrix(1,0,0,1,365.00000000000017,93.50218262795391) translate(93.6111111111111 107.32638888888887)"/><path d="M20 154.5a6 6 0 0 1 6-6h159a6 6 0 0 1 6 6v45a6 6 0 0 1-6 6H26a6 6 0 0 1-6-6z" stroke="#3a414a" fill="#fff"/><path d="M29 157.5a6 6 0 0 1 6-6h159a6 6 0 0 1 6 6v45a6 6 0 0 1-6 6H35a6 6 0 0 1-6-6z" stroke="#3a414a" fill="#fff"/><use xlink:href="#g" transform="matrix(1,0,0,1,42,148.5021826279539) translate(54.29012345679013 32.22222222222222)"/><path d="M700 154.5a6 6 0 0 1 6-6h159a6 6 0 0 1 6 6v45a6 6 0 0 1-6 6H706a6 6 0 0 1-6-6z" stroke="#3a414a" fill="#fff"/><path d="M709 157.5a6 6 0 0 1 6-6h159a6 6 0 0 1 6 6v45a6 6 0 0 1-6 6H715a6 6 0 0 1-6-6z" stroke="#3a414a" fill="#fff"/><use xlink:href="#h" transform="matrix(1,0,0,1,722.0000000000001,148.5021826279539) translate(50.8641975308642 32.22222222222222)"/><path d="M497.92 101.22v-33.5a6 6 0 0 1 6-6H784a6 6 0 0 1 6 6v63.93" stroke="#3a414a" fill="none"/><path d="M498.42 102.05l-.75-.5-.25-.14v-.2h1z" stroke="#3a414a" stroke-width=".05" fill="#3a414a"/><path d="M790 146.42l-4.64-14.27h9.28z" stroke="#3a414a" fill="#3a414a"/><use xlink:href="#i" transform="matrix(1,0,0,1,569.2831734028869,44.38864063960501) translate(0 8.888888888888888)"/><use xlink:href="#j" transform="matrix(1,0,0,1,569.2831734028869,44.38864063960501) translate(3.0864197530864192 8.888888888888888)"/><use xlink:href="#k" transform="matrix(1,0,0,1,569.2831734028869,44.38864063960501) translate(24.07407407407407 8.888888888888888)"/><use xlink:href="#l" transform="matrix(1,0,0,1,569.2831734028869,44.38864063960501) translate(82.62345679012344 8.888888888888888)"/><use xlink:href="#m" transform="matrix(1,0,0,1,569.2831734028869,44.38864063960501) translate(114.7222222222222 8.888888888888888)"/><path d="M401.7 101.48v-33.5a6 6 0 0 0-6-6H116a6 6 0 0 0-6 6v63.67" stroke="#3a414a" fill="none"/><path d="M402.2 101.67l-1 .6v-.8h1z" stroke="#3a414a" stroke-width=".05" fill="#3a414a"/><path d="M110 146.42l-4.64-14.27h9.28z" stroke="#3a414a" fill="#3a414a"/><use xlink:href="#n" transform="matrix(1,0,0,1,205.60245295979374,44.64277704544069) translate(0 8.888888888888888)"/><use xlink:href="#o" transform="matrix(1,0,0,1,205.60245295979374,44.64277704544069) translate(20.98765432098765 8.888888888888888)"/><use xlink:href="#p" transform="matrix(1,0,0,1,205.60245295979374,44.64277704544069) translate(62.34567901234566 8.888888888888888)"/><path d="M790 209.47v75.25a6 6 0 0 1-6 6H510.5a6 6 0 0 1-6-6V267.1" stroke="#3a414a" fill="none"/><path d="M790.5 209.48h-1v-.5h1z" stroke="#3a414a" stroke-width=".05" fill="#3a414a"/><path d="M504.5 252.34l4.63 14.26h-9.27z" stroke="#3a414a" fill="#3a414a"/><g><use xlink:href="#q" transform="matrix(1,0,0,1,593.2788957871851,294.71831154986666) translate(0 8.888888888888888)"/><use xlink:href="#r" transform="matrix(1,0,0,1,593.2788957871851,294.71831154986666) translate(44.41358024691357 8.888888888888888)"/><use xlink:href="#s" transform="matrix(1,0,0,1,593.2788957871851,294.71831154986666) translate(60.43209876543209 8.888888888888888)"/></g><path d="M110 209.47v75.45a6 6 0 0 0 6 6h273.77a6 6 0 0 0 6-6V267.3" stroke="#3a414a" fill="none"/><path d="M110.5 209.48h-1v-.5h1z" stroke="#3a414a" stroke-width=".05" fill="#3a414a"/><path d="M395.77 252.54l4.63 14.26h-9.27z" stroke="#3a414a" fill="#3a414a"/><g><use xlink:href="#t" transform="matrix(1,0,0,1,175.18598309580665,294.9173228346455) translate(0 8.888888888888888)"/><use xlink:href="#u" transform="matrix(1,0,0,1,175.18598309580665,294.9173228346455) translate(25.895061728395056 8.888888888888888)"/><use xlink:href="#l" transform="matrix(1,0,0,1,175.18598309580665,294.9173228346455) translate(84.44444444444443 8.888888888888888)"/><use xlink:href="#m" transform="matrix(1,0,0,1,175.18598309580665,294.9173228346455) translate(116.54320987654319 8.888888888888888)"/></g><defs><path fill="#3a414a" d="M101-251c68 0 85 55 85 127S166 4 100 4C33 4 14-52 14-124c0-73 17-127 87-127zm-1 229c47 0 54-49 54-102s-4-102-53-102c-51 0-55 48-55 102 0 53 5 102 54 102" id="v"/><path fill="#3a414a" d="M33 0v-38h34V0H33" id="w"/><g id="a"><use transform="matrix(0.030864197530864192,0,0,0.030864197530864192,0,0)" xlink:href="#v"/><use transform="matrix(0.030864197530864192,0,0,0.030864197530864192,6.1728395061728385,0)" xlink:href="#w"/><use transform="matrix(0.030864197530864192,0,0,0.030864197530864192,9.259259259259258,0)" xlink:href="#v"/></g><path fill="#3a414a" d="M140-251c81 0 123 46 123 126C263-46 219 4 140 4 59 4 17-45 17-125s42-126 123-126zm0 227c63 0 89-41 89-101s-29-99-89-99c-61 0-89 39-89 99S79-25 140-24" id="x"/><path fill="#3a414a" d="M117-194c89-4 53 116 60 194h-32v-121c0-31-8-49-39-48C34-167 62-67 57 0H25l-1-190h30c1 10-1 24 2 32 11-22 29-35 61-36" id="y"/><path fill="#3a414a" d="M24 0v-261h32V0H24" id="z"/><path fill="#3a414a" d="M24-231v-30h32v30H24zM24 0v-190h32V0H24" id="A"/><path fill="#3a414a" d="M100-194c63 0 86 42 84 106H49c0 40 14 67 53 68 26 1 43-12 49-29l28 8c-11 28-37 45-77 45C44 4 14-33 15-96c1-61 26-98 85-98zm52 81c6-60-76-77-97-28-3 7-6 17-6 28h103" id="B"/><g id="b"><use transform="matrix(0.030864197530864192,0,0,0.030864197530864192,0,0)" xlink:href="#x"/><use transform="matrix(0.030864197530864192,0,0,0.030864197530864192,8.641975308641975,0)" xlink:href="#y"/><use transform="matrix(0.030864197530864192,0,0,0.030864197530864192,14.814814814814813,0)" xlink:href="#z"/><use transform="matrix(0.030864197530864192,0,0,0.030864197530864192,17.253086419753085,0)" xlink:href="#A"/><use transform="matrix(0.030864197530864192,0,0,0.030864197530864192,19.691358024691358,0)" xlink:href="#y"/><use transform="matrix(0.030864197530864192,0,0,0.030864197530864192,25.864197530864196,0)" xlink:href="#B"/></g><path fill="#3a414a" d="M33 0v-248h34V0H33" id="C"/><path fill="#3a414a" d="M101-234c-31-9-42 10-38 44h38v23H63V0H32v-167H5v-23h27c-7-52 17-82 69-68v24" id="D"/><path fill="#3a414a" d="M100-194c62-1 85 37 85 99 1 63-27 99-86 99S16-35 15-95c0-66 28-99 85-99zM99-20c44 1 53-31 53-75 0-43-8-75-51-75s-53 32-53 75 10 74 51 75" id="E"/><path fill="#3a414a" d="M114-163C36-179 61-72 57 0H25l-1-190h30c1 12-1 29 2 39 6-27 23-49 58-41v29" id="F"/><path fill="#3a414a" d="M210-169c-67 3-38 105-44 169h-31v-121c0-29-5-50-35-48C34-165 62-65 56 0H25l-1-190h30c1 10-1 24 2 32 10-44 99-50 107 0 11-21 27-35 58-36 85-2 47 119 55 194h-31v-121c0-29-5-49-35-48" id="G"/><path fill="#3a414a" d="M141-36C126-15 110 5 73 4 37 3 15-17 15-53c-1-64 63-63 125-63 3-35-9-54-41-54-24 1-41 7-42 31l-33-3c5-37 33-52 76-52 45 0 72 20 72 64v82c-1 20 7 32 28 27v20c-31 9-61-2-59-35zM48-53c0 20 12 33 32 33 41-3 63-29 60-74-43 2-92-5-92 41" id="H"/><path fill="#3a414a" d="M59-47c-2 24 18 29 38 22v24C64 9 27 4 27-40v-127H5v-23h24l9-43h21v43h35v23H59v120" id="I"/><g id="c"><use transform="matrix(0.030864197530864192,0,0,0.030864197530864192,0,0)" xlink:href="#C"/><use transform="matrix(0.030864197530864192,0,0,0.030864197530864192,3.0864197530864192,0)" xlink:href="#y"/><use transform="matrix(0.030864197530864192,0,0,0.030864197530864192,9.259259259259258,0)" xlink:href="#D"/><use transform="matrix(0.030864197530864192,0,0,0.030864197530864192,12.345679012345677,0)" xlink:href="#E"/><use transform="matrix(0.030864197530864192,0,0,0.030864197530864192,18.518518518518515,0)" xlink:href="#F"/><use transform="matrix(0.030864197530864192,0,0,0.030864197530864192,22.191358024691354,0)" xlink:href="#G"/><use transform="matrix(0.030864197530864192,0,0,0.030864197530864192,31.419753086419746,0)" xlink:href="#H"/><use transform="matrix(0.030864197530864192,0,0,0.030864197530864192,37.59259259259258,0)" xlink:href="#I"/><use transform="matrix(0.030864197530864192,0,0,0.030864197530864192,40.679012345679,0)" xlink:href="#A"/><use transform="matrix(0.030864197530864192,0,0,0.030864197530864192,43.11728395061727,0)" xlink:href="#E"/><use transform="matrix(0.030864197530864192,0,0,0.030864197530864192,49.29012345679011,0)" xlink:href="#y"/></g><path fill="#3a414a" d="M234-2c-28 10-62 0-77-18C117 19 8 12 13-65c3-43 29-61 60-76-25-40-17-114 47-108 35 3 59 15 59 50 0 44-40 53-71 69 14 26 32 50 51 72 14-21 24-43 30-72l26 8c-9 33-21 57-38 82 13 13 33 22 57 15v23zM97-151c25-10 52-18 56-48-1-18-13-29-33-29-42 0-39 50-23 77zM42-66c-3 51 71 58 98 28-20-24-41-51-56-80-23 10-40 24-42 52" id="J"/><use transform="matrix(0.030864197530864192,0,0,0.030864197530864192,0,0)" xlink:href="#J" id="d"/><path fill="#3a414a" d="M205 0l-28-72H64L36 0H1l101-248h38L239 0h-34zm-38-99l-47-123c-12 45-31 82-46 123h93" id="K"/><path fill="#3a414a" d="M85-194c31 0 48 13 60 33l-1-100h32l1 261h-30c-2-10 0-23-3-31C134-8 116 4 85 4 32 4 16-35 15-94c0-66 23-100 70-100zm9 24c-40 0-46 34-46 75 0 40 6 74 45 74 42 0 51-32 51-76 0-42-9-74-50-73" id="L"/><path fill="#3a414a" d="M135-143c-3-34-86-38-87 0 15 53 115 12 119 90S17 21 10-45l28-5c4 36 97 45 98 0-10-56-113-15-118-90-4-57 82-63 122-42 12 7 21 19 24 35" id="M"/><g id="e"><use transform="matrix(0.030864197530864192,0,0,0.030864197530864192,0,0)" xlink:href="#K"/><use transform="matrix(0.030864197530864192,0,0,0.030864197530864192,7.4074074074074066,0)" xlink:href="#L"/><use transform="matrix(0.030864197530864192,0,0,0.030864197530864192,13.580246913580245,0)" xlink:href="#G"/><use transform="matrix(0.030864197530864192,0,0,0.030864197530864192,22.80864197530864,0)" xlink:href="#A"/><use transform="matrix(0.030864197530864192,0,0,0.030864197530864192,25.24691358024691,0)" xlink:href="#M"/><use transform="matrix(0.030864197530864192,0,0,0.030864197530864192,30.802469135802465,0)" xlink:href="#M"/><use transform="matrix(0.030864197530864192,0,0,0.030864197530864192,36.35802469135802,0)" xlink:href="#A"/><use transform="matrix(0.030864197530864192,0,0,0.030864197530864192,38.79629629629629,0)" xlink:href="#E"/><use transform="matrix(0.030864197530864192,0,0,0.030864197530864192,44.969135802469125,0)" xlink:href="#y"/></g><path fill="#3a414a" d="M185-189c-5-48-123-54-124 2 14 75 158 14 163 119 3 78-121 87-175 55-17-10-28-26-33-46l33-7c5 56 141 63 141-1 0-78-155-14-162-118-5-82 145-84 179-34 5 7 8 16 11 25" id="N"/><path fill="#3a414a" d="M179-190L93 31C79 59 56 82 12 73V49c39 6 53-20 64-50L1-190h34L92-34l54-156h33" id="O"/><g id="f"><use transform="matrix(0.030864197530864192,0,0,0.030864197530864192,0,0)" xlink:href="#N"/><use transform="matrix(0.030864197530864192,0,0,0.030864197530864192,7.4074074074074066,0)" xlink:href="#O"/><use transform="matrix(0.030864197530864192,0,0,0.030864197530864192,12.962962962962962,0)" xlink:href="#M"/><use transform="matrix(0.030864197530864192,0,0,0.030864197530864192,18.518518518518515,0)" xlink:href="#I"/><use transform="matrix(0.030864197530864192,0,0,0.030864197530864192,21.604938271604937,0)" xlink:href="#B"/><use transform="matrix(0.030864197530864192,0,0,0.030864197530864192,27.777777777777775,0)" xlink:href="#G"/></g><g id="g"><use transform="matrix(0.030864197530864192,0,0,0.030864197530864192,0,0)" xlink:href="#K"/><use transform="matrix(0.030864197530864192,0,0,0.030864197530864192,7.4074074074074066,0)" xlink:href="#L"/><use transform="matrix(0.030864197530864192,0,0,0.030864197530864192,13.580246913580245,0)" xlink:href="#G"/><use transform="matrix(0.030864197530864192,0,0,0.030864197530864192,22.80864197530864,0)" xlink:href="#A"/><use transform="matrix(0.030864197530864192,0,0,0.030864197530864192,25.24691358024691,0)" xlink:href="#y"/></g><path fill="#3a414a" d="M84 4C-5 8 30-112 23-190h32v120c0 31 7 50 39 49 72-2 45-101 50-169h31l1 190h-30c-1-10 1-25-2-33-11 22-28 36-60 37" id="P"/><g id="h"><use transform="matrix(0.030864197530864192,0,0,0.030864197530864192,0,0)" xlink:href="#N"/><use transform="matrix(0.030864197530864192,0,0,0.030864197530864192,7.4074074074074066,0)" xlink:href="#I"/><use transform="matrix(0.030864197530864192,0,0,0.030864197530864192,10.493827160493826,0)" xlink:href="#P"/><use transform="matrix(0.030864197530864192,0,0,0.030864197530864192,16.666666666666664,0)" xlink:href="#L"/><use transform="matrix(0.030864197530864192,0,0,0.030864197530864192,22.839506172839503,0)" xlink:href="#B"/><use transform="matrix(0.030864197530864192,0,0,0.030864197530864192,29.01234567901234,0)" xlink:href="#y"/><use transform="matrix(0.030864197530864192,0,0,0.030864197530864192,35.185185185185176,0)" xlink:href="#I"/></g><path fill="#333" d="M143 4C61 4 22-44 18-125c-5-107 100-154 193-111 17 8 29 25 37 43l-32 9c-13-25-37-40-76-40-61 0-88 39-88 99 0 61 29 100 91 101 35 0 62-11 79-27v-45h-74v-28h105v86C228-13 192 4 143 4" id="Q"/><path fill="#333" d="M100-194c63 0 86 42 84 106H49c0 40 14 67 53 68 26 1 43-12 49-29l28 8c-11 28-37 45-77 45C44 4 14-33 15-96c1-61 26-98 85-98zm52 81c6-60-76-77-97-28-3 7-6 17-6 28h103" id="R"/><path fill="#333" d="M59-47c-2 24 18 29 38 22v24C64 9 27 4 27-40v-127H5v-23h24l9-43h21v43h35v23H59v120" id="S"/><g id="j"><use transform="matrix(0.030864197530864192,0,0,0.030864197530864192,0,0)" xlink:href="#Q"/><use transform="matrix(0.030864197530864192,0,0,0.030864197530864192,8.641975308641975,0)" xlink:href="#R"/><use transform="matrix(0.030864197530864192,0,0,0.030864197530864192,14.814814814814813,0)" xlink:href="#S"/></g><path fill="#333" d="M33 0v-248h34V0H33" id="T"/><path fill="#333" d="M117-194c89-4 53 116 60 194h-32v-121c0-31-8-49-39-48C34-167 62-67 57 0H25l-1-190h30c1 10-1 24 2 32 11-22 29-35 61-36" id="U"/><path fill="#333" d="M101-234c-31-9-42 10-38 44h38v23H63V0H32v-167H5v-23h27c-7-52 17-82 69-68v24" id="V"/><path fill="#333" d="M114-163C36-179 61-72 57 0H25l-1-190h30c1 12-1 29 2 39 6-27 23-49 58-41v29" id="W"/><path fill="#333" d="M100-194c62-1 85 37 85 99 1 63-27 99-86 99S16-35 15-95c0-66 28-99 85-99zM99-20c44 1 53-31 53-75 0-43-8-75-51-75s-53 32-53 75 10 74 51 75" id="X"/><path fill="#333" d="M210-169c-67 3-38 105-44 169h-31v-121c0-29-5-50-35-48C34-165 62-65 56 0H25l-1-190h30c1 10-1 24 2 32 10-44 99-50 107 0 11-21 27-35 58-36 85-2 47 119 55 194h-31v-121c0-29-5-49-35-48" id="Y"/><path fill="#333" d="M141-36C126-15 110 5 73 4 37 3 15-17 15-53c-1-64 63-63 125-63 3-35-9-54-41-54-24 1-41 7-42 31l-33-3c5-37 33-52 76-52 45 0 72 20 72 64v82c-1 20 7 32 28 27v20c-31 9-61-2-59-35zM48-53c0 20 12 33 32 33 41-3 63-29 60-74-43 2-92-5-92 41" id="Z"/><path fill="#333" d="M24-231v-30h32v30H24zM24 0v-190h32V0H24" id="aa"/><g id="k"><use transform="matrix(0.030864197530864192,0,0,0.030864197530864192,0,0)" xlink:href="#T"/><use transform="matrix(0.030864197530864192,0,0,0.030864197530864192,3.0864197530864192,0)" xlink:href="#U"/><use transform="matrix(0.030864197530864192,0,0,0.030864197530864192,9.259259259259258,0)" xlink:href="#V"/><use transform="matrix(0.030864197530864192,0,0,0.030864197530864192,12.345679012345677,0)" xlink:href="#W"/><use transform="matrix(0.030864197530864192,0,0,0.030864197530864192,16.018518518518515,0)" xlink:href="#X"/><use transform="matrix(0.030864197530864192,0,0,0.030864197530864192,22.191358024691354,0)" xlink:href="#Y"/><use transform="matrix(0.030864197530864192,0,0,0.030864197530864192,31.419753086419746,0)" xlink:href="#Z"/><use transform="matrix(0.030864197530864192,0,0,0.030864197530864192,37.59259259259258,0)" xlink:href="#S"/><use transform="matrix(0.030864197530864192,0,0,0.030864197530864192,40.679012345679,0)" xlink:href="#aa"/><use transform="matrix(0.030864197530864192,0,0,0.030864197530864192,43.11728395061727,0)" xlink:href="#X"/><use transform="matrix(0.030864197530864192,0,0,0.030864197530864192,49.29012345679011,0)" xlink:href="#U"/></g><path fill="#333" d="M205 0l-28-72H64L36 0H1l101-248h38L239 0h-34zm-38-99l-47-123c-12 45-31 82-46 123h93" id="ab"/><path fill="#333" d="M115-194c53 0 69 39 70 98 0 66-23 100-70 100C84 3 66-7 56-30L54 0H23l1-261h32v101c10-23 28-34 59-34zm-8 174c40 0 45-34 45-75 0-40-5-75-45-74-42 0-51 32-51 76 0 43 10 73 51 73" id="ac"/><path fill="#333" d="M84 4C-5 8 30-112 23-190h32v120c0 31 7 50 39 49 72-2 45-101 50-169h31l1 190h-30c-1-10 1-25-2-33-11 22-28 36-60 37" id="ad"/><g id="l"><use transform="matrix(0.030864197530864192,0,0,0.030864197530864192,0,0)" xlink:href="#ab"/><use transform="matrix(0.030864197530864192,0,0,0.030864197530864192,7.4074074074074066,0)" xlink:href="#ac"/><use transform="matrix(0.030864197530864192,0,0,0.030864197530864192,13.580246913580245,0)" xlink:href="#X"/><use transform="matrix(0.030864197530864192,0,0,0.030864197530864192,19.75308641975308,0)" xlink:href="#ad"/><use transform="matrix(0.030864197530864192,0,0,0.030864197530864192,25.92592592592592,0)" xlink:href="#S"/></g><path fill="#333" d="M185-189c-5-48-123-54-124 2 14 75 158 14 163 119 3 78-121 87-175 55-17-10-28-26-33-46l33-7c5 56 141 63 141-1 0-78-155-14-162-118-5-82 145-84 179-34 5 7 8 16 11 25" id="ae"/><path fill="#333" d="M96-169c-40 0-48 33-48 73s9 75 48 75c24 0 41-14 43-38l32 2c-6 37-31 61-74 61-59 0-76-41-82-99-10-93 101-131 147-64 4 7 5 14 7 22l-32 3c-4-21-16-35-41-35" id="af"/><path fill="#333" d="M106-169C34-169 62-67 57 0H25v-261h32l-1 103c12-21 28-36 61-36 89 0 53 116 60 194h-32v-121c2-32-8-49-39-48" id="ag"/><path fill="#333" d="M24 0v-261h32V0H24" id="ah"/><g id="m"><use transform="matrix(0.030864197530864192,0,0,0.030864197530864192,0,0)" xlink:href="#ae"/><use transform="matrix(0.030864197530864192,0,0,0.030864197530864192,7.4074074074074066,0)" xlink:href="#af"/><use transform="matrix(0.030864197530864192,0,0,0.030864197530864192,12.962962962962962,0)" xlink:href="#ag"/><use transform="matrix(0.030864197530864192,0,0,0.030864197530864192,19.1358024691358,0)" xlink:href="#X"/><use transform="matrix(0.030864197530864192,0,0,0.030864197530864192,25.30864197530864,0)" xlink:href="#X"/><use transform="matrix(0.030864197530864192,0,0,0.030864197530864192,31.481481481481477,0)" xlink:href="#ah"/></g><g id="n"><use transform="matrix(0.030864197530864192,0,0,0.030864197530864192,0,0)" xlink:href="#Q"/><use transform="matrix(0.030864197530864192,0,0,0.030864197530864192,8.641975308641975,0)" xlink:href="#R"/><use transform="matrix(0.030864197530864192,0,0,0.030864197530864192,14.814814814814813,0)" xlink:href="#S"/></g><path fill="#333" d="M85-194c31 0 48 13 60 33l-1-100h32l1 261h-30c-2-10 0-23-3-31C134-8 116 4 85 4 32 4 16-35 15-94c0-66 23-100 70-100zm9 24c-40 0-46 34-46 75 0 40 6 74 45 74 42 0 51-32 51-76 0-42-9-74-50-73" id="ai"/><g id="o"><use transform="matrix(0.030864197530864192,0,0,0.030864197530864192,0,0)" xlink:href="#ae"/><use transform="matrix(0.030864197530864192,0,0,0.030864197530864192,7.4074074074074066,0)" xlink:href="#S"/><use transform="matrix(0.030864197530864192,0,0,0.030864197530864192,10.493827160493826,0)" xlink:href="#ad"/><use transform="matrix(0.030864197530864192,0,0,0.030864197530864192,16.666666666666664,0)" xlink:href="#ai"/><use transform="matrix(0.030864197530864192,0,0,0.030864197530864192,22.839506172839503,0)" xlink:href="#R"/><use transform="matrix(0.030864197530864192,0,0,0.030864197530864192,29.01234567901234,0)" xlink:href="#U"/><use transform="matrix(0.030864197530864192,0,0,0.030864197530864192,35.185185185185176,0)" xlink:href="#S"/></g><path fill="#333" d="M30-248c118-7 216 8 213 122C240-48 200 0 122 0H30v-248zM63-27c89 8 146-16 146-99s-60-101-146-95v194" id="aj"/><path fill="#333" d="M135-143c-3-34-86-38-87 0 15 53 115 12 119 90S17 21 10-45l28-5c4 36 97 45 98 0-10-56-113-15-118-90-4-57 82-63 122-42 12 7 21 19 24 35" id="ak"/><g id="p"><use transform="matrix(0.030864197530864192,0,0,0.030864197530864192,0,0)" xlink:href="#aj"/><use transform="matrix(0.030864197530864192,0,0,0.030864197530864192,7.993827160493826,0)" xlink:href="#R"/><use transform="matrix(0.030864197530864192,0,0,0.030864197530864192,14.166666666666664,0)" xlink:href="#S"/><use transform="matrix(0.030864197530864192,0,0,0.030864197530864192,17.25308641975308,0)" xlink:href="#Z"/><use transform="matrix(0.030864197530864192,0,0,0.030864197530864192,23.42592592592592,0)" xlink:href="#aa"/><use transform="matrix(0.030864197530864192,0,0,0.030864197530864192,25.864197530864192,0)" xlink:href="#ah"/><use transform="matrix(0.030864197530864192,0,0,0.030864197530864192,28.302469135802465,0)" xlink:href="#ak"/></g><path fill="#333" d="M233-177c-1 41-23 64-60 70L243 0h-38l-65-103H63V0H30v-248c88 3 205-21 203 71zM63-129c60-2 137 13 137-47 0-61-80-42-137-45v92" id="al"/><path fill="#333" d="M145-31C134-9 116 4 85 4 32 4 16-35 15-94c0-59 17-99 70-100 32-1 48 14 60 33 0-11-1-24 2-32h30l-1 268h-32zM93-21c41 0 51-33 51-76s-8-73-50-73c-40 0-46 35-46 75s5 74 45 74" id="am"/><g id="q"><use transform="matrix(0.030864197530864192,0,0,0.030864197530864192,0,0)" xlink:href="#al"/><use transform="matrix(0.030864197530864192,0,0,0.030864197530864192,7.993827160493826,0)" xlink:href="#R"/><use transform="matrix(0.030864197530864192,0,0,0.030864197530864192,14.166666666666664,0)" xlink:href="#am"/><use transform="matrix(0.030864197530864192,0,0,0.030864197530864192,20.339506172839503,0)" xlink:href="#ad"/><use transform="matrix(0.030864197530864192,0,0,0.030864197530864192,26.51234567901234,0)" xlink:href="#R"/><use transform="matrix(0.030864197530864192,0,0,0.030864197530864192,32.685185185185176,0)" xlink:href="#ak"/><use transform="matrix(0.030864197530864192,0,0,0.030864197530864192,38.24074074074073,0)" xlink:href="#S"/></g><g id="r"><use transform="matrix(0.030864197530864192,0,0,0.030864197530864192,0,0)" xlink:href="#V"/><use transform="matrix(0.030864197530864192,0,0,0.030864197530864192,3.0864197530864192,0)" xlink:href="#X"/><use transform="matrix(0.030864197530864192,0,0,0.030864197530864192,9.259259259259258,0)" xlink:href="#W"/></g><g id="s"><use transform="matrix(0.030864197530864192,0,0,0.030864197530864192,0,0)" xlink:href="#ab"/><use transform="matrix(0.030864197530864192,0,0,0.030864197530864192,7.4074074074074066,0)" xlink:href="#ai"/><use transform="matrix(0.030864197530864192,0,0,0.030864197530864192,13.580246913580245,0)" xlink:href="#Y"/><use transform="matrix(0.030864197530864192,0,0,0.030864197530864192,22.80864197530864,0)" xlink:href="#aa"/><use transform="matrix(0.030864197530864192,0,0,0.030864197530864192,25.24691358024691,0)" xlink:href="#ak"/><use transform="matrix(0.030864197530864192,0,0,0.030864197530864192,30.802469135802465,0)" xlink:href="#ak"/><use transform="matrix(0.030864197530864192,0,0,0.030864197530864192,36.35802469135802,0)" xlink:href="#aa"/><use transform="matrix(0.030864197530864192,0,0,0.030864197530864192,38.79629629629629,0)" xlink:href="#X"/><use transform="matrix(0.030864197530864192,0,0,0.030864197530864192,44.969135802469125,0)" xlink:href="#U"/></g><path fill="#333" d="M108 0H70L1-190h34L89-25l56-165h34" id="an"/><g id="t"><use transform="matrix(0.030864197530864192,0,0,0.030864197530864192,0,0)" xlink:href="#Q"/><use transform="matrix(0.030864197530864192,0,0,0.030864197530864192,8.641975308641975,0)" xlink:href="#aa"/><use transform="matrix(0.030864197530864192,0,0,0.030864197530864192,11.080246913580247,0)" xlink:href="#an"/><use transform="matrix(0.030864197530864192,0,0,0.030864197530864192,16.6358024691358,0)" xlink:href="#R"/></g><g id="u"><use transform="matrix(0.030864197530864192,0,0,0.030864197530864192,0,0)" xlink:href="#T"/><use transform="matrix(0.030864197530864192,0,0,0.030864197530864192,3.0864197530864192,0)" xlink:href="#U"/><use transform="matrix(0.030864197530864192,0,0,0.030864197530864192,9.259259259259258,0)" xlink:href="#V"/><use transform="matrix(0.030864197530864192,0,0,0.030864197530864192,12.345679012345677,0)" xlink:href="#X"/><use transform="matrix(0.030864197530864192,0,0,0.030864197530864192,18.518518518518515,0)" xlink:href="#W"/><use transform="matrix(0.030864197530864192,0,0,0.030864197530864192,22.191358024691354,0)" xlink:href="#Y"/><use transform="matrix(0.030864197530864192,0,0,0.030864197530864192,31.419753086419746,0)" xlink:href="#Z"/><use transform="matrix(0.030864197530864192,0,0,0.030864197530864192,37.59259259259258,0)" xlink:href="#S"/><use transform="matrix(0.030864197530864192,0,0,0.030864197530864192,40.679012345679,0)" xlink:href="#aa"/><use transform="matrix(0.030864197530864192,0,0,0.030864197530864192,43.11728395061727,0)" xlink:href="#X"/><use transform="matrix(0.030864197530864192,0,0,0.030864197530864192,49.29012345679011,0)" xlink:href="#U"/></g></defs></g></svg>