<svg xmlns="http://www.w3.org/2000/svg" xmlns:xlink="http://www.w3.org/1999/xlink" xmlns:lucid="lucid" width="799" height="1187"><g transform="translate(-730 0)" lucid:page-tab-id="0_0"><path d="M1180 49.92c0 22.1-17.9 40-40 40s-40-17.9-40-40 17.9-40 40-40 40 17.9 40 40z" stroke="#3a414a" fill="#fff"/><path d="M1170 49.92c0 16.57-13.43 30-30 30s-30-13.43-30-30 13.43-30 30-30 30 13.43 30 30z" stroke="#3a414a" fill="#fff"/><use xlink:href="#a" transform="matrix(1,0,0,1,1115,24.917322834645574) translate(13.287037037037038 27.638888888888886)"/><path d="M1140 90.92v22.1" stroke="#3a414a" fill="none"/><path d="M1140 90.42l.5-.02v.53h-1v-.54z" stroke="#3a414a" stroke-width=".05" fill="#3a414a"/><path d="M1140 127.8l-4.64-14.27h9.28z" stroke="#3a414a" fill="#3a414a"/><path d="M1200 189.92c0 33.13-26.86 60-60 60s-60-26.87-60-60c0-33.14 26.86-60 60-60s60 26.86 60 60z" stroke="#3a414a" fill="#fff"/><use xlink:href="#b" transform="matrix(1,0,0,1,1100,129.91732283464557) translate(32.28395061728395 48.888888888888886)"/><use xlink:href="#c" transform="matrix(1,0,0,1,1100,129.91732283464557) translate(29.645061728395063 62.222222222222214)"/><use xlink:href="#d" transform="matrix(1,0,0,1,1100,129.91732283464557) translate(1.5740740740740833 75.55555555555554)"/><use xlink:href="#e" transform="matrix(1,0,0,1,1100,129.91732283464557) translate(38.58024691358025 75.55555555555554)"/><path d="M1140 250.92v22.6" stroke="#3a414a" fill="none"/><path d="M1140 250.42l.5-.02v.53h-1v-.53z" stroke="#3a414a" stroke-width=".05" fill="#3a414a"/><path d="M1140 288.3l-4.64-14.27h9.28z" stroke="#3a414a" fill="#3a414a"/><path d="M1200 1000c0 33.14-26.86 60-60 60s-60-26.86-60-60 26.86-60 60-60 60 26.86 60 60z" stroke="#3a414a" fill="#fff"/><use xlink:href="#f" transform="matrix(1,0,0,1,1100,940) translate(32.28395061728395 55.55555555555556)"/><use xlink:href="#g" transform="matrix(1,0,0,1,1100,940) translate(28.611111111111114 68.88888888888889)"/><path d="M1140 1061v22.12" stroke="#3a414a" fill="none"/><path d="M1140 1060.5l.5-.02v.53h-1v-.52z" stroke="#3a414a" stroke-width=".05" fill="#3a414a"/><path d="M1140 1097.88l-4.64-14.26h9.28z" stroke="#3a414a" fill="#3a414a"/><path d="M1180 1140c0 22.1-17.9 40-40 40s-40-17.9-40-40 17.9-40 40-40 40 17.9 40 40z" stroke="#3a414a" fill="#282c33"/><path d="M1170 1140c0 16.57-13.43 30-30 30s-30-13.43-30-30 13.43-30 30-30 30 13.43 30 30z" stroke="#3a414a" fill="#fff"/><use xlink:href="#h" transform="matrix(1,0,0,1,1115,1115) translate(13.580246913580249 27.638888888888886)"/><path d="M740 455.92a6 6 0 0 1 6-6h159a6 6 0 0 1 6 6v45a6 6 0 0 1-6 6H746a6 6 0 0 1-6-6z" stroke="#3a414a" fill="#fff"/><path d="M749 458.92a6 6 0 0 1 6-6h159a6 6 0 0 1 6 6v45a6 6 0 0 1-6 6H755a6 6 0 0 1-6-6z" stroke="#3a414a" fill="#fff"/><use xlink:href="#i" transform="matrix(1,0,0,1,762,449.9173228346456) translate(37.36111111111112 32.22222222222222)"/><path d="M794.97 448.97V112.52a6 6 0 0 1 6-6h290.95a6 6 0 0 1 6 6v17.62" stroke="#3a414a" fill="none"/><path d="M795.47 449.47h-1v-.5h1z" stroke="#3a414a" stroke-width=".05" fill="#3a414a"/><path d="M1097.92 144.9l-4.64-14.26h9.27z" stroke="#3a414a" fill="#3a414a"/><use xlink:href="#j" transform="matrix(1,0,0,1,867.7496770537831,89.1884160385317) translate(0 8.888888888888888)"/><use xlink:href="#k" transform="matrix(1,0,0,1,867.7496770537831,89.1884160385317) translate(26.882716049382715 8.888888888888888)"/><use xlink:href="#l" transform="matrix(1,0,0,1,867.7496770537831,89.1884160385317) translate(85.43209876543207 8.888888888888888)"/><use xlink:href="#m" transform="matrix(1,0,0,1,867.7496770537831,89.1884160385317) translate(117.53086419753083 8.888888888888888)"/><path d="M1079 189.92H836a6 6 0 0 0-6 6v237.15" stroke="#3a414a" fill="none"/><path d="M1079.5 189.92l.02.5h-.53v-1h.52z" stroke="#3a414a" stroke-width=".05" fill="#3a414a"/><path d="M830 447.83l-4.64-14.26h9.28z" stroke="#3a414a" fill="#3a414a"/><use xlink:href="#n" transform="matrix(1,0,0,1,885.3724199217057,172.58398950131223) translate(0 8.888888888888888)"/><use xlink:href="#k" transform="matrix(1,0,0,1,885.3724199217057,172.58398950131223) translate(20.98765432098765 8.888888888888888)"/><use xlink:href="#l" transform="matrix(1,0,0,1,885.3724199217057,172.58398950131223) translate(79.53703703703701 8.888888888888888)"/><use xlink:href="#o" transform="matrix(1,0,0,1,885.3724199217057,172.58398950131223) translate(111.63580246913577 8.888888888888888)"/><path d="M1200 350.92c0 33.13-26.86 60-60 60s-60-26.87-60-60c0-33.14 26.86-60 60-60s60 26.86 60 60z" stroke="#3a414a" fill="#fff"/><use xlink:href="#p" transform="matrix(1,0,0,1,1100,290.9173228346456) translate(32.28395061728395 55.55555555555556)"/><use xlink:href="#q" transform="matrix(1,0,0,1,1100,290.9173228346456) translate(10.509259259259263 68.88888888888889)"/><use xlink:href="#r" transform="matrix(1,0,0,1,1100,290.9173228346456) translate(42.361111111111114 68.88888888888889)"/><path d="M1140 411.92v21.1" stroke="#3a414a" fill="none"/><path d="M1140 411.42l.5-.02v.53h-1v-.53z" stroke="#3a414a" stroke-width=".05" fill="#3a414a"/><path d="M1140 447.8l-4.64-14.27h9.28z" stroke="#3a414a" fill="#3a414a"/><path d="M851.97 448.94v-92.02a6 6 0 0 1 6-6h205.15" stroke="#3a414a" fill="none"/><path d="M852.47 449.44h-1v-.5h1z" stroke="#3a414a" stroke-width=".05" fill="#3a414a"/><path d="M1077.88 350.92l-14.26 4.63v-9.27z" stroke="#3a414a" fill="#3a414a"/><use xlink:href="#s" transform="matrix(1,0,0,1,939.8086957316996,333.5839895013122) translate(0 8.888888888888888)"/><use xlink:href="#t" transform="matrix(1,0,0,1,939.8086957316996,333.5839895013122) translate(30.216049382716044 8.888888888888888)"/><path d="M1340 326a6 6 0 0 1 6-6h168a6 6 0 0 1 6 6v48a6 6 0 0 1-6 6h-168a6 6 0 0 1-6-6z" fill="#fff"/><path d="M1520 320h-174a6 6 0 0 0-6 6v48a6 6 0 0 0 6 6h174" stroke="#3a414a" fill="none"/><use xlink:href="#u" transform="matrix(1,0,0,1,1376,332) translate(36.14506172839507 20.22222222222222)"/><path d="M1201 350.92h122.15" stroke="#3a414a" fill="none"/><path d="M1201 351.42h-.52l.02-.5-.02-.5h.53z" stroke="#3a414a" stroke-width=".05" fill="#3a414a"/><path d="M1337.92 350.92l-14.27 4.63v-9.27z" stroke="#3a414a" fill="#3a414a"/><use xlink:href="#v" transform="matrix(1,0,0,1,1222.122608780981,333.5839895013122) translate(0 8.88888888888889)"/><use xlink:href="#w" transform="matrix(1,0,0,1,1222.122608780981,333.5839895013122) translate(30.21604938271605 8.88888888888889)"/><path d="M1405.94 380.95V414a6 6 0 0 1-6 6H1236a6 6 0 0 1-6-6v-17.15a6 6 0 0 0-6-6h-22.23" stroke="#3a414a" fill="none"/><path d="M1406.44 380.45v.5h-1v-.5z" stroke="#3a414a" stroke-width=".05" fill="#3a414a"/><path d="M1187 390.85l14.27-4.63v9.27z" stroke="#3a414a" fill="#3a414a"/><use xlink:href="#v" transform="matrix(1,0,0,1,1246.5632345167987,402.66666666666663) translate(0 8.88888888888889)"/><use xlink:href="#x" transform="matrix(1,0,0,1,1246.5632345167987,402.66666666666663) translate(30.21604938271605 8.88888888888889)"/><use xlink:href="#y" transform="matrix(1,0,0,1,1246.5632345167987,402.66666666666663) translate(74.62962962962962 8.88888888888889)"/><path d="M1082.4 370.9H894.67a6 6 0 0 0-6 6v56.14" stroke="#3a414a" fill="none"/><path d="M1083.1 371.4h-.7v-1h.32z" stroke="#3a414a" stroke-width=".05" fill="#3a414a"/><path d="M888.66 447.8l-4.64-14.26h9.27z" stroke="#3a414a" fill="#3a414a"/><use xlink:href="#v" transform="matrix(1,0,0,1,925.6183287424408,374.89278092469567) translate(0 8.88888888888889)"/><use xlink:href="#x" transform="matrix(1,0,0,1,925.6183287424408,374.89278092469567) translate(30.21604938271605 8.88888888888889)"/><use xlink:href="#y" transform="matrix(1,0,0,1,925.6183287424408,374.89278092469567) translate(74.62962962962962 8.88888888888889)"/><path d="M1200 509.92c0 33.13-26.86 60-60 60s-60-26.87-60-60c0-33.14 26.86-60 60-60s60 26.86 60 60z" stroke="#3a414a" fill="#fff"/><use xlink:href="#z" transform="matrix(1,0,0,1,1100,449.9173228346456) translate(32.28395061728395 48.888888888888886)"/><use xlink:href="#A" transform="matrix(1,0,0,1,1100,449.9173228346456) translate(19.95370370370371 62.222222222222214)"/><use xlink:href="#B" transform="matrix(1,0,0,1,1100,449.9173228346456) translate(18.086419753086425 75.55555555555554)"/><path d="M920.94 466.1H1044a6 6 0 0 1 6 6v19.58a6 6 0 0 0 6 6h8.4" stroke="#3a414a" fill="none"/><path d="M920.95 466.6h-.5v-1h.5z" stroke="#3a414a" stroke-width=".05" fill="#3a414a"/><path d="M1079.17 497.68l-14.26 4.63v-9.26z" stroke="#3a414a" fill="#3a414a"/><use xlink:href="#C" transform="matrix(1,0,0,1,976.5593816582164,448.76767799497685) translate(0 8.88888888888889)"/><path d="M1198.2 491.76h5.8a6 6 0 0 0 6-6V472.1a6 6 0 0 1 6-6h114.13" stroke="#3a414a" fill="none"/><path d="M1198.2 492.26h-.36l-.3-1h.67z" stroke="#3a414a" stroke-width=".05" fill="#3a414a"/><path d="M1344.9 466.1l-14.27 4.63v-9.27z" stroke="#3a414a" fill="#3a414a"/><use xlink:href="#C" transform="matrix(1,0,0,1,1257.450023777091,448.76566157558807) translate(0 8.88888888888889)"/><path d="M1339.04 479.92H1326a6 6 0 0 0-6 6v18a6 6 0 0 1-6 6h-97.12" stroke="#3a414a" fill="none"/><path d="M1339.54 480.42h-.52v-1h.52z" stroke="#3a414a" stroke-width=".05" fill="#3a414a"/><path d="M1202.12 509.92l14.26-4.64v9.27z" stroke="#3a414a" fill="#3a414a"/><use xlink:href="#D" transform="matrix(1,0,0,1,1248.0532054026844,492.5839895013122) translate(0 8.88888888888889)"/><path d="M1079.52 517.5H956a6 6 0 0 1-6-6V485.9a6 6 0 0 0-6-6h-7.15" stroke="#3a414a" fill="none"/><path d="M1080.07 518h-.57v-1h.46z" stroke="#3a414a" stroke-width=".05" fill="#3a414a"/><path d="M922.08 479.92l14.27-4.64v9.27z" stroke="#3a414a" fill="#3a414a"/><use xlink:href="#E" transform="matrix(1,0,0,1,965.2689110756999,500.15196272603896) translate(0 8.88888888888889)"/><use xlink:href="#F" transform="matrix(1,0,0,1,965.2689110756999,500.15196272603896) translate(41.35802469135802 8.88888888888889)"/><path d="M1140 570.92v21.1" stroke="#3a414a" fill="none"/><path d="M1140 570.42l.5-.02v.53h-1v-.53z" stroke="#3a414a" stroke-width=".05" fill="#3a414a"/><path d="M1140 606.8l-4.64-14.27h9.28z" stroke="#3a414a" fill="#3a414a"/><path d="M1200 638.92c0 16.57-26.86 30-60 30s-60-13.43-60-30 26.86-30 60-30 60 13.43 60 30z" stroke="#3a414a" fill="#fff"/><use xlink:href="#G" transform="matrix(1,0,0,1,1100,608.9173228346456) translate(32.28395061728395 25.555555555555557)"/><use xlink:href="#H" transform="matrix(1,0,0,1,1100,608.9173228346456) translate(3.641975308641989 38.888888888888886)"/><use xlink:href="#I" transform="matrix(1,0,0,1,1100,608.9173228346456) translate(42.5 38.888888888888886)"/><path d="M876.8 510.86v122.06a6 6 0 0 0 6 6h180.32" stroke="#3a414a" fill="none"/><path d="M877.3 510.87h-1v-.5h1z" stroke="#3a414a" stroke-width=".05" fill="#3a414a"/><path d="M1077.88 638.92l-14.26 4.63v-9.27z" stroke="#3a414a" fill="#3a414a"/><use xlink:href="#J" transform="matrix(1,0,0,1,946.1417377655707,621.5839895013123) translate(0 8.88888888888889)"/><path d="M979 810H846a6 6 0 0 0-6 6v28a6 6 0 0 0 6 6h527a6 6 0 0 0 6-6V526.74" stroke="#3a414a" fill="none"/><path d="M979.5 810l.02.5H979v-1h.52z" stroke="#3a414a" stroke-width=".05" fill="#3a414a"/><path d="M1379 511.98l4.63 14.26h-9.27z" stroke="#3a414a" fill="#3a414a"/><use xlink:href="#K" transform="matrix(1,0,0,1,851.0918923277396,792.6666666666666) translate(0 8.88888888888889)"/><use xlink:href="#L" transform="matrix(1,0,0,1,851.0918923277396,792.6666666666666) translate(36.94444444444444 8.88888888888889)"/><use xlink:href="#w" transform="matrix(1,0,0,1,851.0918923277396,792.6666666666666) translate(84.41358024691358 8.88888888888889)"/><path d="M1340 455.92a6 6 0 0 1 6-6h168a6 6 0 0 1 6 6v48a6 6 0 0 1-6 6h-168a6 6 0 0 1-6-6z" fill="#fff"/><path d="M1520 449.92h-174a6 6 0 0 0-6 6v48a6 6 0 0 0 6 6h174" stroke="#3a414a" fill="none"/><use xlink:href="#M" transform="matrix(1,0,0,1,1376,461.9173228346456) translate(27.84259259259261 20.22222222222222)"/><path d="M1119 720h-73a6 6 0 0 0-6 6v37.12" stroke="#3a414a" fill="none"/><path d="M1119.5 719.98l.02.52h-.53v-1h.56z" stroke="#3a414a" stroke-width=".05" fill="#3a414a"/><path d="M1040 777.88l-4.64-14.26h9.28z" stroke="#3a414a" fill="#3a414a"/><path d="M1161 720h73a6 6 0 0 1 6 6v137.12" stroke="#3a414a" fill="none"/><path d="M1161 720.5h-.56l.06-.48-.02-.52h.53z" stroke="#3a414a" stroke-width=".05" fill="#3a414a"/><path d="M1240 877.88l-4.64-14.26h9.28z" stroke="#3a414a" fill="#3a414a"/><path d="M1100 810c0 16.57-26.86 30-60 30s-60-13.43-60-30 26.86-30 60-30 60 13.43 60 30z" stroke="#3a414a" fill="#fff"/><g><use xlink:href="#N" transform="matrix(1,0,0,1,1000,780) translate(32.28395061728395 25.555555555555557)"/><use xlink:href="#O" transform="matrix(1,0,0,1,1000,780) translate(8.873456790123463 38.888888888888886)"/><use xlink:href="#I" transform="matrix(1,0,0,1,1000,780) translate(37.26851851851852 38.888888888888886)"/></g><path d="M1300 910c0 16.57-26.86 30-60 30s-60-13.43-60-30 26.86-30 60-30 60 13.43 60 30z" stroke="#3a414a" fill="#fff"/><g><use xlink:href="#P" transform="matrix(1,0,0,1,1200,880) translate(32.28395061728395 25.555555555555557)"/><use xlink:href="#Q" transform="matrix(1,0,0,1,1200,880) translate(5.509259259259267 38.888888888888886)"/><use xlink:href="#I" transform="matrix(1,0,0,1,1200,880) translate(40.63271604938272 38.888888888888886)"/></g><path d="M1160 720c0 11.05-8.95 20-20 20s-20-8.95-20-20 8.95-20 20-20 20 8.95 20 20zm-40 0h40m-20-20v40" stroke="#3a414a" fill="#fff"/><path d="M1140 669.92v13.2" stroke="#3a414a" fill="none"/><path d="M1140 669.42l.5-.02v.53h-1v-.53z" stroke="#3a414a" stroke-width=".05" fill="#3a414a"/><path d="M1140 697.88l-4.64-14.26h9.28z" stroke="#3a414a" fill="#3a414a"/><path d="M1301 910h164.1a6 6 0 0 0 6-6V526.78" stroke="#3a414a" fill="none"/><path d="M1301 910.5h-.52l.02-.5-.02-.5h.53z" stroke="#3a414a" stroke-width=".05" fill="#3a414a"/><path d="M1471.1 512l4.65 14.28h-9.27z" stroke="#3a414a" fill="#3a414a"/><g><use xlink:href="#K" transform="matrix(1,0,0,1,1321.3674199243414,892.6666666666666) translate(0 8.88888888888889)"/><use xlink:href="#R" transform="matrix(1,0,0,1,1321.3674199243414,892.6666666666666) translate(36.94444444444444 8.88888888888889)"/><use xlink:href="#w" transform="matrix(1,0,0,1,1321.3674199243414,892.6666666666666) translate(80.67901234567901 8.88888888888889)"/></g><path d="M1040 841v43.02a6 6 0 0 0 6 6h87.03a6 6 0 0 1 6 6v27.13" stroke="#3a414a" fill="none"/><path d="M1040 840.5l.5-.02v.53h-1v-.52z" stroke="#3a414a" stroke-width=".05" fill="#3a414a"/><path d="M1139.03 937.92l-4.63-14.27h9.27z" stroke="#3a414a" fill="#3a414a"/><path d="M1240 941v193a6 6 0 0 1-6 6h-37.12" stroke="#3a414a" fill="none"/><path d="M1240 940.5l.5-.02v.53h-1v-.52z" stroke="#3a414a" stroke-width=".05" fill="#3a414a"/><path d="M1182.12 1140l14.26-4.64v9.28z" stroke="#3a414a" fill="#3a414a"/><defs><path fill="#3a414a" d="M185-189c-5-48-123-54-124 2 14 75 158 14 163 119 3 78-121 87-175 55-17-10-28-26-33-46l33-7c5 56 141 63 141-1 0-78-155-14-162-118-5-82 145-84 179-34 5 7 8 16 11 25" id="S"/><path fill="#3a414a" d="M59-47c-2 24 18 29 38 22v24C64 9 27 4 27-40v-127H5v-23h24l9-43h21v43h35v23H59v120" id="T"/><path fill="#3a414a" d="M141-36C126-15 110 5 73 4 37 3 15-17 15-53c-1-64 63-63 125-63 3-35-9-54-41-54-24 1-41 7-42 31l-33-3c5-37 33-52 76-52 45 0 72 20 72 64v82c-1 20 7 32 28 27v20c-31 9-61-2-59-35zM48-53c0 20 12 33 32 33 41-3 63-29 60-74-43 2-92-5-92 41" id="U"/><path fill="#3a414a" d="M114-163C36-179 61-72 57 0H25l-1-190h30c1 12-1 29 2 39 6-27 23-49 58-41v29" id="V"/><g id="a"><use transform="matrix(0.030864197530864192,0,0,0.030864197530864192,0,0)" xlink:href="#S"/><use transform="matrix(0.030864197530864192,0,0,0.030864197530864192,7.4074074074074066,0)" xlink:href="#T"/><use transform="matrix(0.030864197530864192,0,0,0.030864197530864192,10.493827160493826,0)" xlink:href="#U"/><use transform="matrix(0.030864197530864192,0,0,0.030864197530864192,16.666666666666664,0)" xlink:href="#V"/><use transform="matrix(0.030864197530864192,0,0,0.030864197530864192,20.339506172839503,0)" xlink:href="#T"/></g><path fill="#3a414a" d="M126-127c33 6 58 20 58 59 0 88-139 92-164 29-3-8-5-16-6-25l32-3c6 27 21 44 54 44 32 0 52-15 52-46 0-38-36-46-79-43v-28c39 1 72-4 72-42 0-27-17-43-46-43-28 0-47 15-49 41l-32-3c6-42 35-63 81-64 48-1 79 21 79 65 0 36-21 52-52 59" id="W"/><path fill="#3a414a" d="M33 0v-38h34V0H33" id="X"/><path fill="#3a414a" d="M101-251c68 0 85 55 85 127S166 4 100 4C33 4 14-52 14-124c0-73 17-127 87-127zm-1 229c47 0 54-49 54-102s-4-102-53-102c-51 0-55 48-55 102 0 53 5 102 54 102" id="Y"/><g id="b"><use transform="matrix(0.030864197530864192,0,0,0.030864197530864192,0,0)" xlink:href="#W"/><use transform="matrix(0.030864197530864192,0,0,0.030864197530864192,6.1728395061728385,0)" xlink:href="#X"/><use transform="matrix(0.030864197530864192,0,0,0.030864197530864192,9.259259259259258,0)" xlink:href="#Y"/></g><path fill="#3a414a" d="M137 0h-34L2-248h35l83 218 83-218h36" id="Z"/><path fill="#3a414a" d="M24-231v-30h32v30H24zM24 0v-190h32V0H24" id="aa"/><path fill="#3a414a" d="M135-143c-3-34-86-38-87 0 15 53 115 12 119 90S17 21 10-45l28-5c4 36 97 45 98 0-10-56-113-15-118-90-4-57 82-63 122-42 12 7 21 19 24 35" id="ab"/><g id="c"><use transform="matrix(0.030864197530864192,0,0,0.030864197530864192,0,0)" xlink:href="#Z"/><use transform="matrix(0.030864197530864192,0,0,0.030864197530864192,7.1913580246913575,0)" xlink:href="#aa"/><use transform="matrix(0.030864197530864192,0,0,0.030864197530864192,9.62962962962963,0)" xlink:href="#ab"/><use transform="matrix(0.030864197530864192,0,0,0.030864197530864192,15.185185185185183,0)" xlink:href="#aa"/><use transform="matrix(0.030864197530864192,0,0,0.030864197530864192,17.623456790123456,0)" xlink:href="#T"/></g><path fill="#3a414a" d="M96-169c-40 0-48 33-48 73s9 75 48 75c24 0 41-14 43-38l32 2c-6 37-31 61-74 61-59 0-76-41-82-99-10-93 101-131 147-64 4 7 5 14 7 22l-32 3c-4-21-16-35-41-35" id="ac"/><path fill="#3a414a" d="M106-169C34-169 62-67 57 0H25v-261h32l-1 103c12-21 28-36 61-36 89 0 53 116 60 194h-32v-121c2-32-8-49-39-48" id="ad"/><path fill="#3a414a" d="M100-194c62-1 85 37 85 99 1 63-27 99-86 99S16-35 15-95c0-66 28-99 85-99zM99-20c44 1 53-31 53-75 0-43-8-75-51-75s-53 32-53 75 10 74 51 75" id="ae"/><path fill="#3a414a" d="M24 0v-261h32V0H24" id="af"/><g id="d"><use transform="matrix(0.030864197530864192,0,0,0.030864197530864192,0,0)" xlink:href="#S"/><use transform="matrix(0.030864197530864192,0,0,0.030864197530864192,7.4074074074074066,0)" xlink:href="#ac"/><use transform="matrix(0.030864197530864192,0,0,0.030864197530864192,12.962962962962962,0)" xlink:href="#ad"/><use transform="matrix(0.030864197530864192,0,0,0.030864197530864192,19.1358024691358,0)" xlink:href="#ae"/><use transform="matrix(0.030864197530864192,0,0,0.030864197530864192,25.30864197530864,0)" xlink:href="#ae"/><use transform="matrix(0.030864197530864192,0,0,0.030864197530864192,31.481481481481477,0)" xlink:href="#af"/></g><path fill="#3a414a" d="M266 0h-40l-56-210L115 0H75L2-248h35L96-30l15-64 43-154h32l59 218 59-218h35" id="ag"/><path fill="#3a414a" d="M100-194c63 0 86 42 84 106H49c0 40 14 67 53 68 26 1 43-12 49-29l28 8c-11 28-37 45-77 45C44 4 14-33 15-96c1-61 26-98 85-98zm52 81c6-60-76-77-97-28-3 7-6 17-6 28h103" id="ah"/><path fill="#3a414a" d="M115-194c53 0 69 39 70 98 0 66-23 100-70 100C84 3 66-7 56-30L54 0H23l1-261h32v101c10-23 28-34 59-34zm-8 174c40 0 45-34 45-75 0-40-5-75-45-74-42 0-51 32-51 76 0 43 10 73 51 73" id="ai"/><g id="e"><use transform="matrix(0.030864197530864192,0,0,0.030864197530864192,0,0)" xlink:href="#ag"/><use transform="matrix(0.030864197530864192,0,0,0.030864197530864192,10.246913580246913,0)" xlink:href="#ah"/><use transform="matrix(0.030864197530864192,0,0,0.030864197530864192,16.419753086419753,0)" xlink:href="#ai"/><use transform="matrix(0.030864197530864192,0,0,0.030864197530864192,22.59259259259259,0)" xlink:href="#ab"/><use transform="matrix(0.030864197530864192,0,0,0.030864197530864192,28.148148148148145,0)" xlink:href="#aa"/><use transform="matrix(0.030864197530864192,0,0,0.030864197530864192,30.586419753086417,0)" xlink:href="#T"/><use transform="matrix(0.030864197530864192,0,0,0.030864197530864192,33.672839506172835,0)" xlink:href="#ah"/></g><path fill="#3a414a" d="M110-160c48 1 74 30 74 79 0 53-28 85-80 85-65 0-83-55-86-122-5-90 50-162 133-122 14 7 22 21 27 39l-31 6c-5-40-67-38-82-6-9 19-15 44-15 74 11-20 30-34 60-33zm-7 138c34 0 49-23 49-58s-16-56-50-56c-29 0-50 16-49 49 1 36 15 65 50 65" id="aj"/><g id="f"><use transform="matrix(0.030864197530864192,0,0,0.030864197530864192,0,0)" xlink:href="#W"/><use transform="matrix(0.030864197530864192,0,0,0.030864197530864192,6.1728395061728385,0)" xlink:href="#X"/><use transform="matrix(0.030864197530864192,0,0,0.030864197530864192,9.259259259259258,0)" xlink:href="#aj"/></g><path fill="#3a414a" d="M30-248c87 1 191-15 191 75 0 78-77 80-158 76V0H30v-248zm33 125c57 0 124 11 124-50 0-59-68-47-124-48v98" id="ak"/><path fill="#3a414a" d="M117-194c89-4 53 116 60 194h-32v-121c0-31-8-49-39-48C34-167 62-67 57 0H25l-1-190h30c1 10-1 24 2 32 11-22 29-35 61-36" id="al"/><g id="g"><use transform="matrix(0.030864197530864192,0,0,0.030864197530864192,0,0)" xlink:href="#ak"/><use transform="matrix(0.030864197530864192,0,0,0.030864197530864192,7.4074074074074066,0)" xlink:href="#V"/><use transform="matrix(0.030864197530864192,0,0,0.030864197530864192,11.080246913580245,0)" xlink:href="#aa"/><use transform="matrix(0.030864197530864192,0,0,0.030864197530864192,13.518518518518515,0)" xlink:href="#al"/><use transform="matrix(0.030864197530864192,0,0,0.030864197530864192,19.691358024691354,0)" xlink:href="#T"/></g><path fill="#3a414a" d="M115-194c55 1 70 41 70 98S169 2 115 4C84 4 66-9 55-30l1 105H24l-1-265h31l2 30c10-21 28-34 59-34zm-8 174c40 0 45-34 45-75s-6-73-45-74c-42 0-51 32-51 76 0 43 10 73 51 73" id="am"/><g id="h"><use transform="matrix(0.030864197530864192,0,0,0.030864197530864192,0,0)" xlink:href="#S"/><use transform="matrix(0.030864197530864192,0,0,0.030864197530864192,7.4074074074074066,0)" xlink:href="#T"/><use transform="matrix(0.030864197530864192,0,0,0.030864197530864192,10.493827160493826,0)" xlink:href="#ae"/><use transform="matrix(0.030864197530864192,0,0,0.030864197530864192,16.666666666666664,0)" xlink:href="#am"/></g><path fill="#3a414a" d="M205 0l-28-72H64L36 0H1l101-248h38L239 0h-34zm-38-99l-47-123c-12 45-31 82-46 123h93" id="an"/><path fill="#3a414a" d="M85-194c31 0 48 13 60 33l-1-100h32l1 261h-30c-2-10 0-23-3-31C134-8 116 4 85 4 32 4 16-35 15-94c0-66 23-100 70-100zm9 24c-40 0-46 34-46 75 0 40 6 74 45 74 42 0 51-32 51-76 0-42-9-74-50-73" id="ao"/><path fill="#3a414a" d="M210-169c-67 3-38 105-44 169h-31v-121c0-29-5-50-35-48C34-165 62-65 56 0H25l-1-190h30c1 10-1 24 2 32 10-44 99-50 107 0 11-21 27-35 58-36 85-2 47 119 55 194h-31v-121c0-29-5-49-35-48" id="ap"/><g id="i"><use transform="matrix(0.030864197530864192,0,0,0.030864197530864192,0,0)" xlink:href="#an"/><use transform="matrix(0.030864197530864192,0,0,0.030864197530864192,7.4074074074074066,0)" xlink:href="#ao"/><use transform="matrix(0.030864197530864192,0,0,0.030864197530864192,13.580246913580245,0)" xlink:href="#ap"/><use transform="matrix(0.030864197530864192,0,0,0.030864197530864192,22.80864197530864,0)" xlink:href="#aa"/><use transform="matrix(0.030864197530864192,0,0,0.030864197530864192,25.24691358024691,0)" xlink:href="#al"/><use transform="matrix(0.030864197530864192,0,0,0.030864197530864192,31.41975308641975,0)" xlink:href="#aa"/><use transform="matrix(0.030864197530864192,0,0,0.030864197530864192,33.85802469135802,0)" xlink:href="#ab"/><use transform="matrix(0.030864197530864192,0,0,0.030864197530864192,39.413580246913575,0)" xlink:href="#T"/><use transform="matrix(0.030864197530864192,0,0,0.030864197530864192,42.49999999999999,0)" xlink:href="#V"/><use transform="matrix(0.030864197530864192,0,0,0.030864197530864192,46.172839506172835,0)" xlink:href="#U"/><use transform="matrix(0.030864197530864192,0,0,0.030864197530864192,52.34567901234567,0)" xlink:href="#T"/><use transform="matrix(0.030864197530864192,0,0,0.030864197530864192,55.43209876543209,0)" xlink:href="#ae"/><use transform="matrix(0.030864197530864192,0,0,0.030864197530864192,61.60493827160492,0)" xlink:href="#V"/></g><path fill="#333" d="M137 0h-34L2-248h35l83 218 83-218h36" id="aq"/><path fill="#333" d="M24-231v-30h32v30H24zM24 0v-190h32V0H24" id="ar"/><path fill="#333" d="M100-194c63 0 86 42 84 106H49c0 40 14 67 53 68 26 1 43-12 49-29l28 8c-11 28-37 45-77 45C44 4 14-33 15-96c1-61 26-98 85-98zm52 81c6-60-76-77-97-28-3 7-6 17-6 28h103" id="as"/><path fill="#333" d="M206 0h-36l-40-164L89 0H53L-1-190h32L70-26l43-164h34l41 164 42-164h31" id="at"/><g id="j"><use transform="matrix(0.030864197530864192,0,0,0.030864197530864192,0,0)" xlink:href="#aq"/><use transform="matrix(0.030864197530864192,0,0,0.030864197530864192,7.1913580246913575,0)" xlink:href="#ar"/><use transform="matrix(0.030864197530864192,0,0,0.030864197530864192,9.62962962962963,0)" xlink:href="#as"/><use transform="matrix(0.030864197530864192,0,0,0.030864197530864192,15.80246913580247,0)" xlink:href="#at"/></g><path fill="#333" d="M33 0v-248h34V0H33" id="au"/><path fill="#333" d="M117-194c89-4 53 116 60 194h-32v-121c0-31-8-49-39-48C34-167 62-67 57 0H25l-1-190h30c1 10-1 24 2 32 11-22 29-35 61-36" id="av"/><path fill="#333" d="M101-234c-31-9-42 10-38 44h38v23H63V0H32v-167H5v-23h27c-7-52 17-82 69-68v24" id="aw"/><path fill="#333" d="M100-194c62-1 85 37 85 99 1 63-27 99-86 99S16-35 15-95c0-66 28-99 85-99zM99-20c44 1 53-31 53-75 0-43-8-75-51-75s-53 32-53 75 10 74 51 75" id="ax"/><path fill="#333" d="M114-163C36-179 61-72 57 0H25l-1-190h30c1 12-1 29 2 39 6-27 23-49 58-41v29" id="ay"/><path fill="#333" d="M210-169c-67 3-38 105-44 169h-31v-121c0-29-5-50-35-48C34-165 62-65 56 0H25l-1-190h30c1 10-1 24 2 32 10-44 99-50 107 0 11-21 27-35 58-36 85-2 47 119 55 194h-31v-121c0-29-5-49-35-48" id="az"/><path fill="#333" d="M141-36C126-15 110 5 73 4 37 3 15-17 15-53c-1-64 63-63 125-63 3-35-9-54-41-54-24 1-41 7-42 31l-33-3c5-37 33-52 76-52 45 0 72 20 72 64v82c-1 20 7 32 28 27v20c-31 9-61-2-59-35zM48-53c0 20 12 33 32 33 41-3 63-29 60-74-43 2-92-5-92 41" id="aA"/><path fill="#333" d="M59-47c-2 24 18 29 38 22v24C64 9 27 4 27-40v-127H5v-23h24l9-43h21v43h35v23H59v120" id="aB"/><g id="k"><use transform="matrix(0.030864197530864192,0,0,0.030864197530864192,0,0)" xlink:href="#au"/><use transform="matrix(0.030864197530864192,0,0,0.030864197530864192,3.0864197530864192,0)" xlink:href="#av"/><use transform="matrix(0.030864197530864192,0,0,0.030864197530864192,9.259259259259258,0)" xlink:href="#aw"/><use transform="matrix(0.030864197530864192,0,0,0.030864197530864192,12.345679012345677,0)" xlink:href="#ax"/><use transform="matrix(0.030864197530864192,0,0,0.030864197530864192,18.518518518518515,0)" xlink:href="#ay"/><use transform="matrix(0.030864197530864192,0,0,0.030864197530864192,22.191358024691354,0)" xlink:href="#az"/><use transform="matrix(0.030864197530864192,0,0,0.030864197530864192,31.419753086419746,0)" xlink:href="#aA"/><use transform="matrix(0.030864197530864192,0,0,0.030864197530864192,37.59259259259258,0)" xlink:href="#aB"/><use transform="matrix(0.030864197530864192,0,0,0.030864197530864192,40.679012345679,0)" xlink:href="#ar"/><use transform="matrix(0.030864197530864192,0,0,0.030864197530864192,43.11728395061727,0)" xlink:href="#ax"/><use transform="matrix(0.030864197530864192,0,0,0.030864197530864192,49.29012345679011,0)" xlink:href="#av"/></g><path fill="#333" d="M205 0l-28-72H64L36 0H1l101-248h38L239 0h-34zm-38-99l-47-123c-12 45-31 82-46 123h93" id="aC"/><path fill="#333" d="M115-194c53 0 69 39 70 98 0 66-23 100-70 100C84 3 66-7 56-30L54 0H23l1-261h32v101c10-23 28-34 59-34zm-8 174c40 0 45-34 45-75 0-40-5-75-45-74-42 0-51 32-51 76 0 43 10 73 51 73" id="aD"/><path fill="#333" d="M84 4C-5 8 30-112 23-190h32v120c0 31 7 50 39 49 72-2 45-101 50-169h31l1 190h-30c-1-10 1-25-2-33-11 22-28 36-60 37" id="aE"/><g id="l"><use transform="matrix(0.030864197530864192,0,0,0.030864197530864192,0,0)" xlink:href="#aC"/><use transform="matrix(0.030864197530864192,0,0,0.030864197530864192,7.4074074074074066,0)" xlink:href="#aD"/><use transform="matrix(0.030864197530864192,0,0,0.030864197530864192,13.580246913580245,0)" xlink:href="#ax"/><use transform="matrix(0.030864197530864192,0,0,0.030864197530864192,19.75308641975308,0)" xlink:href="#aE"/><use transform="matrix(0.030864197530864192,0,0,0.030864197530864192,25.92592592592592,0)" xlink:href="#aB"/></g><path fill="#333" d="M185-189c-5-48-123-54-124 2 14 75 158 14 163 119 3 78-121 87-175 55-17-10-28-26-33-46l33-7c5 56 141 63 141-1 0-78-155-14-162-118-5-82 145-84 179-34 5 7 8 16 11 25" id="aF"/><path fill="#333" d="M96-169c-40 0-48 33-48 73s9 75 48 75c24 0 41-14 43-38l32 2c-6 37-31 61-74 61-59 0-76-41-82-99-10-93 101-131 147-64 4 7 5 14 7 22l-32 3c-4-21-16-35-41-35" id="aG"/><path fill="#333" d="M106-169C34-169 62-67 57 0H25v-261h32l-1 103c12-21 28-36 61-36 89 0 53 116 60 194h-32v-121c2-32-8-49-39-48" id="aH"/><path fill="#333" d="M24 0v-261h32V0H24" id="aI"/><g id="m"><use transform="matrix(0.030864197530864192,0,0,0.030864197530864192,0,0)" xlink:href="#aF"/><use transform="matrix(0.030864197530864192,0,0,0.030864197530864192,7.4074074074074066,0)" xlink:href="#aG"/><use transform="matrix(0.030864197530864192,0,0,0.030864197530864192,12.962962962962962,0)" xlink:href="#aH"/><use transform="matrix(0.030864197530864192,0,0,0.030864197530864192,19.1358024691358,0)" xlink:href="#ax"/><use transform="matrix(0.030864197530864192,0,0,0.030864197530864192,25.30864197530864,0)" xlink:href="#ax"/><use transform="matrix(0.030864197530864192,0,0,0.030864197530864192,31.481481481481477,0)" xlink:href="#aI"/></g><path fill="#333" d="M143 4C61 4 22-44 18-125c-5-107 100-154 193-111 17 8 29 25 37 43l-32 9c-13-25-37-40-76-40-61 0-88 39-88 99 0 61 29 100 91 101 35 0 62-11 79-27v-45h-74v-28h105v86C228-13 192 4 143 4" id="aJ"/><g id="n"><use transform="matrix(0.030864197530864192,0,0,0.030864197530864192,0,0)" xlink:href="#aJ"/><use transform="matrix(0.030864197530864192,0,0,0.030864197530864192,8.641975308641975,0)" xlink:href="#as"/><use transform="matrix(0.030864197530864192,0,0,0.030864197530864192,14.814814814814813,0)" xlink:href="#aB"/></g><g id="o"><use transform="matrix(0.030864197530864192,0,0,0.030864197530864192,0,0)" xlink:href="#aF"/><use transform="matrix(0.030864197530864192,0,0,0.030864197530864192,7.4074074074074066,0)" xlink:href="#aG"/><use transform="matrix(0.030864197530864192,0,0,0.030864197530864192,12.962962962962962,0)" xlink:href="#aH"/><use transform="matrix(0.030864197530864192,0,0,0.030864197530864192,19.1358024691358,0)" xlink:href="#ax"/><use transform="matrix(0.030864197530864192,0,0,0.030864197530864192,25.30864197530864,0)" xlink:href="#ax"/><use transform="matrix(0.030864197530864192,0,0,0.030864197530864192,31.481481481481477,0)" xlink:href="#aB"/></g><path fill="#3a414a" d="M27 0v-27h64v-190l-56 39v-29l58-41h29v221h61V0H27" id="aK"/><g id="p"><use transform="matrix(0.030864197530864192,0,0,0.030864197530864192,0,0)" xlink:href="#W"/><use transform="matrix(0.030864197530864192,0,0,0.030864197530864192,6.1728395061728385,0)" xlink:href="#X"/><use transform="matrix(0.030864197530864192,0,0,0.030864197530864192,9.259259259259258,0)" xlink:href="#aK"/></g><path fill="#3a414a" d="M140-251c81 0 123 46 123 126C263-46 219 4 140 4 59 4 17-45 17-125s42-126 123-126zm0 227c63 0 89-41 89-101s-29-99-89-99c-61 0-89 39-89 99S79-25 140-24" id="aL"/><path fill="#3a414a" d="M101-234c-31-9-42 10-38 44h38v23H63V0H32v-167H5v-23h27c-7-52 17-82 69-68v24" id="aM"/><g id="q"><use transform="matrix(0.030864197530864192,0,0,0.030864197530864192,0,0)" xlink:href="#aL"/><use transform="matrix(0.030864197530864192,0,0,0.030864197530864192,8.641975308641975,0)" xlink:href="#aM"/><use transform="matrix(0.030864197530864192,0,0,0.030864197530864192,11.512345679012345,0)" xlink:href="#aM"/><use transform="matrix(0.030864197530864192,0,0,0.030864197530864192,14.598765432098764,0)" xlink:href="#aa"/><use transform="matrix(0.030864197530864192,0,0,0.030864197530864192,17.037037037037035,0)" xlink:href="#ac"/><use transform="matrix(0.030864197530864192,0,0,0.030864197530864192,22.592592592592588,0)" xlink:href="#ah"/></g><path fill="#3a414a" d="M30 0v-248h33v221h125V0H30" id="aN"/><path fill="#3a414a" d="M177-190C167-65 218 103 67 71c-23-6-38-20-44-43l32-5c15 47 100 32 89-28v-30C133-14 115 1 83 1 29 1 15-40 15-95c0-56 16-97 71-98 29-1 48 16 59 35 1-10 0-23 2-32h30zM94-22c36 0 50-32 50-73 0-42-14-75-50-75-39 0-46 34-46 75s6 73 46 73" id="aO"/><g id="r"><use transform="matrix(0.030864197530864192,0,0,0.030864197530864192,0,0)" xlink:href="#aN"/><use transform="matrix(0.030864197530864192,0,0,0.030864197530864192,6.1728395061728385,0)" xlink:href="#ae"/><use transform="matrix(0.030864197530864192,0,0,0.030864197530864192,12.345679012345677,0)" xlink:href="#aO"/><use transform="matrix(0.030864197530864192,0,0,0.030864197530864192,18.518518518518515,0)" xlink:href="#aa"/><use transform="matrix(0.030864197530864192,0,0,0.030864197530864192,20.956790123456788,0)" xlink:href="#al"/></g><path fill="#333" d="M30 0v-248h33v221h125V0H30" id="aP"/><path fill="#333" d="M177-190C167-65 218 103 67 71c-23-6-38-20-44-43l32-5c15 47 100 32 89-28v-30C133-14 115 1 83 1 29 1 15-40 15-95c0-56 16-97 71-98 29-1 48 16 59 35 1-10 0-23 2-32h30zM94-22c36 0 50-32 50-73 0-42-14-75-50-75-39 0-46 34-46 75s6 73 46 73" id="aQ"/><g id="s"><use transform="matrix(0.030864197530864192,0,0,0.030864197530864192,0,0)" xlink:href="#aP"/><use transform="matrix(0.030864197530864192,0,0,0.030864197530864192,6.1728395061728385,0)" xlink:href="#ax"/><use transform="matrix(0.030864197530864192,0,0,0.030864197530864192,12.345679012345677,0)" xlink:href="#aQ"/><use transform="matrix(0.030864197530864192,0,0,0.030864197530864192,18.518518518518515,0)" xlink:href="#ar"/><use transform="matrix(0.030864197530864192,0,0,0.030864197530864192,20.956790123456788,0)" xlink:href="#av"/></g><path fill="#333" d="M233-177c-1 41-23 64-60 70L243 0h-38l-65-103H63V0H30v-248c88 3 205-21 203 71zM63-129c60-2 137 13 137-47 0-61-80-42-137-45v92" id="aR"/><path fill="#333" d="M145-31C134-9 116 4 85 4 32 4 16-35 15-94c0-59 17-99 70-100 32-1 48 14 60 33 0-11-1-24 2-32h30l-1 268h-32zM93-21c41 0 51-33 51-76s-8-73-50-73c-40 0-46 35-46 75s5 74 45 74" id="aS"/><path fill="#333" d="M135-143c-3-34-86-38-87 0 15 53 115 12 119 90S17 21 10-45l28-5c4 36 97 45 98 0-10-56-113-15-118-90-4-57 82-63 122-42 12 7 21 19 24 35" id="aT"/><g id="t"><use transform="matrix(0.030864197530864192,0,0,0.030864197530864192,0,0)" xlink:href="#aR"/><use transform="matrix(0.030864197530864192,0,0,0.030864197530864192,7.993827160493826,0)" xlink:href="#as"/><use transform="matrix(0.030864197530864192,0,0,0.030864197530864192,14.166666666666664,0)" xlink:href="#aS"/><use transform="matrix(0.030864197530864192,0,0,0.030864197530864192,20.339506172839503,0)" xlink:href="#aE"/><use transform="matrix(0.030864197530864192,0,0,0.030864197530864192,26.51234567901234,0)" xlink:href="#as"/><use transform="matrix(0.030864197530864192,0,0,0.030864197530864192,32.685185185185176,0)" xlink:href="#aT"/><use transform="matrix(0.030864197530864192,0,0,0.030864197530864192,38.24074074074073,0)" xlink:href="#aB"/></g><path fill="#3a414a" d="M30-248c118-7 216 8 213 122C240-48 200 0 122 0H30v-248zM63-27c89 8 146-16 146-99s-60-101-146-95v194" id="aU"/><path fill="#3a414a" d="M240 0l2-218c-23 76-54 145-80 218h-23L58-218 59 0H30v-248h44l77 211c21-75 51-140 76-211h43V0h-30" id="aV"/><path fill="#3a414a" d="M33 0v-248h34V0H33" id="aW"/><path fill="#3a414a" d="M190 0L58-211 59 0H30v-248h39L202-35l-2-213h31V0h-41" id="aX"/><g id="u"><use transform="matrix(0.030864197530864182,0,0,0.030864197530864182,0,0)" xlink:href="#an"/><use transform="matrix(0.030864197530864182,0,0,0.030864197530864182,7.407407407407404,0)" xlink:href="#aU"/><use transform="matrix(0.030864197530864182,0,0,0.030864197530864182,15.401234567901227,0)" xlink:href="#aV"/><use transform="matrix(0.030864197530864182,0,0,0.030864197530864182,24.62962962962962,0)" xlink:href="#aW"/><use transform="matrix(0.030864197530864182,0,0,0.030864197530864182,27.716049382716037,0)" xlink:href="#aX"/></g><g id="v"><use transform="matrix(0.030864197530864196,0,0,0.030864197530864196,0,0)" xlink:href="#aP"/><use transform="matrix(0.030864197530864196,0,0,0.030864197530864196,6.172839506172839,0)" xlink:href="#ax"/><use transform="matrix(0.030864197530864196,0,0,0.030864197530864196,12.345679012345679,0)" xlink:href="#aQ"/><use transform="matrix(0.030864197530864196,0,0,0.030864197530864196,18.51851851851852,0)" xlink:href="#ar"/><use transform="matrix(0.030864197530864196,0,0,0.030864197530864196,20.95679012345679,0)" xlink:href="#av"/></g><g id="w"><use transform="matrix(0.030864197530864196,0,0,0.030864197530864196,0,0)" xlink:href="#aR"/><use transform="matrix(0.030864197530864196,0,0,0.030864197530864196,7.993827160493827,0)" xlink:href="#as"/><use transform="matrix(0.030864197530864196,0,0,0.030864197530864196,14.166666666666666,0)" xlink:href="#aS"/><use transform="matrix(0.030864197530864196,0,0,0.030864197530864196,20.339506172839506,0)" xlink:href="#aE"/><use transform="matrix(0.030864197530864196,0,0,0.030864197530864196,26.512345679012345,0)" xlink:href="#as"/><use transform="matrix(0.030864197530864196,0,0,0.030864197530864196,32.68518518518518,0)" xlink:href="#aT"/><use transform="matrix(0.030864197530864196,0,0,0.030864197530864196,38.24074074074074,0)" xlink:href="#aB"/></g><g id="x"><use transform="matrix(0.030864197530864196,0,0,0.030864197530864196,0,0)" xlink:href="#aR"/><use transform="matrix(0.030864197530864196,0,0,0.030864197530864196,7.993827160493827,0)" xlink:href="#as"/><use transform="matrix(0.030864197530864196,0,0,0.030864197530864196,14.166666666666666,0)" xlink:href="#aS"/><use transform="matrix(0.030864197530864196,0,0,0.030864197530864196,20.339506172839506,0)" xlink:href="#aE"/><use transform="matrix(0.030864197530864196,0,0,0.030864197530864196,26.512345679012345,0)" xlink:href="#as"/><use transform="matrix(0.030864197530864196,0,0,0.030864197530864196,32.68518518518518,0)" xlink:href="#aT"/><use transform="matrix(0.030864197530864196,0,0,0.030864197530864196,38.24074074074074,0)" xlink:href="#aB"/></g><path fill="#333" d="M115-194c55 1 70 41 70 98S169 2 115 4C84 4 66-9 55-30l1 105H24l-1-265h31l2 30c10-21 28-34 59-34zm-8 174c40 0 45-34 45-75s-6-73-45-74c-42 0-51 32-51 76 0 43 10 73 51 73" id="aY"/><path fill="#333" d="M85-194c31 0 48 13 60 33l-1-100h32l1 261h-30c-2-10 0-23-3-31C134-8 116 4 85 4 32 4 16-35 15-94c0-66 23-100 70-100zm9 24c-40 0-46 34-46 75 0 40 6 74 45 74 42 0 51-32 51-76 0-42-9-74-50-73" id="aZ"/><g id="y"><use transform="matrix(0.030864197530864196,0,0,0.030864197530864196,0,0)" xlink:href="#aC"/><use transform="matrix(0.030864197530864196,0,0,0.030864197530864196,7.4074074074074066,0)" xlink:href="#aG"/><use transform="matrix(0.030864197530864196,0,0,0.030864197530864196,12.962962962962962,0)" xlink:href="#aG"/><use transform="matrix(0.030864197530864196,0,0,0.030864197530864196,18.51851851851852,0)" xlink:href="#as"/><use transform="matrix(0.030864197530864196,0,0,0.030864197530864196,24.691358024691358,0)" xlink:href="#aY"/><use transform="matrix(0.030864197530864196,0,0,0.030864197530864196,30.864197530864196,0)" xlink:href="#aB"/><use transform="matrix(0.030864197530864196,0,0,0.030864197530864196,33.95061728395061,0)" xlink:href="#as"/><use transform="matrix(0.030864197530864196,0,0,0.030864197530864196,40.123456790123456,0)" xlink:href="#aZ"/></g><path fill="#3a414a" d="M101-251c82-7 93 87 43 132L82-64C71-53 59-42 53-27h129V0H18c2-99 128-94 128-182 0-28-16-43-45-43s-46 15-49 41l-32-3c6-41 34-60 81-64" id="ba"/><g id="z"><use transform="matrix(0.030864197530864192,0,0,0.030864197530864192,0,0)" xlink:href="#W"/><use transform="matrix(0.030864197530864192,0,0,0.030864197530864192,6.1728395061728385,0)" xlink:href="#X"/><use transform="matrix(0.030864197530864192,0,0,0.030864197530864192,9.259259259259258,0)" xlink:href="#ba"/></g><g id="A"><use transform="matrix(0.030864197530864192,0,0,0.030864197530864192,0,0)" xlink:href="#aV"/><use transform="matrix(0.030864197530864192,0,0,0.030864197530864192,9.228395061728394,0)" xlink:href="#U"/><use transform="matrix(0.030864197530864192,0,0,0.030864197530864192,15.401234567901232,0)" xlink:href="#al"/><use transform="matrix(0.030864197530864192,0,0,0.030864197530864192,21.57407407407407,0)" xlink:href="#U"/><use transform="matrix(0.030864197530864192,0,0,0.030864197530864192,27.746913580246908,0)" xlink:href="#aO"/><use transform="matrix(0.030864197530864192,0,0,0.030864197530864192,33.919753086419746,0)" xlink:href="#ah"/></g><path fill="#3a414a" d="M84 4C-5 8 30-112 23-190h32v120c0 31 7 50 39 49 72-2 45-101 50-169h31l1 190h-30c-1-10 1-25-2-33-11 22-28 36-60 37" id="bb"/><g id="B"><use transform="matrix(0.030864197530864192,0,0,0.030864197530864192,0,0)" xlink:href="#S"/><use transform="matrix(0.030864197530864192,0,0,0.030864197530864192,7.4074074074074066,0)" xlink:href="#T"/><use transform="matrix(0.030864197530864192,0,0,0.030864197530864192,10.493827160493826,0)" xlink:href="#bb"/><use transform="matrix(0.030864197530864192,0,0,0.030864197530864192,16.666666666666664,0)" xlink:href="#ao"/><use transform="matrix(0.030864197530864192,0,0,0.030864197530864192,22.839506172839503,0)" xlink:href="#ah"/><use transform="matrix(0.030864197530864192,0,0,0.030864197530864192,29.01234567901234,0)" xlink:href="#al"/><use transform="matrix(0.030864197530864192,0,0,0.030864197530864192,35.185185185185176,0)" xlink:href="#T"/><use transform="matrix(0.030864197530864192,0,0,0.030864197530864192,38.271604938271594,0)" xlink:href="#ab"/></g><path fill="#333" d="M232-93c-1 65-40 97-104 97C67 4 28-28 28-90v-158h33c8 89-33 224 67 224 102 0 64-133 71-224h33v155" id="bc"/><path fill="#333" d="M190 0L58-211 59 0H30v-248h39L202-35l-2-213h31V0h-41" id="bd"/><g id="C"><use transform="matrix(0.030864197530864196,0,0,0.030864197530864196,0,0)" xlink:href="#bc"/><use transform="matrix(0.030864197530864196,0,0,0.030864197530864196,7.993827160493827,0)" xlink:href="#aR"/><use transform="matrix(0.030864197530864196,0,0,0.030864197530864196,15.987654320987653,0)" xlink:href="#bd"/></g><path fill="#333" d="M108 0H70L1-190h34L89-25l56-165h34" id="be"/><g id="D"><use transform="matrix(0.030864197530864196,0,0,0.030864197530864196,0,0)" xlink:href="#aR"/><use transform="matrix(0.030864197530864196,0,0,0.030864197530864196,7.993827160493827,0)" xlink:href="#as"/><use transform="matrix(0.030864197530864196,0,0,0.030864197530864196,14.166666666666666,0)" xlink:href="#aB"/><use transform="matrix(0.030864197530864196,0,0,0.030864197530864196,17.253086419753085,0)" xlink:href="#ay"/><use transform="matrix(0.030864197530864196,0,0,0.030864197530864196,20.925925925925924,0)" xlink:href="#ar"/><use transform="matrix(0.030864197530864196,0,0,0.030864197530864196,23.364197530864196,0)" xlink:href="#as"/><use transform="matrix(0.030864197530864196,0,0,0.030864197530864196,29.537037037037035,0)" xlink:href="#be"/><use transform="matrix(0.030864197530864196,0,0,0.030864197530864196,35.09259259259259,0)" xlink:href="#as"/></g><g id="E"><use transform="matrix(0.030864197530864196,0,0,0.030864197530864196,0,0)" xlink:href="#aF"/><use transform="matrix(0.030864197530864196,0,0,0.030864197530864196,7.4074074074074066,0)" xlink:href="#aB"/><use transform="matrix(0.030864197530864196,0,0,0.030864197530864196,10.493827160493826,0)" xlink:href="#aE"/><use transform="matrix(0.030864197530864196,0,0,0.030864197530864196,16.666666666666664,0)" xlink:href="#aZ"/><use transform="matrix(0.030864197530864196,0,0,0.030864197530864196,22.839506172839503,0)" xlink:href="#as"/><use transform="matrix(0.030864197530864196,0,0,0.030864197530864196,29.01234567901234,0)" xlink:href="#av"/><use transform="matrix(0.030864197530864196,0,0,0.030864197530864196,35.18518518518518,0)" xlink:href="#aB"/></g><path fill="#333" d="M30-248c118-7 216 8 213 122C240-48 200 0 122 0H30v-248zM63-27c89 8 146-16 146-99s-60-101-146-95v194" id="bf"/><g id="F"><use transform="matrix(0.030864197530864196,0,0,0.030864197530864196,0,0)" xlink:href="#bf"/><use transform="matrix(0.030864197530864196,0,0,0.030864197530864196,7.993827160493827,0)" xlink:href="#as"/><use transform="matrix(0.030864197530864196,0,0,0.030864197530864196,14.166666666666666,0)" xlink:href="#aB"/><use transform="matrix(0.030864197530864196,0,0,0.030864197530864196,17.253086419753085,0)" xlink:href="#aA"/><use transform="matrix(0.030864197530864196,0,0,0.030864197530864196,23.425925925925924,0)" xlink:href="#ar"/><use transform="matrix(0.030864197530864196,0,0,0.030864197530864196,25.864197530864196,0)" xlink:href="#aI"/><use transform="matrix(0.030864197530864196,0,0,0.030864197530864196,28.30246913580247,0)" xlink:href="#aT"/></g><g id="G"><use transform="matrix(0.030864197530864192,0,0,0.030864197530864192,0,0)" xlink:href="#W"/><use transform="matrix(0.030864197530864192,0,0,0.030864197530864192,6.1728395061728385,0)" xlink:href="#X"/><use transform="matrix(0.030864197530864192,0,0,0.030864197530864192,9.259259259259258,0)" xlink:href="#W"/></g><path fill="#3a414a" d="M232-93c-1 65-40 97-104 97C67 4 28-28 28-90v-158h33c8 89-33 224 67 224 102 0 64-133 71-224h33v155" id="bg"/><g id="H"><use transform="matrix(0.030864197530864192,0,0,0.030864197530864192,0,0)" xlink:href="#bg"/><use transform="matrix(0.030864197530864192,0,0,0.030864197530864192,7.993827160493826,0)" xlink:href="#am"/><use transform="matrix(0.030864197530864192,0,0,0.030864197530864192,14.166666666666664,0)" xlink:href="#ao"/><use transform="matrix(0.030864197530864192,0,0,0.030864197530864192,20.339506172839503,0)" xlink:href="#U"/><use transform="matrix(0.030864197530864192,0,0,0.030864197530864192,26.51234567901234,0)" xlink:href="#T"/><use transform="matrix(0.030864197530864192,0,0,0.030864197530864192,29.59876543209876,0)" xlink:href="#ah"/></g><g id="I"><use transform="matrix(0.030864197530864192,0,0,0.030864197530864192,0,0)" xlink:href="#aU"/><use transform="matrix(0.030864197530864192,0,0,0.030864197530864192,7.993827160493826,0)" xlink:href="#ah"/><use transform="matrix(0.030864197530864192,0,0,0.030864197530864192,14.166666666666664,0)" xlink:href="#T"/><use transform="matrix(0.030864197530864192,0,0,0.030864197530864192,17.25308641975308,0)" xlink:href="#U"/><use transform="matrix(0.030864197530864192,0,0,0.030864197530864192,23.42592592592592,0)" xlink:href="#aa"/><use transform="matrix(0.030864197530864192,0,0,0.030864197530864192,25.864197530864192,0)" xlink:href="#af"/><use transform="matrix(0.030864197530864192,0,0,0.030864197530864192,28.302469135802465,0)" xlink:href="#ab"/></g><g id="J"><use transform="matrix(0.030864197530864196,0,0,0.030864197530864196,0,0)" xlink:href="#bf"/><use transform="matrix(0.030864197530864196,0,0,0.030864197530864196,7.993827160493827,0)" xlink:href="#as"/><use transform="matrix(0.030864197530864196,0,0,0.030864197530864196,14.166666666666666,0)" xlink:href="#aB"/><use transform="matrix(0.030864197530864196,0,0,0.030864197530864196,17.253086419753085,0)" xlink:href="#aA"/><use transform="matrix(0.030864197530864196,0,0,0.030864197530864196,23.425925925925924,0)" xlink:href="#ar"/><use transform="matrix(0.030864197530864196,0,0,0.030864197530864196,25.864197530864196,0)" xlink:href="#aI"/><use transform="matrix(0.030864197530864196,0,0,0.030864197530864196,28.30246913580247,0)" xlink:href="#aT"/></g><g id="K"><use transform="matrix(0.030864197530864196,0,0,0.030864197530864196,0,0)" xlink:href="#bf"/><use transform="matrix(0.030864197530864196,0,0,0.030864197530864196,7.993827160493827,0)" xlink:href="#as"/><use transform="matrix(0.030864197530864196,0,0,0.030864197530864196,14.166666666666666,0)" xlink:href="#aB"/><use transform="matrix(0.030864197530864196,0,0,0.030864197530864196,17.253086419753085,0)" xlink:href="#aA"/><use transform="matrix(0.030864197530864196,0,0,0.030864197530864196,23.425925925925924,0)" xlink:href="#ar"/><use transform="matrix(0.030864197530864196,0,0,0.030864197530864196,25.864197530864196,0)" xlink:href="#aI"/><use transform="matrix(0.030864197530864196,0,0,0.030864197530864196,28.30246913580247,0)" xlink:href="#aT"/></g><g id="L"><use transform="matrix(0.030864197530864196,0,0,0.030864197530864196,0,0)" xlink:href="#bc"/><use transform="matrix(0.030864197530864196,0,0,0.030864197530864196,7.993827160493827,0)" xlink:href="#aY"/><use transform="matrix(0.030864197530864196,0,0,0.030864197530864196,14.166666666666666,0)" xlink:href="#aZ"/><use transform="matrix(0.030864197530864196,0,0,0.030864197530864196,20.339506172839506,0)" xlink:href="#aA"/><use transform="matrix(0.030864197530864196,0,0,0.030864197530864196,26.512345679012345,0)" xlink:href="#aB"/><use transform="matrix(0.030864197530864196,0,0,0.030864197530864196,29.598765432098766,0)" xlink:href="#ar"/><use transform="matrix(0.030864197530864196,0,0,0.030864197530864196,32.03703703703704,0)" xlink:href="#ax"/><use transform="matrix(0.030864197530864196,0,0,0.030864197530864196,38.20987654320988,0)" xlink:href="#av"/></g><path fill="#3a414a" d="M127-220V0H93v-220H8v-28h204v28h-85" id="bh"/><path fill="#3a414a" d="M30 0v-248h187v28H63v79h144v27H63v87h162V0H30" id="bi"/><g id="M"><use transform="matrix(0.030864197530864182,0,0,0.030864197530864182,0,0)" xlink:href="#S"/><use transform="matrix(0.030864197530864182,0,0,0.030864197530864182,7.407407407407404,0)" xlink:href="#bh"/><use transform="matrix(0.030864197530864182,0,0,0.030864197530864182,14.16666666666666,0)" xlink:href="#bg"/><use transform="matrix(0.030864197530864182,0,0,0.030864197530864182,22.160493827160483,0)" xlink:href="#aU"/><use transform="matrix(0.030864197530864182,0,0,0.030864197530864182,30.154320987654305,0)" xlink:href="#bi"/><use transform="matrix(0.030864197530864182,0,0,0.030864197530864182,37.56172839506171,0)" xlink:href="#aX"/><use transform="matrix(0.030864197530864182,0,0,0.030864197530864182,45.55555555555553,0)" xlink:href="#bh"/></g><path fill="#3a414a" d="M155-56V0h-30v-56H8v-25l114-167h33v167h35v25h-35zm-30-156c-27 46-58 90-88 131h88v-131" id="bj"/><g id="N"><use transform="matrix(0.030864197530864192,0,0,0.030864197530864192,0,0)" xlink:href="#W"/><use transform="matrix(0.030864197530864192,0,0,0.030864197530864192,6.1728395061728385,0)" xlink:href="#X"/><use transform="matrix(0.030864197530864192,0,0,0.030864197530864192,9.259259259259258,0)" xlink:href="#bj"/></g><path fill="#3a414a" d="M108 0H70L1-190h34L89-25l56-165h34" id="bk"/><g id="O"><use transform="matrix(0.030864197530864192,0,0,0.030864197530864192,0,0)" xlink:href="#S"/><use transform="matrix(0.030864197530864192,0,0,0.030864197530864192,7.4074074074074066,0)" xlink:href="#U"/><use transform="matrix(0.030864197530864192,0,0,0.030864197530864192,13.580246913580245,0)" xlink:href="#bk"/><use transform="matrix(0.030864197530864192,0,0,0.030864197530864192,19.1358024691358,0)" xlink:href="#ah"/></g><path fill="#3a414a" d="M54-142c48-35 137-8 131 61C196 18 31 33 14-55l32-4c7 23 22 37 52 37 35-1 51-22 54-58 4-55-73-65-99-34H22l8-134h141v27H59" id="bl"/><g id="P"><use transform="matrix(0.030864197530864192,0,0,0.030864197530864192,0,0)" xlink:href="#W"/><use transform="matrix(0.030864197530864192,0,0,0.030864197530864192,6.1728395061728385,0)" xlink:href="#X"/><use transform="matrix(0.030864197530864192,0,0,0.030864197530864192,9.259259259259258,0)" xlink:href="#bl"/></g><g id="Q"><use transform="matrix(0.030864197530864192,0,0,0.030864197530864192,0,0)" xlink:href="#aU"/><use transform="matrix(0.030864197530864192,0,0,0.030864197530864192,7.993827160493826,0)" xlink:href="#ah"/><use transform="matrix(0.030864197530864192,0,0,0.030864197530864192,14.166666666666664,0)" xlink:href="#af"/><use transform="matrix(0.030864197530864192,0,0,0.030864197530864192,16.604938271604937,0)" xlink:href="#ah"/><use transform="matrix(0.030864197530864192,0,0,0.030864197530864192,22.777777777777775,0)" xlink:href="#T"/><use transform="matrix(0.030864197530864192,0,0,0.030864197530864192,25.864197530864196,0)" xlink:href="#ah"/></g><g id="R"><use transform="matrix(0.030864197530864196,0,0,0.030864197530864196,0,0)" xlink:href="#bf"/><use transform="matrix(0.030864197530864196,0,0,0.030864197530864196,7.993827160493827,0)" xlink:href="#as"/><use transform="matrix(0.030864197530864196,0,0,0.030864197530864196,14.166666666666666,0)" xlink:href="#aI"/><use transform="matrix(0.030864197530864196,0,0,0.030864197530864196,16.604938271604937,0)" xlink:href="#as"/><use transform="matrix(0.030864197530864196,0,0,0.030864197530864196,22.777777777777775,0)" xlink:href="#aB"/><use transform="matrix(0.030864197530864196,0,0,0.030864197530864196,25.864197530864196,0)" xlink:href="#ar"/><use transform="matrix(0.030864197530864196,0,0,0.030864197530864196,28.30246913580247,0)" xlink:href="#ax"/><use transform="matrix(0.030864197530864196,0,0,0.030864197530864196,34.47530864197531,0)" xlink:href="#av"/></g></defs></g></svg>