<svg xmlns="http://www.w3.org/2000/svg" xmlns:xlink="http://www.w3.org/1999/xlink" xmlns:lucid="lucid" width="875" height="282"><g transform="translate(-12 -716)" lucid:page-tab-id="0_0"><path d="M497.92 783.22v-33.5a6 6 0 0 1 6-6H784a6 6 0 0 1 6 6v63.9" stroke="#3a414a" fill="none"/><path d="M498.42 784.05l-.75-.5-.25-.14v-.2h1z" stroke="#3a414a" stroke-width=".05" fill="#3a414a"/><path d="M790 828.38l-4.64-14.26h9.28z" stroke="#3a414a" fill="#3a414a"/><use xlink:href="#a" transform="matrix(1,0,0,1,610.8341127334293,726.3886406396438) translate(0 8.888888888888888)"/><use xlink:href="#b" transform="matrix(1,0,0,1,610.8341127334293,726.3886406396438) translate(30.216049382716044 8.888888888888888)"/><path d="M401.7 783.48v-33.5a6 6 0 0 0-6-6H116a6 6 0 0 0-6 6v63.67" stroke="#3a414a" fill="none"/><path d="M402.2 783.67l-1 .6v-.8h1z" stroke="#3a414a" stroke-width=".05" fill="#3a414a"/><path d="M110 828.42l-4.64-14.27h9.28z" stroke="#3a414a" fill="#3a414a"/><use xlink:href="#a" transform="matrix(1,0,0,1,194.18585678912044,726.6427770455149) translate(0 8.888888888888888)"/><use xlink:href="#c" transform="matrix(1,0,0,1,194.18585678912044,726.6427770455149) translate(30.216049382716044 8.888888888888888)"/><use xlink:href="#d" transform="matrix(1,0,0,1,194.18585678912044,726.6427770455149) translate(74.62962962962962 8.888888888888888)"/><path d="M790 891.46v75.26a6 6 0 0 1-6 6H510.5a6 6 0 0 1-6-6V949.1" stroke="#3a414a" fill="none"/><path d="M790.5 890.96v.52h-1v-.52z" stroke="#3a414a" stroke-width=".05" fill="#3a414a"/><path d="M504.5 934.34l4.63 14.26h-9.27z" stroke="#3a414a" fill="#3a414a"/><use xlink:href="#a" transform="matrix(1,0,0,1,588.2803707633271,976.718311549941) translate(0 8.888888888888888)"/><use xlink:href="#c" transform="matrix(1,0,0,1,588.2803707633271,976.718311549941) translate(30.216049382716044 8.888888888888888)"/><use xlink:href="#d" transform="matrix(1,0,0,1,588.2803707633271,976.718311549941) translate(74.62962962962962 8.888888888888888)"/><path d="M110 891.47v75.45a6 6 0 0 0 6 6h273.77a6 6 0 0 0 6-6V949.3" stroke="#3a414a" fill="none"/><path d="M110.5 891.48h-1v-.5h1z" stroke="#3a414a" stroke-width=".05" fill="#3a414a"/><path d="M395.77 934.54l4.63 14.26h-9.27z" stroke="#3a414a" fill="#3a414a"/><use xlink:href="#a" transform="matrix(1,0,0,1,212.17615548041772,976.9173228347198) translate(0 8.888888888888888)"/><use xlink:href="#b" transform="matrix(1,0,0,1,212.17615548041772,976.9173228347198) translate(30.216049382716044 8.888888888888888)"/><path d="M540 860.5c0 49.7-40.3 90-90 90s-90-40.3-90-90 40.3-90 90-90 90 40.3 90 90z" stroke="#3a414a" fill="#fff"/><use xlink:href="#e" transform="matrix(1,0,0,1,365.00000000000006,775.5021826280281) translate(77.28395061728395 77.95138888888889)"/><use xlink:href="#f" transform="matrix(1,0,0,1,365.00000000000006,775.5021826280281) translate(28.842592592592595 91.28472222222221)"/><use xlink:href="#g" transform="matrix(1,0,0,1,365.00000000000006,775.5021826280281) translate(70.2006172839506 91.28472222222221)"/><use xlink:href="#h" transform="matrix(1,0,0,1,365.00000000000006,775.5021826280281) translate(91.80555555555554 91.28472222222221)"/><use xlink:href="#i" transform="matrix(1,0,0,1,365.00000000000006,775.5021826280281) translate(104.15123456790123 91.28472222222221)"/><path d="M20 836.5a6 6 0 0 1 6-6h159a6 6 0 0 1 6 6v45a6 6 0 0 1-6 6H26a6 6 0 0 1-6-6z" stroke="#3a414a" fill="#fff"/><path d="M29 839.5a6 6 0 0 1 6-6h159a6 6 0 0 1 6 6v45a6 6 0 0 1-6 6H35a6 6 0 0 1-6-6z" stroke="#3a414a" fill="#fff"/><g><use xlink:href="#j" transform="matrix(1,0,0,1,42.00000000000007,830.5021826280281) translate(50.8641975308642 32.22222222222222)"/></g><path d="M700 836.5a6 6 0 0 1 6-6h168a6 6 0 0 1 6 6v48a6 6 0 0 1-6 6H706a6 6 0 0 1-6-6z" fill="#fff"/><path d="M880 830.5H706a6 6 0 0 0-6 6v48a6 6 0 0 0 6 6h174" stroke="#3a414a" fill="none"/><g><use xlink:href="#k" transform="matrix(1,0,0,1,736,842.5021826280281) translate(27.84259259259261 20.22222222222222)"/></g><defs><path fill="#333" d="M30 0v-248h33v221h125V0H30" id="l"/><path fill="#333" d="M100-194c62-1 85 37 85 99 1 63-27 99-86 99S16-35 15-95c0-66 28-99 85-99zM99-20c44 1 53-31 53-75 0-43-8-75-51-75s-53 32-53 75 10 74 51 75" id="m"/><path fill="#333" d="M177-190C167-65 218 103 67 71c-23-6-38-20-44-43l32-5c15 47 100 32 89-28v-30C133-14 115 1 83 1 29 1 15-40 15-95c0-56 16-97 71-98 29-1 48 16 59 35 1-10 0-23 2-32h30zM94-22c36 0 50-32 50-73 0-42-14-75-50-75-39 0-46 34-46 75s6 73 46 73" id="n"/><path fill="#333" d="M24-231v-30h32v30H24zM24 0v-190h32V0H24" id="o"/><path fill="#333" d="M117-194c89-4 53 116 60 194h-32v-121c0-31-8-49-39-48C34-167 62-67 57 0H25l-1-190h30c1 10-1 24 2 32 11-22 29-35 61-36" id="p"/><g id="a"><use transform="matrix(0.030864197530864192,0,0,0.030864197530864192,0,0)" xlink:href="#l"/><use transform="matrix(0.030864197530864192,0,0,0.030864197530864192,6.1728395061728385,0)" xlink:href="#m"/><use transform="matrix(0.030864197530864192,0,0,0.030864197530864192,12.345679012345677,0)" xlink:href="#n"/><use transform="matrix(0.030864197530864192,0,0,0.030864197530864192,18.518518518518515,0)" xlink:href="#o"/><use transform="matrix(0.030864197530864192,0,0,0.030864197530864192,20.956790123456788,0)" xlink:href="#p"/></g><path fill="#333" d="M233-177c-1 41-23 64-60 70L243 0h-38l-65-103H63V0H30v-248c88 3 205-21 203 71zM63-129c60-2 137 13 137-47 0-61-80-42-137-45v92" id="q"/><path fill="#333" d="M100-194c63 0 86 42 84 106H49c0 40 14 67 53 68 26 1 43-12 49-29l28 8c-11 28-37 45-77 45C44 4 14-33 15-96c1-61 26-98 85-98zm52 81c6-60-76-77-97-28-3 7-6 17-6 28h103" id="r"/><path fill="#333" d="M145-31C134-9 116 4 85 4 32 4 16-35 15-94c0-59 17-99 70-100 32-1 48 14 60 33 0-11-1-24 2-32h30l-1 268h-32zM93-21c41 0 51-33 51-76s-8-73-50-73c-40 0-46 35-46 75s5 74 45 74" id="s"/><path fill="#333" d="M84 4C-5 8 30-112 23-190h32v120c0 31 7 50 39 49 72-2 45-101 50-169h31l1 190h-30c-1-10 1-25-2-33-11 22-28 36-60 37" id="t"/><path fill="#333" d="M135-143c-3-34-86-38-87 0 15 53 115 12 119 90S17 21 10-45l28-5c4 36 97 45 98 0-10-56-113-15-118-90-4-57 82-63 122-42 12 7 21 19 24 35" id="u"/><path fill="#333" d="M59-47c-2 24 18 29 38 22v24C64 9 27 4 27-40v-127H5v-23h24l9-43h21v43h35v23H59v120" id="v"/><g id="b"><use transform="matrix(0.030864197530864192,0,0,0.030864197530864192,0,0)" xlink:href="#q"/><use transform="matrix(0.030864197530864192,0,0,0.030864197530864192,7.993827160493826,0)" xlink:href="#r"/><use transform="matrix(0.030864197530864192,0,0,0.030864197530864192,14.166666666666664,0)" xlink:href="#s"/><use transform="matrix(0.030864197530864192,0,0,0.030864197530864192,20.339506172839503,0)" xlink:href="#t"/><use transform="matrix(0.030864197530864192,0,0,0.030864197530864192,26.51234567901234,0)" xlink:href="#r"/><use transform="matrix(0.030864197530864192,0,0,0.030864197530864192,32.685185185185176,0)" xlink:href="#u"/><use transform="matrix(0.030864197530864192,0,0,0.030864197530864192,38.24074074074073,0)" xlink:href="#v"/></g><g id="c"><use transform="matrix(0.030864197530864192,0,0,0.030864197530864192,0,0)" xlink:href="#q"/><use transform="matrix(0.030864197530864192,0,0,0.030864197530864192,7.993827160493826,0)" xlink:href="#r"/><use transform="matrix(0.030864197530864192,0,0,0.030864197530864192,14.166666666666664,0)" xlink:href="#s"/><use transform="matrix(0.030864197530864192,0,0,0.030864197530864192,20.339506172839503,0)" xlink:href="#t"/><use transform="matrix(0.030864197530864192,0,0,0.030864197530864192,26.51234567901234,0)" xlink:href="#r"/><use transform="matrix(0.030864197530864192,0,0,0.030864197530864192,32.685185185185176,0)" xlink:href="#u"/><use transform="matrix(0.030864197530864192,0,0,0.030864197530864192,38.24074074074073,0)" xlink:href="#v"/></g><path fill="#333" d="M205 0l-28-72H64L36 0H1l101-248h38L239 0h-34zm-38-99l-47-123c-12 45-31 82-46 123h93" id="w"/><path fill="#333" d="M96-169c-40 0-48 33-48 73s9 75 48 75c24 0 41-14 43-38l32 2c-6 37-31 61-74 61-59 0-76-41-82-99-10-93 101-131 147-64 4 7 5 14 7 22l-32 3c-4-21-16-35-41-35" id="x"/><path fill="#333" d="M115-194c55 1 70 41 70 98S169 2 115 4C84 4 66-9 55-30l1 105H24l-1-265h31l2 30c10-21 28-34 59-34zm-8 174c40 0 45-34 45-75s-6-73-45-74c-42 0-51 32-51 76 0 43 10 73 51 73" id="y"/><path fill="#333" d="M85-194c31 0 48 13 60 33l-1-100h32l1 261h-30c-2-10 0-23-3-31C134-8 116 4 85 4 32 4 16-35 15-94c0-66 23-100 70-100zm9 24c-40 0-46 34-46 75 0 40 6 74 45 74 42 0 51-32 51-76 0-42-9-74-50-73" id="z"/><g id="d"><use transform="matrix(0.030864197530864192,0,0,0.030864197530864192,0,0)" xlink:href="#w"/><use transform="matrix(0.030864197530864192,0,0,0.030864197530864192,7.4074074074074066,0)" xlink:href="#x"/><use transform="matrix(0.030864197530864192,0,0,0.030864197530864192,12.962962962962962,0)" xlink:href="#x"/><use transform="matrix(0.030864197530864192,0,0,0.030864197530864192,18.518518518518515,0)" xlink:href="#r"/><use transform="matrix(0.030864197530864192,0,0,0.030864197530864192,24.691358024691354,0)" xlink:href="#y"/><use transform="matrix(0.030864197530864192,0,0,0.030864197530864192,30.864197530864192,0)" xlink:href="#v"/><use transform="matrix(0.030864197530864192,0,0,0.030864197530864192,33.95061728395061,0)" xlink:href="#r"/><use transform="matrix(0.030864197530864192,0,0,0.030864197530864192,40.123456790123456,0)" xlink:href="#z"/></g><path fill="#3a414a" d="M155-56V0h-30v-56H8v-25l114-167h33v167h35v25h-35zm-30-156c-27 46-58 90-88 131h88v-131" id="A"/><path fill="#3a414a" d="M33 0v-38h34V0H33" id="B"/><path fill="#3a414a" d="M101-251c68 0 85 55 85 127S166 4 100 4C33 4 14-52 14-124c0-73 17-127 87-127zm-1 229c47 0 54-49 54-102s-4-102-53-102c-51 0-55 48-55 102 0 53 5 102 54 102" id="C"/><g id="e"><use transform="matrix(0.030864197530864192,0,0,0.030864197530864192,0,0)" xlink:href="#A"/><use transform="matrix(0.030864197530864192,0,0,0.030864197530864192,6.1728395061728385,0)" xlink:href="#B"/><use transform="matrix(0.030864197530864192,0,0,0.030864197530864192,9.259259259259258,0)" xlink:href="#C"/></g><path fill="#3a414a" d="M185-189c-5-48-123-54-124 2 14 75 158 14 163 119 3 78-121 87-175 55-17-10-28-26-33-46l33-7c5 56 141 63 141-1 0-78-155-14-162-118-5-82 145-84 179-34 5 7 8 16 11 25" id="D"/><path fill="#3a414a" d="M59-47c-2 24 18 29 38 22v24C64 9 27 4 27-40v-127H5v-23h24l9-43h21v43h35v23H59v120" id="E"/><path fill="#3a414a" d="M84 4C-5 8 30-112 23-190h32v120c0 31 7 50 39 49 72-2 45-101 50-169h31l1 190h-30c-1-10 1-25-2-33-11 22-28 36-60 37" id="F"/><path fill="#3a414a" d="M85-194c31 0 48 13 60 33l-1-100h32l1 261h-30c-2-10 0-23-3-31C134-8 116 4 85 4 32 4 16-35 15-94c0-66 23-100 70-100zm9 24c-40 0-46 34-46 75 0 40 6 74 45 74 42 0 51-32 51-76 0-42-9-74-50-73" id="G"/><path fill="#3a414a" d="M100-194c63 0 86 42 84 106H49c0 40 14 67 53 68 26 1 43-12 49-29l28 8c-11 28-37 45-77 45C44 4 14-33 15-96c1-61 26-98 85-98zm52 81c6-60-76-77-97-28-3 7-6 17-6 28h103" id="H"/><path fill="#3a414a" d="M117-194c89-4 53 116 60 194h-32v-121c0-31-8-49-39-48C34-167 62-67 57 0H25l-1-190h30c1 10-1 24 2 32 11-22 29-35 61-36" id="I"/><g id="f"><use transform="matrix(0.030864197530864192,0,0,0.030864197530864192,0,0)" xlink:href="#D"/><use transform="matrix(0.030864197530864192,0,0,0.030864197530864192,7.4074074074074066,0)" xlink:href="#E"/><use transform="matrix(0.030864197530864192,0,0,0.030864197530864192,10.493827160493826,0)" xlink:href="#F"/><use transform="matrix(0.030864197530864192,0,0,0.030864197530864192,16.666666666666664,0)" xlink:href="#G"/><use transform="matrix(0.030864197530864192,0,0,0.030864197530864192,22.839506172839503,0)" xlink:href="#H"/><use transform="matrix(0.030864197530864192,0,0,0.030864197530864192,29.01234567901234,0)" xlink:href="#I"/><use transform="matrix(0.030864197530864192,0,0,0.030864197530864192,35.185185185185176,0)" xlink:href="#E"/></g><path fill="#3a414a" d="M30 0v-248h33v221h125V0H30" id="J"/><path fill="#3a414a" d="M100-194c62-1 85 37 85 99 1 63-27 99-86 99S16-35 15-95c0-66 28-99 85-99zM99-20c44 1 53-31 53-75 0-43-8-75-51-75s-53 32-53 75 10 74 51 75" id="K"/><path fill="#3a414a" d="M177-190C167-65 218 103 67 71c-23-6-38-20-44-43l32-5c15 47 100 32 89-28v-30C133-14 115 1 83 1 29 1 15-40 15-95c0-56 16-97 71-98 29-1 48 16 59 35 1-10 0-23 2-32h30zM94-22c36 0 50-32 50-73 0-42-14-75-50-75-39 0-46 34-46 75s6 73 46 73" id="L"/><g id="g"><use transform="matrix(0.030864197530864192,0,0,0.030864197530864192,0,0)" xlink:href="#J"/><use transform="matrix(0.030864197530864192,0,0,0.030864197530864192,6.1728395061728385,0)" xlink:href="#K"/><use transform="matrix(0.030864197530864192,0,0,0.030864197530864192,12.345679012345677,0)" xlink:href="#L"/></g><path fill="#3a414a" d="M33 0v-248h34V0H33" id="M"/><g id="h"><use transform="matrix(0.030864197530864192,0,0,0.030864197530864192,0,0)" xlink:href="#M"/><use transform="matrix(0.030864197530864192,0,0,0.030864197530864192,3.0864197530864192,0)" xlink:href="#I"/></g><path fill="#3a414a" d="M179-190L93 31C79 59 56 82 12 73V49c39 6 53-20 64-50L1-190h34L92-34l54-156h33" id="N"/><path fill="#3a414a" d="M135-143c-3-34-86-38-87 0 15 53 115 12 119 90S17 21 10-45l28-5c4 36 97 45 98 0-10-56-113-15-118-90-4-57 82-63 122-42 12 7 21 19 24 35" id="O"/><path fill="#3a414a" d="M210-169c-67 3-38 105-44 169h-31v-121c0-29-5-50-35-48C34-165 62-65 56 0H25l-1-190h30c1 10-1 24 2 32 10-44 99-50 107 0 11-21 27-35 58-36 85-2 47 119 55 194h-31v-121c0-29-5-49-35-48" id="P"/><g id="i"><use transform="matrix(0.030864197530864192,0,0,0.030864197530864192,0,0)" xlink:href="#D"/><use transform="matrix(0.030864197530864192,0,0,0.030864197530864192,7.4074074074074066,0)" xlink:href="#N"/><use transform="matrix(0.030864197530864192,0,0,0.030864197530864192,12.962962962962962,0)" xlink:href="#O"/><use transform="matrix(0.030864197530864192,0,0,0.030864197530864192,18.518518518518515,0)" xlink:href="#E"/><use transform="matrix(0.030864197530864192,0,0,0.030864197530864192,21.604938271604937,0)" xlink:href="#H"/><use transform="matrix(0.030864197530864192,0,0,0.030864197530864192,27.777777777777775,0)" xlink:href="#P"/></g><g id="j"><use transform="matrix(0.030864197530864192,0,0,0.030864197530864192,0,0)" xlink:href="#D"/><use transform="matrix(0.030864197530864192,0,0,0.030864197530864192,7.4074074074074066,0)" xlink:href="#E"/><use transform="matrix(0.030864197530864192,0,0,0.030864197530864192,10.493827160493826,0)" xlink:href="#F"/><use transform="matrix(0.030864197530864192,0,0,0.030864197530864192,16.666666666666664,0)" xlink:href="#G"/><use transform="matrix(0.030864197530864192,0,0,0.030864197530864192,22.839506172839503,0)" xlink:href="#H"/><use transform="matrix(0.030864197530864192,0,0,0.030864197530864192,29.01234567901234,0)" xlink:href="#I"/><use transform="matrix(0.030864197530864192,0,0,0.030864197530864192,35.185185185185176,0)" xlink:href="#E"/></g><path fill="#3a414a" d="M127-220V0H93v-220H8v-28h204v28h-85" id="Q"/><path fill="#3a414a" d="M232-93c-1 65-40 97-104 97C67 4 28-28 28-90v-158h33c8 89-33 224 67 224 102 0 64-133 71-224h33v155" id="R"/><path fill="#3a414a" d="M30-248c118-7 216 8 213 122C240-48 200 0 122 0H30v-248zM63-27c89 8 146-16 146-99s-60-101-146-95v194" id="S"/><path fill="#3a414a" d="M30 0v-248h187v28H63v79h144v27H63v87h162V0H30" id="T"/><path fill="#3a414a" d="M190 0L58-211 59 0H30v-248h39L202-35l-2-213h31V0h-41" id="U"/><g id="k"><use transform="matrix(0.030864197530864182,0,0,0.030864197530864182,0,0)" xlink:href="#D"/><use transform="matrix(0.030864197530864182,0,0,0.030864197530864182,7.407407407407404,0)" xlink:href="#Q"/><use transform="matrix(0.030864197530864182,0,0,0.030864197530864182,14.16666666666666,0)" xlink:href="#R"/><use transform="matrix(0.030864197530864182,0,0,0.030864197530864182,22.160493827160483,0)" xlink:href="#S"/><use transform="matrix(0.030864197530864182,0,0,0.030864197530864182,30.154320987654305,0)" xlink:href="#T"/><use transform="matrix(0.030864197530864182,0,0,0.030864197530864182,37.56172839506171,0)" xlink:href="#U"/><use transform="matrix(0.030864197530864182,0,0,0.030864197530864182,45.55555555555553,0)" xlink:href="#Q"/></g></defs></g></svg>