<svg xmlns="http://www.w3.org/2000/svg" xmlns:xlink="http://www.w3.org/1999/xlink" xmlns:lucid="lucid" width="799" height="701"><g transform="translate(-223 440)" lucid:page-tab-id="0_0"><path d="M670-387.7c0 22.08-17.9 40-40 40s-40-17.92-40-40c0-22.1 17.9-40 40-40s40 17.9 40 40z" stroke="#3a414a" fill="#fff"/><path d="M660-387.7c0 16.56-13.43 30-30 30s-30-13.44-30-30c0-16.58 13.43-30 30-30s30 13.42 30 30z" stroke="#3a414a" fill="#fff"/><use xlink:href="#a" transform="matrix(1,0,0,1,605,-412.70800524934384) translate(13.287037037037038 27.638888888888886)"/><path d="M630-346.7v22.1" stroke="#3a414a" fill="none"/><path d="M630-347.2l.5-.03v.54h-1v-.54z" stroke="#3a414a" stroke-width=".05" fill="#3a414a"/><path d="M630-309.83l-4.64-14.26h9.28z" stroke="#3a414a" fill="#3a414a"/><path d="M690-247.7c0 33.13-26.86 60-60 60s-60-26.87-60-60c0-33.15 26.86-60 60-60s60 26.85 60 60z" stroke="#3a414a" fill="#fff"/><use xlink:href="#b" transform="matrix(1,0,0,1,590,-307.70800524934384) translate(32.28395061728395 48.888888888888886)"/><use xlink:href="#c" transform="matrix(1,0,0,1,590,-307.70800524934384) translate(29.645061728395063 62.222222222222214)"/><use xlink:href="#d" transform="matrix(1,0,0,1,590,-307.70800524934384) translate(1.5740740740740833 75.55555555555554)"/><use xlink:href="#e" transform="matrix(1,0,0,1,590,-307.70800524934384) translate(38.58024691358025 75.55555555555554)"/><path d="M630-186.7v22.6" stroke="#3a414a" fill="none"/><path d="M630-187.2l.5-.03v.54h-1v-.53z" stroke="#3a414a" stroke-width=".05" fill="#3a414a"/><path d="M630-149.33l-4.64-14.26h9.28z" stroke="#3a414a" fill="#3a414a"/><path d="M670 211.3c0 22.08-17.9 40-40 40s-40-17.92-40-40c0-22.1 17.9-40 40-40s40 17.9 40 40z" stroke="#3a414a" fill="#282c33"/><path d="M660 211.3c0 16.56-13.43 30-30 30s-30-13.44-30-30c0-16.58 13.43-30 30-30s30 13.42 30 30z" stroke="#3a414a" fill="#fff"/><use xlink:href="#f" transform="matrix(1,0,0,1,605,186.29199475065616) translate(13.580246913580249 27.638888888888886)"/><path d="M230 18.3a6 6 0 0 1 6-6h159a6 6 0 0 1 6 6v45a6 6 0 0 1-6 6H236a6 6 0 0 1-6-6z" stroke="#3a414a" fill="#fff"/><path d="M239 21.3a6 6 0 0 1 6-6h159a6 6 0 0 1 6 6v45a6 6 0 0 1-6 6H245a6 6 0 0 1-6-6z" stroke="#3a414a" fill="#fff"/><use xlink:href="#g" transform="matrix(1,0,0,1,252,12.291994750656158) translate(50.8641975308642 32.22222222222222)"/><path d="M284.97 11.34V-325.1a6 6 0 0 1 6-6h290.95a6 6 0 0 1 6 6v17.6" stroke="#3a414a" fill="none"/><path d="M285.47 11.84h-1v-.5h1z" stroke="#3a414a" stroke-width=".05" fill="#3a414a"/><path d="M587.92-292.72L583.28-307h9.27z" stroke="#3a414a" fill="#3a414a"/><use xlink:href="#h" transform="matrix(1,0,0,1,357.7496770537829,-348.43691204545775) translate(0 8.888888888888888)"/><use xlink:href="#i" transform="matrix(1,0,0,1,357.7496770537829,-348.43691204545775) translate(26.882716049382715 8.888888888888888)"/><use xlink:href="#j" transform="matrix(1,0,0,1,357.7496770537829,-348.43691204545775) translate(85.43209876543207 8.888888888888888)"/><use xlink:href="#k" transform="matrix(1,0,0,1,357.7496770537829,-348.43691204545775) translate(117.53086419753083 8.888888888888888)"/><path d="M569-247.7H326a6 6 0 0 0-6 6V-4.57" stroke="#3a414a" fill="none"/><path d="M569.5-247.7l.02.5H569v-1h.52z" stroke="#3a414a" stroke-width=".05" fill="#3a414a"/><path d="M320 10.2l-4.64-14.26h9.28z" stroke="#3a414a" fill="#3a414a"/><use xlink:href="#l" transform="matrix(1,0,0,1,375.3724199217057,-265.04133858267716) translate(0 8.888888888888888)"/><use xlink:href="#i" transform="matrix(1,0,0,1,375.3724199217057,-265.04133858267716) translate(20.98765432098765 8.888888888888888)"/><use xlink:href="#j" transform="matrix(1,0,0,1,375.3724199217057,-265.04133858267716) translate(79.53703703703701 8.888888888888888)"/><use xlink:href="#m" transform="matrix(1,0,0,1,375.3724199217057,-265.04133858267716) translate(111.63580246913577 8.888888888888888)"/><path d="M690-86.7c0 33.13-26.86 60-60 60s-60-26.87-60-60c0-33.15 26.86-60 60-60s60 26.85 60 60z" stroke="#3a414a" fill="#fff"/><use xlink:href="#n" transform="matrix(1,0,0,1,590,-146.70800524934384) translate(32.28395061728395 48.888888888888886)"/><use xlink:href="#o" transform="matrix(1,0,0,1,590,-146.70800524934384) translate(-2.5771604938271437 62.222222222222214)"/><use xlink:href="#p" transform="matrix(1,0,0,1,590,-146.70800524934384) translate(26.435185185185187 75.55555555555554)"/><path d="M630-25.7v21.1" stroke="#3a414a" fill="none"/><path d="M630-26.2l.5-.03v.54h-1v-.53z" stroke="#3a414a" stroke-width=".05" fill="#3a414a"/><path d="M630 10.17L625.36-4.1h9.28z" stroke="#3a414a" fill="#3a414a"/><path d="M341.97 11.32V-80.7a6 6 0 0 1 6-6h205.15" stroke="#3a414a" fill="none"/><path d="M342.47 11.82h-1v-.52h1z" stroke="#3a414a" stroke-width=".05" fill="#3a414a"/><path d="M567.88-86.7l-14.26 4.63v-9.27z" stroke="#3a414a" fill="#3a414a"/><use xlink:href="#q" transform="matrix(1,0,0,1,429.8086957316996,-104.04133858267717) translate(0 8.888888888888888)"/><use xlink:href="#r" transform="matrix(1,0,0,1,429.8086957316996,-104.04133858267717) translate(30.216049382716044 8.888888888888888)"/><path d="M830-111.63a6 6 0 0 1 6-6h168a6 6 0 0 1 6 6v48a6 6 0 0 1-6 6H836a6 6 0 0 1-6-6z" fill="#fff"/><path d="M1010-117.63H836a6 6 0 0 0-6 6v48a6 6 0 0 0 6 6h174" stroke="#3a414a" fill="none"/><use xlink:href="#s" transform="matrix(1,0,0,1,866,-105.62532808398942) translate(27.84259259259261 20.22222222222222)"/><path d="M691-86.7h122.15" stroke="#3a414a" fill="none"/><path d="M691-86.2h-.52l.02-.5-.02-.5h.53z" stroke="#3a414a" stroke-width=".05" fill="#3a414a"/><path d="M827.92-86.7l-14.27 4.63v-9.27z" stroke="#3a414a" fill="#3a414a"/><use xlink:href="#t" transform="matrix(1,0,0,1,712.122608780981,-104.04133858267717) translate(0 8.88888888888889)"/><use xlink:href="#u" transform="matrix(1,0,0,1,712.122608780981,-104.04133858267717) translate(30.21604938271605 8.88888888888889)"/><path d="M895.94-56.67v33.04a6 6 0 0 1-6 6H726a6 6 0 0 1-6-6v-17.14a6 6 0 0 0-6-6h-22.23" stroke="#3a414a" fill="none"/><path d="M896.44-57.17v.5h-1v-.5z" stroke="#3a414a" stroke-width=".05" fill="#3a414a"/><path d="M677-46.77l14.27-4.64v9.26z" stroke="#3a414a" fill="#3a414a"/><use xlink:href="#t" transform="matrix(1,0,0,1,736.5632345167988,-34.95866141732275) translate(0 8.88888888888889)"/><use xlink:href="#v" transform="matrix(1,0,0,1,736.5632345167988,-34.95866141732275) translate(30.21604938271605 8.88888888888889)"/><use xlink:href="#w" transform="matrix(1,0,0,1,736.5632345167988,-34.95866141732275) translate(74.62962962962962 8.88888888888889)"/><path d="M572.4-66.73H384.67a6 6 0 0 0-6 6v56.15" stroke="#3a414a" fill="none"/><path d="M573.1-66.23h-.7v-1h.32z" stroke="#3a414a" stroke-width=".05" fill="#3a414a"/><path d="M378.66 10.18l-4.64-14.26h9.27z" stroke="#3a414a" fill="#3a414a"/><g><use xlink:href="#t" transform="matrix(1,0,0,1,415.6183287424408,-62.73254715929371) translate(0 8.88888888888889)"/><use xlink:href="#v" transform="matrix(1,0,0,1,415.6183287424408,-62.73254715929371) translate(30.21604938271605 8.88888888888889)"/><use xlink:href="#w" transform="matrix(1,0,0,1,415.6183287424408,-62.73254715929371) translate(74.62962962962962 8.88888888888889)"/></g><path d="M690 72.3c0 33.13-26.86 60-60 60s-60-26.87-60-60c0-33.15 26.86-60 60-60s60 26.85 60 60z" stroke="#3a414a" fill="#fff"/><g><use xlink:href="#x" transform="matrix(1,0,0,1,590,12.291994750656158) translate(32.28395061728395 55.55555555555556)"/><use xlink:href="#y" transform="matrix(1,0,0,1,590,12.291994750656158) translate(12.870370370370374 68.88888888888889)"/></g><path d="M920-56.66V66.3a6 6 0 0 1-6 6H706.88" stroke="#3a414a" fill="none"/><path d="M920.5-57.16v.5h-1v-.5z" stroke="#3a414a" stroke-width=".05" fill="#3a414a"/><path d="M692.12 72.3l14.26-4.64v9.27z" stroke="#3a414a" fill="#3a414a"/><g><use xlink:href="#z" transform="matrix(1,0,0,1,804.8253762302613,54.95866141732284) translate(0 8.88888888888889)"/></g><path d="M569.52 79.86H446a6 6 0 0 1-6-6V48.3a6 6 0 0 0-6-6h-7.15" stroke="#3a414a" fill="none"/><path d="M570.07 80.36h-.57v-1h.46z" stroke="#3a414a" stroke-width=".05" fill="#3a414a"/><path d="M412.08 42.3l14.27-4.64v9.27z" stroke="#3a414a" fill="#3a414a"/><g><use xlink:href="#A" transform="matrix(1,0,0,1,455.2689110756999,62.52663464204958) translate(0 8.88888888888889)"/><use xlink:href="#B" transform="matrix(1,0,0,1,455.2689110756999,62.52663464204958) translate(41.35802469135802 8.88888888888889)"/></g><path d="M630 133.3v21.1" stroke="#3a414a" fill="none"/><path d="M630 132.8l.5-.03v.54h-1v-.53z" stroke="#3a414a" stroke-width=".05" fill="#3a414a"/><path d="M630 169.17l-4.64-14.26h9.28z" stroke="#3a414a" fill="#3a414a"/><defs><path fill="#3a414a" d="M185-189c-5-48-123-54-124 2 14 75 158 14 163 119 3 78-121 87-175 55-17-10-28-26-33-46l33-7c5 56 141 63 141-1 0-78-155-14-162-118-5-82 145-84 179-34 5 7 8 16 11 25" id="C"/><path fill="#3a414a" d="M59-47c-2 24 18 29 38 22v24C64 9 27 4 27-40v-127H5v-23h24l9-43h21v43h35v23H59v120" id="D"/><path fill="#3a414a" d="M141-36C126-15 110 5 73 4 37 3 15-17 15-53c-1-64 63-63 125-63 3-35-9-54-41-54-24 1-41 7-42 31l-33-3c5-37 33-52 76-52 45 0 72 20 72 64v82c-1 20 7 32 28 27v20c-31 9-61-2-59-35zM48-53c0 20 12 33 32 33 41-3 63-29 60-74-43 2-92-5-92 41" id="E"/><path fill="#3a414a" d="M114-163C36-179 61-72 57 0H25l-1-190h30c1 12-1 29 2 39 6-27 23-49 58-41v29" id="F"/><g id="a"><use transform="matrix(0.030864197530864192,0,0,0.030864197530864192,0,0)" xlink:href="#C"/><use transform="matrix(0.030864197530864192,0,0,0.030864197530864192,7.4074074074074066,0)" xlink:href="#D"/><use transform="matrix(0.030864197530864192,0,0,0.030864197530864192,10.493827160493826,0)" xlink:href="#E"/><use transform="matrix(0.030864197530864192,0,0,0.030864197530864192,16.666666666666664,0)" xlink:href="#F"/><use transform="matrix(0.030864197530864192,0,0,0.030864197530864192,20.339506172839503,0)" xlink:href="#D"/></g><path fill="#3a414a" d="M54-142c48-35 137-8 131 61C196 18 31 33 14-55l32-4c7 23 22 37 52 37 35-1 51-22 54-58 4-55-73-65-99-34H22l8-134h141v27H59" id="G"/><path fill="#3a414a" d="M33 0v-38h34V0H33" id="H"/><path fill="#3a414a" d="M101-251c68 0 85 55 85 127S166 4 100 4C33 4 14-52 14-124c0-73 17-127 87-127zm-1 229c47 0 54-49 54-102s-4-102-53-102c-51 0-55 48-55 102 0 53 5 102 54 102" id="I"/><g id="b"><use transform="matrix(0.030864197530864192,0,0,0.030864197530864192,0,0)" xlink:href="#G"/><use transform="matrix(0.030864197530864192,0,0,0.030864197530864192,6.1728395061728385,0)" xlink:href="#H"/><use transform="matrix(0.030864197530864192,0,0,0.030864197530864192,9.259259259259258,0)" xlink:href="#I"/></g><path fill="#3a414a" d="M137 0h-34L2-248h35l83 218 83-218h36" id="J"/><path fill="#3a414a" d="M24-231v-30h32v30H24zM24 0v-190h32V0H24" id="K"/><path fill="#3a414a" d="M135-143c-3-34-86-38-87 0 15 53 115 12 119 90S17 21 10-45l28-5c4 36 97 45 98 0-10-56-113-15-118-90-4-57 82-63 122-42 12 7 21 19 24 35" id="L"/><g id="c"><use transform="matrix(0.030864197530864192,0,0,0.030864197530864192,0,0)" xlink:href="#J"/><use transform="matrix(0.030864197530864192,0,0,0.030864197530864192,7.1913580246913575,0)" xlink:href="#K"/><use transform="matrix(0.030864197530864192,0,0,0.030864197530864192,9.62962962962963,0)" xlink:href="#L"/><use transform="matrix(0.030864197530864192,0,0,0.030864197530864192,15.185185185185183,0)" xlink:href="#K"/><use transform="matrix(0.030864197530864192,0,0,0.030864197530864192,17.623456790123456,0)" xlink:href="#D"/></g><path fill="#3a414a" d="M96-169c-40 0-48 33-48 73s9 75 48 75c24 0 41-14 43-38l32 2c-6 37-31 61-74 61-59 0-76-41-82-99-10-93 101-131 147-64 4 7 5 14 7 22l-32 3c-4-21-16-35-41-35" id="M"/><path fill="#3a414a" d="M106-169C34-169 62-67 57 0H25v-261h32l-1 103c12-21 28-36 61-36 89 0 53 116 60 194h-32v-121c2-32-8-49-39-48" id="N"/><path fill="#3a414a" d="M100-194c62-1 85 37 85 99 1 63-27 99-86 99S16-35 15-95c0-66 28-99 85-99zM99-20c44 1 53-31 53-75 0-43-8-75-51-75s-53 32-53 75 10 74 51 75" id="O"/><path fill="#3a414a" d="M24 0v-261h32V0H24" id="P"/><g id="d"><use transform="matrix(0.030864197530864192,0,0,0.030864197530864192,0,0)" xlink:href="#C"/><use transform="matrix(0.030864197530864192,0,0,0.030864197530864192,7.4074074074074066,0)" xlink:href="#M"/><use transform="matrix(0.030864197530864192,0,0,0.030864197530864192,12.962962962962962,0)" xlink:href="#N"/><use transform="matrix(0.030864197530864192,0,0,0.030864197530864192,19.1358024691358,0)" xlink:href="#O"/><use transform="matrix(0.030864197530864192,0,0,0.030864197530864192,25.30864197530864,0)" xlink:href="#O"/><use transform="matrix(0.030864197530864192,0,0,0.030864197530864192,31.481481481481477,0)" xlink:href="#P"/></g><path fill="#3a414a" d="M266 0h-40l-56-210L115 0H75L2-248h35L96-30l15-64 43-154h32l59 218 59-218h35" id="Q"/><path fill="#3a414a" d="M100-194c63 0 86 42 84 106H49c0 40 14 67 53 68 26 1 43-12 49-29l28 8c-11 28-37 45-77 45C44 4 14-33 15-96c1-61 26-98 85-98zm52 81c6-60-76-77-97-28-3 7-6 17-6 28h103" id="R"/><path fill="#3a414a" d="M115-194c53 0 69 39 70 98 0 66-23 100-70 100C84 3 66-7 56-30L54 0H23l1-261h32v101c10-23 28-34 59-34zm-8 174c40 0 45-34 45-75 0-40-5-75-45-74-42 0-51 32-51 76 0 43 10 73 51 73" id="S"/><g id="e"><use transform="matrix(0.030864197530864192,0,0,0.030864197530864192,0,0)" xlink:href="#Q"/><use transform="matrix(0.030864197530864192,0,0,0.030864197530864192,10.246913580246913,0)" xlink:href="#R"/><use transform="matrix(0.030864197530864192,0,0,0.030864197530864192,16.419753086419753,0)" xlink:href="#S"/><use transform="matrix(0.030864197530864192,0,0,0.030864197530864192,22.59259259259259,0)" xlink:href="#L"/><use transform="matrix(0.030864197530864192,0,0,0.030864197530864192,28.148148148148145,0)" xlink:href="#K"/><use transform="matrix(0.030864197530864192,0,0,0.030864197530864192,30.586419753086417,0)" xlink:href="#D"/><use transform="matrix(0.030864197530864192,0,0,0.030864197530864192,33.672839506172835,0)" xlink:href="#R"/></g><path fill="#3a414a" d="M115-194c55 1 70 41 70 98S169 2 115 4C84 4 66-9 55-30l1 105H24l-1-265h31l2 30c10-21 28-34 59-34zm-8 174c40 0 45-34 45-75s-6-73-45-74c-42 0-51 32-51 76 0 43 10 73 51 73" id="T"/><g id="f"><use transform="matrix(0.030864197530864192,0,0,0.030864197530864192,0,0)" xlink:href="#C"/><use transform="matrix(0.030864197530864192,0,0,0.030864197530864192,7.4074074074074066,0)" xlink:href="#D"/><use transform="matrix(0.030864197530864192,0,0,0.030864197530864192,10.493827160493826,0)" xlink:href="#O"/><use transform="matrix(0.030864197530864192,0,0,0.030864197530864192,16.666666666666664,0)" xlink:href="#T"/></g><path fill="#3a414a" d="M84 4C-5 8 30-112 23-190h32v120c0 31 7 50 39 49 72-2 45-101 50-169h31l1 190h-30c-1-10 1-25-2-33-11 22-28 36-60 37" id="U"/><path fill="#3a414a" d="M85-194c31 0 48 13 60 33l-1-100h32l1 261h-30c-2-10 0-23-3-31C134-8 116 4 85 4 32 4 16-35 15-94c0-66 23-100 70-100zm9 24c-40 0-46 34-46 75 0 40 6 74 45 74 42 0 51-32 51-76 0-42-9-74-50-73" id="V"/><path fill="#3a414a" d="M117-194c89-4 53 116 60 194h-32v-121c0-31-8-49-39-48C34-167 62-67 57 0H25l-1-190h30c1 10-1 24 2 32 11-22 29-35 61-36" id="W"/><g id="g"><use transform="matrix(0.030864197530864192,0,0,0.030864197530864192,0,0)" xlink:href="#C"/><use transform="matrix(0.030864197530864192,0,0,0.030864197530864192,7.4074074074074066,0)" xlink:href="#D"/><use transform="matrix(0.030864197530864192,0,0,0.030864197530864192,10.493827160493826,0)" xlink:href="#U"/><use transform="matrix(0.030864197530864192,0,0,0.030864197530864192,16.666666666666664,0)" xlink:href="#V"/><use transform="matrix(0.030864197530864192,0,0,0.030864197530864192,22.839506172839503,0)" xlink:href="#R"/><use transform="matrix(0.030864197530864192,0,0,0.030864197530864192,29.01234567901234,0)" xlink:href="#W"/><use transform="matrix(0.030864197530864192,0,0,0.030864197530864192,35.185185185185176,0)" xlink:href="#D"/></g><path fill="#333" d="M137 0h-34L2-248h35l83 218 83-218h36" id="X"/><path fill="#333" d="M24-231v-30h32v30H24zM24 0v-190h32V0H24" id="Y"/><path fill="#333" d="M100-194c63 0 86 42 84 106H49c0 40 14 67 53 68 26 1 43-12 49-29l28 8c-11 28-37 45-77 45C44 4 14-33 15-96c1-61 26-98 85-98zm52 81c6-60-76-77-97-28-3 7-6 17-6 28h103" id="Z"/><path fill="#333" d="M206 0h-36l-40-164L89 0H53L-1-190h32L70-26l43-164h34l41 164 42-164h31" id="aa"/><g id="h"><use transform="matrix(0.030864197530864192,0,0,0.030864197530864192,0,0)" xlink:href="#X"/><use transform="matrix(0.030864197530864192,0,0,0.030864197530864192,7.1913580246913575,0)" xlink:href="#Y"/><use transform="matrix(0.030864197530864192,0,0,0.030864197530864192,9.62962962962963,0)" xlink:href="#Z"/><use transform="matrix(0.030864197530864192,0,0,0.030864197530864192,15.80246913580247,0)" xlink:href="#aa"/></g><path fill="#333" d="M33 0v-248h34V0H33" id="ab"/><path fill="#333" d="M117-194c89-4 53 116 60 194h-32v-121c0-31-8-49-39-48C34-167 62-67 57 0H25l-1-190h30c1 10-1 24 2 32 11-22 29-35 61-36" id="ac"/><path fill="#333" d="M101-234c-31-9-42 10-38 44h38v23H63V0H32v-167H5v-23h27c-7-52 17-82 69-68v24" id="ad"/><path fill="#333" d="M100-194c62-1 85 37 85 99 1 63-27 99-86 99S16-35 15-95c0-66 28-99 85-99zM99-20c44 1 53-31 53-75 0-43-8-75-51-75s-53 32-53 75 10 74 51 75" id="ae"/><path fill="#333" d="M114-163C36-179 61-72 57 0H25l-1-190h30c1 12-1 29 2 39 6-27 23-49 58-41v29" id="af"/><path fill="#333" d="M210-169c-67 3-38 105-44 169h-31v-121c0-29-5-50-35-48C34-165 62-65 56 0H25l-1-190h30c1 10-1 24 2 32 10-44 99-50 107 0 11-21 27-35 58-36 85-2 47 119 55 194h-31v-121c0-29-5-49-35-48" id="ag"/><path fill="#333" d="M141-36C126-15 110 5 73 4 37 3 15-17 15-53c-1-64 63-63 125-63 3-35-9-54-41-54-24 1-41 7-42 31l-33-3c5-37 33-52 76-52 45 0 72 20 72 64v82c-1 20 7 32 28 27v20c-31 9-61-2-59-35zM48-53c0 20 12 33 32 33 41-3 63-29 60-74-43 2-92-5-92 41" id="ah"/><path fill="#333" d="M59-47c-2 24 18 29 38 22v24C64 9 27 4 27-40v-127H5v-23h24l9-43h21v43h35v23H59v120" id="ai"/><g id="i"><use transform="matrix(0.030864197530864192,0,0,0.030864197530864192,0,0)" xlink:href="#ab"/><use transform="matrix(0.030864197530864192,0,0,0.030864197530864192,3.0864197530864192,0)" xlink:href="#ac"/><use transform="matrix(0.030864197530864192,0,0,0.030864197530864192,9.259259259259258,0)" xlink:href="#ad"/><use transform="matrix(0.030864197530864192,0,0,0.030864197530864192,12.345679012345677,0)" xlink:href="#ae"/><use transform="matrix(0.030864197530864192,0,0,0.030864197530864192,18.518518518518515,0)" xlink:href="#af"/><use transform="matrix(0.030864197530864192,0,0,0.030864197530864192,22.191358024691354,0)" xlink:href="#ag"/><use transform="matrix(0.030864197530864192,0,0,0.030864197530864192,31.419753086419746,0)" xlink:href="#ah"/><use transform="matrix(0.030864197530864192,0,0,0.030864197530864192,37.59259259259258,0)" xlink:href="#ai"/><use transform="matrix(0.030864197530864192,0,0,0.030864197530864192,40.679012345679,0)" xlink:href="#Y"/><use transform="matrix(0.030864197530864192,0,0,0.030864197530864192,43.11728395061727,0)" xlink:href="#ae"/><use transform="matrix(0.030864197530864192,0,0,0.030864197530864192,49.29012345679011,0)" xlink:href="#ac"/></g><path fill="#333" d="M205 0l-28-72H64L36 0H1l101-248h38L239 0h-34zm-38-99l-47-123c-12 45-31 82-46 123h93" id="aj"/><path fill="#333" d="M115-194c53 0 69 39 70 98 0 66-23 100-70 100C84 3 66-7 56-30L54 0H23l1-261h32v101c10-23 28-34 59-34zm-8 174c40 0 45-34 45-75 0-40-5-75-45-74-42 0-51 32-51 76 0 43 10 73 51 73" id="ak"/><path fill="#333" d="M84 4C-5 8 30-112 23-190h32v120c0 31 7 50 39 49 72-2 45-101 50-169h31l1 190h-30c-1-10 1-25-2-33-11 22-28 36-60 37" id="al"/><g id="j"><use transform="matrix(0.030864197530864192,0,0,0.030864197530864192,0,0)" xlink:href="#aj"/><use transform="matrix(0.030864197530864192,0,0,0.030864197530864192,7.4074074074074066,0)" xlink:href="#ak"/><use transform="matrix(0.030864197530864192,0,0,0.030864197530864192,13.580246913580245,0)" xlink:href="#ae"/><use transform="matrix(0.030864197530864192,0,0,0.030864197530864192,19.75308641975308,0)" xlink:href="#al"/><use transform="matrix(0.030864197530864192,0,0,0.030864197530864192,25.92592592592592,0)" xlink:href="#ai"/></g><path fill="#333" d="M185-189c-5-48-123-54-124 2 14 75 158 14 163 119 3 78-121 87-175 55-17-10-28-26-33-46l33-7c5 56 141 63 141-1 0-78-155-14-162-118-5-82 145-84 179-34 5 7 8 16 11 25" id="am"/><path fill="#333" d="M96-169c-40 0-48 33-48 73s9 75 48 75c24 0 41-14 43-38l32 2c-6 37-31 61-74 61-59 0-76-41-82-99-10-93 101-131 147-64 4 7 5 14 7 22l-32 3c-4-21-16-35-41-35" id="an"/><path fill="#333" d="M106-169C34-169 62-67 57 0H25v-261h32l-1 103c12-21 28-36 61-36 89 0 53 116 60 194h-32v-121c2-32-8-49-39-48" id="ao"/><path fill="#333" d="M24 0v-261h32V0H24" id="ap"/><g id="k"><use transform="matrix(0.030864197530864192,0,0,0.030864197530864192,0,0)" xlink:href="#am"/><use transform="matrix(0.030864197530864192,0,0,0.030864197530864192,7.4074074074074066,0)" xlink:href="#an"/><use transform="matrix(0.030864197530864192,0,0,0.030864197530864192,12.962962962962962,0)" xlink:href="#ao"/><use transform="matrix(0.030864197530864192,0,0,0.030864197530864192,19.1358024691358,0)" xlink:href="#ae"/><use transform="matrix(0.030864197530864192,0,0,0.030864197530864192,25.30864197530864,0)" xlink:href="#ae"/><use transform="matrix(0.030864197530864192,0,0,0.030864197530864192,31.481481481481477,0)" xlink:href="#ap"/></g><path fill="#333" d="M143 4C61 4 22-44 18-125c-5-107 100-154 193-111 17 8 29 25 37 43l-32 9c-13-25-37-40-76-40-61 0-88 39-88 99 0 61 29 100 91 101 35 0 62-11 79-27v-45h-74v-28h105v86C228-13 192 4 143 4" id="aq"/><g id="l"><use transform="matrix(0.030864197530864192,0,0,0.030864197530864192,0,0)" xlink:href="#aq"/><use transform="matrix(0.030864197530864192,0,0,0.030864197530864192,8.641975308641975,0)" xlink:href="#Z"/><use transform="matrix(0.030864197530864192,0,0,0.030864197530864192,14.814814814814813,0)" xlink:href="#ai"/></g><g id="m"><use transform="matrix(0.030864197530864192,0,0,0.030864197530864192,0,0)" xlink:href="#am"/><use transform="matrix(0.030864197530864192,0,0,0.030864197530864192,7.4074074074074066,0)" xlink:href="#an"/><use transform="matrix(0.030864197530864192,0,0,0.030864197530864192,12.962962962962962,0)" xlink:href="#ao"/><use transform="matrix(0.030864197530864192,0,0,0.030864197530864192,19.1358024691358,0)" xlink:href="#ae"/><use transform="matrix(0.030864197530864192,0,0,0.030864197530864192,25.30864197530864,0)" xlink:href="#ae"/><use transform="matrix(0.030864197530864192,0,0,0.030864197530864192,31.481481481481477,0)" xlink:href="#ai"/></g><path fill="#3a414a" d="M27 0v-27h64v-190l-56 39v-29l58-41h29v221h61V0H27" id="ar"/><g id="n"><use transform="matrix(0.030864197530864192,0,0,0.030864197530864192,0,0)" xlink:href="#G"/><use transform="matrix(0.030864197530864192,0,0,0.030864197530864192,6.1728395061728385,0)" xlink:href="#H"/><use transform="matrix(0.030864197530864192,0,0,0.030864197530864192,9.259259259259258,0)" xlink:href="#ar"/></g><path fill="#3a414a" d="M0 4l72-265h28L28 4H0" id="as"/><path fill="#3a414a" d="M30-248c87 1 191-15 191 75 0 78-77 80-158 76V0H30v-248zm33 125c57 0 124 11 124-50 0-59-68-47-124-48v98" id="at"/><g id="o"><use transform="matrix(0.030864197530864192,0,0,0.030864197530864192,0,0)" xlink:href="#C"/><use transform="matrix(0.030864197530864192,0,0,0.030864197530864192,7.4074074074074066,0)" xlink:href="#D"/><use transform="matrix(0.030864197530864192,0,0,0.030864197530864192,10.493827160493826,0)" xlink:href="#U"/><use transform="matrix(0.030864197530864192,0,0,0.030864197530864192,16.666666666666664,0)" xlink:href="#V"/><use transform="matrix(0.030864197530864192,0,0,0.030864197530864192,22.839506172839503,0)" xlink:href="#R"/><use transform="matrix(0.030864197530864192,0,0,0.030864197530864192,29.01234567901234,0)" xlink:href="#W"/><use transform="matrix(0.030864197530864192,0,0,0.030864197530864192,35.185185185185176,0)" xlink:href="#D"/><use transform="matrix(0.030864197530864192,0,0,0.030864197530864192,38.271604938271594,0)" xlink:href="#L"/><use transform="matrix(0.030864197530864192,0,0,0.030864197530864192,43.82716049382715,0)" xlink:href="#as"/><use transform="matrix(0.030864197530864192,0,0,0.030864197530864192,46.91358024691357,0)" xlink:href="#at"/><use transform="matrix(0.030864197530864192,0,0,0.030864197530864192,54.32098765432097,0)" xlink:href="#E"/><use transform="matrix(0.030864197530864192,0,0,0.030864197530864192,60.49382716049381,0)" xlink:href="#F"/><use transform="matrix(0.030864197530864192,0,0,0.030864197530864192,64.16666666666664,0)" xlink:href="#R"/><use transform="matrix(0.030864197530864192,0,0,0.030864197530864192,70.33950617283948,0)" xlink:href="#W"/><use transform="matrix(0.030864197530864192,0,0,0.030864197530864192,76.51234567901231,0)" xlink:href="#D"/><use transform="matrix(0.030864197530864192,0,0,0.030864197530864192,79.59876543209873,0)" xlink:href="#L"/></g><path fill="#3a414a" d="M30 0v-248h33v221h125V0H30" id="au"/><path fill="#3a414a" d="M177-190C167-65 218 103 67 71c-23-6-38-20-44-43l32-5c15 47 100 32 89-28v-30C133-14 115 1 83 1 29 1 15-40 15-95c0-56 16-97 71-98 29-1 48 16 59 35 1-10 0-23 2-32h30zM94-22c36 0 50-32 50-73 0-42-14-75-50-75-39 0-46 34-46 75s6 73 46 73" id="av"/><g id="p"><use transform="matrix(0.030864197530864192,0,0,0.030864197530864192,0,0)" xlink:href="#au"/><use transform="matrix(0.030864197530864192,0,0,0.030864197530864192,6.1728395061728385,0)" xlink:href="#O"/><use transform="matrix(0.030864197530864192,0,0,0.030864197530864192,12.345679012345677,0)" xlink:href="#av"/><use transform="matrix(0.030864197530864192,0,0,0.030864197530864192,18.518518518518515,0)" xlink:href="#K"/><use transform="matrix(0.030864197530864192,0,0,0.030864197530864192,20.956790123456788,0)" xlink:href="#W"/></g><path fill="#333" d="M30 0v-248h33v221h125V0H30" id="aw"/><path fill="#333" d="M177-190C167-65 218 103 67 71c-23-6-38-20-44-43l32-5c15 47 100 32 89-28v-30C133-14 115 1 83 1 29 1 15-40 15-95c0-56 16-97 71-98 29-1 48 16 59 35 1-10 0-23 2-32h30zM94-22c36 0 50-32 50-73 0-42-14-75-50-75-39 0-46 34-46 75s6 73 46 73" id="ax"/><g id="q"><use transform="matrix(0.030864197530864192,0,0,0.030864197530864192,0,0)" xlink:href="#aw"/><use transform="matrix(0.030864197530864192,0,0,0.030864197530864192,6.1728395061728385,0)" xlink:href="#ae"/><use transform="matrix(0.030864197530864192,0,0,0.030864197530864192,12.345679012345677,0)" xlink:href="#ax"/><use transform="matrix(0.030864197530864192,0,0,0.030864197530864192,18.518518518518515,0)" xlink:href="#Y"/><use transform="matrix(0.030864197530864192,0,0,0.030864197530864192,20.956790123456788,0)" xlink:href="#ac"/></g><path fill="#333" d="M233-177c-1 41-23 64-60 70L243 0h-38l-65-103H63V0H30v-248c88 3 205-21 203 71zM63-129c60-2 137 13 137-47 0-61-80-42-137-45v92" id="ay"/><path fill="#333" d="M145-31C134-9 116 4 85 4 32 4 16-35 15-94c0-59 17-99 70-100 32-1 48 14 60 33 0-11-1-24 2-32h30l-1 268h-32zM93-21c41 0 51-33 51-76s-8-73-50-73c-40 0-46 35-46 75s5 74 45 74" id="az"/><path fill="#333" d="M135-143c-3-34-86-38-87 0 15 53 115 12 119 90S17 21 10-45l28-5c4 36 97 45 98 0-10-56-113-15-118-90-4-57 82-63 122-42 12 7 21 19 24 35" id="aA"/><g id="r"><use transform="matrix(0.030864197530864192,0,0,0.030864197530864192,0,0)" xlink:href="#ay"/><use transform="matrix(0.030864197530864192,0,0,0.030864197530864192,7.993827160493826,0)" xlink:href="#Z"/><use transform="matrix(0.030864197530864192,0,0,0.030864197530864192,14.166666666666664,0)" xlink:href="#az"/><use transform="matrix(0.030864197530864192,0,0,0.030864197530864192,20.339506172839503,0)" xlink:href="#al"/><use transform="matrix(0.030864197530864192,0,0,0.030864197530864192,26.51234567901234,0)" xlink:href="#Z"/><use transform="matrix(0.030864197530864192,0,0,0.030864197530864192,32.685185185185176,0)" xlink:href="#aA"/><use transform="matrix(0.030864197530864192,0,0,0.030864197530864192,38.24074074074073,0)" xlink:href="#ai"/></g><path fill="#3a414a" d="M127-220V0H93v-220H8v-28h204v28h-85" id="aB"/><path fill="#3a414a" d="M232-93c-1 65-40 97-104 97C67 4 28-28 28-90v-158h33c8 89-33 224 67 224 102 0 64-133 71-224h33v155" id="aC"/><path fill="#3a414a" d="M30-248c118-7 216 8 213 122C240-48 200 0 122 0H30v-248zM63-27c89 8 146-16 146-99s-60-101-146-95v194" id="aD"/><path fill="#3a414a" d="M30 0v-248h187v28H63v79h144v27H63v87h162V0H30" id="aE"/><path fill="#3a414a" d="M190 0L58-211 59 0H30v-248h39L202-35l-2-213h31V0h-41" id="aF"/><g id="s"><use transform="matrix(0.030864197530864182,0,0,0.030864197530864182,0,0)" xlink:href="#C"/><use transform="matrix(0.030864197530864182,0,0,0.030864197530864182,7.407407407407404,0)" xlink:href="#aB"/><use transform="matrix(0.030864197530864182,0,0,0.030864197530864182,14.16666666666666,0)" xlink:href="#aC"/><use transform="matrix(0.030864197530864182,0,0,0.030864197530864182,22.160493827160483,0)" xlink:href="#aD"/><use transform="matrix(0.030864197530864182,0,0,0.030864197530864182,30.154320987654305,0)" xlink:href="#aE"/><use transform="matrix(0.030864197530864182,0,0,0.030864197530864182,37.56172839506171,0)" xlink:href="#aF"/><use transform="matrix(0.030864197530864182,0,0,0.030864197530864182,45.55555555555553,0)" xlink:href="#aB"/></g><g id="t"><use transform="matrix(0.030864197530864196,0,0,0.030864197530864196,0,0)" xlink:href="#aw"/><use transform="matrix(0.030864197530864196,0,0,0.030864197530864196,6.172839506172839,0)" xlink:href="#ae"/><use transform="matrix(0.030864197530864196,0,0,0.030864197530864196,12.345679012345679,0)" xlink:href="#ax"/><use transform="matrix(0.030864197530864196,0,0,0.030864197530864196,18.51851851851852,0)" xlink:href="#Y"/><use transform="matrix(0.030864197530864196,0,0,0.030864197530864196,20.95679012345679,0)" xlink:href="#ac"/></g><g id="u"><use transform="matrix(0.030864197530864196,0,0,0.030864197530864196,0,0)" xlink:href="#ay"/><use transform="matrix(0.030864197530864196,0,0,0.030864197530864196,7.993827160493827,0)" xlink:href="#Z"/><use transform="matrix(0.030864197530864196,0,0,0.030864197530864196,14.166666666666666,0)" xlink:href="#az"/><use transform="matrix(0.030864197530864196,0,0,0.030864197530864196,20.339506172839506,0)" xlink:href="#al"/><use transform="matrix(0.030864197530864196,0,0,0.030864197530864196,26.512345679012345,0)" xlink:href="#Z"/><use transform="matrix(0.030864197530864196,0,0,0.030864197530864196,32.68518518518518,0)" xlink:href="#aA"/><use transform="matrix(0.030864197530864196,0,0,0.030864197530864196,38.24074074074074,0)" xlink:href="#ai"/></g><g id="v"><use transform="matrix(0.030864197530864196,0,0,0.030864197530864196,0,0)" xlink:href="#ay"/><use transform="matrix(0.030864197530864196,0,0,0.030864197530864196,7.993827160493827,0)" xlink:href="#Z"/><use transform="matrix(0.030864197530864196,0,0,0.030864197530864196,14.166666666666666,0)" xlink:href="#az"/><use transform="matrix(0.030864197530864196,0,0,0.030864197530864196,20.339506172839506,0)" xlink:href="#al"/><use transform="matrix(0.030864197530864196,0,0,0.030864197530864196,26.512345679012345,0)" xlink:href="#Z"/><use transform="matrix(0.030864197530864196,0,0,0.030864197530864196,32.68518518518518,0)" xlink:href="#aA"/><use transform="matrix(0.030864197530864196,0,0,0.030864197530864196,38.24074074074074,0)" xlink:href="#ai"/></g><path fill="#333" d="M115-194c55 1 70 41 70 98S169 2 115 4C84 4 66-9 55-30l1 105H24l-1-265h31l2 30c10-21 28-34 59-34zm-8 174c40 0 45-34 45-75s-6-73-45-74c-42 0-51 32-51 76 0 43 10 73 51 73" id="aG"/><path fill="#333" d="M85-194c31 0 48 13 60 33l-1-100h32l1 261h-30c-2-10 0-23-3-31C134-8 116 4 85 4 32 4 16-35 15-94c0-66 23-100 70-100zm9 24c-40 0-46 34-46 75 0 40 6 74 45 74 42 0 51-32 51-76 0-42-9-74-50-73" id="aH"/><g id="w"><use transform="matrix(0.030864197530864196,0,0,0.030864197530864196,0,0)" xlink:href="#aj"/><use transform="matrix(0.030864197530864196,0,0,0.030864197530864196,7.4074074074074066,0)" xlink:href="#an"/><use transform="matrix(0.030864197530864196,0,0,0.030864197530864196,12.962962962962962,0)" xlink:href="#an"/><use transform="matrix(0.030864197530864196,0,0,0.030864197530864196,18.51851851851852,0)" xlink:href="#Z"/><use transform="matrix(0.030864197530864196,0,0,0.030864197530864196,24.691358024691358,0)" xlink:href="#aG"/><use transform="matrix(0.030864197530864196,0,0,0.030864197530864196,30.864197530864196,0)" xlink:href="#ai"/><use transform="matrix(0.030864197530864196,0,0,0.030864197530864196,33.95061728395061,0)" xlink:href="#Z"/><use transform="matrix(0.030864197530864196,0,0,0.030864197530864196,40.123456790123456,0)" xlink:href="#aH"/></g><path fill="#3a414a" d="M101-251c82-7 93 87 43 132L82-64C71-53 59-42 53-27h129V0H18c2-99 128-94 128-182 0-28-16-43-45-43s-46 15-49 41l-32-3c6-41 34-60 81-64" id="aI"/><g id="x"><use transform="matrix(0.030864197530864192,0,0,0.030864197530864192,0,0)" xlink:href="#G"/><use transform="matrix(0.030864197530864192,0,0,0.030864197530864192,6.1728395061728385,0)" xlink:href="#H"/><use transform="matrix(0.030864197530864192,0,0,0.030864197530864192,9.259259259259258,0)" xlink:href="#aI"/></g><g id="y"><use transform="matrix(0.030864197530864192,0,0,0.030864197530864192,0,0)" xlink:href="#aD"/><use transform="matrix(0.030864197530864192,0,0,0.030864197530864192,7.993827160493826,0)" xlink:href="#E"/><use transform="matrix(0.030864197530864192,0,0,0.030864197530864192,14.166666666666664,0)" xlink:href="#L"/><use transform="matrix(0.030864197530864192,0,0,0.030864197530864192,19.722222222222218,0)" xlink:href="#N"/><use transform="matrix(0.030864197530864192,0,0,0.030864197530864192,25.895061728395056,0)" xlink:href="#S"/><use transform="matrix(0.030864197530864192,0,0,0.030864197530864192,32.0679012345679,0)" xlink:href="#O"/><use transform="matrix(0.030864197530864192,0,0,0.030864197530864192,38.24074074074073,0)" xlink:href="#E"/><use transform="matrix(0.030864197530864192,0,0,0.030864197530864192,44.41358024691357,0)" xlink:href="#F"/><use transform="matrix(0.030864197530864192,0,0,0.030864197530864192,48.08641975308641,0)" xlink:href="#V"/></g><path fill="#333" d="M108 0H70L1-190h34L89-25l56-165h34" id="aJ"/><g id="z"><use transform="matrix(0.030864197530864196,0,0,0.030864197530864196,0,0)" xlink:href="#ay"/><use transform="matrix(0.030864197530864196,0,0,0.030864197530864196,7.993827160493827,0)" xlink:href="#Z"/><use transform="matrix(0.030864197530864196,0,0,0.030864197530864196,14.166666666666666,0)" xlink:href="#ai"/><use transform="matrix(0.030864197530864196,0,0,0.030864197530864196,17.253086419753085,0)" xlink:href="#af"/><use transform="matrix(0.030864197530864196,0,0,0.030864197530864196,20.925925925925924,0)" xlink:href="#Y"/><use transform="matrix(0.030864197530864196,0,0,0.030864197530864196,23.364197530864196,0)" xlink:href="#Z"/><use transform="matrix(0.030864197530864196,0,0,0.030864197530864196,29.537037037037035,0)" xlink:href="#aJ"/><use transform="matrix(0.030864197530864196,0,0,0.030864197530864196,35.09259259259259,0)" xlink:href="#Z"/></g><g id="A"><use transform="matrix(0.030864197530864196,0,0,0.030864197530864196,0,0)" xlink:href="#am"/><use transform="matrix(0.030864197530864196,0,0,0.030864197530864196,7.4074074074074066,0)" xlink:href="#ai"/><use transform="matrix(0.030864197530864196,0,0,0.030864197530864196,10.493827160493826,0)" xlink:href="#al"/><use transform="matrix(0.030864197530864196,0,0,0.030864197530864196,16.666666666666664,0)" xlink:href="#aH"/><use transform="matrix(0.030864197530864196,0,0,0.030864197530864196,22.839506172839503,0)" xlink:href="#Z"/><use transform="matrix(0.030864197530864196,0,0,0.030864197530864196,29.01234567901234,0)" xlink:href="#ac"/><use transform="matrix(0.030864197530864196,0,0,0.030864197530864196,35.18518518518518,0)" xlink:href="#ai"/></g><path fill="#333" d="M30-248c118-7 216 8 213 122C240-48 200 0 122 0H30v-248zM63-27c89 8 146-16 146-99s-60-101-146-95v194" id="aK"/><g id="B"><use transform="matrix(0.030864197530864196,0,0,0.030864197530864196,0,0)" xlink:href="#aK"/><use transform="matrix(0.030864197530864196,0,0,0.030864197530864196,7.993827160493827,0)" xlink:href="#Z"/><use transform="matrix(0.030864197530864196,0,0,0.030864197530864196,14.166666666666666,0)" xlink:href="#ai"/><use transform="matrix(0.030864197530864196,0,0,0.030864197530864196,17.253086419753085,0)" xlink:href="#ah"/><use transform="matrix(0.030864197530864196,0,0,0.030864197530864196,23.425925925925924,0)" xlink:href="#Y"/><use transform="matrix(0.030864197530864196,0,0,0.030864197530864196,25.864197530864196,0)" xlink:href="#ap"/><use transform="matrix(0.030864197530864196,0,0,0.030864197530864196,28.30246913580247,0)" xlink:href="#aA"/></g></defs></g></svg>