<svg xmlns="http://www.w3.org/2000/svg" width="84.527" height="96.6" viewBox="0 0 84.527 96.6">
  <path id="Alumni" d="M60.262,60.493l-18,18-18-18A25.3,25.3,0,0,0,0,85.737v1.811A9.059,9.059,0,0,0,9.056,96.6H75.469a9.059,9.059,0,0,0,9.056-9.056V85.737A25.3,25.3,0,0,0,60.262,60.493ZM2.566,15.061l1.207.283V26.362a4.359,4.359,0,0,0-.17,7.547L.66,45.663c-.321,1.3.4,2.641,1.434,2.641H9.981c1.038,0,1.755-1.34,1.434-2.641L8.471,33.909a4.359,4.359,0,0,0-.17-7.547V16.438l12.452,3a24.106,24.106,0,1,0,45.66,10.754,23.72,23.72,0,0,0-2.641-10.754L81.94,15.061a3,3,0,0,0,0-5.943L46.017.439a16.207,16.207,0,0,0-7.49,0L2.566,9.1a3.015,3.015,0,0,0,0,5.962Z" transform="translate(0 0)" fill="#00594c"/>
</svg>
