<svg xmlns="http://www.w3.org/2000/svg" width="30" height="30" viewBox="0 0 30 30">
  <g id="Arrow" transform="translate(-2235 315)">
    <path id="Path_68" data-name="Path 68" d="M7.839-.454H-1.839A1.221,1.221,0,0,1-3-1.727,1.221,1.221,0,0,1-1.839-3H7.839A1.221,1.221,0,0,1,9-1.727,1.221,1.221,0,0,1,7.839-.454Z" transform="translate(2245.318 -297.795)" fill="#707070"/>
    <path id="Path_69" data-name="Path 69" d="M9.167,2.546H1.528A1.418,1.418,0,0,1,0,1.273,1.418,1.418,0,0,1,1.528,0H9.167a1.418,1.418,0,0,1,1.528,1.273A1.418,1.418,0,0,1,9.167,2.546Z" transform="translate(2250.119 -307.612) rotate(45)" fill="#707070"/>
    <path id="Path_70" data-name="Path 70" d="M9.167,2.546H1.528A1.418,1.418,0,0,1,0,1.273,1.417,1.417,0,0,1,1.528,0H9.167A1.418,1.418,0,0,1,10.7,1.273,1.418,1.418,0,0,1,9.167,2.546Z" transform="translate(2248.318 -294.189) rotate(-45)" fill="#707070"/>
    <path id="Ellipse_100" data-name="Ellipse 100" d="M15,2.778A12.222,12.222,0,0,0,6.358,23.642,12.222,12.222,0,1,0,23.642,6.358,12.142,12.142,0,0,0,15,2.778M15,0A15,15,0,1,1,0,15,15,15,0,0,1,15,0Z" transform="translate(2235 -315)" fill="#707070"/>
  </g>
</svg>
