<svg xmlns="http://www.w3.org/2000/svg" width="115" height="231" viewBox="0 0 115 231">
  <g id="Dot_Left" data-name="Dot Left" transform="translate(2791 2748)">
    <circle id="Ellipse_1" data-name="Ellipse 1" cx="5" cy="5" r="5" transform="translate(-2791 -2748)" fill="#d6d6d6"/>
    <path id="Ellipse_1_-_Outline" data-name="Ellipse 1 - Outline" d="M5,1A4,4,0,1,0,9,5,4,4,0,0,0,5,1M5,0A5,5,0,1,1,0,5,5,5,0,0,1,5,0Z" transform="translate(-2791 -2748)" fill="#707070"/>
    <circle id="Ellipse_14" data-name="Ellipse 14" cx="5" cy="5" r="5" transform="translate(-2770 -2748)" fill="#d6d6d6"/>
    <path id="Ellipse_14_-_Outline" data-name="Ellipse 14 - Outline" d="M5,1A4,4,0,1,0,9,5,4,4,0,0,0,5,1M5,0A5,5,0,1,1,0,5,5,5,0,0,1,5,0Z" transform="translate(-2770 -2748)" fill="#707070"/>
    <circle id="Ellipse_26" data-name="Ellipse 26" cx="5" cy="5" r="5" transform="translate(-2749 -2747)" fill="#d6d6d6"/>
    <path id="Ellipse_26_-_Outline" data-name="Ellipse 26 - Outline" d="M5,1A4,4,0,1,0,9,5,4,4,0,0,0,5,1M5,0A5,5,0,1,1,0,5,5,5,0,0,1,5,0Z" transform="translate(-2749 -2747)" fill="#707070"/>
    <circle id="Ellipse_6" data-name="Ellipse 6" cx="5" cy="5" r="5" transform="translate(-2791 -2668)" fill="#d6d6d6"/>
    <path id="Ellipse_6_-_Outline" data-name="Ellipse 6 - Outline" d="M5,1A4,4,0,1,0,9,5,4,4,0,0,0,5,1M5,0A5,5,0,1,1,0,5,5,5,0,0,1,5,0Z" transform="translate(-2791 -2668)" fill="#707070"/>
    <circle id="Ellipse_18" data-name="Ellipse 18" cx="5" cy="5" r="5" transform="translate(-2770 -2668)" fill="#d6d6d6"/>
    <path id="Ellipse_18_-_Outline" data-name="Ellipse 18 - Outline" d="M5,1A4,4,0,1,0,9,5,4,4,0,0,0,5,1M5,0A5,5,0,1,1,0,5,5,5,0,0,1,5,0Z" transform="translate(-2770 -2668)" fill="#707070"/>
    <circle id="Ellipse_30" data-name="Ellipse 30" cx="5" cy="5" r="5" transform="translate(-2749 -2667)" fill="#d6d6d6"/>
    <path id="Ellipse_30_-_Outline" data-name="Ellipse 30 - Outline" d="M5,1A4,4,0,1,0,9,5,4,4,0,0,0,5,1M5,0A5,5,0,1,1,0,5,5,5,0,0,1,5,0Z" transform="translate(-2749 -2667)" fill="#707070"/>
    <circle id="Ellipse_42" data-name="Ellipse 42" cx="5" cy="5" r="5" transform="translate(-2728 -2667)" fill="#d6d6d6"/>
    <path id="Ellipse_42_-_Outline" data-name="Ellipse 42 - Outline" d="M5,1A4,4,0,1,0,9,5,4,4,0,0,0,5,1M5,0A5,5,0,1,1,0,5,5,5,0,0,1,5,0Z" transform="translate(-2728 -2667)" fill="#707070"/>
    <circle id="Ellipse_54" data-name="Ellipse 54" cx="5" cy="5" r="5" transform="translate(-2707 -2667)" fill="#d6d6d6"/>
    <path id="Ellipse_54_-_Outline" data-name="Ellipse 54 - Outline" d="M5,1A4,4,0,1,0,9,5,4,4,0,0,0,5,1M5,0A5,5,0,1,1,0,5,5,5,0,0,1,5,0Z" transform="translate(-2707 -2667)" fill="#707070"/>
    <circle id="Ellipse_66" data-name="Ellipse 66" cx="5" cy="5" r="5" transform="translate(-2686 -2667)" fill="#d6d6d6"/>
    <path id="Ellipse_66_-_Outline" data-name="Ellipse 66 - Outline" d="M5,1A4,4,0,1,0,9,5,4,4,0,0,0,5,1M5,0A5,5,0,1,1,0,5,5,5,0,0,1,5,0Z" transform="translate(-2686 -2667)" fill="#707070"/>
    <circle id="Ellipse_10" data-name="Ellipse 10" cx="5" cy="5" r="5" transform="translate(-2791 -2588)" fill="#d6d6d6"/>
    <path id="Ellipse_10_-_Outline" data-name="Ellipse 10 - Outline" d="M5,1A4,4,0,1,0,9,5,4,4,0,0,0,5,1M5,0A5,5,0,1,1,0,5,5,5,0,0,1,5,0Z" transform="translate(-2791 -2588)" fill="#707070"/>
    <circle id="Ellipse_22" data-name="Ellipse 22" cx="5" cy="5" r="5" transform="translate(-2770 -2588)" fill="#d6d6d6"/>
    <path id="Ellipse_22_-_Outline" data-name="Ellipse 22 - Outline" d="M5,1A4,4,0,1,0,9,5,4,4,0,0,0,5,1M5,0A5,5,0,1,1,0,5,5,5,0,0,1,5,0Z" transform="translate(-2770 -2588)" fill="#707070"/>
    <circle id="Ellipse_34" data-name="Ellipse 34" cx="5" cy="5" r="5" transform="translate(-2749 -2587)" fill="#d6d6d6"/>
    <path id="Ellipse_34_-_Outline" data-name="Ellipse 34 - Outline" d="M5,1A4,4,0,1,0,9,5,4,4,0,0,0,5,1M5,0A5,5,0,1,1,0,5,5,5,0,0,1,5,0Z" transform="translate(-2749 -2587)" fill="#707070"/>
    <circle id="Ellipse_46" data-name="Ellipse 46" cx="5" cy="5" r="5" transform="translate(-2728 -2587)" fill="#d6d6d6"/>
    <path id="Ellipse_46_-_Outline" data-name="Ellipse 46 - Outline" d="M5,1A4,4,0,1,0,9,5,4,4,0,0,0,5,1M5,0A5,5,0,1,1,0,5,5,5,0,0,1,5,0Z" transform="translate(-2728 -2587)" fill="#707070"/>
    <circle id="Ellipse_58" data-name="Ellipse 58" cx="5" cy="5" r="5" transform="translate(-2707 -2587)" fill="#d6d6d6"/>
    <path id="Ellipse_58_-_Outline" data-name="Ellipse 58 - Outline" d="M5,1A4,4,0,1,0,9,5,4,4,0,0,0,5,1M5,0A5,5,0,1,1,0,5,5,5,0,0,1,5,0Z" transform="translate(-2707 -2587)" fill="#707070"/>
    <circle id="Ellipse_70" data-name="Ellipse 70" cx="5" cy="5" r="5" transform="translate(-2686 -2587)" fill="#d6d6d6"/>
    <path id="Ellipse_70_-_Outline" data-name="Ellipse 70 - Outline" d="M5,1A4,4,0,1,0,9,5,4,4,0,0,0,5,1M5,0A5,5,0,1,1,0,5,5,5,0,0,1,5,0Z" transform="translate(-2686 -2587)" fill="#707070"/>
    <circle id="Ellipse_4" data-name="Ellipse 4" cx="5" cy="5" r="5" transform="translate(-2791 -2708)" fill="#d6d6d6"/>
    <path id="Ellipse_4_-_Outline" data-name="Ellipse 4 - Outline" d="M5,1A4,4,0,1,0,9,5,4,4,0,0,0,5,1M5,0A5,5,0,1,1,0,5,5,5,0,0,1,5,0Z" transform="translate(-2791 -2708)" fill="#707070"/>
    <circle id="Ellipse_16" data-name="Ellipse 16" cx="5" cy="5" r="5" transform="translate(-2770 -2708)" fill="#d6d6d6"/>
    <path id="Ellipse_16_-_Outline" data-name="Ellipse 16 - Outline" d="M5,1A4,4,0,1,0,9,5,4,4,0,0,0,5,1M5,0A5,5,0,1,1,0,5,5,5,0,0,1,5,0Z" transform="translate(-2770 -2708)" fill="#707070"/>
    <circle id="Ellipse_28" data-name="Ellipse 28" cx="5" cy="5" r="5" transform="translate(-2749 -2707)" fill="#d6d6d6"/>
    <path id="Ellipse_28_-_Outline" data-name="Ellipse 28 - Outline" d="M5,1A4,4,0,1,0,9,5,4,4,0,0,0,5,1M5,0A5,5,0,1,1,0,5,5,5,0,0,1,5,0Z" transform="translate(-2749 -2707)" fill="#707070"/>
    <circle id="Ellipse_40" data-name="Ellipse 40" cx="5" cy="5" r="5" transform="translate(-2728 -2707)" fill="#d6d6d6"/>
    <path id="Ellipse_40_-_Outline" data-name="Ellipse 40 - Outline" d="M5,1A4,4,0,1,0,9,5,4,4,0,0,0,5,1M5,0A5,5,0,1,1,0,5,5,5,0,0,1,5,0Z" transform="translate(-2728 -2707)" fill="#707070"/>
    <circle id="Ellipse_52" data-name="Ellipse 52" cx="5" cy="5" r="5" transform="translate(-2707 -2707)" fill="#d6d6d6"/>
    <path id="Ellipse_52_-_Outline" data-name="Ellipse 52 - Outline" d="M5,1A4,4,0,1,0,9,5,4,4,0,0,0,5,1M5,0A5,5,0,1,1,0,5,5,5,0,0,1,5,0Z" transform="translate(-2707 -2707)" fill="#707070"/>
    <circle id="Ellipse_8" data-name="Ellipse 8" cx="5" cy="5" r="5" transform="translate(-2791 -2628)" fill="#d6d6d6"/>
    <path id="Ellipse_8_-_Outline" data-name="Ellipse 8 - Outline" d="M5,1A4,4,0,1,0,9,5,4,4,0,0,0,5,1M5,0A5,5,0,1,1,0,5,5,5,0,0,1,5,0Z" transform="translate(-2791 -2628)" fill="#707070"/>
    <circle id="Ellipse_20" data-name="Ellipse 20" cx="5" cy="5" r="5" transform="translate(-2770 -2628)" fill="#d6d6d6"/>
    <path id="Ellipse_20_-_Outline" data-name="Ellipse 20 - Outline" d="M5,1A4,4,0,1,0,9,5,4,4,0,0,0,5,1M5,0A5,5,0,1,1,0,5,5,5,0,0,1,5,0Z" transform="translate(-2770 -2628)" fill="#707070"/>
    <circle id="Ellipse_32" data-name="Ellipse 32" cx="5" cy="5" r="5" transform="translate(-2749 -2627)" fill="#d6d6d6"/>
    <path id="Ellipse_32_-_Outline" data-name="Ellipse 32 - Outline" d="M5,1A4,4,0,1,0,9,5,4,4,0,0,0,5,1M5,0A5,5,0,1,1,0,5,5,5,0,0,1,5,0Z" transform="translate(-2749 -2627)" fill="#707070"/>
    <circle id="Ellipse_44" data-name="Ellipse 44" cx="5" cy="5" r="5" transform="translate(-2728 -2627)" fill="#d6d6d6"/>
    <path id="Ellipse_44_-_Outline" data-name="Ellipse 44 - Outline" d="M5,1A4,4,0,1,0,9,5,4,4,0,0,0,5,1M5,0A5,5,0,1,1,0,5,5,5,0,0,1,5,0Z" transform="translate(-2728 -2627)" fill="#707070"/>
    <circle id="Ellipse_56" data-name="Ellipse 56" cx="5" cy="5" r="5" transform="translate(-2707 -2627)" fill="#d6d6d6"/>
    <path id="Ellipse_56_-_Outline" data-name="Ellipse 56 - Outline" d="M5,1A4,4,0,1,0,9,5,4,4,0,0,0,5,1M5,0A5,5,0,1,1,0,5,5,5,0,0,1,5,0Z" transform="translate(-2707 -2627)" fill="#707070"/>
    <circle id="Ellipse_68" data-name="Ellipse 68" cx="5" cy="5" r="5" transform="translate(-2686 -2627)" fill="#d6d6d6"/>
    <path id="Ellipse_68_-_Outline" data-name="Ellipse 68 - Outline" d="M5,1A4,4,0,1,0,9,5,4,4,0,0,0,5,1M5,0A5,5,0,1,1,0,5,5,5,0,0,1,5,0Z" transform="translate(-2686 -2627)" fill="#707070"/>
    <circle id="Ellipse_12" data-name="Ellipse 12" cx="5" cy="5" r="5" transform="translate(-2791 -2548)" fill="#d6d6d6"/>
    <path id="Ellipse_12_-_Outline" data-name="Ellipse 12 - Outline" d="M5,1A4,4,0,1,0,9,5,4,4,0,0,0,5,1M5,0A5,5,0,1,1,0,5,5,5,0,0,1,5,0Z" transform="translate(-2791 -2548)" fill="#707070"/>
    <circle id="Ellipse_24" data-name="Ellipse 24" cx="5" cy="5" r="5" transform="translate(-2770 -2548)" fill="#d6d6d6"/>
    <path id="Ellipse_24_-_Outline" data-name="Ellipse 24 - Outline" d="M5,1A4,4,0,1,0,9,5,4,4,0,0,0,5,1M5,0A5,5,0,1,1,0,5,5,5,0,0,1,5,0Z" transform="translate(-2770 -2548)" fill="#707070"/>
    <circle id="Ellipse_36" data-name="Ellipse 36" cx="5" cy="5" r="5" transform="translate(-2749 -2547)" fill="#d6d6d6"/>
    <path id="Ellipse_36_-_Outline" data-name="Ellipse 36 - Outline" d="M5,1A4,4,0,1,0,9,5,4,4,0,0,0,5,1M5,0A5,5,0,1,1,0,5,5,5,0,0,1,5,0Z" transform="translate(-2749 -2547)" fill="#707070"/>
    <circle id="Ellipse_48" data-name="Ellipse 48" cx="5" cy="5" r="5" transform="translate(-2728 -2547)" fill="#d6d6d6"/>
    <path id="Ellipse_48_-_Outline" data-name="Ellipse 48 - Outline" d="M5,1A4,4,0,1,0,9,5,4,4,0,0,0,5,1M5,0A5,5,0,1,1,0,5,5,5,0,0,1,5,0Z" transform="translate(-2728 -2547)" fill="#707070"/>
    <circle id="Ellipse_3" data-name="Ellipse 3" cx="5" cy="5" r="5" transform="translate(-2791 -2728)" fill="#d6d6d6"/>
    <path id="Ellipse_3_-_Outline" data-name="Ellipse 3 - Outline" d="M5,1A4,4,0,1,0,9,5,4,4,0,0,0,5,1M5,0A5,5,0,1,1,0,5,5,5,0,0,1,5,0Z" transform="translate(-2791 -2728)" fill="#707070"/>
    <circle id="Ellipse_15" data-name="Ellipse 15" cx="5" cy="5" r="5" transform="translate(-2770 -2728)" fill="#d6d6d6"/>
    <path id="Ellipse_15_-_Outline" data-name="Ellipse 15 - Outline" d="M5,1A4,4,0,1,0,9,5,4,4,0,0,0,5,1M5,0A5,5,0,1,1,0,5,5,5,0,0,1,5,0Z" transform="translate(-2770 -2728)" fill="#707070"/>
    <circle id="Ellipse_27" data-name="Ellipse 27" cx="5" cy="5" r="5" transform="translate(-2749 -2727)" fill="#d6d6d6"/>
    <path id="Ellipse_27_-_Outline" data-name="Ellipse 27 - Outline" d="M5,1A4,4,0,1,0,9,5,4,4,0,0,0,5,1M5,0A5,5,0,1,1,0,5,5,5,0,0,1,5,0Z" transform="translate(-2749 -2727)" fill="#707070"/>
    <circle id="Ellipse_39" data-name="Ellipse 39" cx="5" cy="5" r="5" transform="translate(-2728 -2727)" fill="#d6d6d6"/>
    <path id="Ellipse_39_-_Outline" data-name="Ellipse 39 - Outline" d="M5,1A4,4,0,1,0,9,5,4,4,0,0,0,5,1M5,0A5,5,0,1,1,0,5,5,5,0,0,1,5,0Z" transform="translate(-2728 -2727)" fill="#707070"/>
    <circle id="Ellipse_7" data-name="Ellipse 7" cx="5" cy="5" r="5" transform="translate(-2791 -2648)" fill="#d6d6d6"/>
    <path id="Ellipse_7_-_Outline" data-name="Ellipse 7 - Outline" d="M5,1A4,4,0,1,0,9,5,4,4,0,0,0,5,1M5,0A5,5,0,1,1,0,5,5,5,0,0,1,5,0Z" transform="translate(-2791 -2648)" fill="#707070"/>
    <circle id="Ellipse_19" data-name="Ellipse 19" cx="5" cy="5" r="5" transform="translate(-2770 -2648)" fill="#d6d6d6"/>
    <path id="Ellipse_19_-_Outline" data-name="Ellipse 19 - Outline" d="M5,1A4,4,0,1,0,9,5,4,4,0,0,0,5,1M5,0A5,5,0,1,1,0,5,5,5,0,0,1,5,0Z" transform="translate(-2770 -2648)" fill="#707070"/>
    <circle id="Ellipse_31" data-name="Ellipse 31" cx="5" cy="5" r="5" transform="translate(-2749 -2647)" fill="#d6d6d6"/>
    <path id="Ellipse_31_-_Outline" data-name="Ellipse 31 - Outline" d="M5,1A4,4,0,1,0,9,5,4,4,0,0,0,5,1M5,0A5,5,0,1,1,0,5,5,5,0,0,1,5,0Z" transform="translate(-2749 -2647)" fill="#707070"/>
    <circle id="Ellipse_43" data-name="Ellipse 43" cx="5" cy="5" r="5" transform="translate(-2728 -2647)" fill="#d6d6d6"/>
    <path id="Ellipse_43_-_Outline" data-name="Ellipse 43 - Outline" d="M5,1A4,4,0,1,0,9,5,4,4,0,0,0,5,1M5,0A5,5,0,1,1,0,5,5,5,0,0,1,5,0Z" transform="translate(-2728 -2647)" fill="#707070"/>
    <circle id="Ellipse_55" data-name="Ellipse 55" cx="5" cy="5" r="5" transform="translate(-2707 -2647)" fill="#d6d6d6"/>
    <path id="Ellipse_55_-_Outline" data-name="Ellipse 55 - Outline" d="M5,1A4,4,0,1,0,9,5,4,4,0,0,0,5,1M5,0A5,5,0,1,1,0,5,5,5,0,0,1,5,0Z" transform="translate(-2707 -2647)" fill="#707070"/>
    <circle id="Ellipse_67" data-name="Ellipse 67" cx="5" cy="5" r="5" transform="translate(-2686 -2647)" fill="#d6d6d6"/>
    <path id="Ellipse_67_-_Outline" data-name="Ellipse 67 - Outline" d="M5,1A4,4,0,1,0,9,5,4,4,0,0,0,5,1M5,0A5,5,0,1,1,0,5,5,5,0,0,1,5,0Z" transform="translate(-2686 -2647)" fill="#707070"/>
    <circle id="Ellipse_11" data-name="Ellipse 11" cx="5" cy="5" r="5" transform="translate(-2791 -2568)" fill="#d6d6d6"/>
    <path id="Ellipse_11_-_Outline" data-name="Ellipse 11 - Outline" d="M5,1A4,4,0,1,0,9,5,4,4,0,0,0,5,1M5,0A5,5,0,1,1,0,5,5,5,0,0,1,5,0Z" transform="translate(-2791 -2568)" fill="#707070"/>
    <circle id="Ellipse_23" data-name="Ellipse 23" cx="5" cy="5" r="5" transform="translate(-2770 -2568)" fill="#d6d6d6"/>
    <path id="Ellipse_23_-_Outline" data-name="Ellipse 23 - Outline" d="M5,1A4,4,0,1,0,9,5,4,4,0,0,0,5,1M5,0A5,5,0,1,1,0,5,5,5,0,0,1,5,0Z" transform="translate(-2770 -2568)" fill="#707070"/>
    <circle id="Ellipse_35" data-name="Ellipse 35" cx="5" cy="5" r="5" transform="translate(-2749 -2567)" fill="#d6d6d6"/>
    <path id="Ellipse_35_-_Outline" data-name="Ellipse 35 - Outline" d="M5,1A4,4,0,1,0,9,5,4,4,0,0,0,5,1M5,0A5,5,0,1,1,0,5,5,5,0,0,1,5,0Z" transform="translate(-2749 -2567)" fill="#707070"/>
    <circle id="Ellipse_47" data-name="Ellipse 47" cx="5" cy="5" r="5" transform="translate(-2728 -2567)" fill="#d6d6d6"/>
    <path id="Ellipse_47_-_Outline" data-name="Ellipse 47 - Outline" d="M5,1A4,4,0,1,0,9,5,4,4,0,0,0,5,1M5,0A5,5,0,1,1,0,5,5,5,0,0,1,5,0Z" transform="translate(-2728 -2567)" fill="#707070"/>
    <circle id="Ellipse_59" data-name="Ellipse 59" cx="5" cy="5" r="5" transform="translate(-2707 -2567)" fill="#d6d6d6"/>
    <path id="Ellipse_59_-_Outline" data-name="Ellipse 59 - Outline" d="M5,1A4,4,0,1,0,9,5,4,4,0,0,0,5,1M5,0A5,5,0,1,1,0,5,5,5,0,0,1,5,0Z" transform="translate(-2707 -2567)" fill="#707070"/>
    <circle id="Ellipse_5" data-name="Ellipse 5" cx="5" cy="5" r="5" transform="translate(-2791 -2688)" fill="#d6d6d6"/>
    <path id="Ellipse_5_-_Outline" data-name="Ellipse 5 - Outline" d="M5,1A4,4,0,1,0,9,5,4,4,0,0,0,5,1M5,0A5,5,0,1,1,0,5,5,5,0,0,1,5,0Z" transform="translate(-2791 -2688)" fill="#707070"/>
    <circle id="Ellipse_17" data-name="Ellipse 17" cx="5" cy="5" r="5" transform="translate(-2770 -2688)" fill="#d6d6d6"/>
    <path id="Ellipse_17_-_Outline" data-name="Ellipse 17 - Outline" d="M5,1A4,4,0,1,0,9,5,4,4,0,0,0,5,1M5,0A5,5,0,1,1,0,5,5,5,0,0,1,5,0Z" transform="translate(-2770 -2688)" fill="#707070"/>
    <circle id="Ellipse_29" data-name="Ellipse 29" cx="5" cy="5" r="5" transform="translate(-2749 -2687)" fill="#d6d6d6"/>
    <path id="Ellipse_29_-_Outline" data-name="Ellipse 29 - Outline" d="M5,1A4,4,0,1,0,9,5,4,4,0,0,0,5,1M5,0A5,5,0,1,1,0,5,5,5,0,0,1,5,0Z" transform="translate(-2749 -2687)" fill="#707070"/>
    <circle id="Ellipse_41" data-name="Ellipse 41" cx="5" cy="5" r="5" transform="translate(-2728 -2687)" fill="#d6d6d6"/>
    <path id="Ellipse_41_-_Outline" data-name="Ellipse 41 - Outline" d="M5,1A4,4,0,1,0,9,5,4,4,0,0,0,5,1M5,0A5,5,0,1,1,0,5,5,5,0,0,1,5,0Z" transform="translate(-2728 -2687)" fill="#707070"/>
    <circle id="Ellipse_53" data-name="Ellipse 53" cx="5" cy="5" r="5" transform="translate(-2707 -2687)" fill="#d6d6d6"/>
    <path id="Ellipse_53_-_Outline" data-name="Ellipse 53 - Outline" d="M5,1A4,4,0,1,0,9,5,4,4,0,0,0,5,1M5,0A5,5,0,1,1,0,5,5,5,0,0,1,5,0Z" transform="translate(-2707 -2687)" fill="#707070"/>
    <circle id="Ellipse_65" data-name="Ellipse 65" cx="5" cy="5" r="5" transform="translate(-2686 -2687)" fill="#d6d6d6"/>
    <path id="Ellipse_65_-_Outline" data-name="Ellipse 65 - Outline" d="M5,1A4,4,0,1,0,9,5,4,4,0,0,0,5,1M5,0A5,5,0,1,1,0,5,5,5,0,0,1,5,0Z" transform="translate(-2686 -2687)" fill="#707070"/>
    <circle id="Ellipse_9" data-name="Ellipse 9" cx="5" cy="5" r="5" transform="translate(-2791 -2608)" fill="#d6d6d6"/>
    <path id="Ellipse_9_-_Outline" data-name="Ellipse 9 - Outline" d="M5,1A4,4,0,1,0,9,5,4,4,0,0,0,5,1M5,0A5,5,0,1,1,0,5,5,5,0,0,1,5,0Z" transform="translate(-2791 -2608)" fill="#707070"/>
    <circle id="Ellipse_21" data-name="Ellipse 21" cx="5" cy="5" r="5" transform="translate(-2770 -2608)" fill="#d6d6d6"/>
    <path id="Ellipse_21_-_Outline" data-name="Ellipse 21 - Outline" d="M5,1A4,4,0,1,0,9,5,4,4,0,0,0,5,1M5,0A5,5,0,1,1,0,5,5,5,0,0,1,5,0Z" transform="translate(-2770 -2608)" fill="#707070"/>
    <circle id="Ellipse_33" data-name="Ellipse 33" cx="5" cy="5" r="5" transform="translate(-2749 -2607)" fill="#d6d6d6"/>
    <path id="Ellipse_33_-_Outline" data-name="Ellipse 33 - Outline" d="M5,1A4,4,0,1,0,9,5,4,4,0,0,0,5,1M5,0A5,5,0,1,1,0,5,5,5,0,0,1,5,0Z" transform="translate(-2749 -2607)" fill="#707070"/>
    <circle id="Ellipse_45" data-name="Ellipse 45" cx="5" cy="5" r="5" transform="translate(-2728 -2607)" fill="#d6d6d6"/>
    <path id="Ellipse_45_-_Outline" data-name="Ellipse 45 - Outline" d="M5,1A4,4,0,1,0,9,5,4,4,0,0,0,5,1M5,0A5,5,0,1,1,0,5,5,5,0,0,1,5,0Z" transform="translate(-2728 -2607)" fill="#707070"/>
    <circle id="Ellipse_57" data-name="Ellipse 57" cx="5" cy="5" r="5" transform="translate(-2707 -2607)" fill="#d6d6d6"/>
    <path id="Ellipse_57_-_Outline" data-name="Ellipse 57 - Outline" d="M5,1A4,4,0,1,0,9,5,4,4,0,0,0,5,1M5,0A5,5,0,1,1,0,5,5,5,0,0,1,5,0Z" transform="translate(-2707 -2607)" fill="#707070"/>
    <circle id="Ellipse_69" data-name="Ellipse 69" cx="5" cy="5" r="5" transform="translate(-2686 -2607)" fill="#d6d6d6"/>
    <path id="Ellipse_69_-_Outline" data-name="Ellipse 69 - Outline" d="M5,1A4,4,0,1,0,9,5,4,4,0,0,0,5,1M5,0A5,5,0,1,1,0,5,5,5,0,0,1,5,0Z" transform="translate(-2686 -2607)" fill="#707070"/>
    <circle id="Ellipse_13" data-name="Ellipse 13" cx="5" cy="5" r="5" transform="translate(-2791 -2528)" fill="#d6d6d6"/>
    <path id="Ellipse_13_-_Outline" data-name="Ellipse 13 - Outline" d="M5,1A4,4,0,1,0,9,5,4,4,0,0,0,5,1M5,0A5,5,0,1,1,0,5,5,5,0,0,1,5,0Z" transform="translate(-2791 -2528)" fill="#707070"/>
    <circle id="Ellipse_25" data-name="Ellipse 25" cx="5" cy="5" r="5" transform="translate(-2770 -2528)" fill="#d6d6d6"/>
    <path id="Ellipse_25_-_Outline" data-name="Ellipse 25 - Outline" d="M5,1A4,4,0,1,0,9,5,4,4,0,0,0,5,1M5,0A5,5,0,1,1,0,5,5,5,0,0,1,5,0Z" transform="translate(-2770 -2528)" fill="#707070"/>
    <circle id="Ellipse_37" data-name="Ellipse 37" cx="5" cy="5" r="5" transform="translate(-2749 -2527)" fill="#d6d6d6"/>
    <path id="Ellipse_37_-_Outline" data-name="Ellipse 37 - Outline" d="M5,1A4,4,0,1,0,9,5,4,4,0,0,0,5,1M5,0A5,5,0,1,1,0,5,5,5,0,0,1,5,0Z" transform="translate(-2749 -2527)" fill="#707070"/>
  </g>
</svg>
