<svg xmlns="http://www.w3.org/2000/svg" width="175" height="17.977" viewBox="0 0 175 17.977">
  <g id="End-Section-Dots" transform="translate(0.01)">
    <rect id="Rectangle_49" data-name="Rectangle 49" width="174.991" height="17.977" transform="translate(-0.006)" fill="none"/>
    <path id="Path_68" data-name="Path 68" d="M189.467,8.991A8.64,8.64,0,1,1,172.2,8.985a8.641,8.641,0,1,1,17.267.006Z" transform="translate(-93.341)" fill="#00594c"/>
    <path id="Path_69" data-name="Path 69" d="M143.107,11.121a6.982,6.982,0,1,1-13.947,0,7.157,7.157,0,0,1,6.971-7.329,6.807,6.807,0,0,1,4.934,2.146A7.519,7.519,0,0,1,143.107,11.121Z" transform="translate(-70.068 -2.13)" fill="#00594c"/>
    <path id="Path_70" data-name="Path 70" d="M96.727,13.251A5.324,5.324,0,1,1,86.1,13.245a5.324,5.324,0,1,1,10.627.006Z" transform="translate(-46.746 -4.26)" fill="#00594c"/>
    <path id="Path_71" data-name="Path 71" d="M50.355,15.028a3.653,3.653,0,1,1-1.07-2.588,3.658,3.658,0,0,1,1.07,2.588Z" transform="translate(-24.193 -6.037)" fill="#00594c"/>
    <path id="Path_72" data-name="Path 72" d="M3.985,17.157a2,2,0,1,1-2-2,2,2,0,0,1,2,2Z" transform="translate(0 -8.166)" fill="#00594c"/>
    <path id="Path_73" data-name="Path 73" d="M186.5,7.58a5.3,5.3,0,0,0-4.218,2.089,5.309,5.309,0,0,1,7.446,7.447A5.313,5.313,0,0,0,186.5,7.58Z" transform="translate(-98.983 -3.957)" fill="#fff"/>
    <path id="Path_74" data-name="Path 74" d="M149,10.747A2.111,2.111,0,1,1,146.9,8.64,2.111,2.111,0,0,1,149,10.747Z" transform="translate(-78.709 -4.651)" fill="#fff"/>
    <path id="Path_75" data-name="Path 75" d="M102.484,12.866a1.612,1.612,0,1,1-.471-1.143A1.612,1.612,0,0,1,102.484,12.866Z" transform="translate(-53.975 -6.075)" fill="#fff"/>
    <path id="Path_76" data-name="Path 76" d="M54.062,15.017a.907.907,0,1,1-.267-.643.911.911,0,0,1,.267.643Z" transform="translate(-29.363 -7.647)" fill="#fff"/>
    <path id="Path_77" data-name="Path 77" d="M6.048,17.389a.574.574,0,1,1-.569-.569A.574.574,0,0,1,6.048,17.389Z" transform="translate(-2.759 -9.13)" fill="#fff"/>
    <path id="Path_78" data-name="Path 78" d="M222.82,11.121a6.982,6.982,0,1,0,13.947-.006,6.982,6.982,0,1,0-13.947.008Z" transform="translate(-120.874 -2.13)" fill="#00594c"/>
    <path id="Path_79" data-name="Path 79" d="M273.45,13.251a5.329,5.329,0,1,0,10.635,0,5.329,5.329,0,1,0-10.635,0Z" transform="translate(-148.451 -4.26)" fill="#00594c"/>
    <path id="Path_80" data-name="Path 80" d="M324.08,15.028a3.649,3.649,0,1,0,1.067-2.587,3.658,3.658,0,0,0-1.067,2.587Z" transform="translate(-175.258 -6.037)" fill="#00594c"/>
    <path id="Path_81" data-name="Path 81" d="M374.7,17.157a2,2,0,1,0,2-2,2,2,0,0,0-2,2Z" transform="translate(-203.705 -8.166)" fill="#00594c"/>
    <path id="Path_82" data-name="Path 82" d="M229.39,10.747A2.111,2.111,0,1,0,231.5,8.64a2.111,2.111,0,0,0-2.111,2.107Z" transform="translate(-124.704 -4.651)" fill="#fff"/>
    <path id="Path_83" data-name="Path 83" d="M277.2,12.866a1.612,1.612,0,1,0,.471-1.143A1.612,1.612,0,0,0,277.2,12.866Z" transform="translate(-150.724 -6.075)" fill="#fff"/>
    <path id="Path_84" data-name="Path 84" d="M327.42,15.017a.907.907,0,1,0,.907-.907A.907.907,0,0,0,327.42,15.017Z" transform="translate(-177.135 -7.647)" fill="#fff"/>
    <path id="Path_85" data-name="Path 85" d="M376.287,17.448a.574.574,0,1,0,.572-.524A.574.574,0,0,0,376.287,17.448Z" transform="translate(-204.596 -9.186)" fill="#fff"/>
  </g>
</svg>
