<svg xmlns="http://www.w3.org/2000/svg" width="38" height="38" viewBox="0 0 38 38">
  <path id="Instagram" d="M19,0c-5.162,0-5.806.024-7.833.114A14.01,14.01,0,0,0,6.555,1,9.3,9.3,0,0,0,3.189,3.189,9.27,9.27,0,0,0,1,6.555a13.969,13.969,0,0,0-.883,4.612C.019,13.194,0,13.838,0,19s.024,5.806.114,7.833A14.019,14.019,0,0,0,1,31.445a9.317,9.317,0,0,0,2.191,3.366A9.29,9.29,0,0,0,6.555,37a14.028,14.028,0,0,0,4.612.884c2.027.1,2.671.116,7.833.116s5.806-.024,7.833-.114A14.061,14.061,0,0,0,31.445,37,9.711,9.711,0,0,0,37,31.445a14.019,14.019,0,0,0,.884-4.612c.1-2.027.116-2.671.116-7.833s-.024-5.806-.114-7.833A14.052,14.052,0,0,0,37,6.555a9.325,9.325,0,0,0-2.191-3.366A9.257,9.257,0,0,0,31.445,1,13.978,13.978,0,0,0,26.833.114C24.806.019,24.162,0,19,0Zm0,3.42c5.071,0,5.676.025,7.679.112a10.468,10.468,0,0,1,3.526.657,6.253,6.253,0,0,1,3.607,3.6,10.491,10.491,0,0,1,.654,3.526c.09,2,.111,2.606.111,7.679s-.024,5.676-.117,7.679a10.691,10.691,0,0,1-.667,3.526,6.033,6.033,0,0,1-1.423,2.188,5.928,5.928,0,0,1-2.185,1.419,10.568,10.568,0,0,1-3.539.654c-2.017.09-2.611.111-7.693.111s-5.678-.024-7.693-.117a10.773,10.773,0,0,1-3.54-.667A5.884,5.884,0,0,1,5.535,32.37,5.769,5.769,0,0,1,4.11,30.185a10.783,10.783,0,0,1-.665-3.539c-.071-2-.1-2.611-.1-7.67s.025-5.678.1-7.7A10.77,10.77,0,0,1,4.11,7.742,5.632,5.632,0,0,1,5.535,5.556,5.62,5.62,0,0,1,7.719,4.134a10.516,10.516,0,0,1,3.517-.667c2.019-.071,2.613-.1,7.693-.1Zm0,5.824A9.756,9.756,0,1,0,25.9,12.1,9.756,9.756,0,0,0,19,9.244Zm0,16.09A6.333,6.333,0,1,1,25.333,19,6.333,6.333,0,0,1,19,25.334ZM31.423,8.859a2.28,2.28,0,1,1-.668-1.612A2.28,2.28,0,0,1,31.423,8.859Z" fill="#fff"/>
</svg>
