<svg xmlns="http://www.w3.org/2000/svg" width="12.467" height="17.37" viewBox="0 0 12.467 17.37">
  <path id="Location" d="M10.465,1.49A6.318,6.318,0,0,0,6.234,0,6.318,6.318,0,0,0,2,1.49,6.555,6.555,0,0,0,0,6.605c0,4.738,5.459,10.3,5.7,10.535a.746.746,0,0,0,.529.226.715.715,0,0,0,.529-.226c.245-.226,5.7-5.795,5.7-10.535a6.553,6.553,0,0,0-2-5.115ZM6.234,15.5a28.265,28.265,0,0,1-2.116-2.642c-1.7-2.416-2.6-4.568-2.6-6.248,0-4.719,3.608-5.094,4.723-5.094,4.383,0,4.723,3.907,4.723,5.094,0,3.319-3.384,7.415-4.725,8.888Zm0-12.231a3.049,3.049,0,1,0,3,3.039,3.049,3.049,0,0,0-3-3.039Zm0,4.776A1.737,1.737,0,1,1,7.912,6.306,1.709,1.709,0,0,1,6.234,8.04Z" transform="translate(0 0.003)" fill="#fff"/>
</svg>
