<svg xmlns="http://www.w3.org/2000/svg" width="29.943" height="31.835" viewBox="0 0 29.943 31.835">
  <g id="Menu_Arrow_Large" data-name="Menu Arrow Large" transform="translate(-1567.843 -249)">
    <path id="Line_25" data-name="Line 25" d="M1.1,25.064a1.6,1.6,0,0,1-1.6-1.6V1.1a1.6,1.6,0,0,1,3.2,0V23.466A1.6,1.6,0,0,1,1.1,25.064Z" transform="translate(1581.717 250.5)" fill="#00594c"/>
    <path id="Line_25_-_Outline" data-name="Line 25 - Outline" d="M1.1,26.064a2.6,2.6,0,0,1-2.6-2.6V1.1a2.6,2.6,0,0,1,5.2,0V23.466A2.6,2.6,0,0,1,1.1,26.064ZM1.1.5a.6.6,0,0,0-.6.6V23.466a.6.6,0,1,0,1.2,0V1.1A.6.6,0,0,0,1.1.5Z" transform="translate(1581.717 250.5)" fill="#00594c"/>
    <path id="Line_26" data-name="Line 26" d="M1.6,19.173a1.6,1.6,0,0,1-1.6-1.6V1.6a1.6,1.6,0,1,1,3.2,0V17.575A1.6,1.6,0,0,1,1.6,19.173Z" transform="translate(1594.112 263.604) rotate(45)" fill="#00594c"/>
    <path id="Line_26_-_Outline" data-name="Line 26 - Outline" d="M1.6,20.173a2.6,2.6,0,0,1-2.6-2.6V1.6a2.6,2.6,0,1,1,5.2,0V17.575A2.6,2.6,0,0,1,1.6,20.173ZM1.6,1a.6.6,0,0,0-.6.6V17.575a.6.6,0,1,0,1.2,0V1.6A.6.6,0,0,0,1.6,1Z" transform="translate(1594.112 263.604) rotate(45)" fill="#00594c"/>
    <path id="Line_27" data-name="Line 27" d="M1.6,19.173a1.6,1.6,0,0,1-1.6-1.6V1.6a1.6,1.6,0,0,1,3.2,0V17.575A1.6,1.6,0,0,1,1.6,19.173Z" transform="translate(1585.074 277.161) rotate(135)" fill="#00594c"/>
    <path id="Line_27_-_Outline" data-name="Line 27 - Outline" d="M1.6,20.173h0a2.6,2.6,0,0,1-2.6-2.6V1.6A2.6,2.6,0,0,1,1.6-1,2.6,2.6,0,0,1,4.2,1.6V17.575a2.6,2.6,0,0,1-2.6,2.6ZM1.6,1a.6.6,0,0,0-.6.6V17.575a.6.6,0,0,0,.6.6h0a.6.6,0,0,0,.6-.6V1.6A.6.6,0,0,0,1.6,1Z" transform="translate(1585.074 277.161) rotate(135)" fill="#00594c"/>
  </g>
</svg>
