<svg xmlns="http://www.w3.org/2000/svg" width="86.508" height="52.864" viewBox="0 0 86.508 52.864">
  <g id="Planet" transform="translate(0 0.001)">
    <path id="Path_34" data-name="Path 34" d="M33.364,53.363A26.432,26.432,0,1,0,6.932,26.931,26.432,26.432,0,0,0,33.364,53.363Z" transform="translate(9.89 -0.5)" fill="#ffcc4d"/>
    <path id="Path_35" data-name="Path 35" d="M14.091,36.758a6.185,6.185,0,0,1-5.445-2.266,25.9,25.9,0,0,0,1.948,3.925,6.086,6.086,0,0,0,6.278-.673,7.351,7.351,0,0,0-2.781-.986ZM45.869,1.8c.111.811-.462,1.236-1.854.9-2.36-.573-4.432,1.918-5.621,4-2.341,4.1-12,8.71-12,5.158,0-1.678-8.532,2.084-9.622.4-1.031-1.592-4.11-.979-4.748-2.887a26.335,26.335,0,0,0-5.042,13.4,8.713,8.713,0,0,0,3.342,3.772c1.631.816,9.209,3.777,10.317,1.886,1.846-3.154,12.924-.922,12.66-2.581-.507-3.176,6-.568,8.337-4.661,1.191-2.084,3.789-3.683,6.152-3.109,2.758.67,6.162-4.061,5.9-9.877a26.453,26.453,0,0,0-7.821-6.4Zm7.862,39.979a7.579,7.579,0,0,1-2.41.806c-5.556.6-6.757,4.956-10.485,4.209-1.92-.386-4.54,3-7.539,3.205a54.152,54.152,0,0,0-5.9.761,26.292,26.292,0,0,0,26.331-8.982Z" transform="translate(9.956 1.416)" fill="#f4900c"/>
    <path id="Path_36" data-name="Path 36" d="M56.295,2.938a26.435,26.435,0,0,1,6.313,4.951c6.157-.388,9.911,1.06,9.6,4.392-.163,1.743-1.446,3.811-3.537,6.018-5.21,5.489-15.594,11.854-27.361,16.318-8.179,3.1-15.468,4.7-20.678,4.78-5.3.087-8.448-1.391-8.161-4.456.188-2.014,1.859-4.464,4.578-7.062-.047-.63-.1-1.253-.1-1.891a26.4,26.4,0,0,1,.732-6.083C7.047,27.278.126,35.4.126,41.73c0,8.619,12.759,11.266,30.34,7.309A105.622,105.622,0,0,0,43.38,45.21a114.6,114.6,0,0,0,25.7-13.142C79.714,24.7,86.634,16.576,86.634,10.244c0-8.616-12.759-11.266-30.34-7.306Z" transform="translate(-0.126 0.444)" fill="#e85e00"/>
    <path id="Path_37" data-name="Path 37" d="M11.385,23.982a27.976,27.976,0,0,0-4.647,5.887c-1.211,2.106-2.242,4.476-2.086,6.6.087,2.116,1.686,3.376,3.851,3.96a22.828,22.828,0,0,0,7,.566A62.561,62.561,0,0,0,29.94,38.61a91.494,91.494,0,0,0,13.878-5.032A105.276,105.276,0,0,0,68.866,17.8c.91-.823,1.906-1.6,2.778-2.437a19.991,19.991,0,0,0,2.249-2.711c1.29-1.9,2.042-4.12.828-5.813-1.211-1.72-3.7-2.657-6.063-3.141a24.8,24.8,0,0,0-7.489-.274A22.958,22.958,0,0,1,68.8,2.646c2.546.227,5.368.741,7.435,3.018a5.646,5.646,0,0,1,1.3,4.315,10.27,10.27,0,0,1-1.392,4.041A22.683,22.683,0,0,1,73.8,17.353c-.87,1-1.752,1.92-2.65,2.875A84.841,84.841,0,0,1,45.793,37.922c-9.432,4.251-19.709,7.195-30.3,6.807a24.416,24.416,0,0,1-8-1.354,9,9,0,0,1-3.707-2.511A6.142,6.142,0,0,1,2.33,36.479a13.645,13.645,0,0,1,3.334-7.356,24.1,24.1,0,0,1,5.724-5.141Z" transform="translate(3.089 2.576)" fill="#f4900c"/>
  </g>
</svg>
