<svg xmlns="http://www.w3.org/2000/svg" width="225" height="469.836" viewBox="0 0 225 469.836">
  <g id="Plant" transform="translate(0 0.596)">
    <g id="Scene_Plants" data-name="Scene/Plants" transform="translate(0 -0.596)">
      <path id="Leaf-Top" d="M111.91,9.8c3.011-1.3,6.836.591,5,4.353-1.964,4.028-8.431,3.74-12.077,3.467.367,0,1.741-3.716,2.174-4.266A12.4,12.4,0,0,1,111.91,9.8ZM74.184,83.1C73.1,83.93,74.1,83.177,74.184,83.1Zm40.135-53.987a3.507,3.507,0,0,1,.126,5.285c-1.807,1.8-4.922,1.572-7.24,1.267-1.049-.138-6.647-.876-5.266-1.718a4.666,4.666,0,0,0-.559.23q-.22.66-.458,1.313c.032.021.059.043.093.064-.037-.019-.063-.038-.1-.056A50.978,50.978,0,0,1,94.457,47.77a12.259,12.259,0,0,1,2.95-.619c2.953-.215,9,2.362,5.517,6.059-3.341,3.544-8.028-.688-11.57-1.421A166.171,166.171,0,0,1,79.343,65.01a.95.95,0,0,1,.558.511c1.647-.723,3.381-1.79,4.883-2.026,2.168-.339,6.578-.383,8.1,1.6,1.869,2.441-.367,4.228-2.745,4.553-3.448.473-7.83-1.411-11.057-2.7a1.091,1.091,0,0,1-1.013-.394l-.212-.08c-4.285,4.2-8.719,8.249-13.121,12.205h.136a11.437,11.437,0,0,1,3.613-1.411c2.971-.556,6.423-.38,8.692,1.846s2.907,5.92.33,8.143c-5.16,4.45-11.828-6.652-14.281-7.229-4.471,3.976-9.172,7.663-13.939,11.268a8.2,8.2,0,0,1,1.616-.24c4.5-.192,14.714,5.787,8.94,10.847-5.033,4.41-10.1-4.844-13.789-8.18-4.49,3.357-9,6.688-13.4,10.164a12.36,12.36,0,0,1,6.961.406c2.5.894,6.5,3.007,4.717,6.323-1.818,3.372-6.661,1.543-9.168.313-1.368-.671-4.067-2.837-6.486-3.817a83.948,83.948,0,0,0-18.041,20.433A72.917,72.917,0,0,0,3.49,143.307C2.366,146.818.205,152.7.33,157.355c-1.27-9.367,2.5-20.341,6.369-28.453a69.806,69.806,0,0,1,14.47-19.644C20,105.056,8.646,98.494,15.826,95.02c3.812-1.836,7.428,1.727,8.049,5.333.426,2.479-.584,5.513-1.61,7.844q2.753-2.619,5.689-5.051c2.7-2.241,5.456-4.41,8.236-6.549-4.167-4.305-7.7-16.178-1.721-17.779,8.826-2.357,3.807,13.327,3.043,16.276a.476.476,0,0,1-.4-.173c.034.275.076.571.129.869,5.32-4.071,10.712-8.053,15.942-12.232a22.65,22.65,0,0,1-1.608-2.349,25.42,25.42,0,0,1-3.114-5.03c-1.255-2.865-2.37-7.39,1.433-8.839,4.136-1.58,5.79,3.558,5.659,6.565a39.481,39.481,0,0,1-1.173,6.046c-.126.63.08,3.513-.728,2.236a5.985,5.985,0,0,1-.028,1.018q1.41-1.131,2.8-2.287a1.086,1.086,0,0,1-.059-.35,1.051,1.051,0,0,1,1.553-.9q1.837-1.557,3.634-3.165c2.533-2.278,5.1-4.623,7.661-7.022-.5-.475-.26-1.083-.727-1.584s-1.42-.811-1.973-1.281a13.84,13.84,0,0,1-3.3-4.493c-1.3-2.7-2.865-8.3,1.4-9.332,4.4-1.066,6.314,4.347,6.417,7.674a84.055,84.055,0,0,1-1.254,8.483c4.732-4.458,9.4-9.1,13.659-13.84-1.211-.074-4.516-2.711-5.175-3.417-1.608-1.724-4.11-5.479-1.038-7.238,2.731-1.56,5.856,1.067,6.859,3.514a33.213,33.213,0,0,1,.59,5.743c1.765-2.014,3.454-4.044,5.035-6.087q1.581-2.037,2.979-4.189a1.97,1.97,0,0,1-.553-.6c-4.366-.969-9.622-8.067-4.322-10.167,2.524-1,5.072,1.465,6.178,3.431a25.061,25.061,0,0,1,.768,3.941,81.337,81.337,0,0,0,6.59-15.082.956.956,0,0,1-.7-.922,13.091,13.091,0,0,1-5.081-4.811c-.851-1.49-2.347-4.872.421-5.531,3.6-.857,5.545,4.623,5.7,7.28.018.308-.031,1.2-.085,2.017a1.205,1.205,0,0,1,.369.026c.988-3.246,1.815-6.543,2.508-9.852-1.9-.717-1.7-10.8-.341-12.169,3.051-3.06,4.839,1.682,4.555,4.125a16.13,16.13,0,0,1-3.494,7.691c-.182.238-.133.229-.159-.118a.689.689,0,0,1-.187.378,43.357,43.357,0,0,1-.07,4.433,101.7,101.7,0,0,1-1.94,11.467q-.314,1.376-.695,2.725a22.634,22.634,0,0,1,4.625-2.611C108.95,28.25,112.287,27.4,114.319,29.111ZM0,156.971a7.081,7.081,0,0,0,.837,3.348A18.282,18.282,0,0,1,0,156.971Z" transform="translate(58.651 6.144) rotate(-3)" fill="#fc0303" fill-rule="evenodd" opacity="0.2"/>
      <g id="Plant-Left" transform="translate(0 43.186)" opacity="0.5">
        <path id="Leaf" d="M167.591,107.623c3.517-5.015,10.045-17.753,14.995-19.545,3.189-1.154,2.259,10.786,2.3,13.062a190.889,190.889,0,0,1-1.763,26.295c-1.908,15.753-8.146,29.781-16.7,43.188-4.4,6.9-9.568,13.882-16.721,18.185-3.292,1.983-7.253,2.314-10.505,4.023-3.787,1.988-1.725.381-3.432,4.326-2.37,5.479-3.128,12.547-4.224,18.393-5.034,26.836-17.224,168.7-15.111,195.995.187,2.42-3.186,3-3.355.044-.895-15.661,6.851-124.117,10.76-159.584s7.863-66.8,11.828-79.073c4.811-14.888,13.5-32.79,20.731-46.673A165.154,165.154,0,0,1,167.591,107.623Z" transform="translate(-23.409 -32.137)" fill="#00594c" fill-rule="evenodd"/>
        <path id="Leaf-2" data-name="Leaf" d="M193.046,318.907c9.152-6.719,19.06,5.962,10.777,12.682-4.578,3.715-9.365,2.394-12.059-.7-1.749,2.133-3.386,4.362-4.96,6.245-4.793,5.739-9.323,11.614-13.653,17.626-8.994,12.491-16.7,25.687-24.762,38.641-7.953,12.786-15.843,25.637-23.052,38.747-6.107,11.107-14.246,24.173-16.337,36.35,3.172-25.825,15.21-50.646,29.544-73.412,14.218-22.579,30.534-47.238,52.549-65.057A7.8,7.8,0,0,1,193.046,318.907Z" transform="translate(-23.501 -69.466)" fill="#00594c" fill-rule="evenodd"/>
        <path id="Leaf-3" data-name="Leaf" d="M1.6,244.026c5.122,1,13.491,12.587,17.712,17a165.325,165.325,0,0,1,13.86,16.7,282.391,282.391,0,0,1,24.523,40,371.781,371.781,0,0,1,27.285,71.009,292.821,292.821,0,0,1,8.279,46.576c.3,2.95,3.387,25.686-1.068,26.3-4.007.552-2.769-17.264-2.962-19.688-2.185-27.34-8.731-53.942-17.837-79.713-1.983-5.614-3.826-12.49-7-17.542-2.284-3.638-.016-2.37-4.03-3.746-3.447-1.184-7.374-.894-10.9-2.343-7.667-3.144-13.807-9.248-19.188-15.388-10.458-11.933-18.746-24.842-23.066-40.132A193.189,193.189,0,0,1,1.388,257.31C1.072,255.051-1.7,243.381,1.6,244.026Z" transform="translate(0 -57.566)" fill="#00594c" fill-rule="evenodd"/>
        <path id="Leaf-4" data-name="Leaf" d="M23.769,10.98c19.293,32,35.146,67.153,45.383,102.756,6.2,21.572,10.54,43.708,14.85,65.684,6.672,34.027,12.984,68.052,14.78,102.683,1.806,34.832,5.378,75.007-6.547,108.556,5.957-34.061.285-70.317-.719-104.589-.48-16.361-1.87-32.562-3.694-48.828-1.77-15.778-4.662-31.482-7.355-47.136q-1.968-11.436-4.092-22.845c-.419-2.27-.6-9.006-2.1-10.557s-9.246-2.2-11.674-3.343a62.768,62.768,0,0,1-13.554-9.045c-7.8-6.637-14.586-15.309-19.941-23.858-12.392-19.78-17.346-43.919-17.1-66.827.048-4.448,7.527-52.342,4.523-53q.271-.3.513-.629C19.319,3.641,21.551,7.308,23.769,10.98Z" transform="translate(-1.956)" fill="#00594c" fill-rule="evenodd"/>
        <path id="Leaf-5" data-name="Leaf" d="M247.975,157.253c.3-.429,2.236-3.415,1.26-3.224,1.986-.389-2.732,3.293,2.217,1.034-2.35,2.22-.994,5.1-.963,8.09a72.468,72.468,0,0,1-1.673,14.405,98.792,98.792,0,0,1-6.715,21.773c-6.8,15.206-18.353,29.843-32.065,39.349-6.77,4.693-13.4,6.292-21.124,8.452-4.877,1.365-5.264,3.888-7.853,8.62-5.389,9.856-10.682,19.677-15.435,29.866-5.675,12.167-11.184,24.347-16.381,36.728-17.507,41.7-31.756,84.909-39.239,129.623-.183-26.349,5.913-53.488,13.6-78.6,5.6-18.3,12.892-35.938,20.669-53.4,1.884-4.229,4.74-9.671,5.541-14.341.56-3.273-1.153-6.419-1.938-9.866-3.058-13.423-2.839-28.461-.154-41.956,2.961-14.881,11.524-21.788,26.009-23.9,5.3-.772,12.031-.489,16.888-2.748,5.292-2.459,7.475-10.544,10.485-15.734a213.969,213.969,0,0,1,28.714-39.058,93.152,93.152,0,0,1,9.82-9.035C241.837,161.577,246.477,159.415,247.975,157.253Z" transform="translate(-26.452 -42.896)" fill="#00594c" fill-rule="evenodd"/>
        <path id="Base" d="M79.976,476h51.406a4.185,4.185,0,0,1,4.185,4.185,4.134,4.134,0,0,1-.045.61l-3.973,26.942a16.74,16.74,0,0,1-16.561,14.3H96.37a16.74,16.74,0,0,1-16.561-14.3L75.836,480.8a4.185,4.185,0,0,1,3.53-4.751A4.257,4.257,0,0,1,79.976,476Z" transform="translate(-15.466 -95.384)" fill="#00594c" fill-rule="evenodd"/>
      </g>
    </g>
  </g>
</svg>
