<svg id="Shield" xmlns="http://www.w3.org/2000/svg" width="88.98" height="88.995" viewBox="0 0 88.98 88.995">
  <path id="Path_45" data-name="Path 45" d="M45.008,20.273,27.706.5H.518l34.6,42.018L63.6,30.777Z" transform="translate(-0.518 -0.5)" fill="#55acee"/>
  <path id="Path_46" data-name="Path 46" d="M35.819.5l-17.3,19.773L31.84,38.346l3.033-3.681L63.008.5Z" transform="translate(25.972 -0.5)" fill="#3b88c3"/>
  <path id="Path_47" data-name="Path 47" d="M47.131,20.489a4.9,4.9,0,0,0-4.62-6.656H26.033a4.944,4.944,0,0,0-4.943,4.942,4.87,4.87,0,0,0,.324,1.714,26.366,26.366,0,1,0,25.718,0Z" transform="translate(10.359 19.122)" fill="#ffac33"/>
  <path id="Path_48" data-name="Path 48" d="M30.349,57.379A19.773,19.773,0,1,0,10.576,37.606,19.773,19.773,0,0,0,30.349,57.379Z" transform="translate(14.284 25.008)" fill="#ffd983"/>
  <path id="Path_49" data-name="Path 49" d="M35.45,48.028a1.727,1.727,0,0,1-1-.324l-7.1-5.089L20.25,47.7a1.724,1.724,0,0,1-2.65-1.92l2.647-8.542L13.22,32.286a1.723,1.723,0,0,1,1.011-3.112l8.71-.013,2.773-8.329a1.725,1.725,0,0,1,3.272,0l2.726,8.329,8.755.013a1.723,1.723,0,0,1,1.011,3.112l-7.034,4.956,2.647,8.542a1.724,1.724,0,0,1-1.641,2.244Z" transform="translate(17.142 27.688)" fill="#ffac33"/>
</svg>
