<svg xmlns="http://www.w3.org/2000/svg" width="42.853" height="38.01" viewBox="0 0 42.853 38.01">
  <path id="Twitter" d="M18.958,45.81h-.19A25.8,25.8,0,0,1,7.732,43.223,3.275,3.275,0,0,1,5.881,39.8,3.347,3.347,0,0,1,8.634,37a15.733,15.733,0,0,0,6.029-2.112A22.524,22.524,0,0,1,6.331,13.364,3.346,3.346,0,0,1,8.7,10.635a3.2,3.2,0,0,1,3.394.973,16.828,16.828,0,0,0,11.583,6.527,10.66,10.66,0,0,1,18.466-6.907A1.662,1.662,0,0,0,44,11.465a3.3,3.3,0,0,1,4.6,3.8,15.808,15.808,0,0,1-3.038,6.171,25.61,25.61,0,0,1-26.6,24.374Zm0-4.747h.19A20.863,20.863,0,0,0,40.723,20.674a3.134,3.134,0,0,1,.878-2.017,12.314,12.314,0,0,0,1.472-2.373,6.076,6.076,0,0,1-4.533-2.017,5.815,5.815,0,0,0-4.177-1.685,5.934,5.934,0,0,0-4.249,1.638A6,6,0,0,0,28.4,19.962l.617,2.706-2.777.19a19.7,19.7,0,0,1-15.523-5.7A16.9,16.9,0,0,0,19.57,32.491l2.255,1.282-1.5,2.136a13.339,13.339,0,0,1-6.361,4.557,19.8,19.8,0,0,0,4.961.593Z" transform="translate(-5.849 -7.821)" fill="#fff"/>
</svg>
