<svg xmlns="http://www.w3.org/2000/svg" xmlns:xlink="http://www.w3.org/1999/xlink" xmlns:lucid="lucid" width="1617" height="775"><g transform="translate(-88 -210)" lucid:page-tab-id="0_0"><path d="M100 226a6 6 0 0 1 6-6h188a6 6 0 0 1 6 6v48a6 6 0 0 1-6 6H106a6 6 0 0 1-6-6z" stroke="#3a414a" fill="#fff"/><use xlink:href="#a" transform="matrix(1,0,0,1,112,232) translate(23.432098765432087 20.97222222222222)"/><use xlink:href="#b" transform="matrix(1,0,0,1,112,232) translate(107.13580246913581 20.97222222222222)"/><path d="M300 326a6 6 0 0 1 6-6h188a6 6 0 0 1 6 6v48a6 6 0 0 1-6 6H306a6 6 0 0 1-6-6z" stroke="#3a414a" fill="#fff"/><use xlink:href="#c" transform="matrix(1,0,0,1,312,332) translate(1.7283950617283779 21.15972222222222)"/><use xlink:href="#d" transform="matrix(1,0,0,1,312,332) translate(108.19753086419755 21.15972222222222)"/><path d="M500 426a6 6 0 0 1 6-6h188a6 6 0 0 1 6 6v48a6 6 0 0 1-6 6H506a6 6 0 0 1-6-6z" stroke="#3a414a" fill="#fff"/><use xlink:href="#e" transform="matrix(1,0,0,1,512,432) translate(60.395061728395056 20.97222222222222)"/><path d="M700 526a6 6 0 0 1 6-6h188a6 6 0 0 1 6 6v48a6 6 0 0 1-6 6H706a6 6 0 0 1-6-6z" stroke="#3a414a" fill="#fff"/><use xlink:href="#f" transform="matrix(1,0,0,1,712,532) translate(27.35802469135801 20.97222222222222)"/><path d="M900 626a6 6 0 0 1 6-6h188a6 6 0 0 1 6 6v48a6 6 0 0 1-6 6H906a6 6 0 0 1-6-6z" stroke="#3a414a" fill="#fff"/><use xlink:href="#g" transform="matrix(1,0,0,1,912,632) translate(59.90123456790123 20.97222222222222)"/><path d="M1100 726a6 6 0 0 1 6-6h188a6 6 0 0 1 6 6v48a6 6 0 0 1-6 6h-188a6 6 0 0 1-6-6z" stroke="#3a414a" fill="#fff"/><use xlink:href="#h" transform="matrix(1,0,0,1,1112,732) translate(40.66666666666666 20.97222222222222)"/><path d="M1300 826a6 6 0 0 1 6-6h188a6 6 0 0 1 6 6v48a6 6 0 0 1-6 6h-188a6 6 0 0 1-6-6z" stroke="#3a414a" fill="#fff"/><use xlink:href="#i" transform="matrix(1,0,0,1,1312,832) translate(37.185185185185176 20.97222222222222)"/><path d="M1500 926a6 6 0 0 1 6-6h188a6 6 0 0 1 6 6v48a6 6 0 0 1-6 6h-188a6 6 0 0 1-6-6z" stroke="#3a414a" fill="#fff"/><use xlink:href="#j" transform="matrix(1,0,0,1,1512,932) translate(49.01234567901234 20.97222222222222)"/><path d="M300.96 250H394a6 6 0 0 1 6 6v47.15" stroke="#3a414a" fill="none"/><path d="M300.98 250.5h-.52v-1h.52z" stroke="#3a414a" stroke-width=".05" fill="#3a414a"/><path d="M400 317.92l-4.64-14.27h9.28z" stroke="#3a414a" fill="#3a414a"/><path d="M500.96 350H594a6 6 0 0 1 6 6v47.15" stroke="#3a414a" fill="none"/><path d="M500.98 350.5h-.52v-1h.52z" stroke="#3a414a" stroke-width=".05" fill="#3a414a"/><path d="M600 417.92l-4.64-14.27h9.28z" stroke="#3a414a" fill="#3a414a"/><path d="M700.96 450H794a6 6 0 0 1 6 6v47.15" stroke="#3a414a" fill="none"/><path d="M700.98 450.5h-.52v-1h.52z" stroke="#3a414a" stroke-width=".05" fill="#3a414a"/><path d="M800 517.92l-4.64-14.27h9.28z" stroke="#3a414a" fill="#3a414a"/><path d="M900.96 550H994a6 6 0 0 1 6 6v47.15" stroke="#3a414a" fill="none"/><path d="M900.98 550.5h-.52v-1h.52z" stroke="#3a414a" stroke-width=".05" fill="#3a414a"/><path d="M1000 617.92l-4.64-14.27h9.28z" stroke="#3a414a" fill="#3a414a"/><path d="M1100.96 650H1194a6 6 0 0 1 6 6v47.15" stroke="#3a414a" fill="none"/><path d="M1100.98 650.5h-.52v-1h.52z" stroke="#3a414a" stroke-width=".05" fill="#3a414a"/><path d="M1200 717.92l-4.64-14.27h9.28z" stroke="#3a414a" fill="#3a414a"/><path d="M1300.96 750H1394a6 6 0 0 1 6 6v47.15" stroke="#3a414a" fill="none"/><path d="M1300.98 750.5h-.52v-1h.52z" stroke="#3a414a" stroke-width=".05" fill="#3a414a"/><path d="M1400 817.92l-4.64-14.27h9.28z" stroke="#3a414a" fill="#3a414a"/><path d="M1500.96 850H1594a6 6 0 0 1 6 6v47.15" stroke="#3a414a" fill="none"/><path d="M1500.98 850.5h-.52v-1h.52z" stroke="#3a414a" stroke-width=".05" fill="#3a414a"/><path d="M1600 917.92l-4.64-14.27h9.28z" stroke="#3a414a" fill="#3a414a"/><path d="M1499.04 950H406a6 6 0 0 1-6-6V396.85" stroke="#3a414a" fill="none"/><path d="M1499.54 950.5h-.52v-1h.52z" stroke="#3a414a" stroke-width=".05" fill="#3a414a"/><path d="M400 382.08l4.64 14.27h-9.28z" stroke="#3a414a" fill="#3a414a"/><path d="M1400 896.85v52.65" stroke="#3a414a" fill="none"/><path d="M1400 882.08l4.64 14.27h-9.28z" stroke="#3a414a" fill="#3a414a"/><path d="M1400 949.5v.5M1200 796.85V949.5" stroke="#3a414a" fill="none"/><path d="M1200 782.08l4.64 14.27h-9.28z" stroke="#3a414a" fill="#3a414a"/><path d="M1200 949.5v.5M1000 696.85V949.5" stroke="#3a414a" fill="none"/><path d="M1000 682.08l4.64 14.27h-9.28z" stroke="#3a414a" fill="#3a414a"/><path d="M1000 949.5v.5M800 596.85V949.5" stroke="#3a414a" fill="none"/><path d="M800 582.08l4.64 14.27h-9.28z" stroke="#3a414a" fill="#3a414a"/><path d="M800 949.5v.5M600 496.85V949.5" stroke="#3a414a" fill="none"/><path d="M600 482.08l4.64 14.27h-9.28z" stroke="#3a414a" fill="#3a414a"/><path d="M600 949.5v.5" stroke="#3a414a" fill="none"/><defs><path fill="#3a414a" d="M63-220v92h138v28H63V0H30v-248h175v28H63" id="k"/><path fill="#3a414a" d="M100-194c63 0 86 42 84 106H49c0 40 14 67 53 68 26 1 43-12 49-29l28 8c-11 28-37 45-77 45C44 4 14-33 15-96c1-61 26-98 85-98zm52 81c6-60-76-77-97-28-3 7-6 17-6 28h103" id="l"/><path fill="#3a414a" d="M141-36C126-15 110 5 73 4 37 3 15-17 15-53c-1-64 63-63 125-63 3-35-9-54-41-54-24 1-41 7-42 31l-33-3c5-37 33-52 76-52 45 0 72 20 72 64v82c-1 20 7 32 28 27v20c-31 9-61-2-59-35zM48-53c0 20 12 33 32 33 41-3 63-29 60-74-43 2-92-5-92 41" id="m"/><path fill="#3a414a" d="M135-143c-3-34-86-38-87 0 15 53 115 12 119 90S17 21 10-45l28-5c4 36 97 45 98 0-10-56-113-15-118-90-4-57 82-63 122-42 12 7 21 19 24 35" id="n"/><path fill="#3a414a" d="M24-231v-30h32v30H24zM24 0v-190h32V0H24" id="o"/><path fill="#3a414a" d="M115-194c53 0 69 39 70 98 0 66-23 100-70 100C84 3 66-7 56-30L54 0H23l1-261h32v101c10-23 28-34 59-34zm-8 174c40 0 45-34 45-75 0-40-5-75-45-74-42 0-51 32-51 76 0 43 10 73 51 73" id="p"/><path fill="#3a414a" d="M24 0v-261h32V0H24" id="q"/><path fill="#3a414a" d="M59-47c-2 24 18 29 38 22v24C64 9 27 4 27-40v-127H5v-23h24l9-43h21v43h35v23H59v120" id="r"/><path fill="#3a414a" d="M179-190L93 31C79 59 56 82 12 73V49c39 6 53-20 64-50L1-190h34L92-34l54-156h33" id="s"/><g id="a"><use transform="matrix(0.04938271604938272,0,0,0.04938271604938272,0,0)" xlink:href="#k"/><use transform="matrix(0.04938271604938272,0,0,0.04938271604938272,10.814814814814815,0)" xlink:href="#l"/><use transform="matrix(0.04938271604938272,0,0,0.04938271604938272,20.69135802469136,0)" xlink:href="#m"/><use transform="matrix(0.04938271604938272,0,0,0.04938271604938272,30.567901234567906,0)" xlink:href="#n"/><use transform="matrix(0.04938271604938272,0,0,0.04938271604938272,39.4567901234568,0)" xlink:href="#o"/><use transform="matrix(0.04938271604938272,0,0,0.04938271604938272,43.35802469135803,0)" xlink:href="#p"/><use transform="matrix(0.04938271604938272,0,0,0.04938271604938272,53.23456790123457,0)" xlink:href="#o"/><use transform="matrix(0.04938271604938272,0,0,0.04938271604938272,57.135802469135804,0)" xlink:href="#q"/><use transform="matrix(0.04938271604938272,0,0,0.04938271604938272,61.037037037037045,0)" xlink:href="#o"/><use transform="matrix(0.04938271604938272,0,0,0.04938271604938272,64.93827160493828,0)" xlink:href="#r"/><use transform="matrix(0.04938271604938272,0,0,0.04938271604938272,69.87654320987656,0)" xlink:href="#s"/></g><path fill="#3a414a" d="M185-189c-5-48-123-54-124 2 14 75 158 14 163 119 3 78-121 87-175 55-17-10-28-26-33-46l33-7c5 56 141 63 141-1 0-78-155-14-162-118-5-82 145-84 179-34 5 7 8 16 11 25" id="t"/><path fill="#3a414a" d="M84 4C-5 8 30-112 23-190h32v120c0 31 7 50 39 49 72-2 45-101 50-169h31l1 190h-30c-1-10 1-25-2-33-11 22-28 36-60 37" id="u"/><path fill="#3a414a" d="M85-194c31 0 48 13 60 33l-1-100h32l1 261h-30c-2-10 0-23-3-31C134-8 116 4 85 4 32 4 16-35 15-94c0-66 23-100 70-100zm9 24c-40 0-46 34-46 75 0 40 6 74 45 74 42 0 51-32 51-76 0-42-9-74-50-73" id="v"/><g id="b"><use transform="matrix(0.04938271604938272,0,0,0.04938271604938272,0,0)" xlink:href="#t"/><use transform="matrix(0.04938271604938272,0,0,0.04938271604938272,11.851851851851853,0)" xlink:href="#r"/><use transform="matrix(0.04938271604938272,0,0,0.04938271604938272,16.790123456790127,0)" xlink:href="#u"/><use transform="matrix(0.04938271604938272,0,0,0.04938271604938272,26.666666666666668,0)" xlink:href="#v"/><use transform="matrix(0.04938271604938272,0,0,0.04938271604938272,36.543209876543216,0)" xlink:href="#s"/></g><path fill="#3a414a" d="M233-177c-1 41-23 64-60 70L243 0h-38l-65-103H63V0H30v-248c88 3 205-21 203 71zM63-129c60-2 137 13 137-47 0-61-80-42-137-45v92" id="w"/><path fill="#3a414a" d="M145-31C134-9 116 4 85 4 32 4 16-35 15-94c0-59 17-99 70-100 32-1 48 14 60 33 0-11-1-24 2-32h30l-1 268h-32zM93-21c41 0 51-33 51-76s-8-73-50-73c-40 0-46 35-46 75s5 74 45 74" id="x"/><path fill="#3a414a" d="M114-163C36-179 61-72 57 0H25l-1-190h30c1 12-1 29 2 39 6-27 23-49 58-41v29" id="y"/><path fill="#3a414a" d="M210-169c-67 3-38 105-44 169h-31v-121c0-29-5-50-35-48C34-165 62-65 56 0H25l-1-190h30c1 10-1 24 2 32 10-44 99-50 107 0 11-21 27-35 58-36 85-2 47 119 55 194h-31v-121c0-29-5-49-35-48" id="z"/><path fill="#3a414a" d="M117-194c89-4 53 116 60 194h-32v-121c0-31-8-49-39-48C34-167 62-67 57 0H25l-1-190h30c1 10-1 24 2 32 11-22 29-35 61-36" id="A"/><g id="c"><use transform="matrix(0.04938271604938272,0,0,0.04938271604938272,0,0)" xlink:href="#w"/><use transform="matrix(0.04938271604938272,0,0,0.04938271604938272,12.790123456790125,0)" xlink:href="#l"/><use transform="matrix(0.04938271604938272,0,0,0.04938271604938272,22.66666666666667,0)" xlink:href="#x"/><use transform="matrix(0.04938271604938272,0,0,0.04938271604938272,32.543209876543216,0)" xlink:href="#u"/><use transform="matrix(0.04938271604938272,0,0,0.04938271604938272,42.41975308641976,0)" xlink:href="#o"/><use transform="matrix(0.04938271604938272,0,0,0.04938271604938272,46.320987654320994,0)" xlink:href="#y"/><use transform="matrix(0.04938271604938272,0,0,0.04938271604938272,52.19753086419754,0)" xlink:href="#l"/><use transform="matrix(0.04938271604938272,0,0,0.04938271604938272,62.074074074074076,0)" xlink:href="#z"/><use transform="matrix(0.04938271604938272,0,0,0.04938271604938272,76.83950617283952,0)" xlink:href="#l"/><use transform="matrix(0.04938271604938272,0,0,0.04938271604938272,86.71604938271606,0)" xlink:href="#A"/><use transform="matrix(0.04938271604938272,0,0,0.04938271604938272,96.59259259259261,0)" xlink:href="#r"/></g><path fill="#3a414a" d="M205 0l-28-72H64L36 0H1l101-248h38L239 0h-34zm-38-99l-47-123c-12 45-31 82-46 123h93" id="B"/><g id="d"><use transform="matrix(0.04938271604938272,0,0,0.04938271604938272,0,0)" xlink:href="#B"/><use transform="matrix(0.04938271604938272,0,0,0.04938271604938272,11.851851851851853,0)" xlink:href="#A"/><use transform="matrix(0.04938271604938272,0,0,0.04938271604938272,21.7283950617284,0)" xlink:href="#m"/><use transform="matrix(0.04938271604938272,0,0,0.04938271604938272,31.60493827160494,0)" xlink:href="#q"/><use transform="matrix(0.04938271604938272,0,0,0.04938271604938272,35.50617283950618,0)" xlink:href="#s"/><use transform="matrix(0.04938271604938272,0,0,0.04938271604938272,44.39506172839506,0)" xlink:href="#n"/><use transform="matrix(0.04938271604938272,0,0,0.04938271604938272,53.28395061728394,0)" xlink:href="#o"/><use transform="matrix(0.04938271604938272,0,0,0.04938271604938272,57.185185185185176,0)" xlink:href="#n"/></g><path fill="#3a414a" d="M30-248c118-7 216 8 213 122C240-48 200 0 122 0H30v-248zM63-27c89 8 146-16 146-99s-60-101-146-95v194" id="C"/><path fill="#3a414a" d="M177-190C167-65 218 103 67 71c-23-6-38-20-44-43l32-5c15 47 100 32 89-28v-30C133-14 115 1 83 1 29 1 15-40 15-95c0-56 16-97 71-98 29-1 48 16 59 35 1-10 0-23 2-32h30zM94-22c36 0 50-32 50-73 0-42-14-75-50-75-39 0-46 34-46 75s6 73 46 73" id="D"/><g id="e"><use transform="matrix(0.04938271604938272,0,0,0.04938271604938272,0,0)" xlink:href="#C"/><use transform="matrix(0.04938271604938272,0,0,0.04938271604938272,12.790123456790125,0)" xlink:href="#l"/><use transform="matrix(0.04938271604938272,0,0,0.04938271604938272,22.66666666666667,0)" xlink:href="#n"/><use transform="matrix(0.04938271604938272,0,0,0.04938271604938272,31.555555555555557,0)" xlink:href="#o"/><use transform="matrix(0.04938271604938272,0,0,0.04938271604938272,35.4567901234568,0)" xlink:href="#D"/><use transform="matrix(0.04938271604938272,0,0,0.04938271604938272,45.33333333333334,0)" xlink:href="#A"/></g><path fill="#3a414a" d="M33 0v-248h34V0H33" id="E"/><path fill="#3a414a" d="M115-194c55 1 70 41 70 98S169 2 115 4C84 4 66-9 55-30l1 105H24l-1-265h31l2 30c10-21 28-34 59-34zm-8 174c40 0 45-34 45-75s-6-73-45-74c-42 0-51 32-51 76 0 43 10 73 51 73" id="F"/><path fill="#3a414a" d="M100-194c62-1 85 37 85 99 1 63-27 99-86 99S16-35 15-95c0-66 28-99 85-99zM99-20c44 1 53-31 53-75 0-43-8-75-51-75s-53 32-53 75 10 74 51 75" id="G"/><g id="f"><use transform="matrix(0.04938271604938272,0,0,0.04938271604938272,0,0)" xlink:href="#E"/><use transform="matrix(0.04938271604938272,0,0,0.04938271604938272,4.938271604938272,0)" xlink:href="#z"/><use transform="matrix(0.04938271604938272,0,0,0.04938271604938272,19.703703703703706,0)" xlink:href="#F"/><use transform="matrix(0.04938271604938272,0,0,0.04938271604938272,29.58024691358025,0)" xlink:href="#q"/><use transform="matrix(0.04938271604938272,0,0,0.04938271604938272,33.48148148148149,0)" xlink:href="#l"/><use transform="matrix(0.04938271604938272,0,0,0.04938271604938272,43.35802469135803,0)" xlink:href="#z"/><use transform="matrix(0.04938271604938272,0,0,0.04938271604938272,58.12345679012347,0)" xlink:href="#l"/><use transform="matrix(0.04938271604938272,0,0,0.04938271604938272,68.00000000000001,0)" xlink:href="#A"/><use transform="matrix(0.04938271604938272,0,0,0.04938271604938272,77.87654320987656,0)" xlink:href="#r"/><use transform="matrix(0.04938271604938272,0,0,0.04938271604938272,82.81481481481484,0)" xlink:href="#m"/><use transform="matrix(0.04938271604938272,0,0,0.04938271604938272,92.69135802469138,0)" xlink:href="#r"/><use transform="matrix(0.04938271604938272,0,0,0.04938271604938272,97.62962962962965,0)" xlink:href="#o"/><use transform="matrix(0.04938271604938272,0,0,0.04938271604938272,101.53086419753089,0)" xlink:href="#G"/><use transform="matrix(0.04938271604938272,0,0,0.04938271604938272,111.40740740740743,0)" xlink:href="#A"/></g><path fill="#3a414a" d="M127-220V0H93v-220H8v-28h204v28h-85" id="H"/><g id="g"><use transform="matrix(0.04938271604938272,0,0,0.04938271604938272,0,0)" xlink:href="#H"/><use transform="matrix(0.04938271604938272,0,0,0.04938271604938272,8.839506172839506,0)" xlink:href="#l"/><use transform="matrix(0.04938271604938272,0,0,0.04938271604938272,18.71604938271605,0)" xlink:href="#n"/><use transform="matrix(0.04938271604938272,0,0,0.04938271604938272,27.60493827160494,0)" xlink:href="#r"/><use transform="matrix(0.04938271604938272,0,0,0.04938271604938272,32.543209876543216,0)" xlink:href="#o"/><use transform="matrix(0.04938271604938272,0,0,0.04938271604938272,36.44444444444445,0)" xlink:href="#A"/><use transform="matrix(0.04938271604938272,0,0,0.04938271604938272,46.320987654320994,0)" xlink:href="#D"/></g><g id="h"><use transform="matrix(0.04938271604938272,0,0,0.04938271604938272,0,0)" xlink:href="#C"/><use transform="matrix(0.04938271604938272,0,0,0.04938271604938272,12.790123456790125,0)" xlink:href="#l"/><use transform="matrix(0.04938271604938272,0,0,0.04938271604938272,22.66666666666667,0)" xlink:href="#F"/><use transform="matrix(0.04938271604938272,0,0,0.04938271604938272,32.543209876543216,0)" xlink:href="#q"/><use transform="matrix(0.04938271604938272,0,0,0.04938271604938272,36.44444444444445,0)" xlink:href="#G"/><use transform="matrix(0.04938271604938272,0,0,0.04938271604938272,46.320987654320994,0)" xlink:href="#s"/><use transform="matrix(0.04938271604938272,0,0,0.04938271604938272,55.209876543209894,0)" xlink:href="#z"/><use transform="matrix(0.04938271604938272,0,0,0.04938271604938272,69.97530864197532,0)" xlink:href="#l"/><use transform="matrix(0.04938271604938272,0,0,0.04938271604938272,79.85185185185186,0)" xlink:href="#A"/><use transform="matrix(0.04938271604938272,0,0,0.04938271604938272,89.7283950617284,0)" xlink:href="#r"/></g><path fill="#3a414a" d="M240 0l2-218c-23 76-54 145-80 218h-23L58-218 59 0H30v-248h44l77 211c21-75 51-140 76-211h43V0h-30" id="I"/><path fill="#3a414a" d="M96-169c-40 0-48 33-48 73s9 75 48 75c24 0 41-14 43-38l32 2c-6 37-31 61-74 61-59 0-76-41-82-99-10-93 101-131 147-64 4 7 5 14 7 22l-32 3c-4-21-16-35-41-35" id="J"/><g id="i"><use transform="matrix(0.04938271604938272,0,0,0.04938271604938272,0,0)" xlink:href="#I"/><use transform="matrix(0.04938271604938272,0,0,0.04938271604938272,14.765432098765434,0)" xlink:href="#m"/><use transform="matrix(0.04938271604938272,0,0,0.04938271604938272,24.641975308641978,0)" xlink:href="#o"/><use transform="matrix(0.04938271604938272,0,0,0.04938271604938272,28.543209876543212,0)" xlink:href="#A"/><use transform="matrix(0.04938271604938272,0,0,0.04938271604938272,38.41975308641976,0)" xlink:href="#r"/><use transform="matrix(0.04938271604938272,0,0,0.04938271604938272,43.35802469135803,0)" xlink:href="#l"/><use transform="matrix(0.04938271604938272,0,0,0.04938271604938272,53.23456790123457,0)" xlink:href="#A"/><use transform="matrix(0.04938271604938272,0,0,0.04938271604938272,63.111111111111114,0)" xlink:href="#m"/><use transform="matrix(0.04938271604938272,0,0,0.04938271604938272,72.98765432098767,0)" xlink:href="#A"/><use transform="matrix(0.04938271604938272,0,0,0.04938271604938272,82.86419753086422,0)" xlink:href="#J"/><use transform="matrix(0.04938271604938272,0,0,0.04938271604938272,91.7530864197531,0)" xlink:href="#l"/></g><path fill="#3a414a" d="M143 0L79-87 56-68V0H24v-261h32v163l83-92h37l-77 82L181 0h-38" id="K"/><g id="j"><use transform="matrix(0.04938271604938272,0,0,0.04938271604938272,0,0)" xlink:href="#k"/><use transform="matrix(0.04938271604938272,0,0,0.04938271604938272,10.814814814814815,0)" xlink:href="#l"/><use transform="matrix(0.04938271604938272,0,0,0.04938271604938272,20.69135802469136,0)" xlink:href="#l"/><use transform="matrix(0.04938271604938272,0,0,0.04938271604938272,30.567901234567906,0)" xlink:href="#v"/><use transform="matrix(0.04938271604938272,0,0,0.04938271604938272,40.44444444444445,0)" xlink:href="#p"/><use transform="matrix(0.04938271604938272,0,0,0.04938271604938272,50.320987654320994,0)" xlink:href="#m"/><use transform="matrix(0.04938271604938272,0,0,0.04938271604938272,60.19753086419754,0)" xlink:href="#J"/><use transform="matrix(0.04938271604938272,0,0,0.04938271604938272,69.08641975308643,0)" xlink:href="#K"/></g></defs></g></svg>