<svg xmlns="http://www.w3.org/2000/svg" xmlns:xlink="http://www.w3.org/1999/xlink" xmlns:lucid="lucid" width="826" height="1167"><g transform="translate(-260 323)" lucid:page-tab-id="0_0"><path d="M645.13-309.93c11.82 0 21.4 11.17 21.4 24.96 0 13.8-9.58 24.97-21.4 24.97h-64.17c-11.8 0-21.4-11.18-21.4-24.97 0-13.8 9.6-24.96 21.4-24.96z" stroke="#c92d39" fill="#fff"/><use xlink:href="#a" transform="matrix(1,0,0,1,564.5691502281375,-304.9333333333332) translate(36.787037037037045 21.388888888888886)"/><path d="M613.05-259v32.2" stroke="#3a414a" fill="none"/><path d="M613.55-259h-1v-.5h1z" stroke="#3a414a" stroke-width=".05" fill="#3a414a"/><path d="M613.05-212.03l-4.64-14.27h9.28z" stroke="#3a414a" fill="#3a414a"/><path d="M516.83-206.83a39.58 39.58 0 0 1 15.37-3.1h199.3c16.36 0 29.62 11.17 29.62 24.96 0 13.8-13.26 24.97-29.6 24.97H532.2a39.58 39.58 0 0 1-15.37-3.1l-44.5-18.76a3.37 3.37 0 0 1 0-6.2z" stroke="#3a414a" fill="#fff"/><use xlink:href="#b" transform="matrix(1,0,0,1,469.9704501774403,-204.93333333333322) translate(73.77969135802472 21.388888888888886)"/><use xlink:href="#c" transform="matrix(1,0,0,1,469.9704501774403,-204.93333333333322) translate(100.66240740740741 21.388888888888886)"/><use xlink:href="#d" transform="matrix(1,0,0,1,469.9704501774403,-204.93333333333322) translate(159.21179012345678 21.388888888888886)"/><use xlink:href="#e" transform="matrix(1,0,0,1,469.9704501774403,-204.93333333333322) translate(191.31055555555554 21.388888888888886)"/><path d="M614.08-159v33.78" stroke="#3a414a" fill="none"/><path d="M614.58-159h-1v-.5h1z" stroke="#3a414a" stroke-width=".05" fill="#3a414a"/><path d="M614.08-110.46l-4.64-14.26h9.27z" stroke="#3a414a" fill="#3a414a"/><path d="M606.7-106.87a19.3 19.3 0 0 1 14.77 0l45.43 18.84a3.32 3.32 0 0 1 0 6.13l-45.43 18.84a19.3 19.3 0 0 1-14.78 0L561.24-81.9a3.32 3.32 0 0 1 0-6.13z" stroke="#3a414a" fill="#fff"/><use xlink:href="#f" transform="matrix(1,0,0,1,558.8638458846716,-104.93333333333322) translate(21.878456790123472 21.388888888888886)"/><use xlink:href="#g" transform="matrix(1,0,0,1,558.8638458846716,-104.93333333333322) translate(33.606851851851864 21.388888888888886)"/><path d="M614.08-60.6v19.67a.16.16 0 0 0 .16.16.16.16 0 0 1 .16.16v3.77" stroke="#54c45e" fill="none"/><path d="M614.08-61.1h.5v.52h-1v-.53z" stroke="#54c45e" stroke-width=".05" fill="#54c45e"/><path d="M614.4-22.07l-4.63-14.26h9.27z" stroke="#54c45e" fill="#54c45e"/><use xlink:href="#h" transform="matrix(1,0,0,1,583.3488462008969,-47.40067505537819) translate(0.005000000000000782 8.888888888888884)"/><path d="M484-12a8 8 0 0 1 8-8h244.8a8 8 0 0 1 8 8v33.23a8 8 0 0 1-8 8H492a8 8 0 0 1-8-8z" stroke="#3a414a" fill="#fff"/><use xlink:href="#i" transform="matrix(1,0,0,1,495.99918652692804,-8) translate(46.756172839506206 15.388888888888884)"/><use xlink:href="#j" transform="matrix(1,0,0,1,495.99918652692804,-8) translate(63.91666666666669 15.388888888888884)"/><use xlink:href="#k" transform="matrix(1,0,0,1,495.99918652692804,-8) translate(84.90432098765433 15.388888888888884)"/><use xlink:href="#l" transform="matrix(1,0,0,1,495.99918652692804,-8) translate(107.09567901234568 15.388888888888884)"/><use xlink:href="#m" transform="matrix(1,0,0,1,495.99918652692804,-8) translate(164.41049382716048 15.388888888888884)"/><path d="M614.4 30.18V63.16" stroke="#3a414a" fill="none"/><path d="M614.9 30.2h-1v-.52h1z" stroke="#3a414a" stroke-width=".05" fill="#3a414a"/><path d="M614.4 77.93l-4.63-14.27h9.27z" stroke="#3a414a" fill="#3a414a"/><path d="M524.2 88a8 8 0 0 1 8-8h164.4a8 8 0 0 1 8 8v33.23a8 8 0 0 1-8 8H532.2a8 8 0 0 1-8-8z" stroke="#3a414a" fill="#fff"/><use xlink:href="#n" transform="matrix(1,0,0,1,536.1998365375739,92) translate(30.120370370370395 15.388888888888884)"/><use xlink:href="#o" transform="matrix(1,0,0,1,536.1998365375739,92) translate(88.08333333333333 15.388888888888884)"/><use xlink:href="#p" transform="matrix(1,0,0,1,536.1998365375739,92) translate(102.89814814814814 15.388888888888884)"/><path d="M614.4 130.18v34.64" stroke="#3a414a" fill="none"/><path d="M614.9 130.2h-1v-.52h1z" stroke="#3a414a" stroke-width=".05" fill="#3a414a"/><path d="M614.4 179.58l-4.63-14.26h9.27z" stroke="#3a414a" fill="#3a414a"/><path d="M607.1 183.25a17.97 17.97 0 0 1 14.6 0l40.68 18.1a3.56 3.56 0 0 1 0 6.52l-40.67 18.1a17.97 17.97 0 0 1-14.6 0l-40.68-18.1a3.56 3.56 0 0 1 0-6.5z" stroke="#3a414a" fill="#fff"/><use xlink:href="#q" transform="matrix(1,0,0,1,564.1135875879033,185) translate(20.93709876543211 21.388888888888886)"/><use xlink:href="#r" transform="matrix(1,0,0,1,564.1135875879033,185) translate(49.91858024691358 21.388888888888886)"/><path d="M614.4 228.53v34.63" stroke="#54c45e" fill="none"/><path d="M614.4 228.03l.5-.02v.55h-1V228z" stroke="#54c45e" stroke-width=".05" fill="#54c45e"/><path d="M614.4 277.94l-4.63-14.27h9.27z" stroke="#54c45e" fill="#54c45e"/><use xlink:href="#h" transform="matrix(1,0,0,1,588.2835815786708,247.12985367565983) translate(0.005000000000000782 8.888888888888884)"/><path d="M914.65 265.42c-8.84 0-16 11.02-16 24.6 0 13.6 7.16 24.63 16 24.63h-144c-8.84 0-16-11.02-16-24.62 0-13.6 7.16-24.6 16-24.6z" stroke="#3a414a" fill="#fff"/><use xlink:href="#s" transform="matrix(1,0,0,1,759.6512999493027,270.41804309122165) translate(39.90123456790125 21.388888888888886)"/><use xlink:href="#t" transform="matrix(1,0,0,1,759.6512999493027,270.41804309122165) translate(75.67283950617283 21.388888888888886)"/><path d="M1024.8 119.93v60.24a12 12 0 0 1-12 12H846.65a12 12 0 0 0-12 12v44.36" stroke="#3a414a" fill="none"/><path d="M1025.3 119.94h-1v-.37l1-.28z" stroke="#3a414a" stroke-width=".05" fill="#3a414a"/><path d="M834.65 263.3l-4.63-14.27h9.27z" stroke="#3a414a" fill="#3a414a"/><use xlink:href="#u" transform="matrix(1,0,0,1,909.616581041198,196.17467168334085) translate(0.004999999999999005 8.888888888888884)"/><path d="M745.75 4.62h8.5a12 12 0 0 1 12 12v35.75a12 12 0 0 0 12 12h119.52" stroke="#3a414a" fill="none"/><path d="M745.77 5.12h-.5l-.02-1h.52z" stroke="#3a414a" stroke-width=".05" fill="#3a414a"/><path d="M912.53 64.37L898.27 69v-9.27z" stroke="#3a414a" fill="#3a414a"/><use xlink:href="#v" transform="matrix(1,0,0,1,785.7868609778053,47.033333333333395) translate(0 8.88888888888889)"/><use xlink:href="#w" transform="matrix(1,0,0,1,785.7868609778053,47.033333333333395) translate(29.598765432098762 8.88888888888889)"/><path d="M1034.65 112.37c0 6.62-26.86 12-60 12s-60-5.38-60-12v-96c0-6.63 26.86-12 60-12s60 5.37 60 12z" stroke="#3a414a" fill="#fff"/><path d="M1034.65 16.37c0 6.62-26.86 12-60 12s-60-5.38-60-12" stroke="#3a414a" fill="none"/><use xlink:href="#x" transform="matrix(1,0,0,1,919.6512999493027,33.36666666666673) translate(31.250000000000014 46.513888888888886)"/><path d="M705.55 104.62h27.5a12 12 0 0 1 12 12v36.25a12 12 0 0 0 12 12h205.6a12 12 0 0 0 12-12v-11.62" stroke="#3a414a" fill="none"/><path d="M705.57 105.12h-.5l-.02-1h.52z" stroke="#3a414a" stroke-width=".05" fill="#3a414a"/><path d="M974.65 126.48l4.64 14.27H970z" stroke="#3a414a" fill="#3a414a"/><use xlink:href="#v" transform="matrix(1,0,0,1,819.3408861309189,147.53362577023435) translate(0 8.88888888888889)"/><use xlink:href="#y" transform="matrix(1,0,0,1,819.3408861309189,147.53362577023435) translate(29.598765432098762 8.88888888888889)"/><path d="M563.3 204.62H395.86a12 12 0 0 1-12-12v-176a12 12 0 0 1 12-12h71.3" stroke="#e81313" fill="none"/><path d="M563.8 204.62l.06.5h-.57v-1h.56z" stroke="#e81313" stroke-width=".05" fill="#e81313"/><path d="M481.93 4.62l-14.27 4.63V-.02z" stroke="#e81313" fill="#e81313"/><use xlink:href="#z" transform="matrix(1,0,0,1,489.70937638950863,187.28333333333336) translate(0.004999999999999893 8.888888888888884)"/><path d="M579.8 287.73A10.4 10.4 0 0 1 589.9 280h74.1a6.15 6.15 0 0 1 5.94 7.73l-9 33.77a10.4 10.4 0 0 1-10.06 7.73h-74.1a6.15 6.15 0 0 1-5.95-7.73z" stroke="#3a414a" fill="#fff"/><use xlink:href="#A" transform="matrix(1,0,0,1,573.7463443715858,285) translate(34.51425925925926 21.388888888888886)"/><path d="M619.6 330.18v33" stroke="#3a414a" fill="none"/><path d="M620.1 330.2h-1v-.52h1z" stroke="#3a414a" stroke-width=".05" fill="#3a414a"/><path d="M619.6 377.93l-4.65-14.26h9.27z" stroke="#3a414a" fill="#3a414a"/><path d="M532.67 388a8 8 0 0 1 8-8H698.5a8 8 0 0 1 8 8v33.23a8 8 0 0 1-8 8H540.68a8 8 0 0 1-8-8z" stroke="#3a414a" fill="#fff"/><use xlink:href="#B" transform="matrix(1,0,0,1,544.67035699344,392) translate(28.76543209876546 15.388888888888884)"/><use xlink:href="#C" transform="matrix(1,0,0,1,544.67035699344,392) translate(67.00617283950618 15.388888888888884)"/><path d="M619.6 430.18v32.97" stroke="#3a414a" fill="none"/><path d="M620.1 430.2h-1v-.52h1z" stroke="#3a414a" stroke-width=".05" fill="#3a414a"/><path d="M619.6 477.9l-4.65-14.26h9.27z" stroke="#3a414a" fill="#3a414a"/><path d="M556.77 484.4a26.72 26.72 0 0 1 14.68-4.4h123c10.32 0 18.7 11.02 18.7 24.62 0 13.6-8.38 24.6-18.7 24.6h-123a26.72 26.72 0 0 1-14.68-4.38L532.72 509a5.26 5.26 0 0 1 0-8.78z" stroke="#3a414a" fill="#fff"/><use xlink:href="#D" transform="matrix(1,0,0,1,531.0315513159044,485) translate(45.88771604938274 21.388888888888886)"/><use xlink:href="#E" transform="matrix(1,0,0,1,531.0315513159044,485) translate(81.65932098765433 21.388888888888886)"/><path d="M899.65 290.03h27.5a12 12 0 0 1 12 12v190.6a12 12 0 0 1-12 12H730.03" stroke="#3a414a" fill="none"/><path d="M899.67 290.53h-.47l-.05-.5.04-.5h.47z" stroke="#3a414a" stroke-width=".05" fill="#3a414a"/><path d="M715.27 504.62l14.26-4.64v9.27z" stroke="#3a414a" fill="#3a414a"/><use xlink:href="#F" transform="matrix(1,0,0,1,801.7472476551625,487.2833333333333) translate(0.004999999999999005 8.888888888888884)"/><path d="M707.46 404.62h115.2a12 12 0 0 0 12-12v-61.08" stroke="#3a414a" fill="none"/><path d="M707.47 405.12h-.5v-1h.5z" stroke="#3a414a" stroke-width=".05" fill="#3a414a"/><path d="M834.65 316.77l4.64 14.27H830z" stroke="#3a414a" fill="#3a414a"/><use xlink:href="#G" transform="matrix(1,0,0,1,754.970115903089,387.28333333333336) translate(0 8.888888888888884)"/><path d="M620.96 530.23v32.93" stroke="#3a414a" fill="none"/><path d="M621.46 530.25h-1v-.52h1z" stroke="#3a414a" stroke-width=".05" fill="#3a414a"/><path d="M620.96 577.93l-4.64-14.27h9.27z" stroke="#3a414a" fill="#3a414a"/><path d="M540.96 588a8 8 0 0 1 8-8h144a8 8 0 0 1 8 8v33.23a8 8 0 0 1-8 8h-144a8 8 0 0 1-8-8z" stroke="#3a414a" fill="#fff"/><use xlink:href="#H" transform="matrix(1,0,0,1,552.9559742800614,592) translate(35.00617283950619 15.388888888888884)"/><use xlink:href="#I" transform="matrix(1,0,0,1,552.9559742800614,592) translate(57.19753086419754 15.388888888888884)"/><path d="M701.9 604.62h361.25a12 12 0 0 0 12-12V76.37a12 12 0 0 0-12-12h-11.6" stroke="#3a414a" fill="none"/><path d="M701.92 605.12h-.5v-1h.5z" stroke="#3a414a" stroke-width=".05" fill="#3a414a"/><path d="M1036.77 64.37l14.27-4.64V69z" stroke="#3a414a" fill="#3a414a"/><use xlink:href="#v" transform="matrix(1,0,0,1,853.0814909801026,587.2833333333334) translate(0 8.88888888888889)"/><use xlink:href="#w" transform="matrix(1,0,0,1,853.0814909801026,587.2833333333334) translate(29.598765432098762 8.88888888888889)"/><path d="M620.96 630.18v32.96" stroke="#3a414a" fill="none"/><path d="M621.46 630.2h-1v-.52h1z" stroke="#3a414a" stroke-width=".05" fill="#3a414a"/><path d="M620.96 677.9l-4.64-14.26h9.27z" stroke="#3a414a" fill="#3a414a"/><path d="M548.9 683.95a30.32 30.32 0 0 1 14.97-3.95h143.87c11.98 0 21.7 11.02 21.7 24.62 0 13.6-9.72 24.6-21.7 24.6H563.87a30.32 30.32 0 0 1-14.96-3.93l-29.47-16.74a4.54 4.54 0 0 1 0-7.9z" stroke="#3a414a" fill="#fff"/><use xlink:href="#J" transform="matrix(1,0,0,1,517.4735431116766,685) translate(60.21487654320989 21.388888888888886)"/><use xlink:href="#K" transform="matrix(1,0,0,1,517.4735431116766,685) translate(126.10993827160493 21.388888888888886)"/><path d="M574.35 304.62h-47.2a12 12 0 0 1-12-12v-6.77a12 12 0 0 0-12-12h-31.3" stroke="#3a414a" fill="none"/><path d="M574.7 305.12h-.37v-1h.65z" stroke="#3a414a" stroke-width=".05" fill="#3a414a"/><path d="M457.07 273.85l14.27-4.64v9.3z" stroke="#3a414a" fill="#3a414a"/><path d="M401.16 252.68a16.78 16.78 0 0 1 14.44 0l37.18 17.73a3.82 3.82 0 0 1 0 6.9L415.6 295a16.78 16.78 0 0 1-14.44 0l-37.18-17.73a3.82 3.82 0 0 1 0-6.9z" stroke="#3a414a" fill="#fff"/><use xlink:href="#L" transform="matrix(1,0,0,1,361.76241493862824,254.23333333333335) translate(25.656234567901244 21.388888888888886)"/><use xlink:href="#M" transform="matrix(1,0,0,1,361.76241493862824,254.23333333333335) translate(37.384629629629636 21.388888888888886)"/><path d="M360.8 273.85H312a12 12 0 0 0-12 12V428a12 12 0 0 0 12 12h168.22a12 12 0 0 0 12-12v-11.38a12 12 0 0 1 12-12h11.6" stroke="#54c45e" fill="none"/><path d="M361.3 273.85l.06.5h-.57v-1h.56z" stroke="#54c45e" stroke-width=".05" fill="#54c45e"/><path d="M530.6 404.62l-14.27 4.63v-9.27z" stroke="#54c45e" fill="#54c45e"/><g><use xlink:href="#N" transform="matrix(1,0,0,1,332.36264259517037,277.85) translate(0.005000000000000782 8.888888888888884)"/></g><path d="M408.38 250.04v-8.5a12 12 0 0 0-12-12H312a12 12 0 0 1-12-12V-48.42a12 12 0 0 1 12-12h208.34a12 12 0 0 1 12 12v11.62" stroke="#e81313" fill="none"/><path d="M408.88 250.57l-.5-.03-.5.03v-.54h1z" stroke="#e81313" stroke-width=".05" fill="#e81313"/><path d="M532.34-22.04L527.7-36.3H537z" stroke="#e81313" fill="#e81313"/><g><use xlink:href="#O" transform="matrix(1,0,0,1,347.2031010905261,212.20944868930306) translate(0.004999999999999893 8.888888888888884)"/></g><path d="M622.5 730.23v32.9" stroke="#3a414a" fill="none"/><path d="M623 730.25h-1v-.52h1z" stroke="#3a414a" stroke-width=".05" fill="#3a414a"/><path d="M622.5 777.88l-4.63-14.26h9.27z" stroke="#3a414a" fill="#3a414a"/><path d="M654.73 780c11.87 0 21.48 11.02 21.48 24.62 0 13.6-9.6 24.6-21.47 24.6H590.3c-11.88 0-21.5-11-21.5-24.6 0-13.6 9.62-24.62 21.5-24.62z" stroke="#c92d39" fill="#fff"/><g><use xlink:href="#P" transform="matrix(1,0,0,1,573.8045262412743,785) translate(37.580246913580254 21.388888888888886)"/></g><path d="M753.65 290.03h-27.5a12 12 0 0 0-12 12V338a12 12 0 0 1-12 12H482a12 12 0 0 0-12 12v16a12 12 0 0 1-12 12H355.85a12 12 0 0 1-12-12v-28.84a12 12 0 0 1 12-12h40.53a12 12 0 0 0 12-12v-11.62" stroke="#3a414a" fill="none"/><path d="M754.15 290.03l.04.5h-.56v-1h.56z" stroke="#3a414a" stroke-width=".05" fill="#3a414a"/><path d="M408.38 298.78l4.64 14.26h-9.27z" stroke="#3a414a" fill="#3a414a"/><g><use xlink:href="#F" transform="matrix(1,0,0,1,390.06245234699065,372.66666666666663) translate(0.004999999999999005 8.888888888888884)"/></g><path d="M558.2-84.97H282a12 12 0 0 0-12 12v865.6a12 12 0 0 0 12 12h269.92" stroke="#e81313" fill="none"/><path d="M558.7-84.97l.06.5h-.57v-1h.56z" stroke="#e81313" stroke-width=".05" fill="#e81313"/><path d="M566.7 804.62l-14.28 4.63v-9.27z" stroke="#e81313" fill="#e81313"/><g><use xlink:href="#O" transform="matrix(1,0,0,1,426.4005663976929,-102.29999999999993) translate(0.004999999999999893 8.888888888888884)"/></g><defs><path fill="#3a414a" d="M185-189c-5-48-123-54-124 2 14 75 158 14 163 119 3 78-121 87-175 55-17-10-28-26-33-46l33-7c5 56 141 63 141-1 0-78-155-14-162-118-5-82 145-84 179-34 5 7 8 16 11 25" id="Q"/><path fill="#3a414a" d="M59-47c-2 24 18 29 38 22v24C64 9 27 4 27-40v-127H5v-23h24l9-43h21v43h35v23H59v120" id="R"/><path fill="#3a414a" d="M141-36C126-15 110 5 73 4 37 3 15-17 15-53c-1-64 63-63 125-63 3-35-9-54-41-54-24 1-41 7-42 31l-33-3c5-37 33-52 76-52 45 0 72 20 72 64v82c-1 20 7 32 28 27v20c-31 9-61-2-59-35zM48-53c0 20 12 33 32 33 41-3 63-29 60-74-43 2-92-5-92 41" id="S"/><path fill="#3a414a" d="M114-163C36-179 61-72 57 0H25l-1-190h30c1 12-1 29 2 39 6-27 23-49 58-41v29" id="T"/><g id="a"><use transform="matrix(0.030864197530864182,0,0,0.030864197530864182,0,0)" xlink:href="#Q"/><use transform="matrix(0.030864197530864182,0,0,0.030864197530864182,7.407407407407404,0)" xlink:href="#R"/><use transform="matrix(0.030864197530864182,0,0,0.030864197530864182,10.493827160493822,0)" xlink:href="#S"/><use transform="matrix(0.030864197530864182,0,0,0.030864197530864182,16.666666666666657,0)" xlink:href="#T"/><use transform="matrix(0.030864197530864182,0,0,0.030864197530864182,20.339506172839496,0)" xlink:href="#R"/></g><path fill="#3a414a" d="M137 0h-34L2-248h35l83 218 83-218h36" id="U"/><path fill="#3a414a" d="M24-231v-30h32v30H24zM24 0v-190h32V0H24" id="V"/><path fill="#3a414a" d="M100-194c63 0 86 42 84 106H49c0 40 14 67 53 68 26 1 43-12 49-29l28 8c-11 28-37 45-77 45C44 4 14-33 15-96c1-61 26-98 85-98zm52 81c6-60-76-77-97-28-3 7-6 17-6 28h103" id="W"/><path fill="#3a414a" d="M206 0h-36l-40-164L89 0H53L-1-190h32L70-26l43-164h34l41 164 42-164h31" id="X"/><g id="b"><use transform="matrix(0.030864197530864182,0,0,0.030864197530864182,0,0)" xlink:href="#U"/><use transform="matrix(0.030864197530864182,0,0,0.030864197530864182,7.191358024691355,0)" xlink:href="#V"/><use transform="matrix(0.030864197530864182,0,0,0.030864197530864182,9.629629629629626,0)" xlink:href="#W"/><use transform="matrix(0.030864197530864182,0,0,0.030864197530864182,15.802469135802465,0)" xlink:href="#X"/></g><path fill="#3a414a" d="M33 0v-248h34V0H33" id="Y"/><path fill="#3a414a" d="M117-194c89-4 53 116 60 194h-32v-121c0-31-8-49-39-48C34-167 62-67 57 0H25l-1-190h30c1 10-1 24 2 32 11-22 29-35 61-36" id="Z"/><path fill="#3a414a" d="M101-234c-31-9-42 10-38 44h38v23H63V0H32v-167H5v-23h27c-7-52 17-82 69-68v24" id="aa"/><path fill="#3a414a" d="M100-194c62-1 85 37 85 99 1 63-27 99-86 99S16-35 15-95c0-66 28-99 85-99zM99-20c44 1 53-31 53-75 0-43-8-75-51-75s-53 32-53 75 10 74 51 75" id="ab"/><path fill="#3a414a" d="M210-169c-67 3-38 105-44 169h-31v-121c0-29-5-50-35-48C34-165 62-65 56 0H25l-1-190h30c1 10-1 24 2 32 10-44 99-50 107 0 11-21 27-35 58-36 85-2 47 119 55 194h-31v-121c0-29-5-49-35-48" id="ac"/><g id="c"><use transform="matrix(0.030864197530864182,0,0,0.030864197530864182,0,0)" xlink:href="#Y"/><use transform="matrix(0.030864197530864182,0,0,0.030864197530864182,3.0864197530864184,0)" xlink:href="#Z"/><use transform="matrix(0.030864197530864182,0,0,0.030864197530864182,9.259259259259256,0)" xlink:href="#aa"/><use transform="matrix(0.030864197530864182,0,0,0.030864197530864182,12.345679012345673,0)" xlink:href="#ab"/><use transform="matrix(0.030864197530864182,0,0,0.030864197530864182,18.518518518518512,0)" xlink:href="#T"/><use transform="matrix(0.030864197530864182,0,0,0.030864197530864182,22.19135802469135,0)" xlink:href="#ac"/><use transform="matrix(0.030864197530864182,0,0,0.030864197530864182,31.41975308641974,0)" xlink:href="#S"/><use transform="matrix(0.030864197530864182,0,0,0.030864197530864182,37.592592592592574,0)" xlink:href="#R"/><use transform="matrix(0.030864197530864182,0,0,0.030864197530864182,40.67901234567899,0)" xlink:href="#V"/><use transform="matrix(0.030864197530864182,0,0,0.030864197530864182,43.117283950617264,0)" xlink:href="#ab"/><use transform="matrix(0.030864197530864182,0,0,0.030864197530864182,49.2901234567901,0)" xlink:href="#Z"/></g><path fill="#3a414a" d="M205 0l-28-72H64L36 0H1l101-248h38L239 0h-34zm-38-99l-47-123c-12 45-31 82-46 123h93" id="ad"/><path fill="#3a414a" d="M115-194c53 0 69 39 70 98 0 66-23 100-70 100C84 3 66-7 56-30L54 0H23l1-261h32v101c10-23 28-34 59-34zm-8 174c40 0 45-34 45-75 0-40-5-75-45-74-42 0-51 32-51 76 0 43 10 73 51 73" id="ae"/><path fill="#3a414a" d="M84 4C-5 8 30-112 23-190h32v120c0 31 7 50 39 49 72-2 45-101 50-169h31l1 190h-30c-1-10 1-25-2-33-11 22-28 36-60 37" id="af"/><g id="d"><use transform="matrix(0.030864197530864182,0,0,0.030864197530864182,0,0)" xlink:href="#ad"/><use transform="matrix(0.030864197530864182,0,0,0.030864197530864182,7.407407407407404,0)" xlink:href="#ae"/><use transform="matrix(0.030864197530864182,0,0,0.030864197530864182,13.58024691358024,0)" xlink:href="#ab"/><use transform="matrix(0.030864197530864182,0,0,0.030864197530864182,19.753086419753075,0)" xlink:href="#af"/><use transform="matrix(0.030864197530864182,0,0,0.030864197530864182,25.92592592592591,0)" xlink:href="#R"/></g><path fill="#3a414a" d="M96-169c-40 0-48 33-48 73s9 75 48 75c24 0 41-14 43-38l32 2c-6 37-31 61-74 61-59 0-76-41-82-99-10-93 101-131 147-64 4 7 5 14 7 22l-32 3c-4-21-16-35-41-35" id="ag"/><path fill="#3a414a" d="M106-169C34-169 62-67 57 0H25v-261h32l-1 103c12-21 28-36 61-36 89 0 53 116 60 194h-32v-121c2-32-8-49-39-48" id="ah"/><path fill="#3a414a" d="M24 0v-261h32V0H24" id="ai"/><g id="e"><use transform="matrix(0.030864197530864182,0,0,0.030864197530864182,0,0)" xlink:href="#Q"/><use transform="matrix(0.030864197530864182,0,0,0.030864197530864182,7.407407407407404,0)" xlink:href="#ag"/><use transform="matrix(0.030864197530864182,0,0,0.030864197530864182,12.962962962962957,0)" xlink:href="#ah"/><use transform="matrix(0.030864197530864182,0,0,0.030864197530864182,19.135802469135793,0)" xlink:href="#ab"/><use transform="matrix(0.030864197530864182,0,0,0.030864197530864182,25.308641975308632,0)" xlink:href="#ab"/><use transform="matrix(0.030864197530864182,0,0,0.030864197530864182,31.481481481481467,0)" xlink:href="#ai"/></g><path fill="#3a414a" d="M135-143c-3-34-86-38-87 0 15 53 115 12 119 90S17 21 10-45l28-5c4 36 97 45 98 0-10-56-113-15-118-90-4-57 82-63 122-42 12 7 21 19 24 35" id="aj"/><g id="f"><use transform="matrix(0.030864197530864182,0,0,0.030864197530864182,0,0)" xlink:href="#Y"/><use transform="matrix(0.030864197530864182,0,0,0.030864197530864182,3.0864197530864184,0)" xlink:href="#aj"/></g><path fill="#3a414a" d="M85-194c31 0 48 13 60 33l-1-100h32l1 261h-30c-2-10 0-23-3-31C134-8 116 4 85 4 32 4 16-35 15-94c0-66 23-100 70-100zm9 24c-40 0-46 34-46 75 0 40 6 74 45 74 42 0 51-32 51-76 0-42-9-74-50-73" id="ak"/><path fill="#3a414a" d="M103-251c84 0 111 97 45 133-19 10-37 24-39 52H78c0-63 77-55 77-114 0-30-21-42-52-43-32 0-53 17-56 46l-32-2c7-45 34-72 88-72zM77 0v-35h34V0H77" id="al"/><g id="g"><use transform="matrix(0.030864197530864182,0,0,0.030864197530864182,0,0)" xlink:href="#Y"/><use transform="matrix(0.030864197530864182,0,0,0.030864197530864182,3.0864197530864184,0)" xlink:href="#Z"/><use transform="matrix(0.030864197530864182,0,0,0.030864197530864182,9.259259259259256,0)" xlink:href="#R"/><use transform="matrix(0.030864197530864182,0,0,0.030864197530864182,12.345679012345673,0)" xlink:href="#W"/><use transform="matrix(0.030864197530864182,0,0,0.030864197530864182,18.518518518518512,0)" xlink:href="#T"/><use transform="matrix(0.030864197530864182,0,0,0.030864197530864182,22.19135802469135,0)" xlink:href="#W"/><use transform="matrix(0.030864197530864182,0,0,0.030864197530864182,28.36419753086419,0)" xlink:href="#aj"/><use transform="matrix(0.030864197530864182,0,0,0.030864197530864182,33.91975308641974,0)" xlink:href="#R"/><use transform="matrix(0.030864197530864182,0,0,0.030864197530864182,37.006172839506156,0)" xlink:href="#W"/><use transform="matrix(0.030864197530864182,0,0,0.030864197530864182,43.17901234567899,0)" xlink:href="#ak"/><use transform="matrix(0.030864197530864182,0,0,0.030864197530864182,49.351851851851826,0)" xlink:href="#al"/></g><path fill="#3a414a" d="M137-103V0h-34v-103L8-248h37l75 118 75-118h37" id="am"/><g id="h"><use transform="matrix(0.030864197530864182,0,0,0.030864197530864182,0,0)" xlink:href="#am"/><use transform="matrix(0.030864197530864182,0,0,0.030864197530864182,6.388888888888886,0)" xlink:href="#W"/><use transform="matrix(0.030864197530864182,0,0,0.030864197530864182,12.561728395061722,0)" xlink:href="#aj"/></g><path fill="#3a414a" d="M63-220v92h138v28H63V0H30v-248h175v28H63" id="an"/><g id="i"><use transform="matrix(0.030864197530864182,0,0,0.030864197530864182,0,0)" xlink:href="#an"/><use transform="matrix(0.030864197530864182,0,0,0.030864197530864182,6.759259259259256,0)" xlink:href="#V"/><use transform="matrix(0.030864197530864182,0,0,0.030864197530864182,9.197530864197526,0)" xlink:href="#ai"/><use transform="matrix(0.030864197530864182,0,0,0.030864197530864182,11.635802469135797,0)" xlink:href="#ai"/></g><path fill="#3a414a" d="M140-251c81 0 123 46 123 126C263-46 219 4 140 4 59 4 17-45 17-125s42-126 123-126zm0 227c63 0 89-41 89-101s-29-99-89-99c-61 0-89 39-89 99S79-25 140-24" id="ao"/><g id="j"><use transform="matrix(0.030864197530864182,0,0,0.030864197530864182,0,0)" xlink:href="#ao"/><use transform="matrix(0.030864197530864182,0,0,0.030864197530864182,8.641975308641971,0)" xlink:href="#af"/><use transform="matrix(0.030864197530864182,0,0,0.030864197530864182,14.814814814814808,0)" xlink:href="#R"/></g><path fill="#3a414a" d="M127-220V0H93v-220H8v-28h204v28h-85" id="ap"/><g id="k"><use transform="matrix(0.030864197530864182,0,0,0.030864197530864182,0,0)" xlink:href="#ap"/><use transform="matrix(0.030864197530864182,0,0,0.030864197530864182,6.759259259259256,0)" xlink:href="#ah"/><use transform="matrix(0.030864197530864182,0,0,0.030864197530864182,12.932098765432093,0)" xlink:href="#W"/></g><path fill="#3a414a" d="M115-194c55 1 70 41 70 98S169 2 115 4C84 4 66-9 55-30l1 105H24l-1-265h31l2 30c10-21 28-34 59-34zm-8 174c40 0 45-34 45-75s-6-73-45-74c-42 0-51 32-51 76 0 43 10 73 51 73" id="aq"/><g id="l"><use transform="matrix(0.030864197530864182,0,0,0.030864197530864182,0,0)" xlink:href="#ad"/><use transform="matrix(0.030864197530864182,0,0,0.030864197530864182,7.407407407407404,0)" xlink:href="#aq"/><use transform="matrix(0.030864197530864182,0,0,0.030864197530864182,13.58024691358024,0)" xlink:href="#aq"/><use transform="matrix(0.030864197530864182,0,0,0.030864197530864182,19.753086419753075,0)" xlink:href="#ai"/><use transform="matrix(0.030864197530864182,0,0,0.030864197530864182,22.191358024691347,0)" xlink:href="#V"/><use transform="matrix(0.030864197530864182,0,0,0.030864197530864182,24.62962962962962,0)" xlink:href="#ag"/><use transform="matrix(0.030864197530864182,0,0,0.030864197530864182,30.185185185185173,0)" xlink:href="#S"/><use transform="matrix(0.030864197530864182,0,0,0.030864197530864182,36.35802469135801,0)" xlink:href="#R"/><use transform="matrix(0.030864197530864182,0,0,0.030864197530864182,39.44444444444443,0)" xlink:href="#V"/><use transform="matrix(0.030864197530864182,0,0,0.030864197530864182,41.8827160493827,0)" xlink:href="#ab"/><use transform="matrix(0.030864197530864182,0,0,0.030864197530864182,48.055555555555536,0)" xlink:href="#Z"/></g><g id="m"><use transform="matrix(0.030864197530864182,0,0,0.030864197530864182,0,0)" xlink:href="#an"/><use transform="matrix(0.030864197530864182,0,0,0.030864197530864182,6.759259259259256,0)" xlink:href="#ab"/><use transform="matrix(0.030864197530864182,0,0,0.030864197530864182,12.932098765432093,0)" xlink:href="#T"/><use transform="matrix(0.030864197530864182,0,0,0.030864197530864182,16.60493827160493,0)" xlink:href="#ac"/></g><path fill="#3a414a" d="M143 4C61 4 22-44 18-125c-5-107 100-154 193-111 17 8 29 25 37 43l-32 9c-13-25-37-40-76-40-61 0-88 39-88 99 0 61 29 100 91 101 35 0 62-11 79-27v-45h-74v-28h105v86C228-13 192 4 143 4" id="ar"/><g id="n"><use transform="matrix(0.030864197530864182,0,0,0.030864197530864182,0,0)" xlink:href="#ar"/><use transform="matrix(0.030864197530864182,0,0,0.030864197530864182,8.641975308641971,0)" xlink:href="#W"/><use transform="matrix(0.030864197530864182,0,0,0.030864197530864182,14.814814814814808,0)" xlink:href="#Z"/><use transform="matrix(0.030864197530864182,0,0,0.030864197530864182,20.987654320987644,0)" xlink:href="#W"/><use transform="matrix(0.030864197530864182,0,0,0.030864197530864182,27.16049382716048,0)" xlink:href="#T"/><use transform="matrix(0.030864197530864182,0,0,0.030864197530864182,30.833333333333318,0)" xlink:href="#S"/><use transform="matrix(0.030864197530864182,0,0,0.030864197530864182,37.006172839506156,0)" xlink:href="#R"/><use transform="matrix(0.030864197530864182,0,0,0.030864197530864182,40.092592592592574,0)" xlink:href="#V"/><use transform="matrix(0.030864197530864182,0,0,0.030864197530864182,42.530864197530846,0)" xlink:href="#ab"/><use transform="matrix(0.030864197530864182,0,0,0.030864197530864182,48.70370370370368,0)" xlink:href="#Z"/></g><g id="o"><use transform="matrix(0.030864197530864182,0,0,0.030864197530864182,0,0)" xlink:href="#ao"/><use transform="matrix(0.030864197530864182,0,0,0.030864197530864182,8.641975308641971,0)" xlink:href="#aa"/></g><path fill="#3a414a" d="M232-93c-1 65-40 97-104 97C67 4 28-28 28-90v-158h33c8 89-33 224 67 224 102 0 64-133 71-224h33v155" id="as"/><path fill="#3a414a" d="M233-177c-1 41-23 64-60 70L243 0h-38l-65-103H63V0H30v-248c88 3 205-21 203 71zM63-129c60-2 137 13 137-47 0-61-80-42-137-45v92" id="at"/><path fill="#3a414a" d="M190 0L58-211 59 0H30v-248h39L202-35l-2-213h31V0h-41" id="au"/><g id="p"><use transform="matrix(0.030864197530864182,0,0,0.030864197530864182,0,0)" xlink:href="#as"/><use transform="matrix(0.030864197530864182,0,0,0.030864197530864182,7.993827160493823,0)" xlink:href="#at"/><use transform="matrix(0.030864197530864182,0,0,0.030864197530864182,15.987654320987646,0)" xlink:href="#au"/></g><path fill="#3a414a" d="M197 0v-115H63V0H30v-248h33v105h134v-105h34V0h-34" id="av"/><path fill="#3a414a" d="M108 0H70L1-190h34L89-25l56-165h34" id="aw"/><g id="q"><use transform="matrix(0.030864197530864182,0,0,0.030864197530864182,0,0)" xlink:href="#av"/><use transform="matrix(0.030864197530864182,0,0,0.030864197530864182,7.993827160493823,0)" xlink:href="#S"/><use transform="matrix(0.030864197530864182,0,0,0.030864197530864182,14.16666666666666,0)" xlink:href="#aw"/><use transform="matrix(0.030864197530864182,0,0,0.030864197530864182,19.722222222222214,0)" xlink:href="#W"/></g><g id="r"><use transform="matrix(0.030864197530864182,0,0,0.030864197530864182,0,0)" xlink:href="#as"/><use transform="matrix(0.030864197530864182,0,0,0.030864197530864182,7.993827160493823,0)" xlink:href="#at"/><use transform="matrix(0.030864197530864182,0,0,0.030864197530864182,15.987654320987646,0)" xlink:href="#au"/><use transform="matrix(0.030864197530864182,0,0,0.030864197530864182,23.98148148148147,0)" xlink:href="#al"/></g><g id="s"><use transform="matrix(0.030864197530864182,0,0,0.030864197530864182,0,0)" xlink:href="#Q"/><use transform="matrix(0.030864197530864182,0,0,0.030864197530864182,7.407407407407404,0)" xlink:href="#R"/><use transform="matrix(0.030864197530864182,0,0,0.030864197530864182,10.493827160493822,0)" xlink:href="#ab"/><use transform="matrix(0.030864197530864182,0,0,0.030864197530864182,16.666666666666657,0)" xlink:href="#T"/><use transform="matrix(0.030864197530864182,0,0,0.030864197530864182,20.339506172839496,0)" xlink:href="#W"/><use transform="matrix(0.030864197530864182,0,0,0.030864197530864182,26.512345679012334,0)" xlink:href="#ak"/></g><path fill="#3a414a" d="M30-248c118-7 216 8 213 122C240-48 200 0 122 0H30v-248zM63-27c89 8 146-16 146-99s-60-101-146-95v194" id="ax"/><g id="t"><use transform="matrix(0.030864197530864182,0,0,0.030864197530864182,0,0)" xlink:href="#ax"/><use transform="matrix(0.030864197530864182,0,0,0.030864197530864182,7.993827160493823,0)" xlink:href="#S"/><use transform="matrix(0.030864197530864182,0,0,0.030864197530864182,14.16666666666666,0)" xlink:href="#R"/><use transform="matrix(0.030864197530864182,0,0,0.030864197530864182,17.253086419753078,0)" xlink:href="#S"/></g><g id="u"><use transform="matrix(0.030864197530864182,0,0,0.030864197530864182,0,0)" xlink:href="#at"/><use transform="matrix(0.030864197530864182,0,0,0.030864197530864182,7.993827160493823,0)" xlink:href="#W"/><use transform="matrix(0.030864197530864182,0,0,0.030864197530864182,14.16666666666666,0)" xlink:href="#R"/><use transform="matrix(0.030864197530864182,0,0,0.030864197530864182,17.253086419753078,0)" xlink:href="#T"/><use transform="matrix(0.030864197530864182,0,0,0.030864197530864182,20.925925925925917,0)" xlink:href="#V"/><use transform="matrix(0.030864197530864182,0,0,0.030864197530864182,23.36419753086419,0)" xlink:href="#W"/><use transform="matrix(0.030864197530864182,0,0,0.030864197530864182,29.537037037037024,0)" xlink:href="#aw"/><use transform="matrix(0.030864197530864182,0,0,0.030864197530864182,35.092592592592574,0)" xlink:href="#W"/></g><path fill="#333" d="M185-189c-5-48-123-54-124 2 14 75 158 14 163 119 3 78-121 87-175 55-17-10-28-26-33-46l33-7c5 56 141 63 141-1 0-78-155-14-162-118-5-82 145-84 179-34 5 7 8 16 11 25" id="ay"/><path fill="#333" d="M59-47c-2 24 18 29 38 22v24C64 9 27 4 27-40v-127H5v-23h24l9-43h21v43h35v23H59v120" id="az"/><path fill="#333" d="M100-194c62-1 85 37 85 99 1 63-27 99-86 99S16-35 15-95c0-66 28-99 85-99zM99-20c44 1 53-31 53-75 0-43-8-75-51-75s-53 32-53 75 10 74 51 75" id="aA"/><path fill="#333" d="M114-163C36-179 61-72 57 0H25l-1-190h30c1 12-1 29 2 39 6-27 23-49 58-41v29" id="aB"/><path fill="#333" d="M100-194c63 0 86 42 84 106H49c0 40 14 67 53 68 26 1 43-12 49-29l28 8c-11 28-37 45-77 45C44 4 14-33 15-96c1-61 26-98 85-98zm52 81c6-60-76-77-97-28-3 7-6 17-6 28h103" id="aC"/><g id="v"><use transform="matrix(0.030864197530864196,0,0,0.030864197530864196,0,0)" xlink:href="#ay"/><use transform="matrix(0.030864197530864196,0,0,0.030864197530864196,7.4074074074074066,0)" xlink:href="#az"/><use transform="matrix(0.030864197530864196,0,0,0.030864197530864196,10.493827160493826,0)" xlink:href="#aA"/><use transform="matrix(0.030864197530864196,0,0,0.030864197530864196,16.666666666666664,0)" xlink:href="#aB"/><use transform="matrix(0.030864197530864196,0,0,0.030864197530864196,20.339506172839503,0)" xlink:href="#aC"/></g><path fill="#333" d="M33 0v-248h34V0H33" id="aD"/><path fill="#333" d="M117-194c89-4 53 116 60 194h-32v-121c0-31-8-49-39-48C34-167 62-67 57 0H25l-1-190h30c1 10-1 24 2 32 11-22 29-35 61-36" id="aE"/><path fill="#333" d="M101-234c-31-9-42 10-38 44h38v23H63V0H32v-167H5v-23h27c-7-52 17-82 69-68v24" id="aF"/><path fill="#333" d="M210-169c-67 3-38 105-44 169h-31v-121c0-29-5-50-35-48C34-165 62-65 56 0H25l-1-190h30c1 10-1 24 2 32 10-44 99-50 107 0 11-21 27-35 58-36 85-2 47 119 55 194h-31v-121c0-29-5-49-35-48" id="aG"/><path fill="#333" d="M141-36C126-15 110 5 73 4 37 3 15-17 15-53c-1-64 63-63 125-63 3-35-9-54-41-54-24 1-41 7-42 31l-33-3c5-37 33-52 76-52 45 0 72 20 72 64v82c-1 20 7 32 28 27v20c-31 9-61-2-59-35zM48-53c0 20 12 33 32 33 41-3 63-29 60-74-43 2-92-5-92 41" id="aH"/><path fill="#333" d="M24-231v-30h32v30H24zM24 0v-190h32V0H24" id="aI"/><g id="w"><use transform="matrix(0.030864197530864196,0,0,0.030864197530864196,0,0)" xlink:href="#aD"/><use transform="matrix(0.030864197530864196,0,0,0.030864197530864196,3.0864197530864197,0)" xlink:href="#aE"/><use transform="matrix(0.030864197530864196,0,0,0.030864197530864196,9.25925925925926,0)" xlink:href="#aF"/><use transform="matrix(0.030864197530864196,0,0,0.030864197530864196,12.345679012345679,0)" xlink:href="#aA"/><use transform="matrix(0.030864197530864196,0,0,0.030864197530864196,18.51851851851852,0)" xlink:href="#aB"/><use transform="matrix(0.030864197530864196,0,0,0.030864197530864196,22.191358024691358,0)" xlink:href="#aG"/><use transform="matrix(0.030864197530864196,0,0,0.030864197530864196,31.419753086419753,0)" xlink:href="#aH"/><use transform="matrix(0.030864197530864196,0,0,0.030864197530864196,37.592592592592595,0)" xlink:href="#az"/><use transform="matrix(0.030864197530864196,0,0,0.030864197530864196,40.67901234567901,0)" xlink:href="#aI"/><use transform="matrix(0.030864197530864196,0,0,0.030864197530864196,43.117283950617285,0)" xlink:href="#aA"/><use transform="matrix(0.030864197530864196,0,0,0.030864197530864196,49.29012345679013,0)" xlink:href="#aE"/></g><g id="x"><use transform="matrix(0.030864197530864182,0,0,0.030864197530864182,0,0)" xlink:href="#ax"/><use transform="matrix(0.030864197530864182,0,0,0.030864197530864182,7.993827160493823,0)" xlink:href="#S"/><use transform="matrix(0.030864197530864182,0,0,0.030864197530864182,14.16666666666666,0)" xlink:href="#R"/><use transform="matrix(0.030864197530864182,0,0,0.030864197530864182,17.253086419753078,0)" xlink:href="#S"/><use transform="matrix(0.030864197530864182,0,0,0.030864197530864182,23.425925925925917,0)" xlink:href="#ae"/><use transform="matrix(0.030864197530864182,0,0,0.030864197530864182,29.59876543209875,0)" xlink:href="#S"/><use transform="matrix(0.030864197530864182,0,0,0.030864197530864182,35.77160493827159,0)" xlink:href="#aj"/><use transform="matrix(0.030864197530864182,0,0,0.030864197530864182,41.32716049382714,0)" xlink:href="#W"/></g><path fill="#333" d="M232-93c-1 65-40 97-104 97C67 4 28-28 28-90v-158h33c8 89-33 224 67 224 102 0 64-133 71-224h33v155" id="aJ"/><path fill="#333" d="M233-177c-1 41-23 64-60 70L243 0h-38l-65-103H63V0H30v-248c88 3 205-21 203 71zM63-129c60-2 137 13 137-47 0-61-80-42-137-45v92" id="aK"/><path fill="#333" d="M190 0L58-211 59 0H30v-248h39L202-35l-2-213h31V0h-41" id="aL"/><g id="y"><use transform="matrix(0.030864197530864196,0,0,0.030864197530864196,0,0)" xlink:href="#aJ"/><use transform="matrix(0.030864197530864196,0,0,0.030864197530864196,7.993827160493827,0)" xlink:href="#aK"/><use transform="matrix(0.030864197530864196,0,0,0.030864197530864196,15.987654320987653,0)" xlink:href="#aL"/></g><g id="z"><use transform="matrix(0.030864197530864182,0,0,0.030864197530864182,0,0)" xlink:href="#au"/><use transform="matrix(0.030864197530864182,0,0,0.030864197530864182,7.993827160493823,0)" xlink:href="#ab"/></g><g id="A"><use transform="matrix(0.030864197530864182,0,0,0.030864197530864182,0,0)" xlink:href="#as"/><use transform="matrix(0.030864197530864182,0,0,0.030864197530864182,7.993827160493823,0)" xlink:href="#at"/><use transform="matrix(0.030864197530864182,0,0,0.030864197530864182,15.987654320987646,0)" xlink:href="#au"/></g><g id="B"><use transform="matrix(0.030864197530864182,0,0,0.030864197530864182,0,0)" xlink:href="#Q"/><use transform="matrix(0.030864197530864182,0,0,0.030864197530864182,7.407407407407404,0)" xlink:href="#W"/><use transform="matrix(0.030864197530864182,0,0,0.030864197530864182,13.58024691358024,0)" xlink:href="#S"/><use transform="matrix(0.030864197530864182,0,0,0.030864197530864182,19.753086419753075,0)" xlink:href="#T"/><use transform="matrix(0.030864197530864182,0,0,0.030864197530864182,23.425925925925913,0)" xlink:href="#ag"/><use transform="matrix(0.030864197530864182,0,0,0.030864197530864182,28.981481481481467,0)" xlink:href="#ah"/></g><g id="C"><use transform="matrix(0.030864197530864182,0,0,0.030864197530864182,0,0)" xlink:href="#ad"/><use transform="matrix(0.030864197530864182,0,0,0.030864197530864182,7.407407407407404,0)" xlink:href="#aq"/><use transform="matrix(0.030864197530864182,0,0,0.030864197530864182,13.58024691358024,0)" xlink:href="#aq"/><use transform="matrix(0.030864197530864182,0,0,0.030864197530864182,19.753086419753075,0)" xlink:href="#ai"/><use transform="matrix(0.030864197530864182,0,0,0.030864197530864182,22.191358024691347,0)" xlink:href="#V"/><use transform="matrix(0.030864197530864182,0,0,0.030864197530864182,24.62962962962962,0)" xlink:href="#ag"/><use transform="matrix(0.030864197530864182,0,0,0.030864197530864182,30.185185185185173,0)" xlink:href="#S"/><use transform="matrix(0.030864197530864182,0,0,0.030864197530864182,36.35802469135801,0)" xlink:href="#R"/><use transform="matrix(0.030864197530864182,0,0,0.030864197530864182,39.44444444444443,0)" xlink:href="#V"/><use transform="matrix(0.030864197530864182,0,0,0.030864197530864182,41.8827160493827,0)" xlink:href="#ab"/><use transform="matrix(0.030864197530864182,0,0,0.030864197530864182,48.055555555555536,0)" xlink:href="#Z"/></g><g id="D"><use transform="matrix(0.030864197530864182,0,0,0.030864197530864182,0,0)" xlink:href="#Q"/><use transform="matrix(0.030864197530864182,0,0,0.030864197530864182,7.407407407407404,0)" xlink:href="#R"/><use transform="matrix(0.030864197530864182,0,0,0.030864197530864182,10.493827160493822,0)" xlink:href="#ab"/><use transform="matrix(0.030864197530864182,0,0,0.030864197530864182,16.666666666666657,0)" xlink:href="#T"/><use transform="matrix(0.030864197530864182,0,0,0.030864197530864182,20.339506172839496,0)" xlink:href="#W"/><use transform="matrix(0.030864197530864182,0,0,0.030864197530864182,26.512345679012334,0)" xlink:href="#ak"/></g><g id="E"><use transform="matrix(0.030864197530864182,0,0,0.030864197530864182,0,0)" xlink:href="#Y"/><use transform="matrix(0.030864197530864182,0,0,0.030864197530864182,3.0864197530864184,0)" xlink:href="#Z"/><use transform="matrix(0.030864197530864182,0,0,0.030864197530864182,9.259259259259256,0)" xlink:href="#aa"/><use transform="matrix(0.030864197530864182,0,0,0.030864197530864182,12.345679012345673,0)" xlink:href="#ab"/><use transform="matrix(0.030864197530864182,0,0,0.030864197530864182,18.518518518518512,0)" xlink:href="#T"/><use transform="matrix(0.030864197530864182,0,0,0.030864197530864182,22.19135802469135,0)" xlink:href="#ac"/><use transform="matrix(0.030864197530864182,0,0,0.030864197530864182,31.41975308641974,0)" xlink:href="#S"/><use transform="matrix(0.030864197530864182,0,0,0.030864197530864182,37.592592592592574,0)" xlink:href="#R"/><use transform="matrix(0.030864197530864182,0,0,0.030864197530864182,40.67901234567899,0)" xlink:href="#V"/><use transform="matrix(0.030864197530864182,0,0,0.030864197530864182,43.117283950617264,0)" xlink:href="#ab"/><use transform="matrix(0.030864197530864182,0,0,0.030864197530864182,49.2901234567901,0)" xlink:href="#Z"/></g><g id="F"><use transform="matrix(0.030864197530864182,0,0,0.030864197530864182,0,0)" xlink:href="#at"/><use transform="matrix(0.030864197530864182,0,0,0.030864197530864182,7.993827160493823,0)" xlink:href="#W"/><use transform="matrix(0.030864197530864182,0,0,0.030864197530864182,14.16666666666666,0)" xlink:href="#R"/><use transform="matrix(0.030864197530864182,0,0,0.030864197530864182,17.253086419753078,0)" xlink:href="#T"/><use transform="matrix(0.030864197530864182,0,0,0.030864197530864182,20.925925925925917,0)" xlink:href="#V"/><use transform="matrix(0.030864197530864182,0,0,0.030864197530864182,23.36419753086419,0)" xlink:href="#W"/><use transform="matrix(0.030864197530864182,0,0,0.030864197530864182,29.537037037037024,0)" xlink:href="#aw"/><use transform="matrix(0.030864197530864182,0,0,0.030864197530864182,35.092592592592574,0)" xlink:href="#W"/></g><g id="G"><use transform="matrix(0.030864197530864182,0,0,0.030864197530864182,0,0)" xlink:href="#aJ"/><use transform="matrix(0.030864197530864182,0,0,0.030864197530864182,7.993827160493823,0)" xlink:href="#aK"/><use transform="matrix(0.030864197530864182,0,0,0.030864197530864182,15.987654320987646,0)" xlink:href="#aL"/></g><g id="H"><use transform="matrix(0.030864197530864182,0,0,0.030864197530864182,0,0)" xlink:href="#an"/><use transform="matrix(0.030864197530864182,0,0,0.030864197530864182,6.759259259259256,0)" xlink:href="#W"/><use transform="matrix(0.030864197530864182,0,0,0.030864197530864182,12.932098765432093,0)" xlink:href="#W"/></g><path fill="#3a414a" d="M30-248c87 1 191-15 191 75 0 78-77 80-158 76V0H30v-248zm33 125c57 0 124 11 124-50 0-59-68-47-124-48v98" id="aM"/><path fill="#3a414a" d="M179-190L93 31C79 59 56 82 12 73V49c39 6 53-20 64-50L1-190h34L92-34l54-156h33" id="aN"/><g id="I"><use transform="matrix(0.030864197530864182,0,0,0.030864197530864182,0,0)" xlink:href="#aM"/><use transform="matrix(0.030864197530864182,0,0,0.030864197530864182,7.407407407407404,0)" xlink:href="#S"/><use transform="matrix(0.030864197530864182,0,0,0.030864197530864182,13.58024691358024,0)" xlink:href="#aN"/><use transform="matrix(0.030864197530864182,0,0,0.030864197530864182,19.135802469135793,0)" xlink:href="#ac"/><use transform="matrix(0.030864197530864182,0,0,0.030864197530864182,28.364197530864182,0)" xlink:href="#W"/><use transform="matrix(0.030864197530864182,0,0,0.030864197530864182,34.53703703703702,0)" xlink:href="#Z"/><use transform="matrix(0.030864197530864182,0,0,0.030864197530864182,40.70987654320985,0)" xlink:href="#R"/></g><path fill="#3a414a" d="M212-179c-10-28-35-45-73-45-59 0-87 40-87 99 0 60 29 101 89 101 43 0 62-24 78-52l27 14C228-24 195 4 139 4 59 4 22-46 18-125c-6-104 99-153 187-111 19 9 31 26 39 46" id="aO"/><g id="J"><use transform="matrix(0.030864197530864182,0,0,0.030864197530864182,0,0)" xlink:href="#aO"/><use transform="matrix(0.030864197530864182,0,0,0.030864197530864182,7.993827160493823,0)" xlink:href="#ab"/><use transform="matrix(0.030864197530864182,0,0,0.030864197530864182,14.16666666666666,0)" xlink:href="#Z"/><use transform="matrix(0.030864197530864182,0,0,0.030864197530864182,20.3395061728395,0)" xlink:href="#aa"/><use transform="matrix(0.030864197530864182,0,0,0.030864197530864182,23.425925925925917,0)" xlink:href="#V"/><use transform="matrix(0.030864197530864182,0,0,0.030864197530864182,25.86419753086419,0)" xlink:href="#T"/><use transform="matrix(0.030864197530864182,0,0,0.030864197530864182,29.537037037037027,0)" xlink:href="#ac"/><use transform="matrix(0.030864197530864182,0,0,0.030864197530864182,38.765432098765416,0)" xlink:href="#S"/><use transform="matrix(0.030864197530864182,0,0,0.030864197530864182,44.93827160493825,0)" xlink:href="#R"/><use transform="matrix(0.030864197530864182,0,0,0.030864197530864182,48.02469135802467,0)" xlink:href="#V"/><use transform="matrix(0.030864197530864182,0,0,0.030864197530864182,50.46296296296294,0)" xlink:href="#ab"/><use transform="matrix(0.030864197530864182,0,0,0.030864197530864182,56.635802469135776,0)" xlink:href="#Z"/></g><path fill="#3a414a" d="M30 0v-248h187v28H63v79h144v27H63v87h162V0H30" id="aP"/><g id="K"><use transform="matrix(0.030864197530864182,0,0,0.030864197530864182,0,0)" xlink:href="#aP"/><use transform="matrix(0.030864197530864182,0,0,0.030864197530864182,7.407407407407404,0)" xlink:href="#ac"/><use transform="matrix(0.030864197530864182,0,0,0.030864197530864182,16.635802469135793,0)" xlink:href="#S"/><use transform="matrix(0.030864197530864182,0,0,0.030864197530864182,22.808641975308632,0)" xlink:href="#V"/><use transform="matrix(0.030864197530864182,0,0,0.030864197530864182,25.246913580246904,0)" xlink:href="#ai"/></g><g id="L"><use transform="matrix(0.030864197530864182,0,0,0.030864197530864182,0,0)" xlink:href="#Y"/><use transform="matrix(0.030864197530864182,0,0,0.030864197530864182,3.0864197530864184,0)" xlink:href="#aj"/></g><g id="M"><use transform="matrix(0.030864197530864182,0,0,0.030864197530864182,0,0)" xlink:href="#U"/><use transform="matrix(0.030864197530864182,0,0,0.030864197530864182,6.574074074074071,0)" xlink:href="#S"/><use transform="matrix(0.030864197530864182,0,0,0.030864197530864182,12.746913580246908,0)" xlink:href="#ai"/><use transform="matrix(0.030864197530864182,0,0,0.030864197530864182,15.185185185185178,0)" xlink:href="#V"/><use transform="matrix(0.030864197530864182,0,0,0.030864197530864182,17.62345679012345,0)" xlink:href="#ak"/><use transform="matrix(0.030864197530864182,0,0,0.030864197530864182,23.796296296296283,0)" xlink:href="#al"/></g><g id="N"><use transform="matrix(0.030864197530864182,0,0,0.030864197530864182,0,0)" xlink:href="#am"/><use transform="matrix(0.030864197530864182,0,0,0.030864197530864182,6.388888888888886,0)" xlink:href="#W"/><use transform="matrix(0.030864197530864182,0,0,0.030864197530864182,12.561728395061722,0)" xlink:href="#aj"/></g><g id="O"><use transform="matrix(0.030864197530864182,0,0,0.030864197530864182,0,0)" xlink:href="#au"/><use transform="matrix(0.030864197530864182,0,0,0.030864197530864182,7.993827160493823,0)" xlink:href="#ab"/></g><g id="P"><use transform="matrix(0.030864197530864182,0,0,0.030864197530864182,0,0)" xlink:href="#Q"/><use transform="matrix(0.030864197530864182,0,0,0.030864197530864182,7.407407407407404,0)" xlink:href="#R"/><use transform="matrix(0.030864197530864182,0,0,0.030864197530864182,10.493827160493822,0)" xlink:href="#ab"/><use transform="matrix(0.030864197530864182,0,0,0.030864197530864182,16.666666666666657,0)" xlink:href="#aq"/></g></defs></g></svg>