<svg xmlns="http://www.w3.org/2000/svg" xmlns:xlink="http://www.w3.org/1999/xlink" xmlns:lucid="lucid" width="631" height="850"><g transform="translate(-2240 -24)" lucid:page-tab-id="0_0"><path d="M2700 600h100v20h-100z" fill="none"/><use xlink:href="#a" transform="matrix(1,0,0,1,2700,600) translate(29.367283950617285 12.222222222222221)"/><path d="M2436.47 40c11.55 0 20.9 7.8 20.9 17.42 0 9.62-9.35 17.42-20.9 17.42h-62.7c-11.55 0-20.9-7.8-20.9-17.42 0-9.62 9.35-17.42 20.9-17.42z" stroke="#c92d39" fill="#fff"/><use xlink:href="#b" transform="matrix(1,0,0,1,2357.860865187825,45) translate(35.78703703703704 14.722222222222221)"/><path d="M2408.63 75.84v21.6h.02v5.72" stroke="#3a414a" fill="none"/><path d="M2409.13 75.85h-1v-.5h1z" stroke="#3a414a" stroke-width=".05" fill="#3a414a"/><path d="M2408.65 117.93l-4.64-14.27h9.28z" stroke="#3a414a" fill="#3a414a"/><path d="M2357.7 127.73a10.4 10.4 0 0 1 10.05-7.73h84.32a6.15 6.15 0 0 1 5.94 7.73l-5.16 19.38a10.4 10.4 0 0 1-10.06 7.74h-84.32a6.15 6.15 0 0 1-5.94-7.73z" stroke="#3a414a" fill="#fff"/><use xlink:href="#c" transform="matrix(1,0,0,1,2355.4596361787085,125) translate(17.962962962962962 14.722222222222221)"/><use xlink:href="#d" transform="matrix(1,0,0,1,2355.4596361787085,125) translate(48.17901234567901 14.722222222222221)"/><path d="M2400.16 203.1a19.02 19.02 0 0 1 14.75 0l26.68 11.22a3.36 3.36 0 0 1 0 6.2l-26.67 11.22a19.02 19.02 0 0 1-14.74 0l-26.67-11.22a3.36 3.36 0 0 1 0-6.2z" stroke="#3a414a" fill="#fff"/><use xlink:href="#e" transform="matrix(1,0,0,1,2371.1194286327323,205) translate(15.651234567901238 14.722222222222221)"/><use xlink:href="#f" transform="matrix(1,0,0,1,2371.1194286327323,205) translate(27.379629629629633 14.722222222222221)"/><path d="M2407.54 155.8v28.93" stroke="#3a414a" fill="none"/><path d="M2408.04 155.8h-1v-.5h1z" stroke="#3a414a" stroke-width=".05" fill="#3a414a"/><path d="M2407.54 199.5l-4.64-14.27h9.27z" stroke="#3a414a" fill="#3a414a"/><path d="M2407.54 234.73v26.3" stroke="#7ab648" stroke-width="2" fill="none"/><path d="M2407.54 233.73l1-.04v1.05h-2v-1.06z" stroke="#7ab648" stroke-width=".05" fill="#7ab648"/><path d="M2407.54 276.3L2402.9 262h9.27z" stroke="#7ab648" stroke-width="2" fill="#7ab648"/><use xlink:href="#g" transform="matrix(1,0,0,1,2381.420839263301,245.6686514912144) translate(0.005000000000000782 8.88888888888889)"/><path d="M2345.28 283.68a32.82 32.82 0 0 1 15.1-3.68h109.6c9.3 0 16.8 7.8 16.8 17.42 0 9.62-7.5 17.42-16.8 17.42h-109.6a32.82 32.82 0 0 1-15.1-3.68l-19.4-10.06a4.15 4.15 0 0 1 0-7.36z" stroke="#3a414a" fill="#fff"/><use xlink:href="#h" transform="matrix(1,0,0,1,2323.7758917002284,285) translate(52.37037037037037 14.722222222222221)"/><path d="M2404 315.84v27.3" stroke="#3a414a" fill="none"/><path d="M2404.5 315.85h-1v-.5h1z" stroke="#3a414a" stroke-width=".05" fill="#3a414a"/><path d="M2404 357.9l-4.63-14.26h9.27z" stroke="#3a414a" fill="#3a414a"/><path d="M2345.4 363.9a30.67 30.67 0 0 1 14.98-3.9h109.6c9.3 0 16.8 8.42 16.8 18.8 0 10.4-7.5 18.82-16.8 18.82h-109.6a30.67 30.67 0 0 1-14.98-3.9l-19.64-11a4.48 4.48 0 0 1 0-7.82z" stroke="#3a414a" fill="#fff"/><use xlink:href="#i" transform="matrix(1,0,0,1,2323.778708112512,365) translate(38.17283950617284 16.22222222222222)"/><use xlink:href="#j" transform="matrix(1,0,0,1,2323.778708112512,365) translate(79.53086419753086 16.22222222222222)"/><path d="M2404 398.62v24.52" stroke="#3a414a" fill="none"/><path d="M2404.5 398.63h-1v-.5h1z" stroke="#3a414a" stroke-width=".05" fill="#3a414a"/><path d="M2404 437.9l-4.63-14.26h9.27z" stroke="#3a414a" fill="#3a414a"/><path d="M2346.64 443.94a30.4 30.4 0 0 1 14.96-3.94h109.6c9.3 0 16.8 8.5 16.8 19s-7.5 19-16.8 19h-109.6a30.4 30.4 0 0 1-14.96-3.94l-19.68-11.13a4.52 4.52 0 0 1 0-7.87z" stroke="#3a414a" fill="#fff"/><use xlink:href="#k" transform="matrix(1,0,0,1,2324.9992425802975,445) translate(49.12962962962963 16.22222222222222)"/><use xlink:href="#l" transform="matrix(1,0,0,1,2324.9992425802975,445) translate(76.01234567901236 16.22222222222222)"/><path d="M2405.23 479v20.74a.02.02 0 0 0 .02.02.02.02 0 0 1 0 .02v4.86" stroke="#3a414a" fill="none"/><path d="M2405.73 479h-1v-.5h1z" stroke="#3a414a" stroke-width=".05" fill="#3a414a"/><path d="M2405.26 519.4l-4.63-14.26h9.27z" stroke="#3a414a" fill="#3a414a"/><path d="M2397.6 522.62a27.4 27.4 0 0 1 15.34 0l49.74 14.5a2.33 2.33 0 0 1 0 4.5l-49.74 14.5a27.4 27.4 0 0 1-15.35 0l-49.75-14.5a2.33 2.33 0 0 1 0-4.5z" stroke="#3a414a" fill="#fff"/><use xlink:href="#m" transform="matrix(1,0,0,1,2345.174220049941,525.3767998669359) translate(18.555555555555557 16.22222222222222)"/><use xlink:href="#n" transform="matrix(1,0,0,1,2345.174220049941,525.3767998669359) translate(57.41358024691358 16.22222222222222)"/><path d="M2405.26 558.73V579l-.02.03v2.77" stroke="#7ab648" stroke-width="2" fill="none"/><path d="M2405.26 557.73l1-.03v1.05h-2v-1.05z" stroke="#7ab648" stroke-width=".05" fill="#7ab648"/><path d="M2405.24 597.07l-4.64-14.27h9.27z" stroke="#7ab648" stroke-width="2" fill="#7ab648"/><use xlink:href="#g" transform="matrix(1,0,0,1,2379.1473991467615,567.0660018484353) translate(0.005000000000000782 8.88888888888889)"/><path d="M2349.66 608.48a10.4 10.4 0 0 1 10.06-7.73h105.2a6.15 6.15 0 0 1 5.93 7.73l-4.87 18.27a10.4 10.4 0 0 1-10.07 7.73h-105.17a6.15 6.15 0 0 1-5.94-7.73z" stroke="#3a414a" fill="#fff"/><use xlink:href="#m" transform="matrix(1,0,0,1,2347.727751405936,605.7535997338719) translate(24.141975308641975 14.222222222222221)"/><use xlink:href="#l" transform="matrix(1,0,0,1,2347.727751405936,605.7535997338719) translate(63 14.222222222222221)"/><path d="M2407.66 635.43v19.27a.1.1 0 0 0 .1.1.1.1 0 0 1 .1.1v3.4" stroke="#3a414a" fill="none"/><path d="M2408.16 635.45h-1v-.52h1z" stroke="#3a414a" stroke-width=".05" fill="#3a414a"/><path d="M2407.86 673.06l-4.63-14.27h9.27z" stroke="#3a414a" fill="#3a414a"/><path d="M2353.27 683.13a8 8 0 0 1 8-8h93.2a8 8 0 0 1 8 8v17.72a8 8 0 0 1-8 8h-93.2a8 8 0 0 1-8-8z" stroke="#3a414a" fill="#fff"/><use xlink:href="#o" transform="matrix(1,0,0,1,2365.271407628992,687.1250688537777) translate(11.873456790123456 8.88888888888889)"/><use xlink:href="#l" transform="matrix(1,0,0,1,2365.271407628992,687.1250688537777) translate(40.26851851851852 8.88888888888889)"/><path d="M2407.86 709.8v19.35a.02.02 0 0 1-.02.02.02.02 0 0 0-.02.03v3.46" stroke="#3a414a" fill="none"/><path d="M2408.36 709.82h-1v-.52h1z" stroke="#3a414a" stroke-width=".05" fill="#3a414a"/><path d="M2407.82 747.43l-4.64-14.27h9.27z" stroke="#3a414a" fill="#3a414a"/><path d="M2357.23 757.5a8 8 0 0 1 8-8h85.18a8 8 0 0 1 8 8v17.72a8 8 0 0 1-8 8h-85.17a8 8 0 0 1-8-8z" stroke="#3a414a" fill="#fff"/><use xlink:href="#p" transform="matrix(1,0,0,1,2369.2269226693625,761.4965379736835) translate(27.61111111111111 8.88888888888889)"/><path d="M2407.82 784.18v19.32a.02.02 0 0 0 .02.02.02.02 0 0 1 .02.03v3.43" stroke="#3a414a" fill="none"/><path d="M2408.32 784.2h-1v-.52h1z" stroke="#3a414a" stroke-width=".05" fill="#3a414a"/><path d="M2407.86 821.75l-4.63-14.27h9.27z" stroke="#3a414a" fill="#3a414a"/><path d="M2438.22 823.87c11.18 0 20.24 7.55 20.24 16.86 0 9.32-9.06 16.87-20.24 16.87h-60.7c-11.2 0-20.25-7.55-20.25-16.87 0-9.3 9.06-16.86 20.24-16.86z" stroke="#c92d39" fill="#fff"/><use xlink:href="#q" transform="matrix(1,0,0,1,2362.2735151608676,828.8680070935893) translate(34.58024691358025 14.222222222222221)"/><path d="M2860 450.42c0 6.63-26.86 12-60 12s-60-5.37-60-12v-96c0-6.63 26.86-12 60-12s60 5.37 60 12z" stroke="#3a414a" fill="#fff"/><path d="M2860 354.42c0 6.63-26.86 12-60 12s-60-5.37-60-12" stroke="#3a414a" fill="none"/><use xlink:href="#r" transform="matrix(1,0,0,1,2745,371.4180430912213) translate(31.25 45.22222222222223)"/><path d="M2760 500c-7.73 0-14 8.95-14 20s6.27 20 14 20h-126c-7.73 0-14-8.95-14-20s6.27-20 14-20z" stroke="#3a414a" fill="#fff"/><use xlink:href="#s" transform="matrix(1,0,0,1,2625,505) translate(35.40123456790124 17.22222222222222)"/><use xlink:href="#t" transform="matrix(1,0,0,1,2625,505) translate(71.17283950617283 17.22222222222222)"/><path d="M2800 463.42V568.5a12 12 0 0 1-12 12h-86a12 12 0 0 1-12-12v-11.62" stroke="#3a414a" fill="none"/><path d="M2800 462.92l.5-.02v.53h-1v-.53z" stroke="#3a414a" stroke-width=".05" fill="#3a414a"/><path d="M2690 542.12l4.64 14.26h-9.28z" stroke="#3a414a" fill="#3a414a"/><path d="M2690 499V282a12 12 0 0 0-12-12h-36a12 12 0 0 1-12-12v-28.58a12 12 0 0 0-12-12h-157.47" stroke="#3a414a" fill="none"/><path d="M2690.5 499.5h-1v-.5h1z" stroke="#3a414a" stroke-width=".05" fill="#3a414a"/><path d="M2445.76 217.42l14.27-4.64v9.27z" stroke="#3a414a" fill="#3a414a"/><path d="M2520 220h100v20h-100z" fill="none"/><use xlink:href="#a" transform="matrix(1,0,0,1,2520,220) translate(29.367283950617285 12.222222222222221)"/><path d="M2369.93 217.42H2282a12 12 0 0 1-12-12v-56a12 12 0 0 1 12-12h54.14" stroke="#c92d39" stroke-width="2" fill="none"/><path d="M2371.04 216.52l-.1.9.1.9.03.1h-1.17v-2h1.17z" stroke="#c92d39" stroke-width=".05" fill="#c92d39"/><path d="M2351.4 137.42l-14.26 4.63v-9.27z" stroke="#c92d39" stroke-width="2" fill="#c92d39"/><use xlink:href="#u" transform="matrix(1,0,0,1,2312.9166666666665,200.0860696958635) translate(0.004999999999999893 8.88888888888889)"/><path d="M2665.57 499v-42.9a.15.15 0 0 1 .15-.14.15.15 0 0 0 .15-.15V392a12 12 0 0 0-12-12H2632a12 12 0 0 1-12-12v-58.58a12 12 0 0 0-12-12h-104.32" stroke="#3a414a" fill="none"/><path d="M2666.07 499.5h-1v-.5h1z" stroke="#3a414a" stroke-width=".05" fill="#3a414a"/><path d="M2488.9 297.42l14.28-4.64v9.27z" stroke="#3a414a" fill="#3a414a"/><path d="M2520 300h100v20h-100z" fill="none"/><use xlink:href="#a" transform="matrix(1,0,0,1,2520,300) translate(29.367283950617285 12.222222222222221)"/><path d="M2650.18 499v-37a12 12 0 0 0-12-12H2632a12 12 0 0 1-12-12v-47.2a12 12 0 0 0-12-12h-104.32" stroke="#3a414a" fill="none"/><path d="M2650.68 499.5h-1v-.5h1z" stroke="#3a414a" stroke-width=".05" fill="#3a414a"/><path d="M2488.92 378.8l14.26-4.63v9.27z" stroke="#3a414a" fill="#3a414a"/><path d="M2520 380h100v20h-100z" fill="none"/><use xlink:href="#a" transform="matrix(1,0,0,1,2520,380) translate(29.367283950617285 12.222222222222221)"/><path d="M2633.08 540.9V558a12 12 0 0 1-12 12H2532a12 12 0 0 1-12-12v-16a12 12 0 0 0-12-12h-20a12 12 0 0 1-12-12v-23.97" stroke="#3a414a" fill="none"/><path d="M2633.58 540.45v.45h-1v-.57z" stroke="#3a414a" stroke-width=".05" fill="#3a414a"/><path d="M2476 479.26l4.64 14.27h-9.27z" stroke="#3a414a" fill="#3a414a"/><path d="M2520 540h100v20h-100z" fill="none"/><use xlink:href="#a" transform="matrix(1,0,0,1,2520,540) translate(29.367283950617285 12.222222222222221)"/><path d="M2344.67 539.37H2272a12 12 0 0 0-12 12v191.8a12 12 0 0 0 12 12h66.57" stroke="#c92d39" stroke-width="2" fill="none"/><path d="M2345.76 538.65l-.1.72.1.73.12.27h-1.24v-2h1.24z" stroke="#c92d39" stroke-width=".05" fill="#c92d39"/><path d="M2353.84 755.16l-14.27 4.64v-9.28z" stroke="#c92d39" stroke-width="2" fill="#c92d39"/><g><use xlink:href="#u" transform="matrix(1,0,0,1,2295.583333333333,543.3729059324769) translate(0.004999999999999893 8.88888888888889)"/></g><path d="M2463.4 692h368.4a12 12 0 0 0 12-12V475.42" stroke="#3a414a" fill="none"/><path d="M2463.42 692.5h-.5v-1h.5z" stroke="#3a414a" stroke-width=".05" fill="#3a414a"/><path d="M2843.8 460.66l4.65 14.27h-9.27z" stroke="#3a414a" fill="#3a414a"/><path d="M2580 675.13h140v20h-140z" fill="none"/><g><use xlink:href="#v" transform="matrix(1,0,0,1,2580,675.1250688537777) translate(27.469135802469133 12.222222222222221)"/><use xlink:href="#w" transform="matrix(1,0,0,1,2580,675.1250688537777) translate(57.0679012345679 12.222222222222221)"/></g><defs><path fill="#3a414a" d="M233-177c-1 41-23 64-60 70L243 0h-38l-65-103H63V0H30v-248c88 3 205-21 203 71zM63-129c60-2 137 13 137-47 0-61-80-42-137-45v92" id="x"/><path fill="#3a414a" d="M100-194c63 0 86 42 84 106H49c0 40 14 67 53 68 26 1 43-12 49-29l28 8c-11 28-37 45-77 45C44 4 14-33 15-96c1-61 26-98 85-98zm52 81c6-60-76-77-97-28-3 7-6 17-6 28h103" id="y"/><path fill="#3a414a" d="M59-47c-2 24 18 29 38 22v24C64 9 27 4 27-40v-127H5v-23h24l9-43h21v43h35v23H59v120" id="z"/><path fill="#3a414a" d="M114-163C36-179 61-72 57 0H25l-1-190h30c1 12-1 29 2 39 6-27 23-49 58-41v29" id="A"/><path fill="#3a414a" d="M24-231v-30h32v30H24zM24 0v-190h32V0H24" id="B"/><path fill="#3a414a" d="M108 0H70L1-190h34L89-25l56-165h34" id="C"/><g id="a"><use transform="matrix(0.030864197530864196,0,0,0.030864197530864196,0,0)" xlink:href="#x"/><use transform="matrix(0.030864197530864196,0,0,0.030864197530864196,7.993827160493827,0)" xlink:href="#y"/><use transform="matrix(0.030864197530864196,0,0,0.030864197530864196,14.166666666666666,0)" xlink:href="#z"/><use transform="matrix(0.030864197530864196,0,0,0.030864197530864196,17.253086419753085,0)" xlink:href="#A"/><use transform="matrix(0.030864197530864196,0,0,0.030864197530864196,20.925925925925924,0)" xlink:href="#B"/><use transform="matrix(0.030864197530864196,0,0,0.030864197530864196,23.364197530864196,0)" xlink:href="#y"/><use transform="matrix(0.030864197530864196,0,0,0.030864197530864196,29.537037037037035,0)" xlink:href="#C"/><use transform="matrix(0.030864197530864196,0,0,0.030864197530864196,35.09259259259259,0)" xlink:href="#y"/></g><path fill="#3a414a" d="M185-189c-5-48-123-54-124 2 14 75 158 14 163 119 3 78-121 87-175 55-17-10-28-26-33-46l33-7c5 56 141 63 141-1 0-78-155-14-162-118-5-82 145-84 179-34 5 7 8 16 11 25" id="D"/><path fill="#3a414a" d="M141-36C126-15 110 5 73 4 37 3 15-17 15-53c-1-64 63-63 125-63 3-35-9-54-41-54-24 1-41 7-42 31l-33-3c5-37 33-52 76-52 45 0 72 20 72 64v82c-1 20 7 32 28 27v20c-31 9-61-2-59-35zM48-53c0 20 12 33 32 33 41-3 63-29 60-74-43 2-92-5-92 41" id="E"/><g id="b"><use transform="matrix(0.030864197530864196,0,0,0.030864197530864196,0,0)" xlink:href="#D"/><use transform="matrix(0.030864197530864196,0,0,0.030864197530864196,7.4074074074074066,0)" xlink:href="#z"/><use transform="matrix(0.030864197530864196,0,0,0.030864197530864196,10.493827160493826,0)" xlink:href="#E"/><use transform="matrix(0.030864197530864196,0,0,0.030864197530864196,16.666666666666664,0)" xlink:href="#A"/><use transform="matrix(0.030864197530864196,0,0,0.030864197530864196,20.339506172839503,0)" xlink:href="#z"/></g><path fill="#3a414a" d="M30 0v-248h33v221h125V0H30" id="F"/><path fill="#3a414a" d="M100-194c62-1 85 37 85 99 1 63-27 99-86 99S16-35 15-95c0-66 28-99 85-99zM99-20c44 1 53-31 53-75 0-43-8-75-51-75s-53 32-53 75 10 74 51 75" id="G"/><path fill="#3a414a" d="M177-190C167-65 218 103 67 71c-23-6-38-20-44-43l32-5c15 47 100 32 89-28v-30C133-14 115 1 83 1 29 1 15-40 15-95c0-56 16-97 71-98 29-1 48 16 59 35 1-10 0-23 2-32h30zM94-22c36 0 50-32 50-73 0-42-14-75-50-75-39 0-46 34-46 75s6 73 46 73" id="H"/><path fill="#3a414a" d="M117-194c89-4 53 116 60 194h-32v-121c0-31-8-49-39-48C34-167 62-67 57 0H25l-1-190h30c1 10-1 24 2 32 11-22 29-35 61-36" id="I"/><g id="c"><use transform="matrix(0.030864197530864196,0,0,0.030864197530864196,0,0)" xlink:href="#F"/><use transform="matrix(0.030864197530864196,0,0,0.030864197530864196,6.172839506172839,0)" xlink:href="#G"/><use transform="matrix(0.030864197530864196,0,0,0.030864197530864196,12.345679012345679,0)" xlink:href="#H"/><use transform="matrix(0.030864197530864196,0,0,0.030864197530864196,18.51851851851852,0)" xlink:href="#B"/><use transform="matrix(0.030864197530864196,0,0,0.030864197530864196,20.95679012345679,0)" xlink:href="#I"/></g><path fill="#3a414a" d="M30-248c118-7 216 8 213 122C240-48 200 0 122 0H30v-248zM63-27c89 8 146-16 146-99s-60-101-146-95v194" id="J"/><path fill="#3a414a" d="M24 0v-261h32V0H24" id="K"/><path fill="#3a414a" d="M135-143c-3-34-86-38-87 0 15 53 115 12 119 90S17 21 10-45l28-5c4 36 97 45 98 0-10-56-113-15-118-90-4-57 82-63 122-42 12 7 21 19 24 35" id="L"/><g id="d"><use transform="matrix(0.030864197530864196,0,0,0.030864197530864196,0,0)" xlink:href="#J"/><use transform="matrix(0.030864197530864196,0,0,0.030864197530864196,7.993827160493827,0)" xlink:href="#y"/><use transform="matrix(0.030864197530864196,0,0,0.030864197530864196,14.166666666666666,0)" xlink:href="#z"/><use transform="matrix(0.030864197530864196,0,0,0.030864197530864196,17.253086419753085,0)" xlink:href="#E"/><use transform="matrix(0.030864197530864196,0,0,0.030864197530864196,23.425925925925924,0)" xlink:href="#B"/><use transform="matrix(0.030864197530864196,0,0,0.030864197530864196,25.864197530864196,0)" xlink:href="#K"/><use transform="matrix(0.030864197530864196,0,0,0.030864197530864196,28.30246913580247,0)" xlink:href="#L"/></g><path fill="#3a414a" d="M33 0v-248h34V0H33" id="M"/><g id="e"><use transform="matrix(0.030864197530864196,0,0,0.030864197530864196,0,0)" xlink:href="#M"/><use transform="matrix(0.030864197530864196,0,0,0.030864197530864196,3.0864197530864197,0)" xlink:href="#L"/></g><path fill="#3a414a" d="M137 0h-34L2-248h35l83 218 83-218h36" id="N"/><path fill="#3a414a" d="M85-194c31 0 48 13 60 33l-1-100h32l1 261h-30c-2-10 0-23-3-31C134-8 116 4 85 4 32 4 16-35 15-94c0-66 23-100 70-100zm9 24c-40 0-46 34-46 75 0 40 6 74 45 74 42 0 51-32 51-76 0-42-9-74-50-73" id="O"/><path fill="#3a414a" d="M103-251c84 0 111 97 45 133-19 10-37 24-39 52H78c0-63 77-55 77-114 0-30-21-42-52-43-32 0-53 17-56 46l-32-2c7-45 34-72 88-72zM77 0v-35h34V0H77" id="P"/><g id="f"><use transform="matrix(0.030864197530864196,0,0,0.030864197530864196,0,0)" xlink:href="#N"/><use transform="matrix(0.030864197530864196,0,0,0.030864197530864196,6.5740740740740735,0)" xlink:href="#E"/><use transform="matrix(0.030864197530864196,0,0,0.030864197530864196,12.746913580246913,0)" xlink:href="#K"/><use transform="matrix(0.030864197530864196,0,0,0.030864197530864196,15.185185185185183,0)" xlink:href="#B"/><use transform="matrix(0.030864197530864196,0,0,0.030864197530864196,17.623456790123456,0)" xlink:href="#O"/><use transform="matrix(0.030864197530864196,0,0,0.030864197530864196,23.796296296296294,0)" xlink:href="#P"/></g><path fill="#3a414a" d="M137-103V0h-34v-103L8-248h37l75 118 75-118h37" id="Q"/><g id="g"><use transform="matrix(0.030864197530864196,0,0,0.030864197530864196,0,0)" xlink:href="#Q"/><use transform="matrix(0.030864197530864196,0,0,0.030864197530864196,6.388888888888888,0)" xlink:href="#y"/><use transform="matrix(0.030864197530864196,0,0,0.030864197530864196,12.561728395061728,0)" xlink:href="#L"/></g><path fill="#3a414a" d="M106-169C34-169 62-67 57 0H25v-261h32l-1 103c12-21 28-36 61-36 89 0 53 116 60 194h-32v-121c2-32-8-49-39-48" id="R"/><path fill="#3a414a" d="M115-194c53 0 69 39 70 98 0 66-23 100-70 100C84 3 66-7 56-30L54 0H23l1-261h32v101c10-23 28-34 59-34zm-8 174c40 0 45-34 45-75 0-40-5-75-45-74-42 0-51 32-51 76 0 43 10 73 51 73" id="S"/><g id="h"><use transform="matrix(0.030864197530864196,0,0,0.030864197530864196,0,0)" xlink:href="#J"/><use transform="matrix(0.030864197530864196,0,0,0.030864197530864196,7.993827160493827,0)" xlink:href="#E"/><use transform="matrix(0.030864197530864196,0,0,0.030864197530864196,14.166666666666666,0)" xlink:href="#L"/><use transform="matrix(0.030864197530864196,0,0,0.030864197530864196,19.72222222222222,0)" xlink:href="#R"/><use transform="matrix(0.030864197530864196,0,0,0.030864197530864196,25.89506172839506,0)" xlink:href="#S"/><use transform="matrix(0.030864197530864196,0,0,0.030864197530864196,32.0679012345679,0)" xlink:href="#G"/><use transform="matrix(0.030864197530864196,0,0,0.030864197530864196,38.24074074074074,0)" xlink:href="#E"/><use transform="matrix(0.030864197530864196,0,0,0.030864197530864196,44.41358024691358,0)" xlink:href="#A"/><use transform="matrix(0.030864197530864196,0,0,0.030864197530864196,48.086419753086425,0)" xlink:href="#O"/></g><path fill="#3a414a" d="M84 4C-5 8 30-112 23-190h32v120c0 31 7 50 39 49 72-2 45-101 50-169h31l1 190h-30c-1-10 1-25-2-33-11 22-28 36-60 37" id="T"/><g id="i"><use transform="matrix(0.030864197530864196,0,0,0.030864197530864196,0,0)" xlink:href="#D"/><use transform="matrix(0.030864197530864196,0,0,0.030864197530864196,7.4074074074074066,0)" xlink:href="#z"/><use transform="matrix(0.030864197530864196,0,0,0.030864197530864196,10.493827160493826,0)" xlink:href="#T"/><use transform="matrix(0.030864197530864196,0,0,0.030864197530864196,16.666666666666664,0)" xlink:href="#O"/><use transform="matrix(0.030864197530864196,0,0,0.030864197530864196,22.839506172839503,0)" xlink:href="#y"/><use transform="matrix(0.030864197530864196,0,0,0.030864197530864196,29.01234567901234,0)" xlink:href="#I"/><use transform="matrix(0.030864197530864196,0,0,0.030864197530864196,35.18518518518518,0)" xlink:href="#z"/></g><path fill="#3a414a" d="M96-169c-40 0-48 33-48 73s9 75 48 75c24 0 41-14 43-38l32 2c-6 37-31 61-74 61-59 0-76-41-82-99-10-93 101-131 147-64 4 7 5 14 7 22l-32 3c-4-21-16-35-41-35" id="U"/><g id="j"><use transform="matrix(0.030864197530864196,0,0,0.030864197530864196,0,0)" xlink:href="#x"/><use transform="matrix(0.030864197530864196,0,0,0.030864197530864196,7.993827160493827,0)" xlink:href="#y"/><use transform="matrix(0.030864197530864196,0,0,0.030864197530864196,14.166666666666666,0)" xlink:href="#U"/><use transform="matrix(0.030864197530864196,0,0,0.030864197530864196,19.72222222222222,0)" xlink:href="#G"/><use transform="matrix(0.030864197530864196,0,0,0.030864197530864196,25.89506172839506,0)" xlink:href="#A"/><use transform="matrix(0.030864197530864196,0,0,0.030864197530864196,29.5679012345679,0)" xlink:href="#O"/><use transform="matrix(0.030864197530864196,0,0,0.030864197530864196,35.74074074074074,0)" xlink:href="#L"/></g><path fill="#3a414a" d="M206 0h-36l-40-164L89 0H53L-1-190h32L70-26l43-164h34l41 164 42-164h31" id="V"/><g id="k"><use transform="matrix(0.030864197530864196,0,0,0.030864197530864196,0,0)" xlink:href="#N"/><use transform="matrix(0.030864197530864196,0,0,0.030864197530864196,7.1913580246913575,0)" xlink:href="#B"/><use transform="matrix(0.030864197530864196,0,0,0.030864197530864196,9.62962962962963,0)" xlink:href="#y"/><use transform="matrix(0.030864197530864196,0,0,0.030864197530864196,15.802469135802468,0)" xlink:href="#V"/></g><g id="l"><use transform="matrix(0.030864197530864196,0,0,0.030864197530864196,0,0)" xlink:href="#J"/><use transform="matrix(0.030864197530864196,0,0,0.030864197530864196,7.993827160493827,0)" xlink:href="#y"/><use transform="matrix(0.030864197530864196,0,0,0.030864197530864196,14.166666666666666,0)" xlink:href="#z"/><use transform="matrix(0.030864197530864196,0,0,0.030864197530864196,17.253086419753085,0)" xlink:href="#E"/><use transform="matrix(0.030864197530864196,0,0,0.030864197530864196,23.425925925925924,0)" xlink:href="#B"/><use transform="matrix(0.030864197530864196,0,0,0.030864197530864196,25.864197530864196,0)" xlink:href="#K"/><use transform="matrix(0.030864197530864196,0,0,0.030864197530864196,28.30246913580247,0)" xlink:href="#L"/></g><path fill="#3a414a" d="M232-93c-1 65-40 97-104 97C67 4 28-28 28-90v-158h33c8 89-33 224 67 224 102 0 64-133 71-224h33v155" id="W"/><path fill="#3a414a" d="M115-194c55 1 70 41 70 98S169 2 115 4C84 4 66-9 55-30l1 105H24l-1-265h31l2 30c10-21 28-34 59-34zm-8 174c40 0 45-34 45-75s-6-73-45-74c-42 0-51 32-51 76 0 43 10 73 51 73" id="X"/><g id="m"><use transform="matrix(0.030864197530864196,0,0,0.030864197530864196,0,0)" xlink:href="#W"/><use transform="matrix(0.030864197530864196,0,0,0.030864197530864196,7.993827160493827,0)" xlink:href="#X"/><use transform="matrix(0.030864197530864196,0,0,0.030864197530864196,14.166666666666666,0)" xlink:href="#O"/><use transform="matrix(0.030864197530864196,0,0,0.030864197530864196,20.339506172839506,0)" xlink:href="#E"/><use transform="matrix(0.030864197530864196,0,0,0.030864197530864196,26.512345679012345,0)" xlink:href="#z"/><use transform="matrix(0.030864197530864196,0,0,0.030864197530864196,29.598765432098766,0)" xlink:href="#y"/></g><path fill="#3a414a" d="M190 0L58-211 59 0H30v-248h39L202-35l-2-213h31V0h-41" id="Y"/><g id="n"><use transform="matrix(0.030864197530864196,0,0,0.030864197530864196,0,0)" xlink:href="#Y"/><use transform="matrix(0.030864197530864196,0,0,0.030864197530864196,7.993827160493827,0)" xlink:href="#y"/><use transform="matrix(0.030864197530864196,0,0,0.030864197530864196,14.166666666666666,0)" xlink:href="#y"/><use transform="matrix(0.030864197530864196,0,0,0.030864197530864196,20.339506172839506,0)" xlink:href="#O"/><use transform="matrix(0.030864197530864196,0,0,0.030864197530864196,26.512345679012345,0)" xlink:href="#y"/><use transform="matrix(0.030864197530864196,0,0,0.030864197530864196,32.68518518518518,0)" xlink:href="#O"/><use transform="matrix(0.030864197530864196,0,0,0.030864197530864196,38.858024691358025,0)" xlink:href="#P"/></g><g id="o"><use transform="matrix(0.030864197530864196,0,0,0.030864197530864196,0,0)" xlink:href="#D"/><use transform="matrix(0.030864197530864196,0,0,0.030864197530864196,7.4074074074074066,0)" xlink:href="#E"/><use transform="matrix(0.030864197530864196,0,0,0.030864197530864196,13.580246913580247,0)" xlink:href="#C"/><use transform="matrix(0.030864197530864196,0,0,0.030864197530864196,19.135802469135804,0)" xlink:href="#y"/></g><path fill="#3a414a" d="M30-248c87 1 191-15 191 75 0 78-77 80-158 76V0H30v-248zm33 125c57 0 124 11 124-50 0-59-68-47-124-48v98" id="Z"/><g id="p"><use transform="matrix(0.030864197530864196,0,0,0.030864197530864196,0,0)" xlink:href="#Z"/><use transform="matrix(0.030864197530864196,0,0,0.030864197530864196,7.4074074074074066,0)" xlink:href="#A"/><use transform="matrix(0.030864197530864196,0,0,0.030864197530864196,11.080246913580247,0)" xlink:href="#B"/><use transform="matrix(0.030864197530864196,0,0,0.030864197530864196,13.518518518518519,0)" xlink:href="#I"/><use transform="matrix(0.030864197530864196,0,0,0.030864197530864196,19.691358024691358,0)" xlink:href="#z"/></g><g id="q"><use transform="matrix(0.030864197530864196,0,0,0.030864197530864196,0,0)" xlink:href="#D"/><use transform="matrix(0.030864197530864196,0,0,0.030864197530864196,7.4074074074074066,0)" xlink:href="#z"/><use transform="matrix(0.030864197530864196,0,0,0.030864197530864196,10.493827160493826,0)" xlink:href="#G"/><use transform="matrix(0.030864197530864196,0,0,0.030864197530864196,16.666666666666664,0)" xlink:href="#X"/></g><g id="r"><use transform="matrix(0.030864197530864196,0,0,0.030864197530864196,0,0)" xlink:href="#J"/><use transform="matrix(0.030864197530864196,0,0,0.030864197530864196,7.993827160493827,0)" xlink:href="#E"/><use transform="matrix(0.030864197530864196,0,0,0.030864197530864196,14.166666666666666,0)" xlink:href="#z"/><use transform="matrix(0.030864197530864196,0,0,0.030864197530864196,17.253086419753085,0)" xlink:href="#E"/><use transform="matrix(0.030864197530864196,0,0,0.030864197530864196,23.425925925925924,0)" xlink:href="#S"/><use transform="matrix(0.030864197530864196,0,0,0.030864197530864196,29.598765432098762,0)" xlink:href="#E"/><use transform="matrix(0.030864197530864196,0,0,0.030864197530864196,35.7716049382716,0)" xlink:href="#L"/><use transform="matrix(0.030864197530864196,0,0,0.030864197530864196,41.32716049382716,0)" xlink:href="#y"/></g><g id="s"><use transform="matrix(0.030864197530864196,0,0,0.030864197530864196,0,0)" xlink:href="#D"/><use transform="matrix(0.030864197530864196,0,0,0.030864197530864196,7.4074074074074066,0)" xlink:href="#z"/><use transform="matrix(0.030864197530864196,0,0,0.030864197530864196,10.493827160493826,0)" xlink:href="#G"/><use transform="matrix(0.030864197530864196,0,0,0.030864197530864196,16.666666666666664,0)" xlink:href="#A"/><use transform="matrix(0.030864197530864196,0,0,0.030864197530864196,20.339506172839503,0)" xlink:href="#y"/><use transform="matrix(0.030864197530864196,0,0,0.030864197530864196,26.51234567901234,0)" xlink:href="#O"/></g><g id="t"><use transform="matrix(0.030864197530864196,0,0,0.030864197530864196,0,0)" xlink:href="#J"/><use transform="matrix(0.030864197530864196,0,0,0.030864197530864196,7.993827160493827,0)" xlink:href="#E"/><use transform="matrix(0.030864197530864196,0,0,0.030864197530864196,14.166666666666666,0)" xlink:href="#z"/><use transform="matrix(0.030864197530864196,0,0,0.030864197530864196,17.253086419753085,0)" xlink:href="#E"/></g><g id="u"><use transform="matrix(0.030864197530864196,0,0,0.030864197530864196,0,0)" xlink:href="#Y"/><use transform="matrix(0.030864197530864196,0,0,0.030864197530864196,7.993827160493827,0)" xlink:href="#G"/></g><g id="v"><use transform="matrix(0.030864197530864196,0,0,0.030864197530864196,0,0)" xlink:href="#D"/><use transform="matrix(0.030864197530864196,0,0,0.030864197530864196,7.4074074074074066,0)" xlink:href="#z"/><use transform="matrix(0.030864197530864196,0,0,0.030864197530864196,10.493827160493826,0)" xlink:href="#G"/><use transform="matrix(0.030864197530864196,0,0,0.030864197530864196,16.666666666666664,0)" xlink:href="#A"/><use transform="matrix(0.030864197530864196,0,0,0.030864197530864196,20.339506172839503,0)" xlink:href="#y"/></g><path fill="#3a414a" d="M101-234c-31-9-42 10-38 44h38v23H63V0H32v-167H5v-23h27c-7-52 17-82 69-68v24" id="aa"/><path fill="#3a414a" d="M210-169c-67 3-38 105-44 169h-31v-121c0-29-5-50-35-48C34-165 62-65 56 0H25l-1-190h30c1 10-1 24 2 32 10-44 99-50 107 0 11-21 27-35 58-36 85-2 47 119 55 194h-31v-121c0-29-5-49-35-48" id="ab"/><g id="w"><use transform="matrix(0.030864197530864196,0,0,0.030864197530864196,0,0)" xlink:href="#M"/><use transform="matrix(0.030864197530864196,0,0,0.030864197530864196,3.0864197530864197,0)" xlink:href="#I"/><use transform="matrix(0.030864197530864196,0,0,0.030864197530864196,9.25925925925926,0)" xlink:href="#aa"/><use transform="matrix(0.030864197530864196,0,0,0.030864197530864196,12.345679012345679,0)" xlink:href="#G"/><use transform="matrix(0.030864197530864196,0,0,0.030864197530864196,18.51851851851852,0)" xlink:href="#A"/><use transform="matrix(0.030864197530864196,0,0,0.030864197530864196,22.191358024691358,0)" xlink:href="#ab"/><use transform="matrix(0.030864197530864196,0,0,0.030864197530864196,31.419753086419753,0)" xlink:href="#E"/><use transform="matrix(0.030864197530864196,0,0,0.030864197530864196,37.592592592592595,0)" xlink:href="#z"/><use transform="matrix(0.030864197530864196,0,0,0.030864197530864196,40.67901234567901,0)" xlink:href="#B"/><use transform="matrix(0.030864197530864196,0,0,0.030864197530864196,43.117283950617285,0)" xlink:href="#G"/><use transform="matrix(0.030864197530864196,0,0,0.030864197530864196,49.29012345679013,0)" xlink:href="#I"/></g></defs></g></svg>