<svg xmlns="http://www.w3.org/2000/svg" xmlns:xlink="http://www.w3.org/1999/xlink" xmlns:lucid="lucid" width="912" height="1323"><g transform="translate(-180 324)" lucid:page-tab-id="0_0"><path d="M661.05-309.93c17.67 0 32 13.43 32 30s-14.33 30-32 30h-96c-17.68 0-32-13.43-32-30s14.32-30 32-30z" stroke="#c92d39" fill="#fff"/><use xlink:href="#a" transform="matrix(1,0,0,1,538.0461001520916,-304.9333333333332) translate(56.02500000000001 30.02499999999999)"/><path d="M613.05-248.93v22.13" stroke="#3a414a" fill="none"/><path d="M613.55-248.92h-1v-.5h1z" stroke="#3a414a" stroke-width=".05" fill="#3a414a"/><path d="M613.05-212.03l-4.64-14.27h9.28z" stroke="#3a414a" fill="#3a414a"/><path d="M488.73-207.06a43.03 43.03 0 0 1 15.46-2.87h264.65c21.5 0 38.95 13.43 38.95 30s-17.44 30-38.95 30H504.2a43.03 43.03 0 0 1-15.47-2.88l-62.97-24.26a3.08 3.08 0 0 1 0-5.75z" stroke="#3a414a" fill="#fff"/><use xlink:href="#b" transform="matrix(1,0,0,1,423.2917818972667,-204.93333333333322) translate(80.33 30.025)"/><use xlink:href="#c" transform="matrix(1,0,0,1,423.2917818972667,-204.93333333333322) translate(123.88 30.025)"/><use xlink:href="#d" transform="matrix(1,0,0,1,423.2917818972667,-204.93333333333322) translate(218.73000000000002 30.025)"/><use xlink:href="#e" transform="matrix(1,0,0,1,423.2917818972667,-204.93333333333322) translate(270.73 30.025)"/><path d="M614.4-148.93v23.65" stroke="#3a414a" fill="none"/><path d="M614.9-148.92h-1v-.5h1z" stroke="#3a414a" stroke-width=".05" fill="#3a414a"/><path d="M614.4-110.52l-4.63-14.26h9.27z" stroke="#3a414a" fill="#3a414a"/><path d="M606.97-106.97a20.08 20.08 0 0 1 14.86 0l85.54 34.08a3.2 3.2 0 0 1 0 5.93L621.83-32.9a20.08 20.08 0 0 1-14.86 0l-85.54-34.07a3.2 3.2 0 0 1 0-5.92z" stroke="#3a414a" fill="#fff"/><use xlink:href="#f" transform="matrix(1,0,0,1,518.9991864803491,-104.93333333333322) translate(41.03 38.4625)"/><use xlink:href="#g" transform="matrix(1,0,0,1,518.9991864803491,-104.93333333333322) translate(60.03 38.4625)"/><path d="M614.4-30.47v44.4" stroke="#54c45e" fill="none"/><path d="M614.4-30.97l.5-.02v.54h-1V-31z" stroke="#54c45e" stroke-width=".05" fill="#54c45e"/><path d="M614.4 28.7l-4.63-14.27h9.27z" stroke="#54c45e" fill="#54c45e"/><use xlink:href="#h" transform="matrix(1,0,0,1,577.050486476231,-11.126107458460655) translate(0.005000000000000782 14.4)"/><path d="M484 38.77a8 8 0 0 1 8-8h244.8a8 8 0 0 1 8 8v51.2a8 8 0 0 1-8 8H492a8 8 0 0 1-8-8z" stroke="#3a414a" fill="#fff"/><use xlink:href="#i" transform="matrix(1,0,0,1,495.99918652692804,42.76666666666671) translate(2.2749999999999915 25.4)"/><use xlink:href="#j" transform="matrix(1,0,0,1,495.99918652692804,42.76666666666671) translate(30.074999999999992 25.4)"/><use xlink:href="#k" transform="matrix(1,0,0,1,495.99918652692804,42.76666666666671) translate(64.07499999999999 25.4)"/><use xlink:href="#l" transform="matrix(1,0,0,1,495.99918652692804,42.76666666666671) translate(100.02499999999999 25.4)"/><use xlink:href="#m" transform="matrix(1,0,0,1,495.99918652692804,42.76666666666671) translate(192.875 25.4)"/><path d="M614.4 98.92V123.93" stroke="#3a414a" fill="none"/><path d="M614.9 98.93h-1v-.5h1z" stroke="#3a414a" stroke-width=".05" fill="#3a414a"/><path d="M614.4 138.7l-4.63-14.27h9.27z" stroke="#3a414a" fill="#3a414a"/><path d="M524.2 148.77a8 8 0 0 1 8-8h164.4a8 8 0 0 1 8 8v51.2a8 8 0 0 1-8 8H532.2a8 8 0 0 1-8-8z" stroke="#3a414a" fill="#fff"/><use xlink:href="#n" transform="matrix(1,0,0,1,536.1998365375739,152.7666666666667) translate(0.125 25.4)"/><use xlink:href="#o" transform="matrix(1,0,0,1,536.1998365375739,152.7666666666667) translate(94.025 25.4)"/><use xlink:href="#p" transform="matrix(1,0,0,1,536.1998365375739,152.7666666666667) translate(118.025 25.4)"/><path d="M614.4 208.92v25.85" stroke="#3a414a" fill="none"/><path d="M614.9 208.93h-1v-.5h1z" stroke="#3a414a" stroke-width=".05" fill="#3a414a"/><path d="M614.4 249.53l-4.63-14.26h9.27z" stroke="#3a414a" fill="#3a414a"/><path d="M607 253.12a19.4 19.4 0 0 1 14.8 0l85.6 35.3a3.3 3.3 0 0 1 0 6.1l-85.6 35.3a19.4 19.4 0 0 1-14.8 0l-85.6-35.3a3.3 3.3 0 0 1 0-6.1z" stroke="#3a414a" fill="#fff"/><use xlink:href="#q" transform="matrix(1,0,0,1,518.9991865803231,255.06666666666678) translate(47.605000000000004 39.49375)"/><use xlink:href="#r" transform="matrix(1,0,0,1,518.9991865803231,255.06666666666678) translate(94.555 39.49375)"/><path d="M614.4 332.28v20.96" stroke="#54c45e" fill="none"/><path d="M614.4 331.78l.5-.02v.54h-1v-.54z" stroke="#54c45e" stroke-width=".05" fill="#54c45e"/><path d="M614.4 368l-4.63-14.26h9.27z" stroke="#54c45e" fill="#54c45e"/><use xlink:href="#h" transform="matrix(1,0,0,1,572.4152316471398,339.903786841081) translate(0.005000000000000782 14.4)"/><path d="M914.65 290.07c-8.84 0-16 13.43-16 30s7.16 30 16 30h-144c-8.84 0-16-13.43-16-30s7.16-30 16-30z" stroke="#3a414a" fill="#fff"/><use xlink:href="#s" transform="matrix(1,0,0,1,759.6512999493027,295.0666666666668) translate(21.549999999999997 30.025)"/><use xlink:href="#t" transform="matrix(1,0,0,1,759.6512999493027,295.0666666666668) translate(79.5 30.025)"/><path d="M1024.8 119.93v72.57a12 12 0 0 1-12 12H846.65a12 12 0 0 0-12 12v56.68" stroke="#3a414a" fill="none"/><path d="M1025.3 119.94h-1v-.37l1-.28z" stroke="#3a414a" stroke-width=".05" fill="#3a414a"/><path d="M834.65 287.95l-4.63-14.27h9.27z" stroke="#3a414a" fill="#3a414a"/><use xlink:href="#u" transform="matrix(1,0,0,1,903.0474484037679,208.4989834710634) translate(0.005000000000002558 14.4)"/><path d="M745.75 64.37H897.77" stroke="#3a414a" fill="none"/><path d="M745.77 64.87h-.52v-1h.52z" stroke="#3a414a" stroke-width=".05" fill="#3a414a"/><path d="M912.53 64.37L898.27 69v-9.27z" stroke="#3a414a" fill="#3a414a"/><path d="M1034.65 112.37c0 6.62-26.86 12-60 12s-60-5.38-60-12v-96c0-6.63 26.86-12 60-12s60 5.37 60 12z" stroke="#3a414a" fill="#fff"/><path d="M1034.65 16.37c0 6.62-26.86 12-60 12s-60-5.38-60-12" stroke="#3a414a" fill="none"/><use xlink:href="#v" transform="matrix(1,0,0,1,919.6512999493027,33.36666666666673) translate(16.525 46.65)"/><path d="M705.55 174.37h257.1a12 12 0 0 0 12-12v-21.12" stroke="#3a414a" fill="none"/><path d="M705.57 174.87h-.52v-1h.52z" stroke="#3a414a" stroke-width=".05" fill="#3a414a"/><path d="M974.65 126.48l4.64 14.27H970z" stroke="#3a414a" fill="#3a414a"/><path d="M753.85 38.77a8 8 0 0 1 8-8h134.4a8 8 0 0 1 8 8v7.43a8 8 0 0 1-8 8h-134.4a8 8 0 0 1-8-8z" stroke="#000" stroke-opacity="0" fill="#fff" fill-opacity="0"/><use xlink:href="#w" transform="matrix(1,0,0,1,758.8487000506972,35.76666666666671) translate(1.5999999999999943 14.4)"/><use xlink:href="#x" transform="matrix(1,0,0,1,758.8487000506972,35.76666666666671) translate(49.55 14.4)"/><path d="M753.85 158.07a8 8 0 0 1 8-8h134.4a8 8 0 0 1 8 8v7.43a8 8 0 0 1-8 8h-134.4a8 8 0 0 1-8-8z" stroke="#000" stroke-opacity="0" fill="#fff" fill-opacity="0"/><use xlink:href="#w" transform="matrix(1,0,0,1,758.8487000506972,155.06666666666678) translate(27.099999999999994 14.4)"/><use xlink:href="#p" transform="matrix(1,0,0,1,758.8487000506972,155.06666666666678) translate(75.05 14.4)"/><path d="M518.35 291.47h-27.5a12 12 0 0 0-12 12v33.2a12 12 0 0 1-12 12h-71a12 12 0 0 1-12-12V76.37a12 12 0 0 1 12-12h71.3" stroke="#e81313" fill="none"/><path d="M518.85 291.47l.06.5h-.56v-1h.57z" stroke="#e81313" stroke-width=".05" fill="#e81313"/><path d="M481.93 64.37L467.66 69v-9.27z" stroke="#e81313" fill="#e81313"/><use xlink:href="#y" transform="matrix(1,0,0,1,352.8987000506973,238.0086316580197) translate(0.005000000000000782 14.4)"/><path d="M576.98 377.8a10.4 10.4 0 0 1 10.06-7.73h81.98a6.15 6.15 0 0 1 5.94 7.73l-8.46 31.74a10.4 10.4 0 0 1-10.06 7.73h-82a6.15 6.15 0 0 1-5.93-7.73z" stroke="#3a414a" fill="#fff"/><use xlink:href="#z" transform="matrix(1,0,0,1,571.4498004406025,375.06666666666666) translate(30.58 21.525)"/><path d="M621.74 418.22V473.23" stroke="#3a414a" fill="none"/><path d="M622.24 418.23h-1v-.5h1z" stroke="#3a414a" stroke-width=".05" fill="#3a414a"/><path d="M621.74 488l-4.64-14.27h9.27z" stroke="#3a414a" fill="#3a414a"/><path d="M534.82 498.07a8 8 0 0 1 8-8h157.84a8 8 0 0 1 8 8v51.2a8 8 0 0 1-8 8H542.82a8 8 0 0 1-8-8z" stroke="#3a414a" fill="#fff"/><use xlink:href="#A" transform="matrix(1,0,0,1,546.8178307230137,502.0666666666668) translate(0.09999999999999432 25.4)"/><use xlink:href="#B" transform="matrix(1,0,0,1,546.8178307230137,502.0666666666668) translate(62.05 25.4)"/><path d="M621.74 558.22v34.99" stroke="#3a414a" fill="none"/><path d="M622.24 558.23h-1v-.5h1z" stroke="#3a414a" stroke-width=".05" fill="#3a414a"/><path d="M621.74 607.98l-4.64-14.27h9.27z" stroke="#3a414a" fill="#3a414a"/><path d="M559.36 615.07a22.77 22.77 0 0 1 14.24-5h122.98c10.34 0 18.7 13.43 18.7 30s-8.36 30-18.7 30H573.6a22.77 22.77 0 0 1-14.24-5l-24.94-20a6.4 6.4 0 0 1 0-10z" stroke="#3a414a" fill="#fff"/><use xlink:href="#C" transform="matrix(1,0,0,1,533.179025045478,615.0666666666668) translate(20.104999999999997 30.025)"/><use xlink:href="#D" transform="matrix(1,0,0,1,533.179025045478,615.0666666666668) translate(78.055 30.025)"/><path d="M899.65 320.07h27.5a12 12 0 0 1 12 12v296a12 12 0 0 1-12 12H732.18" stroke="#3a414a" fill="none"/><path d="M899.67 320.57h-.48l-.05-.5.02-.5h.5z" stroke="#3a414a" stroke-width=".05" fill="#3a414a"/><path d="M717.4 640.07l14.28-4.64v9.27z" stroke="#3a414a" fill="#3a414a"/><use xlink:href="#E" transform="matrix(1,0,0,1,772.9761566586265,614.4666666666669) translate(0.005000000000002558 14.4)"/><path d="M709.6 523.67h113.05a12 12 0 0 0 12-12V366.95" stroke="#3a414a" fill="none"/><path d="M709.62 524.17h-.5v-1h.5z" stroke="#3a414a" stroke-width=".05" fill="#3a414a"/><path d="M834.65 352.18l4.64 14.27H830z" stroke="#3a414a" fill="#3a414a"/><path d="M623.1 671.07v42.16" stroke="#3a414a" fill="none"/><path d="M623.6 671.08h-1v-.5h1z" stroke="#3a414a" stroke-width=".05" fill="#3a414a"/><path d="M623.1 728l-4.64-14.27h9.27z" stroke="#3a414a" fill="#3a414a"/><path d="M543.1 738.07a8 8 0 0 1 8-8h144a8 8 0 0 1 8 8v44a8 8 0 0 1-8 8h-144a8 8 0 0 1-8-8z" stroke="#3a414a" fill="#fff"/><use xlink:href="#F" transform="matrix(1,0,0,1,555.0985657031775,742.0666666666668) translate(14.549999999999997 21.15)"/><use xlink:href="#G" transform="matrix(1,0,0,1,555.0985657031775,742.0666666666668) translate(50.5 21.15)"/><path d="M704.05 760.07h359.1a12 12 0 0 0 12-12V76.37a12 12 0 0 0-12-12h-11.6" stroke="#3a414a" fill="none"/><path d="M704.06 760.57h-.5v-1h.5z" stroke="#3a414a" stroke-width=".05" fill="#3a414a"/><path d="M1036.77 64.37l14.27-4.64V69z" stroke="#3a414a" fill="#3a414a"/><path d="M823.85 738.07a8 8 0 0 1 8-8h134.4a8 8 0 0 1 8 8v7.43a8 8 0 0 1-8 8h-134.4a8 8 0 0 1-8-8z" stroke="#fff" fill="#fff" fill-opacity="0"/><use xlink:href="#w" transform="matrix(1,0,0,1,828.8487000506973,735.0666666666668) translate(1.5999999999999943 14.4)"/><use xlink:href="#x" transform="matrix(1,0,0,1,828.8487000506973,735.0666666666668) translate(49.55 14.4)"/><path d="M623.1 791.02v22.2" stroke="#3a414a" fill="none"/><path d="M623.6 791.03h-1v-.5h1z" stroke="#3a414a" stroke-width=".05" fill="#3a414a"/><path d="M623.1 827.98l-4.64-14.27h9.27z" stroke="#3a414a" fill="#3a414a"/><path d="M551.33 834.47a26.67 26.67 0 0 1 14.68-4.4H709.9c12 0 21.7 12.8 21.7 28.6s-9.7 28.6-21.7 28.6H566a26.67 26.67 0 0 1-14.67-4.4l-30.03-19.8a5.27 5.27 0 0 1 0-8.8z" stroke="#3a414a" fill="#fff"/><use xlink:href="#H" transform="matrix(1,0,0,1,519.6161345347928,835.0666666666668) translate(34.70499999999999 26.4)"/><use xlink:href="#I" transform="matrix(1,0,0,1,519.6161345347928,835.0666666666668) translate(141.455 26.4)"/><path d="M571.78 393.67h-43.94a12 12 0 0 0-12 12v12.4a12 12 0 0 1-12 12H475.8" stroke="#3a414a" fill="none"/><path d="M572.15 394.17h-.4v-1h.66z" stroke="#3a414a" stroke-width=".05" fill="#3a414a"/><path d="M461.03 430.07l14.26-4.64v9.27z" stroke="#3a414a" fill="#3a414a"/><path d="M376.7 393.64a16 16 0 0 1 14.3 0l65.7 32.85a4 4 0 0 1 0 7.14L391 466.5a16 16 0 0 1-14.3 0L311 433.63a4 4 0 0 1 0-7.15z" stroke="#3a414a" fill="#fff"/><use xlink:href="#J" transform="matrix(1,0,0,1,308.8487000506973,395.0666666666668) translate(41.23 38.4625)"/><use xlink:href="#K" transform="matrix(1,0,0,1,308.8487000506973,395.0666666666668) translate(60.23 38.4625)"/><path d="M307.8 430.07h-27.5a12 12 0 0 0-12 12v69.6a12 12 0 0 0 12 12h237.68" stroke="#54c45e" fill="none"/><path d="M308.3 430.07l.05.5h-.57v-1h.57z" stroke="#54c45e" stroke-width=".05" fill="#54c45e"/><path d="M532.75 523.67l-14.27 4.63v-9.27z" stroke="#54c45e" fill="#54c45e"/><g><use xlink:href="#L" transform="matrix(1,0,0,1,276.2899516623032,472.2666666666668) translate(0.005000000000000782 14.4)"/></g><path d="M383.85 390.95v-9.5a12 12 0 0 0-12-12h-126a12 12 0 0 1-12-12V2.35a12 12 0 0 1 12-12H520.7a12 12 0 0 1 12 12v11.6" stroke="#e81313" fill="none"/><path d="M384.35 391.48l-.5-.03-.5.03v-.54h1z" stroke="#e81313" stroke-width=".05" fill="#e81313"/><path d="M532.7 28.73l-4.62-14.27h9.27z" stroke="#e81313" fill="#e81313"/><g><use xlink:href="#M" transform="matrix(1,0,0,1,309.37370005069727,343.85468292826454) translate(0.005000000000000782 14.4)"/></g><path d="M624.65 888.27v24.9" stroke="#3a414a" fill="none"/><path d="M625.15 888.28h-1v-.5h1z" stroke="#3a414a" stroke-width=".05" fill="#3a414a"/><path d="M624.65 927.95L620 913.68h9.28z" stroke="#3a414a" fill="#3a414a"/><path d="M672.65 930.07c17.67 0 32 12.8 32 28.6s-14.33 28.6-32 28.6h-96c-17.68 0-32-12.8-32-28.6s14.32-28.6 32-28.6z" stroke="#c92d39" fill="#fff"/><g><use xlink:href="#N" transform="matrix(1,0,0,1,549.6475422821115,935.0666666666668) translate(56.5 26.4)"/></g><path d="M383.85 469.18v27.5a12 12 0 0 0 12 12h106a12 12 0 0 0 12-12v-34.6a12 12 0 0 1 12-12h286a12 12 0 0 0 12-12v-36a12 12 0 0 0-12-12h-85.7a12 12 0 0 1-12-12v-46a12 12 0 0 1 12-12h11.62" stroke="#3a414a" fill="none"/><path d="M383.85 468.68l.5-.02v.53h-1v-.54z" stroke="#3a414a" stroke-width=".05" fill="#3a414a"/><path d="M752.53 320.07l-14.26 4.63v-9.27z" stroke="#3a414a" fill="#3a414a"/><g><use xlink:href="#E" transform="matrix(1,0,0,1,683.7834493069347,424.46666666666675) translate(0.005000000000002558 14.4)"/></g><path d="M518.42-69.93H205.85a12 12 0 0 0-12 12v1004.6a12 12 0 0 0 12 12h321.9" stroke="#e81313" fill="none"/><path d="M518.92-69.93l.06.5h-.57v-1h.58z" stroke="#e81313" stroke-width=".05" fill="#e81313"/><path d="M542.53 958.67l-14.27 4.63v-9.27z" stroke="#e81313" fill="#e81313"/><g><use xlink:href="#M" transform="matrix(1,0,0,1,362.37370005069727,-95.53333333333322) translate(0.005000000000000782 14.4)"/></g><defs><path fill="#3a414a" d="M185-189c-5-48-123-54-124 2 14 75 158 14 163 119 3 78-121 87-175 55-17-10-28-26-33-46l33-7c5 56 141 63 141-1 0-78-155-14-162-118-5-82 145-84 179-34 5 7 8 16 11 25" id="O"/><path fill="#3a414a" d="M59-47c-2 24 18 29 38 22v24C64 9 27 4 27-40v-127H5v-23h24l9-43h21v43h35v23H59v120" id="P"/><path fill="#3a414a" d="M141-36C126-15 110 5 73 4 37 3 15-17 15-53c-1-64 63-63 125-63 3-35-9-54-41-54-24 1-41 7-42 31l-33-3c5-37 33-52 76-52 45 0 72 20 72 64v82c-1 20 7 32 28 27v20c-31 9-61-2-59-35zM48-53c0 20 12 33 32 33 41-3 63-29 60-74-43 2-92-5-92 41" id="Q"/><path fill="#3a414a" d="M114-163C36-179 61-72 57 0H25l-1-190h30c1 12-1 29 2 39 6-27 23-49 58-41v29" id="R"/><g id="a"><use transform="matrix(0.04999999999999996,0,0,0.04999999999999996,0,0)" xlink:href="#O"/><use transform="matrix(0.04999999999999996,0,0,0.04999999999999996,11.999999999999991,0)" xlink:href="#P"/><use transform="matrix(0.04999999999999996,0,0,0.04999999999999996,16.999999999999986,0)" xlink:href="#Q"/><use transform="matrix(0.04999999999999996,0,0,0.04999999999999996,26.99999999999998,0)" xlink:href="#R"/><use transform="matrix(0.04999999999999996,0,0,0.04999999999999996,32.949999999999974,0)" xlink:href="#P"/></g><path fill="#3a414a" d="M137 0h-34L2-248h35l83 218 83-218h36" id="S"/><path fill="#3a414a" d="M24-231v-30h32v30H24zM24 0v-190h32V0H24" id="T"/><path fill="#3a414a" d="M100-194c63 0 86 42 84 106H49c0 40 14 67 53 68 26 1 43-12 49-29l28 8c-11 28-37 45-77 45C44 4 14-33 15-96c1-61 26-98 85-98zm52 81c6-60-76-77-97-28-3 7-6 17-6 28h103" id="U"/><path fill="#3a414a" d="M206 0h-36l-40-164L89 0H53L-1-190h32L70-26l43-164h34l41 164 42-164h31" id="V"/><g id="b"><use transform="matrix(0.05,0,0,0.05,0,0)" xlink:href="#S"/><use transform="matrix(0.05,0,0,0.05,11.65,0)" xlink:href="#T"/><use transform="matrix(0.05,0,0,0.05,15.600000000000001,0)" xlink:href="#U"/><use transform="matrix(0.05,0,0,0.05,25.6,0)" xlink:href="#V"/></g><path fill="#3a414a" d="M33 0v-248h34V0H33" id="W"/><path fill="#3a414a" d="M117-194c89-4 53 116 60 194h-32v-121c0-31-8-49-39-48C34-167 62-67 57 0H25l-1-190h30c1 10-1 24 2 32 11-22 29-35 61-36" id="X"/><path fill="#3a414a" d="M101-234c-31-9-42 10-38 44h38v23H63V0H32v-167H5v-23h27c-7-52 17-82 69-68v24" id="Y"/><path fill="#3a414a" d="M100-194c62-1 85 37 85 99 1 63-27 99-86 99S16-35 15-95c0-66 28-99 85-99zM99-20c44 1 53-31 53-75 0-43-8-75-51-75s-53 32-53 75 10 74 51 75" id="Z"/><path fill="#3a414a" d="M210-169c-67 3-38 105-44 169h-31v-121c0-29-5-50-35-48C34-165 62-65 56 0H25l-1-190h30c1 10-1 24 2 32 10-44 99-50 107 0 11-21 27-35 58-36 85-2 47 119 55 194h-31v-121c0-29-5-49-35-48" id="aa"/><g id="c"><use transform="matrix(0.05,0,0,0.05,0,0)" xlink:href="#W"/><use transform="matrix(0.05,0,0,0.05,5,0)" xlink:href="#X"/><use transform="matrix(0.05,0,0,0.05,15,0)" xlink:href="#Y"/><use transform="matrix(0.05,0,0,0.05,20,0)" xlink:href="#Z"/><use transform="matrix(0.05,0,0,0.05,30,0)" xlink:href="#R"/><use transform="matrix(0.05,0,0,0.05,35.95,0)" xlink:href="#aa"/><use transform="matrix(0.05,0,0,0.05,50.900000000000006,0)" xlink:href="#Q"/><use transform="matrix(0.05,0,0,0.05,60.900000000000006,0)" xlink:href="#P"/><use transform="matrix(0.05,0,0,0.05,65.9,0)" xlink:href="#T"/><use transform="matrix(0.05,0,0,0.05,69.85000000000001,0)" xlink:href="#Z"/><use transform="matrix(0.05,0,0,0.05,79.85000000000001,0)" xlink:href="#X"/></g><path fill="#3a414a" d="M205 0l-28-72H64L36 0H1l101-248h38L239 0h-34zm-38-99l-47-123c-12 45-31 82-46 123h93" id="ab"/><path fill="#3a414a" d="M115-194c53 0 69 39 70 98 0 66-23 100-70 100C84 3 66-7 56-30L54 0H23l1-261h32v101c10-23 28-34 59-34zm-8 174c40 0 45-34 45-75 0-40-5-75-45-74-42 0-51 32-51 76 0 43 10 73 51 73" id="ac"/><path fill="#3a414a" d="M84 4C-5 8 30-112 23-190h32v120c0 31 7 50 39 49 72-2 45-101 50-169h31l1 190h-30c-1-10 1-25-2-33-11 22-28 36-60 37" id="ad"/><g id="d"><use transform="matrix(0.05,0,0,0.05,0,0)" xlink:href="#ab"/><use transform="matrix(0.05,0,0,0.05,12,0)" xlink:href="#ac"/><use transform="matrix(0.05,0,0,0.05,22,0)" xlink:href="#Z"/><use transform="matrix(0.05,0,0,0.05,32,0)" xlink:href="#ad"/><use transform="matrix(0.05,0,0,0.05,42,0)" xlink:href="#P"/></g><path fill="#3a414a" d="M96-169c-40 0-48 33-48 73s9 75 48 75c24 0 41-14 43-38l32 2c-6 37-31 61-74 61-59 0-76-41-82-99-10-93 101-131 147-64 4 7 5 14 7 22l-32 3c-4-21-16-35-41-35" id="ae"/><path fill="#3a414a" d="M106-169C34-169 62-67 57 0H25v-261h32l-1 103c12-21 28-36 61-36 89 0 53 116 60 194h-32v-121c2-32-8-49-39-48" id="af"/><path fill="#3a414a" d="M24 0v-261h32V0H24" id="ag"/><g id="e"><use transform="matrix(0.05,0,0,0.05,0,0)" xlink:href="#O"/><use transform="matrix(0.05,0,0,0.05,12,0)" xlink:href="#ae"/><use transform="matrix(0.05,0,0,0.05,21,0)" xlink:href="#af"/><use transform="matrix(0.05,0,0,0.05,31,0)" xlink:href="#Z"/><use transform="matrix(0.05,0,0,0.05,41,0)" xlink:href="#Z"/><use transform="matrix(0.05,0,0,0.05,51,0)" xlink:href="#ag"/></g><path fill="#3a414a" d="M135-143c-3-34-86-38-87 0 15 53 115 12 119 90S17 21 10-45l28-5c4 36 97 45 98 0-10-56-113-15-118-90-4-57 82-63 122-42 12 7 21 19 24 35" id="ah"/><g id="f"><use transform="matrix(0.05,0,0,0.05,0,0)" xlink:href="#W"/><use transform="matrix(0.05,0,0,0.05,5,0)" xlink:href="#ah"/></g><path fill="#3a414a" d="M85-194c31 0 48 13 60 33l-1-100h32l1 261h-30c-2-10 0-23-3-31C134-8 116 4 85 4 32 4 16-35 15-94c0-66 23-100 70-100zm9 24c-40 0-46 34-46 75 0 40 6 74 45 74 42 0 51-32 51-76 0-42-9-74-50-73" id="ai"/><path fill="#3a414a" d="M103-251c84 0 111 97 45 133-19 10-37 24-39 52H78c0-63 77-55 77-114 0-30-21-42-52-43-32 0-53 17-56 46l-32-2c7-45 34-72 88-72zM77 0v-35h34V0H77" id="aj"/><g id="g"><use transform="matrix(0.05,0,0,0.05,0,0)" xlink:href="#W"/><use transform="matrix(0.05,0,0,0.05,5,0)" xlink:href="#X"/><use transform="matrix(0.05,0,0,0.05,15,0)" xlink:href="#P"/><use transform="matrix(0.05,0,0,0.05,20,0)" xlink:href="#U"/><use transform="matrix(0.05,0,0,0.05,30,0)" xlink:href="#R"/><use transform="matrix(0.05,0,0,0.05,35.95,0)" xlink:href="#U"/><use transform="matrix(0.05,0,0,0.05,45.95,0)" xlink:href="#ah"/><use transform="matrix(0.05,0,0,0.05,54.95,0)" xlink:href="#P"/><use transform="matrix(0.05,0,0,0.05,59.95,0)" xlink:href="#U"/><use transform="matrix(0.05,0,0,0.05,69.95,0)" xlink:href="#ai"/><use transform="matrix(0.05,0,0,0.05,79.95,0)" xlink:href="#aj"/></g><path fill="#3a414a" d="M137-103V0h-34v-103L8-248h37l75 118 75-118h37" id="ak"/><g id="h"><use transform="matrix(0.05,0,0,0.05,0,0)" xlink:href="#ak"/><use transform="matrix(0.05,0,0,0.05,10.35,0)" xlink:href="#U"/><use transform="matrix(0.05,0,0,0.05,20.35,0)" xlink:href="#ah"/></g><path fill="#3a414a" d="M63-220v92h138v28H63V0H30v-248h175v28H63" id="al"/><g id="i"><use transform="matrix(0.05,0,0,0.05,0,0)" xlink:href="#al"/><use transform="matrix(0.05,0,0,0.05,10.950000000000001,0)" xlink:href="#T"/><use transform="matrix(0.05,0,0,0.05,14.9,0)" xlink:href="#ag"/><use transform="matrix(0.05,0,0,0.05,18.85,0)" xlink:href="#ag"/></g><path fill="#3a414a" d="M140-251c81 0 123 46 123 126C263-46 219 4 140 4 59 4 17-45 17-125s42-126 123-126zm0 227c63 0 89-41 89-101s-29-99-89-99c-61 0-89 39-89 99S79-25 140-24" id="am"/><g id="j"><use transform="matrix(0.05,0,0,0.05,0,0)" xlink:href="#am"/><use transform="matrix(0.05,0,0,0.05,14,0)" xlink:href="#ad"/><use transform="matrix(0.05,0,0,0.05,24,0)" xlink:href="#P"/></g><path fill="#3a414a" d="M127-220V0H93v-220H8v-28h204v28h-85" id="an"/><g id="k"><use transform="matrix(0.05,0,0,0.05,0,0)" xlink:href="#an"/><use transform="matrix(0.05,0,0,0.05,10.950000000000001,0)" xlink:href="#af"/><use transform="matrix(0.05,0,0,0.05,20.950000000000003,0)" xlink:href="#U"/></g><path fill="#3a414a" d="M115-194c55 1 70 41 70 98S169 2 115 4C84 4 66-9 55-30l1 105H24l-1-265h31l2 30c10-21 28-34 59-34zm-8 174c40 0 45-34 45-75s-6-73-45-74c-42 0-51 32-51 76 0 43 10 73 51 73" id="ao"/><g id="l"><use transform="matrix(0.05,0,0,0.05,0,0)" xlink:href="#ab"/><use transform="matrix(0.05,0,0,0.05,12,0)" xlink:href="#ao"/><use transform="matrix(0.05,0,0,0.05,22,0)" xlink:href="#ao"/><use transform="matrix(0.05,0,0,0.05,32,0)" xlink:href="#ag"/><use transform="matrix(0.05,0,0,0.05,35.95,0)" xlink:href="#T"/><use transform="matrix(0.05,0,0,0.05,39.900000000000006,0)" xlink:href="#ae"/><use transform="matrix(0.05,0,0,0.05,48.900000000000006,0)" xlink:href="#Q"/><use transform="matrix(0.05,0,0,0.05,58.900000000000006,0)" xlink:href="#P"/><use transform="matrix(0.05,0,0,0.05,63.900000000000006,0)" xlink:href="#T"/><use transform="matrix(0.05,0,0,0.05,67.85000000000001,0)" xlink:href="#Z"/><use transform="matrix(0.05,0,0,0.05,77.85000000000001,0)" xlink:href="#X"/></g><g id="m"><use transform="matrix(0.05,0,0,0.05,0,0)" xlink:href="#al"/><use transform="matrix(0.05,0,0,0.05,10.950000000000001,0)" xlink:href="#Z"/><use transform="matrix(0.05,0,0,0.05,20.950000000000003,0)" xlink:href="#R"/><use transform="matrix(0.05,0,0,0.05,26.900000000000002,0)" xlink:href="#aa"/></g><path fill="#3a414a" d="M143 4C61 4 22-44 18-125c-5-107 100-154 193-111 17 8 29 25 37 43l-32 9c-13-25-37-40-76-40-61 0-88 39-88 99 0 61 29 100 91 101 35 0 62-11 79-27v-45h-74v-28h105v86C228-13 192 4 143 4" id="ap"/><g id="n"><use transform="matrix(0.05,0,0,0.05,0,0)" xlink:href="#ap"/><use transform="matrix(0.05,0,0,0.05,14,0)" xlink:href="#U"/><use transform="matrix(0.05,0,0,0.05,24,0)" xlink:href="#X"/><use transform="matrix(0.05,0,0,0.05,34,0)" xlink:href="#U"/><use transform="matrix(0.05,0,0,0.05,44,0)" xlink:href="#R"/><use transform="matrix(0.05,0,0,0.05,49.95,0)" xlink:href="#Q"/><use transform="matrix(0.05,0,0,0.05,59.95,0)" xlink:href="#P"/><use transform="matrix(0.05,0,0,0.05,64.95,0)" xlink:href="#T"/><use transform="matrix(0.05,0,0,0.05,68.9,0)" xlink:href="#Z"/><use transform="matrix(0.05,0,0,0.05,78.9,0)" xlink:href="#X"/></g><g id="o"><use transform="matrix(0.05,0,0,0.05,0,0)" xlink:href="#am"/><use transform="matrix(0.05,0,0,0.05,14,0)" xlink:href="#Y"/></g><path fill="#3a414a" d="M232-93c-1 65-40 97-104 97C67 4 28-28 28-90v-158h33c8 89-33 224 67 224 102 0 64-133 71-224h33v155" id="aq"/><path fill="#3a414a" d="M233-177c-1 41-23 64-60 70L243 0h-38l-65-103H63V0H30v-248c88 3 205-21 203 71zM63-129c60-2 137 13 137-47 0-61-80-42-137-45v92" id="ar"/><path fill="#3a414a" d="M190 0L58-211 59 0H30v-248h39L202-35l-2-213h31V0h-41" id="as"/><g id="p"><use transform="matrix(0.05,0,0,0.05,0,0)" xlink:href="#aq"/><use transform="matrix(0.05,0,0,0.05,12.950000000000001,0)" xlink:href="#ar"/><use transform="matrix(0.05,0,0,0.05,25.900000000000002,0)" xlink:href="#as"/></g><path fill="#3a414a" d="M197 0v-115H63V0H30v-248h33v105h134v-105h34V0h-34" id="at"/><path fill="#3a414a" d="M108 0H70L1-190h34L89-25l56-165h34" id="au"/><g id="q"><use transform="matrix(0.05,0,0,0.05,0,0)" xlink:href="#at"/><use transform="matrix(0.05,0,0,0.05,12.950000000000001,0)" xlink:href="#Q"/><use transform="matrix(0.05,0,0,0.05,22.950000000000003,0)" xlink:href="#au"/><use transform="matrix(0.05,0,0,0.05,31.950000000000003,0)" xlink:href="#U"/></g><g id="r"><use transform="matrix(0.05,0,0,0.05,0,0)" xlink:href="#aq"/><use transform="matrix(0.05,0,0,0.05,12.950000000000001,0)" xlink:href="#ar"/><use transform="matrix(0.05,0,0,0.05,25.900000000000002,0)" xlink:href="#as"/><use transform="matrix(0.05,0,0,0.05,38.85,0)" xlink:href="#aj"/></g><g id="s"><use transform="matrix(0.05,0,0,0.05,0,0)" xlink:href="#O"/><use transform="matrix(0.05,0,0,0.05,12,0)" xlink:href="#P"/><use transform="matrix(0.05,0,0,0.05,17,0)" xlink:href="#Z"/><use transform="matrix(0.05,0,0,0.05,27,0)" xlink:href="#R"/><use transform="matrix(0.05,0,0,0.05,32.95,0)" xlink:href="#U"/><use transform="matrix(0.05,0,0,0.05,42.95,0)" xlink:href="#ai"/></g><path fill="#3a414a" d="M30-248c118-7 216 8 213 122C240-48 200 0 122 0H30v-248zM63-27c89 8 146-16 146-99s-60-101-146-95v194" id="av"/><g id="t"><use transform="matrix(0.05,0,0,0.05,0,0)" xlink:href="#av"/><use transform="matrix(0.05,0,0,0.05,12.950000000000001,0)" xlink:href="#Q"/><use transform="matrix(0.05,0,0,0.05,22.950000000000003,0)" xlink:href="#P"/><use transform="matrix(0.05,0,0,0.05,27.950000000000003,0)" xlink:href="#Q"/></g><g id="u"><use transform="matrix(0.05,0,0,0.05,0,0)" xlink:href="#ar"/><use transform="matrix(0.05,0,0,0.05,12.950000000000001,0)" xlink:href="#U"/><use transform="matrix(0.05,0,0,0.05,22.950000000000003,0)" xlink:href="#P"/><use transform="matrix(0.05,0,0,0.05,27.950000000000003,0)" xlink:href="#R"/><use transform="matrix(0.05,0,0,0.05,33.900000000000006,0)" xlink:href="#T"/><use transform="matrix(0.05,0,0,0.05,37.85000000000001,0)" xlink:href="#U"/><use transform="matrix(0.05,0,0,0.05,47.85000000000001,0)" xlink:href="#au"/><use transform="matrix(0.05,0,0,0.05,56.85,0)" xlink:href="#U"/></g><g id="v"><use transform="matrix(0.05,0,0,0.05,0,0)" xlink:href="#av"/><use transform="matrix(0.05,0,0,0.05,12.950000000000001,0)" xlink:href="#Q"/><use transform="matrix(0.05,0,0,0.05,22.950000000000003,0)" xlink:href="#P"/><use transform="matrix(0.05,0,0,0.05,27.950000000000003,0)" xlink:href="#Q"/><use transform="matrix(0.05,0,0,0.05,37.95,0)" xlink:href="#ac"/><use transform="matrix(0.05,0,0,0.05,47.95,0)" xlink:href="#Q"/><use transform="matrix(0.05,0,0,0.05,57.95,0)" xlink:href="#ah"/><use transform="matrix(0.05,0,0,0.05,66.95,0)" xlink:href="#U"/></g><g id="w"><use transform="matrix(0.05,0,0,0.05,0,0)" xlink:href="#O"/><use transform="matrix(0.05,0,0,0.05,12,0)" xlink:href="#P"/><use transform="matrix(0.05,0,0,0.05,17,0)" xlink:href="#Z"/><use transform="matrix(0.05,0,0,0.05,27,0)" xlink:href="#R"/><use transform="matrix(0.05,0,0,0.05,32.95,0)" xlink:href="#U"/></g><g id="x"><use transform="matrix(0.05,0,0,0.05,0,0)" xlink:href="#W"/><use transform="matrix(0.05,0,0,0.05,5,0)" xlink:href="#X"/><use transform="matrix(0.05,0,0,0.05,15,0)" xlink:href="#Y"/><use transform="matrix(0.05,0,0,0.05,20,0)" xlink:href="#Z"/><use transform="matrix(0.05,0,0,0.05,30,0)" xlink:href="#R"/><use transform="matrix(0.05,0,0,0.05,35.95,0)" xlink:href="#aa"/><use transform="matrix(0.05,0,0,0.05,50.900000000000006,0)" xlink:href="#Q"/><use transform="matrix(0.05,0,0,0.05,60.900000000000006,0)" xlink:href="#P"/><use transform="matrix(0.05,0,0,0.05,65.9,0)" xlink:href="#T"/><use transform="matrix(0.05,0,0,0.05,69.85000000000001,0)" xlink:href="#Z"/><use transform="matrix(0.05,0,0,0.05,79.85000000000001,0)" xlink:href="#X"/></g><g id="y"><use transform="matrix(0.05,0,0,0.05,0,0)" xlink:href="#as"/><use transform="matrix(0.05,0,0,0.05,12.950000000000001,0)" xlink:href="#Z"/></g><g id="z"><use transform="matrix(0.05,0,0,0.05,0,0)" xlink:href="#aq"/><use transform="matrix(0.05,0,0,0.05,12.950000000000001,0)" xlink:href="#ar"/><use transform="matrix(0.05,0,0,0.05,25.900000000000002,0)" xlink:href="#as"/></g><g id="A"><use transform="matrix(0.05,0,0,0.05,0,0)" xlink:href="#O"/><use transform="matrix(0.05,0,0,0.05,12,0)" xlink:href="#U"/><use transform="matrix(0.05,0,0,0.05,22,0)" xlink:href="#Q"/><use transform="matrix(0.05,0,0,0.05,32,0)" xlink:href="#R"/><use transform="matrix(0.05,0,0,0.05,37.95,0)" xlink:href="#ae"/><use transform="matrix(0.05,0,0,0.05,46.95,0)" xlink:href="#af"/></g><g id="B"><use transform="matrix(0.05,0,0,0.05,0,0)" xlink:href="#ab"/><use transform="matrix(0.05,0,0,0.05,12,0)" xlink:href="#ao"/><use transform="matrix(0.05,0,0,0.05,22,0)" xlink:href="#ao"/><use transform="matrix(0.05,0,0,0.05,32,0)" xlink:href="#ag"/><use transform="matrix(0.05,0,0,0.05,35.95,0)" xlink:href="#T"/><use transform="matrix(0.05,0,0,0.05,39.900000000000006,0)" xlink:href="#ae"/><use transform="matrix(0.05,0,0,0.05,48.900000000000006,0)" xlink:href="#Q"/><use transform="matrix(0.05,0,0,0.05,58.900000000000006,0)" xlink:href="#P"/><use transform="matrix(0.05,0,0,0.05,63.900000000000006,0)" xlink:href="#T"/><use transform="matrix(0.05,0,0,0.05,67.85000000000001,0)" xlink:href="#Z"/><use transform="matrix(0.05,0,0,0.05,77.85000000000001,0)" xlink:href="#X"/></g><g id="C"><use transform="matrix(0.05,0,0,0.05,0,0)" xlink:href="#O"/><use transform="matrix(0.05,0,0,0.05,12,0)" xlink:href="#P"/><use transform="matrix(0.05,0,0,0.05,17,0)" xlink:href="#Z"/><use transform="matrix(0.05,0,0,0.05,27,0)" xlink:href="#R"/><use transform="matrix(0.05,0,0,0.05,32.95,0)" xlink:href="#U"/><use transform="matrix(0.05,0,0,0.05,42.95,0)" xlink:href="#ai"/></g><g id="D"><use transform="matrix(0.05,0,0,0.05,0,0)" xlink:href="#W"/><use transform="matrix(0.05,0,0,0.05,5,0)" xlink:href="#X"/><use transform="matrix(0.05,0,0,0.05,15,0)" xlink:href="#Y"/><use transform="matrix(0.05,0,0,0.05,20,0)" xlink:href="#Z"/><use transform="matrix(0.05,0,0,0.05,30,0)" xlink:href="#R"/><use transform="matrix(0.05,0,0,0.05,35.95,0)" xlink:href="#aa"/><use transform="matrix(0.05,0,0,0.05,50.900000000000006,0)" xlink:href="#Q"/><use transform="matrix(0.05,0,0,0.05,60.900000000000006,0)" xlink:href="#P"/><use transform="matrix(0.05,0,0,0.05,65.9,0)" xlink:href="#T"/><use transform="matrix(0.05,0,0,0.05,69.85000000000001,0)" xlink:href="#Z"/><use transform="matrix(0.05,0,0,0.05,79.85000000000001,0)" xlink:href="#X"/></g><g id="E"><use transform="matrix(0.05,0,0,0.05,0,0)" xlink:href="#ar"/><use transform="matrix(0.05,0,0,0.05,12.950000000000001,0)" xlink:href="#U"/><use transform="matrix(0.05,0,0,0.05,22.950000000000003,0)" xlink:href="#P"/><use transform="matrix(0.05,0,0,0.05,27.950000000000003,0)" xlink:href="#R"/><use transform="matrix(0.05,0,0,0.05,33.900000000000006,0)" xlink:href="#T"/><use transform="matrix(0.05,0,0,0.05,37.85000000000001,0)" xlink:href="#U"/><use transform="matrix(0.05,0,0,0.05,47.85000000000001,0)" xlink:href="#au"/><use transform="matrix(0.05,0,0,0.05,56.85,0)" xlink:href="#U"/></g><g id="F"><use transform="matrix(0.05,0,0,0.05,0,0)" xlink:href="#al"/><use transform="matrix(0.05,0,0,0.05,10.950000000000001,0)" xlink:href="#U"/><use transform="matrix(0.05,0,0,0.05,20.950000000000003,0)" xlink:href="#U"/></g><path fill="#3a414a" d="M30-248c87 1 191-15 191 75 0 78-77 80-158 76V0H30v-248zm33 125c57 0 124 11 124-50 0-59-68-47-124-48v98" id="aw"/><path fill="#3a414a" d="M179-190L93 31C79 59 56 82 12 73V49c39 6 53-20 64-50L1-190h34L92-34l54-156h33" id="ax"/><g id="G"><use transform="matrix(0.05,0,0,0.05,0,0)" xlink:href="#aw"/><use transform="matrix(0.05,0,0,0.05,12,0)" xlink:href="#Q"/><use transform="matrix(0.05,0,0,0.05,22,0)" xlink:href="#ax"/><use transform="matrix(0.05,0,0,0.05,31,0)" xlink:href="#aa"/><use transform="matrix(0.05,0,0,0.05,45.95,0)" xlink:href="#U"/><use transform="matrix(0.05,0,0,0.05,55.95,0)" xlink:href="#X"/><use transform="matrix(0.05,0,0,0.05,65.95,0)" xlink:href="#P"/></g><path fill="#3a414a" d="M212-179c-10-28-35-45-73-45-59 0-87 40-87 99 0 60 29 101 89 101 43 0 62-24 78-52l27 14C228-24 195 4 139 4 59 4 22-46 18-125c-6-104 99-153 187-111 19 9 31 26 39 46" id="ay"/><g id="H"><use transform="matrix(0.05,0,0,0.05,0,0)" xlink:href="#ay"/><use transform="matrix(0.05,0,0,0.05,12.950000000000001,0)" xlink:href="#Z"/><use transform="matrix(0.05,0,0,0.05,22.950000000000003,0)" xlink:href="#X"/><use transform="matrix(0.05,0,0,0.05,32.95,0)" xlink:href="#Y"/><use transform="matrix(0.05,0,0,0.05,37.95,0)" xlink:href="#T"/><use transform="matrix(0.05,0,0,0.05,41.900000000000006,0)" xlink:href="#R"/><use transform="matrix(0.05,0,0,0.05,47.85000000000001,0)" xlink:href="#aa"/><use transform="matrix(0.05,0,0,0.05,62.80000000000001,0)" xlink:href="#Q"/><use transform="matrix(0.05,0,0,0.05,72.80000000000001,0)" xlink:href="#P"/><use transform="matrix(0.05,0,0,0.05,77.80000000000001,0)" xlink:href="#T"/><use transform="matrix(0.05,0,0,0.05,81.75000000000001,0)" xlink:href="#Z"/><use transform="matrix(0.05,0,0,0.05,91.75000000000001,0)" xlink:href="#X"/></g><path fill="#3a414a" d="M30 0v-248h187v28H63v79h144v27H63v87h162V0H30" id="az"/><g id="I"><use transform="matrix(0.05,0,0,0.05,0,0)" xlink:href="#az"/><use transform="matrix(0.05,0,0,0.05,12,0)" xlink:href="#aa"/><use transform="matrix(0.05,0,0,0.05,26.950000000000003,0)" xlink:href="#Q"/><use transform="matrix(0.05,0,0,0.05,36.95,0)" xlink:href="#T"/><use transform="matrix(0.05,0,0,0.05,40.900000000000006,0)" xlink:href="#ag"/></g><g id="J"><use transform="matrix(0.05,0,0,0.05,0,0)" xlink:href="#W"/><use transform="matrix(0.05,0,0,0.05,5,0)" xlink:href="#ah"/></g><g id="K"><use transform="matrix(0.05,0,0,0.05,0,0)" xlink:href="#S"/><use transform="matrix(0.05,0,0,0.05,10.65,0)" xlink:href="#Q"/><use transform="matrix(0.05,0,0,0.05,20.65,0)" xlink:href="#ag"/><use transform="matrix(0.05,0,0,0.05,24.599999999999998,0)" xlink:href="#T"/><use transform="matrix(0.05,0,0,0.05,28.549999999999997,0)" xlink:href="#ai"/><use transform="matrix(0.05,0,0,0.05,38.55,0)" xlink:href="#aj"/></g><g id="L"><use transform="matrix(0.05,0,0,0.05,0,0)" xlink:href="#ak"/><use transform="matrix(0.05,0,0,0.05,10.35,0)" xlink:href="#U"/><use transform="matrix(0.05,0,0,0.05,20.35,0)" xlink:href="#ah"/></g><g id="M"><use transform="matrix(0.05,0,0,0.05,0,0)" xlink:href="#as"/><use transform="matrix(0.05,0,0,0.05,12.950000000000001,0)" xlink:href="#Z"/></g><g id="N"><use transform="matrix(0.05,0,0,0.05,0,0)" xlink:href="#O"/><use transform="matrix(0.05,0,0,0.05,12,0)" xlink:href="#P"/><use transform="matrix(0.05,0,0,0.05,17,0)" xlink:href="#Z"/><use transform="matrix(0.05,0,0,0.05,27,0)" xlink:href="#ao"/></g></defs></g></svg>