<svg xmlns="http://www.w3.org/2000/svg" xmlns:xlink="http://www.w3.org/1999/xlink" xmlns:lucid="lucid" width="792" height="786"><g transform="translate(-822 -52)" lucid:page-tab-id="0_0"><path d="M1444.17 624h100v20h-100z" fill="none"/><use xlink:href="#a" transform="matrix(1,0,0,1,1444.1666666666667,624) translate(16.574999999999996 14.4)"/><path d="M1184.78 64c13.25 0 24 8.95 24 20s-10.75 20-24 20h-72c-13.25 0-24-8.95-24-20s10.75-20 24-20z" stroke="#c92d39" fill="#fff"/><use xlink:href="#b" transform="matrix(1,0,0,1,1093.7801381158104,69) translate(36.02500000000001 18.14999999999999)"/><path d="M1152.8 105v22.16" stroke="#3a414a" fill="none"/><path d="M1153.3 105h-1v-.5h1z" stroke="#3a414a" stroke-width=".05" fill="#3a414a"/><path d="M1152.8 141.93l-4.64-14.27h9.27z" stroke="#3a414a" fill="#3a414a"/><path d="M1090.45 151.73a10.4 10.4 0 0 1 10.06-7.73h107.83a6.15 6.15 0 0 1 5.94 7.73l-7.35 27.54a10.4 10.4 0 0 1-10.06 7.73h-107.82a6.15 6.15 0 0 1-5.94-7.73z" stroke="#3a414a" fill="#fff"/><use xlink:href="#c" transform="matrix(1,0,0,1,1086.039635284548,149) translate(10.604999999999999 20.5875)"/><use xlink:href="#d" transform="matrix(1,0,0,1,1086.039635284548,149) translate(59.555 20.5875)"/><path d="M1144.03 227.1a19.02 19.02 0 0 1 14.75 0l65.25 27.44a3.36 3.36 0 0 1 0 6.2l-65.25 27.45a19.02 19.02 0 0 1-14.75 0l-65.25-27.45a3.36 3.36 0 0 1 0-6.2z" stroke="#3a414a" fill="#fff"/><use xlink:href="#e" transform="matrix(1,0,0,1,1076.4013783431735,229) translate(41.230000000000004 32.525)"/><use xlink:href="#f" transform="matrix(1,0,0,1,1076.4013783431735,229) translate(60.230000000000004 32.525)"/><path d="M1151.4 187.95V208.73" stroke="#3a414a" fill="none"/><path d="M1151.9 187.96h-1v-.5h1z" stroke="#3a414a" stroke-width=".05" fill="#3a414a"/><path d="M1151.4 223.5l-4.63-14.27h9.27z" stroke="#3a414a" fill="#3a414a"/><path d="M1151.4 290.68v26.15a.02.02 0 0 0 .02.02.02.02 0 0 1 .03.02v10.27" stroke="#54c45e" fill="none"/><path d="M1151.4 290.18l.5-.02v.53h-1v-.54z" stroke="#54c45e" stroke-width=".05" fill="#54c45e"/><path d="M1151.45 341.9l-4.64-14.26h9.28z" stroke="#54c45e" fill="#54c45e"/><use xlink:href="#g" transform="matrix(1,0,0,1,1114.0513783431736,301.05979534214157) translate(0.005000000000000782 14.4)"/><path d="M1081.03 347.68a32.82 32.82 0 0 1 15.1-3.68h127.04c10.65 0 19.3 8.95 19.3 20s-8.65 20-19.3 20h-127.04a32.82 32.82 0 0 1-15.1-3.68l-24.38-12.64a4.15 4.15 0 0 1 0-7.36z" stroke="#3a414a" fill="#fff"/><use xlink:href="#h" transform="matrix(1,0,0,1,1054.5520299555526,349) translate(41.58 18.15)"/><use xlink:href="#i" transform="matrix(1,0,0,1,1054.5520299555526,349) translate(108.58 18.15)"/><path d="M1147.4 385v22.14" stroke="#3a414a" fill="none"/><path d="M1147.9 385h-1v-.5h1z" stroke="#3a414a" stroke-width=".05" fill="#3a414a"/><path d="M1147.4 421.9l-4.63-14.26h9.27z" stroke="#3a414a" fill="#3a414a"/><path d="M1081.03 427.68a32.82 32.82 0 0 1 15.1-3.68h127.04c10.65 0 19.3 8.95 19.3 20s-8.65 20-19.3 20h-127.04a32.82 32.82 0 0 1-15.1-3.68l-24.38-12.64a4.15 4.15 0 0 1 0-7.36z" stroke="#3a414a" fill="#fff"/><use xlink:href="#j" transform="matrix(1,0,0,1,1054.5520299555526,429) translate(31.154999999999983 18.15)"/><use xlink:href="#k" transform="matrix(1,0,0,1,1054.5520299555526,429) translate(119.005 18.15)"/><path d="M1147.4 465v23.17" stroke="#3a414a" fill="none"/><path d="M1147.9 465h-1v-.5h1z" stroke="#3a414a" stroke-width=".05" fill="#3a414a"/><path d="M1147.4 502.93l-4.63-14.26h9.27z" stroke="#3a414a" fill="#3a414a"/><path d="M1139.67 506.07a29.94 29.94 0 0 1 15.46 0l96.8 25.86a2.14 2.14 0 0 1 0 4.14l-96.8 25.86a29.94 29.94 0 0 1-15.46 0l-96.8-25.86a2.14 2.14 0 0 1 0-4.14z" stroke="#3a414a" fill="#fff"/><use xlink:href="#l" transform="matrix(1,0,0,1,1040.1454929593103,509) translate(49.53000000000001 30.025)"/><use xlink:href="#m" transform="matrix(1,0,0,1,1040.1454929593103,509) translate(105.53 30.025)"/><path d="M1077.32 707.73a10.4 10.4 0 0 1 10.06-7.73h133.3a6.15 6.15 0 0 1 5.94 7.73l-6.57 24.65a10.4 10.4 0 0 1-10.06 7.73h-133.32a6.15 6.15 0 0 1-5.94-7.72z" stroke="#3a414a" fill="#fff"/><use xlink:href="#n" transform="matrix(1,0,0,1,1073.6830847630656,705) translate(35.57999999999999 18.275)"/><path d="M1148.68 741.06v26.07" stroke="#3a414a" fill="none"/><path d="M1149.18 741.07h-1v-.5h1z" stroke="#3a414a" stroke-width=".05" fill="#3a414a"/><path d="M1148.68 781.88l-4.63-14.26h9.27z" stroke="#3a414a" fill="#3a414a"/><path d="M1184.68 784c13.26 0 24 8.95 24 20s-10.74 20-24 20h-72c-13.25 0-24-8.95-24-20s10.75-20 24-20z" stroke="#c92d39" fill="#fff"/><use xlink:href="#o" transform="matrix(1,0,0,1,1093.6830848418479,789) translate(36.500000000000014 18.14999999999999)"/><path d="M1604.17 474.42c0 6.63-26.87 12-60 12-33.14 0-60-5.37-60-12v-96c0-6.63 26.86-12 60-12 33.13 0 60 5.37 60 12z" stroke="#3a414a" fill="#fff"/><path d="M1604.17 378.42c0 6.63-26.87 12-60 12-33.14 0-60-5.37-60-12" stroke="#3a414a" fill="none"/><use xlink:href="#p" transform="matrix(1,0,0,1,1489.1666666666667,395.4180430912213) translate(16.525 46.65)"/><path d="M1504.17 564c-7.74 0-14 8.95-14 20s6.26 20 14 20h-126c-7.74 0-14-8.95-14-20s6.26-20 14-20z" stroke="#3a414a" fill="#fff"/><use xlink:href="#q" transform="matrix(1,0,0,1,1369.1666666666667,569) translate(12.549999999999997 18.15)"/><use xlink:href="#r" transform="matrix(1,0,0,1,1369.1666666666667,569) translate(70.5 18.15)"/><path d="M1544.17 487.42V632.5a12 12 0 0 1-12 12h-86a12 12 0 0 1-12-12v-11.62" stroke="#3a414a" fill="none"/><path d="M1544.17 486.92l.5-.02v.53h-1v-.53z" stroke="#3a414a" stroke-width=".05" fill="#3a414a"/><path d="M1434.17 606.12l4.63 14.26h-9.27z" stroke="#3a414a" fill="#3a414a"/><path d="M1434.17 563V306a12 12 0 0 0-12-12h-36a12 12 0 0 1-12-12v-12.35a12 12 0 0 0-12-12h-119.2" stroke="#3a414a" fill="none"/><path d="M1434.67 563.5h-1v-.5h1z" stroke="#3a414a" stroke-width=".05" fill="#3a414a"/><path d="M1228.2 257.65l14.27-4.64v9.28z" stroke="#3a414a" fill="#3a414a"/><path d="M1264.17 264h100v20h-100z" fill="none"/><use xlink:href="#a" transform="matrix(1,0,0,1,1264.1666666666667,264) translate(16.574999999999996 14.4)"/><path d="M1075.7 257.65h-99.53a12 12 0 0 1-12-12V177.5a12 12 0 0 1 12-12h93.75" stroke="#e81313" fill="none"/><path d="M1076.2 257.65l.07.5h-.57v-1h.57z" stroke="#e81313" stroke-width=".05" fill="#e81313"/><path d="M1084.7 165.5l-14.28 4.64v-9.28z" stroke="#e81313" fill="#e81313"/><use xlink:href="#s" transform="matrix(1,0,0,1,972.1666666666667,195.72524592649836) translate(0.005000000000000782 14.4)"/><path d="M1409.74 563v-82.9a.15.15 0 0 1 .15-.14.15.15 0 0 0 .14-.15V416a12 12 0 0 0-12-12h-21.87a12 12 0 0 1-12-12v-16a12 12 0 0 0-12-12h-92.83" stroke="#3a414a" fill="none"/><path d="M1410.24 563.5h-1v-.5h1z" stroke="#3a414a" stroke-width=".05" fill="#3a414a"/><path d="M1244.58 364l14.26-4.64v9.28z" stroke="#3a414a" fill="#3a414a"/><path d="M1264.17 364h100v20h-100z" fill="none"/><use xlink:href="#a" transform="matrix(1,0,0,1,1264.1666666666667,364) translate(16.574999999999996 14.4)"/><path d="M1394.35 563v-77a12 12 0 0 0-12-12h-6.18a12 12 0 0 1-12-12v-6a12 12 0 0 0-12-12h-92.83" stroke="#3a414a" fill="none"/><path d="M1394.85 563.5h-1v-.5h1z" stroke="#3a414a" stroke-width=".05" fill="#3a414a"/><path d="M1244.58 444l14.26-4.64v9.28z" stroke="#3a414a" fill="#3a414a"/><path d="M1264.17 444h100v20h-100z" fill="none"/><use xlink:href="#a" transform="matrix(1,0,0,1,1264.1666666666667,444) translate(16.574999999999996 14.4)"/><path d="M1397.73 605v33a12 12 0 0 1-12 12H1272a12 12 0 0 1-12-12v-46.5a12 12 0 0 0-12-12h-12.8a12 12 0 0 0-12 12v11.62" stroke="#3a414a" fill="none"/><path d="M1398.23 605h-1v-.5h1z" stroke="#3a414a" stroke-width=".05" fill="#3a414a"/><path d="M1223.2 617.88l-4.64-14.26h9.27z" stroke="#3a414a" fill="#3a414a"/><path d="M1147.4 563.95v39.67" stroke="#54c45e" fill="none"/><path d="M1147.4 563.45h.5v.5h-1v-.5z" stroke="#54c45e" stroke-width=".05" fill="#54c45e"/><path d="M1147.4 618.38l-4.63-14.26h9.27z" stroke="#54c45e" fill="#54c45e"/><use xlink:href="#t" transform="matrix(1,0,0,1,1110.416047609407,575.3862544003765) translate(0 14.222222222222223)"/><path d="M1081.03 623.68a32.82 32.82 0 0 1 15.1-3.68h127.04c10.65 0 19.3 8.95 19.3 20s-8.65 20-19.3 20h-127.04a32.82 32.82 0 0 1-15.1-3.68l-24.38-12.64a4.15 4.15 0 0 1 0-7.36z" stroke="#3a414a" fill="#fff"/><use xlink:href="#u" transform="matrix(1,0,0,1,1054.55202995555,625) translate(56.08 18.15)"/><path d="M1147.9 661v22.16" stroke="#3a414a" fill="none"/><path d="M1148.4 661h-1v-.5h1z" stroke="#3a414a" stroke-width=".05" fill="#3a414a"/><path d="M1147.9 697.93l-4.62-14.27h9.27z" stroke="#3a414a" fill="#3a414a"/><path d="M1280 630h100v20h-100z" fill="none"/><use xlink:href="#a" transform="matrix(1,0,0,1,1280,630) translate(16.574999999999996 14.4)"/><path d="M1040.28 534H927.6a6 6 0 0 0-6 6v63.17" stroke="#e81313" fill="none"/><path d="M1040.78 534l.07.5h-.58v-1h.58z" stroke="#e81313" stroke-width=".05" fill="#e81313"/><path d="M921.6 617.93l-4.63-14.26h9.27z" stroke="#e81313" fill="#e81313"/><use xlink:href="#v" transform="matrix(1,0,0,1,929.6035177401518,549.9954859719523) translate(0 14.222222222222223)"/><path d="M831.2 628a8 8 0 0 1 8-8H1004a8 8 0 0 1 8 8v24a8 8 0 0 1-8 8H839.2a8 8 0 0 1-8-8z" stroke="#3a414a" fill="#fff"/><g><use xlink:href="#w" transform="matrix(1,0,0,1,843.1980057019991,632) translate(0.6749999999999972 14.4)"/><use xlink:href="#x" transform="matrix(1,0,0,1,843.1980057019991,632) translate(60.525 14.4)"/></g><path d="M921.6 660.95V798a6 6 0 0 0 6 6h144.2" stroke="#3a414a" fill="none"/><path d="M922.1 660.96h-1v-.5h1z" stroke="#3a414a" stroke-width=".05" fill="#3a414a"/><path d="M1086.56 804l-14.26 4.64v-9.28z" stroke="#3a414a" fill="#3a414a"/><defs><path fill="#3a414a" d="M233-177c-1 41-23 64-60 70L243 0h-38l-65-103H63V0H30v-248c88 3 205-21 203 71zM63-129c60-2 137 13 137-47 0-61-80-42-137-45v92" id="y"/><path fill="#3a414a" d="M100-194c63 0 86 42 84 106H49c0 40 14 67 53 68 26 1 43-12 49-29l28 8c-11 28-37 45-77 45C44 4 14-33 15-96c1-61 26-98 85-98zm52 81c6-60-76-77-97-28-3 7-6 17-6 28h103" id="z"/><path fill="#3a414a" d="M59-47c-2 24 18 29 38 22v24C64 9 27 4 27-40v-127H5v-23h24l9-43h21v43h35v23H59v120" id="A"/><path fill="#3a414a" d="M114-163C36-179 61-72 57 0H25l-1-190h30c1 12-1 29 2 39 6-27 23-49 58-41v29" id="B"/><path fill="#3a414a" d="M24-231v-30h32v30H24zM24 0v-190h32V0H24" id="C"/><path fill="#3a414a" d="M108 0H70L1-190h34L89-25l56-165h34" id="D"/><g id="a"><use transform="matrix(0.05,0,0,0.05,0,0)" xlink:href="#y"/><use transform="matrix(0.05,0,0,0.05,12.950000000000001,0)" xlink:href="#z"/><use transform="matrix(0.05,0,0,0.05,22.950000000000003,0)" xlink:href="#A"/><use transform="matrix(0.05,0,0,0.05,27.950000000000003,0)" xlink:href="#B"/><use transform="matrix(0.05,0,0,0.05,33.900000000000006,0)" xlink:href="#C"/><use transform="matrix(0.05,0,0,0.05,37.85000000000001,0)" xlink:href="#z"/><use transform="matrix(0.05,0,0,0.05,47.85000000000001,0)" xlink:href="#D"/><use transform="matrix(0.05,0,0,0.05,56.85,0)" xlink:href="#z"/></g><path fill="#3a414a" d="M185-189c-5-48-123-54-124 2 14 75 158 14 163 119 3 78-121 87-175 55-17-10-28-26-33-46l33-7c5 56 141 63 141-1 0-78-155-14-162-118-5-82 145-84 179-34 5 7 8 16 11 25" id="E"/><path fill="#3a414a" d="M141-36C126-15 110 5 73 4 37 3 15-17 15-53c-1-64 63-63 125-63 3-35-9-54-41-54-24 1-41 7-42 31l-33-3c5-37 33-52 76-52 45 0 72 20 72 64v82c-1 20 7 32 28 27v20c-31 9-61-2-59-35zM48-53c0 20 12 33 32 33 41-3 63-29 60-74-43 2-92-5-92 41" id="F"/><g id="b"><use transform="matrix(0.04999999999999996,0,0,0.04999999999999996,0,0)" xlink:href="#E"/><use transform="matrix(0.04999999999999996,0,0,0.04999999999999996,11.999999999999991,0)" xlink:href="#A"/><use transform="matrix(0.04999999999999996,0,0,0.04999999999999996,16.999999999999986,0)" xlink:href="#F"/><use transform="matrix(0.04999999999999996,0,0,0.04999999999999996,26.99999999999998,0)" xlink:href="#B"/><use transform="matrix(0.04999999999999996,0,0,0.04999999999999996,32.949999999999974,0)" xlink:href="#A"/></g><path fill="#3a414a" d="M30 0v-248h33v221h125V0H30" id="G"/><path fill="#3a414a" d="M100-194c62-1 85 37 85 99 1 63-27 99-86 99S16-35 15-95c0-66 28-99 85-99zM99-20c44 1 53-31 53-75 0-43-8-75-51-75s-53 32-53 75 10 74 51 75" id="H"/><path fill="#3a414a" d="M177-190C167-65 218 103 67 71c-23-6-38-20-44-43l32-5c15 47 100 32 89-28v-30C133-14 115 1 83 1 29 1 15-40 15-95c0-56 16-97 71-98 29-1 48 16 59 35 1-10 0-23 2-32h30zM94-22c36 0 50-32 50-73 0-42-14-75-50-75-39 0-46 34-46 75s6 73 46 73" id="I"/><path fill="#3a414a" d="M117-194c89-4 53 116 60 194h-32v-121c0-31-8-49-39-48C34-167 62-67 57 0H25l-1-190h30c1 10-1 24 2 32 11-22 29-35 61-36" id="J"/><g id="c"><use transform="matrix(0.05,0,0,0.05,0,0)" xlink:href="#G"/><use transform="matrix(0.05,0,0,0.05,10,0)" xlink:href="#H"/><use transform="matrix(0.05,0,0,0.05,20,0)" xlink:href="#I"/><use transform="matrix(0.05,0,0,0.05,30,0)" xlink:href="#C"/><use transform="matrix(0.05,0,0,0.05,33.95,0)" xlink:href="#J"/></g><path fill="#3a414a" d="M30-248c118-7 216 8 213 122C240-48 200 0 122 0H30v-248zM63-27c89 8 146-16 146-99s-60-101-146-95v194" id="K"/><path fill="#3a414a" d="M24 0v-261h32V0H24" id="L"/><path fill="#3a414a" d="M135-143c-3-34-86-38-87 0 15 53 115 12 119 90S17 21 10-45l28-5c4 36 97 45 98 0-10-56-113-15-118-90-4-57 82-63 122-42 12 7 21 19 24 35" id="M"/><g id="d"><use transform="matrix(0.05,0,0,0.05,0,0)" xlink:href="#K"/><use transform="matrix(0.05,0,0,0.05,12.950000000000001,0)" xlink:href="#z"/><use transform="matrix(0.05,0,0,0.05,22.950000000000003,0)" xlink:href="#A"/><use transform="matrix(0.05,0,0,0.05,27.950000000000003,0)" xlink:href="#F"/><use transform="matrix(0.05,0,0,0.05,37.95,0)" xlink:href="#C"/><use transform="matrix(0.05,0,0,0.05,41.900000000000006,0)" xlink:href="#L"/><use transform="matrix(0.05,0,0,0.05,45.85000000000001,0)" xlink:href="#M"/></g><path fill="#3a414a" d="M33 0v-248h34V0H33" id="N"/><g id="e"><use transform="matrix(0.05,0,0,0.05,0,0)" xlink:href="#N"/><use transform="matrix(0.05,0,0,0.05,5,0)" xlink:href="#M"/></g><path fill="#3a414a" d="M137 0h-34L2-248h35l83 218 83-218h36" id="O"/><path fill="#3a414a" d="M85-194c31 0 48 13 60 33l-1-100h32l1 261h-30c-2-10 0-23-3-31C134-8 116 4 85 4 32 4 16-35 15-94c0-66 23-100 70-100zm9 24c-40 0-46 34-46 75 0 40 6 74 45 74 42 0 51-32 51-76 0-42-9-74-50-73" id="P"/><path fill="#3a414a" d="M103-251c84 0 111 97 45 133-19 10-37 24-39 52H78c0-63 77-55 77-114 0-30-21-42-52-43-32 0-53 17-56 46l-32-2c7-45 34-72 88-72zM77 0v-35h34V0H77" id="Q"/><g id="f"><use transform="matrix(0.05,0,0,0.05,0,0)" xlink:href="#O"/><use transform="matrix(0.05,0,0,0.05,10.65,0)" xlink:href="#F"/><use transform="matrix(0.05,0,0,0.05,20.65,0)" xlink:href="#L"/><use transform="matrix(0.05,0,0,0.05,24.599999999999998,0)" xlink:href="#C"/><use transform="matrix(0.05,0,0,0.05,28.549999999999997,0)" xlink:href="#P"/><use transform="matrix(0.05,0,0,0.05,38.55,0)" xlink:href="#Q"/></g><path fill="#3a414a" d="M137-103V0h-34v-103L8-248h37l75 118 75-118h37" id="R"/><g id="g"><use transform="matrix(0.05,0,0,0.05,0,0)" xlink:href="#R"/><use transform="matrix(0.05,0,0,0.05,10.35,0)" xlink:href="#z"/><use transform="matrix(0.05,0,0,0.05,20.35,0)" xlink:href="#M"/></g><path fill="#3a414a" d="M84 4C-5 8 30-112 23-190h32v120c0 31 7 50 39 49 72-2 45-101 50-169h31l1 190h-30c-1-10 1-25-2-33-11 22-28 36-60 37" id="S"/><g id="h"><use transform="matrix(0.05,0,0,0.05,0,0)" xlink:href="#E"/><use transform="matrix(0.05,0,0,0.05,12,0)" xlink:href="#A"/><use transform="matrix(0.05,0,0,0.05,17,0)" xlink:href="#S"/><use transform="matrix(0.05,0,0,0.05,27,0)" xlink:href="#P"/><use transform="matrix(0.05,0,0,0.05,37,0)" xlink:href="#z"/><use transform="matrix(0.05,0,0,0.05,47,0)" xlink:href="#J"/><use transform="matrix(0.05,0,0,0.05,57,0)" xlink:href="#A"/></g><path fill="#3a414a" d="M30-248c87 1 191-15 191 75 0 78-77 80-158 76V0H30v-248zm33 125c57 0 124 11 124-50 0-59-68-47-124-48v98" id="T"/><path fill="#3a414a" d="M101-234c-31-9-42 10-38 44h38v23H63V0H32v-167H5v-23h27c-7-52 17-82 69-68v24" id="U"/><g id="i"><use transform="matrix(0.05,0,0,0.05,0,0)" xlink:href="#T"/><use transform="matrix(0.05,0,0,0.05,12,0)" xlink:href="#B"/><use transform="matrix(0.05,0,0,0.05,17.95,0)" xlink:href="#H"/><use transform="matrix(0.05,0,0,0.05,27.950000000000003,0)" xlink:href="#U"/><use transform="matrix(0.05,0,0,0.05,32.95,0)" xlink:href="#C"/><use transform="matrix(0.05,0,0,0.05,36.900000000000006,0)" xlink:href="#L"/><use transform="matrix(0.05,0,0,0.05,40.85000000000001,0)" xlink:href="#z"/></g><path fill="#3a414a" d="M205 0l-28-72H64L36 0H1l101-248h38L239 0h-34zm-38-99l-47-123c-12 45-31 82-46 123h93" id="V"/><path fill="#3a414a" d="M210-169c-67 3-38 105-44 169h-31v-121c0-29-5-50-35-48C34-165 62-65 56 0H25l-1-190h30c1 10-1 24 2 32 10-44 99-50 107 0 11-21 27-35 58-36 85-2 47 119 55 194h-31v-121c0-29-5-49-35-48" id="W"/><g id="j"><use transform="matrix(0.05,0,0,0.05,0,0)" xlink:href="#V"/><use transform="matrix(0.05,0,0,0.05,12,0)" xlink:href="#P"/><use transform="matrix(0.05,0,0,0.05,22,0)" xlink:href="#W"/><use transform="matrix(0.05,0,0,0.05,36.95,0)" xlink:href="#C"/><use transform="matrix(0.05,0,0,0.05,40.900000000000006,0)" xlink:href="#M"/><use transform="matrix(0.05,0,0,0.05,49.900000000000006,0)" xlink:href="#M"/><use transform="matrix(0.05,0,0,0.05,58.900000000000006,0)" xlink:href="#C"/><use transform="matrix(0.05,0,0,0.05,62.85,0)" xlink:href="#H"/><use transform="matrix(0.05,0,0,0.05,72.85000000000001,0)" xlink:href="#J"/></g><g id="k"><use transform="matrix(0.05,0,0,0.05,0,0)" xlink:href="#T"/><use transform="matrix(0.05,0,0,0.05,12,0)" xlink:href="#B"/><use transform="matrix(0.05,0,0,0.05,17.95,0)" xlink:href="#H"/><use transform="matrix(0.05,0,0,0.05,27.950000000000003,0)" xlink:href="#U"/><use transform="matrix(0.05,0,0,0.05,32.95,0)" xlink:href="#C"/><use transform="matrix(0.05,0,0,0.05,36.900000000000006,0)" xlink:href="#L"/><use transform="matrix(0.05,0,0,0.05,40.85000000000001,0)" xlink:href="#z"/></g><g id="l"><use transform="matrix(0.05,0,0,0.05,0,0)" xlink:href="#E"/><use transform="matrix(0.05,0,0,0.05,12,0)" xlink:href="#A"/><use transform="matrix(0.05,0,0,0.05,17,0)" xlink:href="#F"/><use transform="matrix(0.05,0,0,0.05,27,0)" xlink:href="#A"/><use transform="matrix(0.05,0,0,0.05,32,0)" xlink:href="#S"/><use transform="matrix(0.05,0,0,0.05,42,0)" xlink:href="#M"/></g><path fill="#3a414a" d="M96-169c-40 0-48 33-48 73s9 75 48 75c24 0 41-14 43-38l32 2c-6 37-31 61-74 61-59 0-76-41-82-99-10-93 101-131 147-64 4 7 5 14 7 22l-32 3c-4-21-16-35-41-35" id="X"/><g id="m"><use transform="matrix(0.05,0,0,0.05,0,0)" xlink:href="#V"/><use transform="matrix(0.05,0,0,0.05,12,0)" xlink:href="#X"/><use transform="matrix(0.05,0,0,0.05,21,0)" xlink:href="#A"/><use transform="matrix(0.05,0,0,0.05,26,0)" xlink:href="#C"/><use transform="matrix(0.05,0,0,0.05,29.950000000000003,0)" xlink:href="#D"/><use transform="matrix(0.05,0,0,0.05,38.95,0)" xlink:href="#z"/><use transform="matrix(0.05,0,0,0.05,48.95,0)" xlink:href="#Q"/></g><path fill="#3a414a" d="M206 0h-36l-40-164L89 0H53L-1-190h32L70-26l43-164h34l41 164 42-164h31" id="Y"/><g id="n"><use transform="matrix(0.05,0,0,0.05,0,0)" xlink:href="#K"/><use transform="matrix(0.05,0,0,0.05,12.950000000000001,0)" xlink:href="#H"/><use transform="matrix(0.05,0,0,0.05,22.950000000000003,0)" xlink:href="#Y"/><use transform="matrix(0.05,0,0,0.05,35.900000000000006,0)" xlink:href="#J"/><use transform="matrix(0.05,0,0,0.05,45.900000000000006,0)" xlink:href="#L"/><use transform="matrix(0.05,0,0,0.05,49.85000000000001,0)" xlink:href="#H"/><use transform="matrix(0.05,0,0,0.05,59.85,0)" xlink:href="#F"/><use transform="matrix(0.05,0,0,0.05,69.85000000000001,0)" xlink:href="#P"/></g><path fill="#3a414a" d="M115-194c55 1 70 41 70 98S169 2 115 4C84 4 66-9 55-30l1 105H24l-1-265h31l2 30c10-21 28-34 59-34zm-8 174c40 0 45-34 45-75s-6-73-45-74c-42 0-51 32-51 76 0 43 10 73 51 73" id="Z"/><g id="o"><use transform="matrix(0.04999999999999996,0,0,0.04999999999999996,0,0)" xlink:href="#E"/><use transform="matrix(0.04999999999999996,0,0,0.04999999999999996,11.999999999999991,0)" xlink:href="#A"/><use transform="matrix(0.04999999999999996,0,0,0.04999999999999996,16.999999999999986,0)" xlink:href="#H"/><use transform="matrix(0.04999999999999996,0,0,0.04999999999999996,26.99999999999998,0)" xlink:href="#Z"/></g><path fill="#3a414a" d="M115-194c53 0 69 39 70 98 0 66-23 100-70 100C84 3 66-7 56-30L54 0H23l1-261h32v101c10-23 28-34 59-34zm-8 174c40 0 45-34 45-75 0-40-5-75-45-74-42 0-51 32-51 76 0 43 10 73 51 73" id="aa"/><g id="p"><use transform="matrix(0.05,0,0,0.05,0,0)" xlink:href="#K"/><use transform="matrix(0.05,0,0,0.05,12.950000000000001,0)" xlink:href="#F"/><use transform="matrix(0.05,0,0,0.05,22.950000000000003,0)" xlink:href="#A"/><use transform="matrix(0.05,0,0,0.05,27.950000000000003,0)" xlink:href="#F"/><use transform="matrix(0.05,0,0,0.05,37.95,0)" xlink:href="#aa"/><use transform="matrix(0.05,0,0,0.05,47.95,0)" xlink:href="#F"/><use transform="matrix(0.05,0,0,0.05,57.95,0)" xlink:href="#M"/><use transform="matrix(0.05,0,0,0.05,66.95,0)" xlink:href="#z"/></g><g id="q"><use transform="matrix(0.05,0,0,0.05,0,0)" xlink:href="#E"/><use transform="matrix(0.05,0,0,0.05,12,0)" xlink:href="#A"/><use transform="matrix(0.05,0,0,0.05,17,0)" xlink:href="#H"/><use transform="matrix(0.05,0,0,0.05,27,0)" xlink:href="#B"/><use transform="matrix(0.05,0,0,0.05,32.95,0)" xlink:href="#z"/><use transform="matrix(0.05,0,0,0.05,42.95,0)" xlink:href="#P"/></g><g id="r"><use transform="matrix(0.05,0,0,0.05,0,0)" xlink:href="#K"/><use transform="matrix(0.05,0,0,0.05,12.950000000000001,0)" xlink:href="#F"/><use transform="matrix(0.05,0,0,0.05,22.950000000000003,0)" xlink:href="#A"/><use transform="matrix(0.05,0,0,0.05,27.950000000000003,0)" xlink:href="#F"/></g><path fill="#3a414a" d="M190 0L58-211 59 0H30v-248h39L202-35l-2-213h31V0h-41" id="ab"/><g id="s"><use transform="matrix(0.05,0,0,0.05,0,0)" xlink:href="#ab"/><use transform="matrix(0.05,0,0,0.05,12.950000000000001,0)" xlink:href="#H"/></g><path fill="#333" d="M137-103V0h-34v-103L8-248h37l75 118 75-118h37" id="ac"/><path fill="#333" d="M100-194c63 0 86 42 84 106H49c0 40 14 67 53 68 26 1 43-12 49-29l28 8c-11 28-37 45-77 45C44 4 14-33 15-96c1-61 26-98 85-98zm52 81c6-60-76-77-97-28-3 7-6 17-6 28h103" id="ad"/><path fill="#333" d="M135-143c-3-34-86-38-87 0 15 53 115 12 119 90S17 21 10-45l28-5c4 36 97 45 98 0-10-56-113-15-118-90-4-57 82-63 122-42 12 7 21 19 24 35" id="ae"/><g id="t"><use transform="matrix(0.04938271604938272,0,0,0.04938271604938272,0,0)" xlink:href="#ac"/><use transform="matrix(0.04938271604938272,0,0,0.04938271604938272,10.222222222222223,0)" xlink:href="#ad"/><use transform="matrix(0.04938271604938272,0,0,0.04938271604938272,20.098765432098766,0)" xlink:href="#ae"/></g><g id="u"><use transform="matrix(0.05,0,0,0.05,0,0)" xlink:href="#K"/><use transform="matrix(0.05,0,0,0.05,12.950000000000001,0)" xlink:href="#H"/><use transform="matrix(0.05,0,0,0.05,22.950000000000003,0)" xlink:href="#Y"/><use transform="matrix(0.05,0,0,0.05,35.900000000000006,0)" xlink:href="#J"/><use transform="matrix(0.05,0,0,0.05,45.900000000000006,0)" xlink:href="#L"/><use transform="matrix(0.05,0,0,0.05,49.85000000000001,0)" xlink:href="#H"/><use transform="matrix(0.05,0,0,0.05,59.85,0)" xlink:href="#F"/><use transform="matrix(0.05,0,0,0.05,69.85000000000001,0)" xlink:href="#P"/><use transform="matrix(0.05,0,0,0.05,79.85000000000001,0)" xlink:href="#M"/></g><path fill="#333" d="M190 0L58-211 59 0H30v-248h39L202-35l-2-213h31V0h-41" id="af"/><path fill="#333" d="M100-194c62-1 85 37 85 99 1 63-27 99-86 99S16-35 15-95c0-66 28-99 85-99zM99-20c44 1 53-31 53-75 0-43-8-75-51-75s-53 32-53 75 10 74 51 75" id="ag"/><g id="v"><use transform="matrix(0.04938271604938272,0,0,0.04938271604938272,0,0)" xlink:href="#af"/><use transform="matrix(0.04938271604938272,0,0,0.04938271604938272,12.790123456790125,0)" xlink:href="#ag"/></g><g id="w"><use transform="matrix(0.05,0,0,0.05,0,0)" xlink:href="#V"/><use transform="matrix(0.05,0,0,0.05,12,0)" xlink:href="#L"/><use transform="matrix(0.05,0,0,0.05,15.949999999999998,0)" xlink:href="#S"/><use transform="matrix(0.05,0,0,0.05,25.950000000000003,0)" xlink:href="#W"/><use transform="matrix(0.05,0,0,0.05,40.9,0)" xlink:href="#J"/><use transform="matrix(0.05,0,0,0.05,50.9,0)" xlink:href="#C"/></g><g id="x"><use transform="matrix(0.05,0,0,0.05,0,0)" xlink:href="#y"/><use transform="matrix(0.05,0,0,0.05,12.950000000000001,0)" xlink:href="#z"/><use transform="matrix(0.05,0,0,0.05,22.950000000000003,0)" xlink:href="#I"/><use transform="matrix(0.05,0,0,0.05,32.95,0)" xlink:href="#C"/><use transform="matrix(0.05,0,0,0.05,36.900000000000006,0)" xlink:href="#M"/><use transform="matrix(0.05,0,0,0.05,45.900000000000006,0)" xlink:href="#A"/><use transform="matrix(0.05,0,0,0.05,50.900000000000006,0)" xlink:href="#B"/><use transform="matrix(0.05,0,0,0.05,56.85,0)" xlink:href="#F"/><use transform="matrix(0.05,0,0,0.05,66.85000000000001,0)" xlink:href="#A"/><use transform="matrix(0.05,0,0,0.05,71.85000000000001,0)" xlink:href="#C"/><use transform="matrix(0.05,0,0,0.05,75.80000000000001,0)" xlink:href="#H"/><use transform="matrix(0.05,0,0,0.05,85.80000000000001,0)" xlink:href="#J"/></g></defs></g></svg>