<svg xmlns="http://www.w3.org/2000/svg" xmlns:xlink="http://www.w3.org/1999/xlink" xmlns:lucid="lucid" width="1062" height="986"><g transform="translate(-1813 -16)" lucid:page-tab-id="0_0"><path d="M2700 600h100v20h-100z" fill="none"/><use xlink:href="#a" transform="matrix(1,0,0,1,2700,600) translate(16.574999999999996 14.4)"/><path d="M2440.6 40c13.27 0 24 8.95 24 20s-10.73 20-24 20h-72c-13.24 0-24-8.95-24-20s10.76-20 24-20z" stroke="#c92d39" fill="#fff"/><use xlink:href="#b" transform="matrix(1,0,0,1,2349.6134714491436,45) translate(36.02500000000001 18.599999999999998)"/><path d="M2408.63 81v22.16" stroke="#3a414a" fill="none"/><path d="M2409.13 81h-1v-.5h1z" stroke="#3a414a" stroke-width=".05" fill="#3a414a"/><path d="M2408.63 117.93l-4.64-14.27h9.27z" stroke="#3a414a" fill="#3a414a"/><path d="M2346.28 127.73a10.4 10.4 0 0 1 10.06-7.73h107.82a6.15 6.15 0 0 1 5.94 7.73l-7.35 27.54a10.4 10.4 0 0 1-10.06 7.73h-107.83a6.15 6.15 0 0 1-5.94-7.73z" stroke="#3a414a" fill="#fff"/><use xlink:href="#c" transform="matrix(1,0,0,1,2341.8729686178813,125) translate(11.099999999999994 20.1)"/><use xlink:href="#d" transform="matrix(1,0,0,1,2341.8729686178813,125) translate(60.05 20.1)"/><path d="M2399.86 203.1a19.02 19.02 0 0 1 14.75 0l65.26 27.44a3.36 3.36 0 0 1 0 6.2l-65.25 27.45a19.02 19.02 0 0 1-14.74 0l-65.25-27.45a3.36 3.36 0 0 1 0-6.2z" stroke="#3a414a" fill="#fff"/><use xlink:href="#e" transform="matrix(1,0,0,1,2332.234711676507,205) translate(41.225 32.6)"/><use xlink:href="#f" transform="matrix(1,0,0,1,2332.234711676507,205) translate(60.225 32.6)"/><path d="M2407.23 163.95v20.78" stroke="#3a414a" fill="none"/><path d="M2407.73 163.96h-1v-.5h1z" stroke="#3a414a" stroke-width=".05" fill="#3a414a"/><path d="M2407.23 199.5l-4.63-14.27h9.27z" stroke="#3a414a" fill="#3a414a"/><path d="M2407.23 267.18v25.65a.02.02 0 0 0 .03.02.02.02 0 0 1 .02.02v8.15" stroke="#7ab648" stroke-width="2" fill="none"/><path d="M2407.23 266.18l1-.04v1.06h-2v-1.06z" stroke="#7ab648" stroke-width=".05" fill="#7ab648"/><path d="M2407.28 316.28l-4.64-14.26h9.27z" stroke="#7ab648" stroke-width="2" fill="#7ab648"/><use xlink:href="#g" transform="matrix(1,0,0,1,2369.8847116765064,277.05870079296994) translate(0.005000000000000782 14.4)"/><path d="M2336.86 323.68a32.82 32.82 0 0 1 15.1-3.68H2479c10.65 0 19.3 8.95 19.3 20s-8.65 20-19.3 20h-127.03a32.82 32.82 0 0 1-15.1-3.68l-24.38-12.64a4.15 4.15 0 0 1 0-7.36z" stroke="#3a414a" fill="#fff"/><use xlink:href="#h" transform="matrix(1,0,0,1,2310.385363288886,325) translate(47.55 18.6)"/><path d="M2403.24 361v22.14" stroke="#3a414a" fill="none"/><path d="M2403.74 361h-1v-.5h1z" stroke="#3a414a" stroke-width=".05" fill="#3a414a"/><path d="M2403.24 397.9l-4.64-14.26h9.27z" stroke="#3a414a" fill="#3a414a"/><path d="M2336.86 403.68a32.82 32.82 0 0 1 15.1-3.68H2479c10.65 0 19.3 8.95 19.3 20s-8.65 20-19.3 20h-127.03a32.82 32.82 0 0 1-15.1-3.68l-24.38-12.64a4.15 4.15 0 0 1 0-7.36z" stroke="#3a414a" fill="#fff"/><use xlink:href="#i" transform="matrix(1,0,0,1,2310.385363288886,405) translate(24.549999999999997 18.6)"/><use xlink:href="#j" transform="matrix(1,0,0,1,2310.385363288886,405) translate(91.55 18.6)"/><path d="M2403.24 441v22.14" stroke="#3a414a" fill="none"/><path d="M2403.74 441h-1v-.5h1z" stroke="#3a414a" stroke-width=".05" fill="#3a414a"/><path d="M2403.23 477.9l-4.64-14.26h9.26z" stroke="#3a414a" fill="#3a414a"/><path d="M2338.34 483.85a31.16 31.16 0 0 1 15-3.85h127.05c10.64 0 19.28 9.5 19.28 21.2 0 11.72-8.64 21.22-19.3 21.22h-127.03a31.16 31.16 0 0 1-15-3.86l-24.57-13.5a4.4 4.4 0 0 1 0-7.7z" stroke="#3a414a" fill="#fff"/><use xlink:href="#k" transform="matrix(1,0,0,1,2311.7731749022137,485) translate(42.3 20.1)"/><use xlink:href="#l" transform="matrix(1,0,0,1,2311.7731749022137,485) translate(85.85 20.1)"/><path d="M2404.62 523.42v22.13a6.18 6.18 0 0 1-6.18 6.18 6.18 6.18 0 0 0-6.18 6.2v6.24" stroke="#3a414a" fill="none"/><path d="M2405.12 523.43h-1v-.5h1z" stroke="#3a414a" stroke-width=".05" fill="#3a414a"/><path d="M2392.26 578.93l-4.64-14.26h9.27z" stroke="#3a414a" fill="#3a414a"/><path d="M2384.53 582.07a29.94 29.94 0 0 1 15.46 0l96.8 25.86a2.14 2.14 0 0 1 0 4.14l-96.8 25.86a29.94 29.94 0 0 1-15.47 0l-96.8-25.86a2.14 2.14 0 0 1 0-4.14z" stroke="#3a414a" fill="#fff"/><use xlink:href="#m" transform="matrix(1,0,0,1,2285,585) translate(32.57499999999999 28.6)"/><use xlink:href="#n" transform="matrix(1,0,0,1,2285,585) translate(109.475 28.6)"/><path d="M2392.26 640.45v24.42a4.63 4.63 0 0 0 4.63 4.63 4.63 4.63 0 0 1 4.63 4.63v6.92" stroke="#7ab648" stroke-width="2" fill="none"/><path d="M2392.26 639.45l1-.03v1.06h-2v-1.06z" stroke="#7ab648" stroke-width=".05" fill="#7ab648"/><path d="M2401.53 696.3l-4.64-14.25h9.26z" stroke="#7ab648" stroke-width="2" fill="#7ab648"/><use xlink:href="#g" transform="matrix(1,0,0,1,2354.908209048199,652.7217237981171) translate(0.005000000000000782 14.4)"/><path d="M2333.15 707.73a10.4 10.4 0 0 1 10.06-7.73h133.32a6.15 6.15 0 0 1 5.94 7.73l-6.58 24.65a10.4 10.4 0 0 1-10.06 7.73h-133.3a6.15 6.15 0 0 1-5.94-7.72z" stroke="#3a414a" fill="#fff"/><use xlink:href="#o" transform="matrix(1,0,0,1,2329.516418096399,705) translate(16.099999999999994 19.1)"/><use xlink:href="#l" transform="matrix(1,0,0,1,2329.516418096399,705) translate(79.05 19.1)"/><path d="M2404.52 741.06v22.1" stroke="#3a414a" fill="none"/><path d="M2405.02 741.07h-1v-.5h1z" stroke="#3a414a" stroke-width=".05" fill="#3a414a"/><path d="M2404.52 777.93l-4.64-14.27h9.27z" stroke="#3a414a" fill="#3a414a"/><path d="M2339.77 788a8 8 0 0 1 8-8h113.5a8 8 0 0 1 8 8v24a8 8 0 0 1-8 8h-113.5a8 8 0 0 1-8-8z" stroke="#3a414a" fill="#fff"/><use xlink:href="#p" transform="matrix(1,0,0,1,2351.7700191633294,792) translate(2.5749999999999957 14.4)"/><use xlink:href="#l" transform="matrix(1,0,0,1,2351.7700191633294,792) translate(48.574999999999996 14.4)"/><path d="M2404.52 820.95v22.21" stroke="#3a414a" fill="none"/><path d="M2405.02 820.96h-1v-.5h1z" stroke="#3a414a" stroke-width=".05" fill="#3a414a"/><path d="M2404.52 857.93l-4.64-14.27h9.27z" stroke="#3a414a" fill="#3a414a"/><path d="M2344.52 868a8 8 0 0 1 8-8h104a8 8 0 0 1 8 8v24a8 8 0 0 1-8 8h-104a8 8 0 0 1-8-8z" stroke="#3a414a" fill="#fff"/><use xlink:href="#q" transform="matrix(1,0,0,1,2356.516418122659,872) translate(30.05 14.4)"/><path d="M2404.52 900.95v22.17" stroke="#3a414a" fill="none"/><path d="M2405.02 900.96h-1v-.5h1z" stroke="#3a414a" stroke-width=".05" fill="#3a414a"/><path d="M2404.52 937.88l-4.64-14.26h9.27z" stroke="#3a414a" fill="#3a414a"/><path d="M2440.52 940c13.25 0 24 8.95 24 20s-10.75 20-24 20h-72c-13.26 0-24-8.95-24-20s10.74-20 24-20z" stroke="#c92d39" fill="#fff"/><use xlink:href="#r" transform="matrix(1,0,0,1,2349.516418175181,945) translate(36.500000000000014 18.599999999999998)"/><path d="M2860 450.42c0 6.63-26.86 12-60 12s-60-5.37-60-12v-96c0-6.63 26.86-12 60-12s60 5.37 60 12z" stroke="#3a414a" fill="#fff"/><path d="M2860 354.42c0 6.63-26.86 12-60 12s-60-5.37-60-12" stroke="#3a414a" fill="none"/><use xlink:href="#s" transform="matrix(1,0,0,1,2745,371.4180430912213) translate(16.525 46.6)"/><path d="M2760 540c-7.73 0-14 8.95-14 20s6.27 20 14 20h-126c-7.73 0-14-8.95-14-20s6.27-20 14-20z" stroke="#3a414a" fill="#fff"/><use xlink:href="#t" transform="matrix(1,0,0,1,2625,545) translate(17.049999999999997 18.6)"/><use xlink:href="#u" transform="matrix(1,0,0,1,2625,545) translate(75 18.6)"/><path d="M2800 463.42V608.5a12 12 0 0 1-12 12h-86a12 12 0 0 1-12-12v-11.62" stroke="#3a414a" fill="none"/><path d="M2800 462.92l.5-.02v.53h-1v-.53z" stroke="#3a414a" stroke-width=".05" fill="#3a414a"/><path d="M2690 582.12l4.64 14.26h-9.28z" stroke="#3a414a" fill="#3a414a"/><path d="M2690 539V282a12 12 0 0 0-12-12h-36a12 12 0 0 1-12-12v-12.35a12 12 0 0 0-12-12h-119.2" stroke="#3a414a" fill="none"/><path d="M2690.5 539.5h-1v-.5h1z" stroke="#3a414a" stroke-width=".05" fill="#3a414a"/><path d="M2484.04 233.65l14.27-4.64v9.28z" stroke="#3a414a" fill="#3a414a"/><path d="M2520 240h100v20h-100z" fill="none"/><use xlink:href="#a" transform="matrix(1,0,0,1,2520,240) translate(16.574999999999996 14.4)"/><path d="M2331.05 233.65H2232a12 12 0 0 1-12-12V153.5a12 12 0 0 1 12-12h91.64" stroke="#c92d39" stroke-width="2" fill="none"/><path d="M2332.15 232.75l-.1.9.1.9.04.1H2331v-2h1.17z" stroke="#c92d39" stroke-width=".05" fill="#c92d39"/><path d="M2338.9 141.5l-14.26 4.64v-9.28z" stroke="#c92d39" stroke-width="2" fill="#c92d39"/><use xlink:href="#v" transform="matrix(1,0,0,1,2228,171.72524592649827) translate(0.005000000000000782 14.4)"/><path d="M2665.57 539v-82.9a.15.15 0 0 1 .15-.14.15.15 0 0 0 .15-.15V392a12 12 0 0 0-12-12H2632a12 12 0 0 1-12-12v-16a12 12 0 0 0-12-12h-92.83" stroke="#3a414a" fill="none"/><path d="M2666.07 539.5h-1v-.5h1z" stroke="#3a414a" stroke-width=".05" fill="#3a414a"/><path d="M2500.4 340l14.27-4.64v9.28z" stroke="#3a414a" fill="#3a414a"/><path d="M2520 340h100v20h-100z" fill="none"/><use xlink:href="#a" transform="matrix(1,0,0,1,2520,340) translate(16.574999999999996 14.4)"/><path d="M2650.18 539v-77a12 12 0 0 0-12-12H2632a12 12 0 0 1-12-12v-6a12 12 0 0 0-12-12h-92.83" stroke="#3a414a" fill="none"/><path d="M2650.68 539.5h-1v-.5h1z" stroke="#3a414a" stroke-width=".05" fill="#3a414a"/><path d="M2500.4 420l14.27-4.64v9.28z" stroke="#3a414a" fill="#3a414a"/><path d="M2520 420h100v20h-100z" fill="none"/><use xlink:href="#a" transform="matrix(1,0,0,1,2520,420) translate(16.574999999999996 14.4)"/><path d="M2633.08 580.9V598a12 12 0 0 1-12 12H2532a12 12 0 0 1-12-12v-26a12 12 0 0 0-12-12h-10.26a12 12 0 0 1-12-12v-9.62" stroke="#3a414a" fill="none"/><path d="M2633.58 580.45v.45h-1v-.57z" stroke="#3a414a" stroke-width=".05" fill="#3a414a"/><path d="M2485.74 523.6l4.63 14.28h-9.27z" stroke="#3a414a" fill="#3a414a"/><path d="M2520 590h100v20h-100z" fill="none"/><use xlink:href="#a" transform="matrix(1,0,0,1,2520,590) translate(16.574999999999996 14.4)"/><path d="M2284.64 610H2192a12 12 0 0 0-12 12v66a12 12 0 0 0 12 12h100.12a12 12 0 0 1 12 12v142.67a12 12 0 0 0 12 12h9.5" stroke="#c92d39" stroke-width="2" fill="none"/><path d="M2285.73 609.32l-.1.68.1.68.13.32h-1.25v-2h1.26z" stroke="#c92d39" stroke-width=".05" fill="#c92d39"/><path d="M2340.88 866.67l-14.26 4.64v-9.27z" stroke="#c92d39" stroke-width="2" fill="#c92d39"/><use xlink:href="#v" transform="matrix(1,0,0,1,2188,649.779895039053) translate(0.005000000000000782 14.4)"/><path d="M2470.22 800h361.6a12 12 0 0 0 12-12V475.43" stroke="#3a414a" fill="none"/><path d="M2470.23 800.5h-.5l-.02-1h.53z" stroke="#3a414a" stroke-width=".05" fill="#3a414a"/><path d="M2843.8 460.66l4.65 14.27h-9.27z" stroke="#3a414a" fill="#3a414a"/><path d="M2600 780h140v20h-140z" fill="none"/><use xlink:href="#w" transform="matrix(1,0,0,1,2600,780) translate(1.0999999999999943 14.4)"/><use xlink:href="#x" transform="matrix(1,0,0,1,2600,780) translate(49.05 14.4)"/><path d="M2343.64 592v-27.5a12 12 0 0 0-12-12H2167a12 12 0 0 0-12 12v83a12 12 0 0 1-12 12h-11a12 12 0 0 0-12 12v11.62" stroke="#3a414a" fill="none"/><path d="M2344.14 592.37l-1 .27V592h1z" stroke="#3a414a" stroke-width=".05" fill="#3a414a"/><path d="M2120 697.88l-4.64-14.26h9.28z" stroke="#3a414a" fill="#3a414a"/><path d="M2140 720.03c0 11.06-8.95 20.02-20 20.02s-20-8.96-20-20.02c0-11.06 8.95-20.03 20-20.03s20 8.97 20 20.03zm-40 0h40M2120 700v40.05" stroke="#3a414a" fill="#fff"/><path d="M2120 741.06V758a12 12 0 0 1-12 12h-3.74a12 12 0 0 1-12-12V552.55a12 12 0 0 0-12-12h-96a12 12 0 0 0-12 12v11.62" stroke="#3a414a" fill="none"/><path d="M2119.98 740.56l.52-.02v.53h-1v-.57z" stroke="#3a414a" stroke-width=".05" fill="#3a414a"/><path d="M1972.26 578.93l-4.64-14.26h9.27z" stroke="#3a414a" fill="#3a414a"/><path d="M1964.53 582.07a29.94 29.94 0 0 1 15.46 0l96.8 25.86a2.14 2.14 0 0 1 0 4.14l-96.8 25.86a29.94 29.94 0 0 1-15.47 0l-96.8-25.86a2.14 2.14 0 0 1 0-4.14z" stroke="#3a414a" fill="#fff"/><use xlink:href="#y" transform="matrix(1,0,0,1,1865,585) translate(35.599999999999994 28.6)"/><use xlink:href="#n" transform="matrix(1,0,0,1,1865,585) translate(106.45 28.6)"/><path d="M1972.26 640.45v40.6" stroke="#7ab648" stroke-width="2" fill="none"/><path d="M1972.26 639.45l1-.03v1.06h-2v-1.06z" stroke="#7ab648" stroke-width=".05" fill="#7ab648"/><path d="M1972.26 696.3l-4.64-14.25h9.27z" stroke="#7ab648" stroke-width="2" fill="#7ab648"/><use xlink:href="#g" transform="matrix(1,0,0,1,1934.908208971085,658.6992387834389) translate(0.005000000000000782 14.4)"/><path d="M1896 708a8 8 0 0 1 8-8h136.5a8 8 0 0 1 8 8v24a8 8 0 0 1-8 8H1904a8 8 0 0 1-8-8z" stroke="#3a414a" fill="#fff"/><use xlink:href="#z" transform="matrix(1,0,0,1,1908.014114105736,712) translate(8.624999999999993 14.4)"/><use xlink:href="#l" transform="matrix(1,0,0,1,1908.014114105736,712) translate(65.525 14.4)"/><path d="M1864.64 610H1852a12 12 0 0 0-12 12v156a12 12 0 0 0 12 12h396a12 12 0 0 1 12 12v79.3a12 12 0 0 0 12 12h53.6" stroke="#c92d39" stroke-width="2" fill="none"/><path d="M1865.73 609.32l-.1.68.1.68.13.32h-1.25v-2h1.26z" stroke="#c92d39" stroke-width=".05" fill="#c92d39"/><path d="M2340.88 893.3l-14.27 4.65v-9.27z" stroke="#c92d39" stroke-width="2" fill="#c92d39"/><g><use xlink:href="#v" transform="matrix(1,0,0,1,1848,692.7809058461252) translate(0.005000000000000782 14.4)"/></g><path d="M1972.26 740.95V828a12 12 0 0 0 12 12H2208a12 12 0 0 1 12 12v96a12 12 0 0 0 12 12h95.63" stroke="#3a414a" fill="none"/><path d="M1972.76 740.96h-1v-.5h1z" stroke="#3a414a" stroke-width=".05" fill="#3a414a"/><path d="M2342.4 960l-14.27 4.64v-9.28z" stroke="#3a414a" fill="#3a414a"/><path d="M2049.46 720h8.5a12 12 0 0 1 12 12v36a12 12 0 0 0 12 12h119.2a12 12 0 0 0 12-12v-6a12 12 0 0 1 12-12H2488a12 12 0 0 0 12-12v-60.75a12 12 0 0 1 12-12h139.8a12 12 0 0 0 12-12v-56.37" stroke="#3a414a" fill="none"/><path d="M2049.47 720.5h-.5l-.02-1h.52z" stroke="#3a414a" stroke-width=".05" fill="#3a414a"/><path d="M2663.8 582.12l4.62 14.26h-9.27z" stroke="#3a414a" fill="#3a414a"/><path d="M2499.68 640h160v20h-160z" fill="none"/><g><use xlink:href="#z" transform="matrix(1,0,0,1,2499.678144769418,640) translate(6.625 14.4)"/><use xlink:href="#x" transform="matrix(1,0,0,1,2499.678144769418,640) translate(63.525000000000006 14.4)"/></g><defs><path fill="#3a414a" d="M233-177c-1 41-23 64-60 70L243 0h-38l-65-103H63V0H30v-248c88 3 205-21 203 71zM63-129c60-2 137 13 137-47 0-61-80-42-137-45v92" id="A"/><path fill="#3a414a" d="M100-194c63 0 86 42 84 106H49c0 40 14 67 53 68 26 1 43-12 49-29l28 8c-11 28-37 45-77 45C44 4 14-33 15-96c1-61 26-98 85-98zm52 81c6-60-76-77-97-28-3 7-6 17-6 28h103" id="B"/><path fill="#3a414a" d="M59-47c-2 24 18 29 38 22v24C64 9 27 4 27-40v-127H5v-23h24l9-43h21v43h35v23H59v120" id="C"/><path fill="#3a414a" d="M114-163C36-179 61-72 57 0H25l-1-190h30c1 12-1 29 2 39 6-27 23-49 58-41v29" id="D"/><path fill="#3a414a" d="M24-231v-30h32v30H24zM24 0v-190h32V0H24" id="E"/><path fill="#3a414a" d="M108 0H70L1-190h34L89-25l56-165h34" id="F"/><g id="a"><use transform="matrix(0.05,0,0,0.05,0,0)" xlink:href="#A"/><use transform="matrix(0.05,0,0,0.05,12.950000000000001,0)" xlink:href="#B"/><use transform="matrix(0.05,0,0,0.05,22.950000000000003,0)" xlink:href="#C"/><use transform="matrix(0.05,0,0,0.05,27.950000000000003,0)" xlink:href="#D"/><use transform="matrix(0.05,0,0,0.05,33.900000000000006,0)" xlink:href="#E"/><use transform="matrix(0.05,0,0,0.05,37.85000000000001,0)" xlink:href="#B"/><use transform="matrix(0.05,0,0,0.05,47.85000000000001,0)" xlink:href="#F"/><use transform="matrix(0.05,0,0,0.05,56.85,0)" xlink:href="#B"/></g><path fill="#3a414a" d="M185-189c-5-48-123-54-124 2 14 75 158 14 163 119 3 78-121 87-175 55-17-10-28-26-33-46l33-7c5 56 141 63 141-1 0-78-155-14-162-118-5-82 145-84 179-34 5 7 8 16 11 25" id="G"/><path fill="#3a414a" d="M141-36C126-15 110 5 73 4 37 3 15-17 15-53c-1-64 63-63 125-63 3-35-9-54-41-54-24 1-41 7-42 31l-33-3c5-37 33-52 76-52 45 0 72 20 72 64v82c-1 20 7 32 28 27v20c-31 9-61-2-59-35zM48-53c0 20 12 33 32 33 41-3 63-29 60-74-43 2-92-5-92 41" id="H"/><g id="b"><use transform="matrix(0.04999999999999996,0,0,0.04999999999999996,0,0)" xlink:href="#G"/><use transform="matrix(0.04999999999999996,0,0,0.04999999999999996,11.999999999999991,0)" xlink:href="#C"/><use transform="matrix(0.04999999999999996,0,0,0.04999999999999996,16.999999999999986,0)" xlink:href="#H"/><use transform="matrix(0.04999999999999996,0,0,0.04999999999999996,26.99999999999998,0)" xlink:href="#D"/><use transform="matrix(0.04999999999999996,0,0,0.04999999999999996,32.949999999999974,0)" xlink:href="#C"/></g><path fill="#3a414a" d="M30 0v-248h33v221h125V0H30" id="I"/><path fill="#3a414a" d="M100-194c62-1 85 37 85 99 1 63-27 99-86 99S16-35 15-95c0-66 28-99 85-99zM99-20c44 1 53-31 53-75 0-43-8-75-51-75s-53 32-53 75 10 74 51 75" id="J"/><path fill="#3a414a" d="M177-190C167-65 218 103 67 71c-23-6-38-20-44-43l32-5c15 47 100 32 89-28v-30C133-14 115 1 83 1 29 1 15-40 15-95c0-56 16-97 71-98 29-1 48 16 59 35 1-10 0-23 2-32h30zM94-22c36 0 50-32 50-73 0-42-14-75-50-75-39 0-46 34-46 75s6 73 46 73" id="K"/><path fill="#3a414a" d="M117-194c89-4 53 116 60 194h-32v-121c0-31-8-49-39-48C34-167 62-67 57 0H25l-1-190h30c1 10-1 24 2 32 11-22 29-35 61-36" id="L"/><g id="c"><use transform="matrix(0.05,0,0,0.05,0,0)" xlink:href="#I"/><use transform="matrix(0.05,0,0,0.05,10,0)" xlink:href="#J"/><use transform="matrix(0.05,0,0,0.05,20,0)" xlink:href="#K"/><use transform="matrix(0.05,0,0,0.05,30,0)" xlink:href="#E"/><use transform="matrix(0.05,0,0,0.05,33.95,0)" xlink:href="#L"/></g><path fill="#3a414a" d="M30-248c118-7 216 8 213 122C240-48 200 0 122 0H30v-248zM63-27c89 8 146-16 146-99s-60-101-146-95v194" id="M"/><path fill="#3a414a" d="M24 0v-261h32V0H24" id="N"/><path fill="#3a414a" d="M135-143c-3-34-86-38-87 0 15 53 115 12 119 90S17 21 10-45l28-5c4 36 97 45 98 0-10-56-113-15-118-90-4-57 82-63 122-42 12 7 21 19 24 35" id="O"/><g id="d"><use transform="matrix(0.05,0,0,0.05,0,0)" xlink:href="#M"/><use transform="matrix(0.05,0,0,0.05,12.950000000000001,0)" xlink:href="#B"/><use transform="matrix(0.05,0,0,0.05,22.950000000000003,0)" xlink:href="#C"/><use transform="matrix(0.05,0,0,0.05,27.950000000000003,0)" xlink:href="#H"/><use transform="matrix(0.05,0,0,0.05,37.95,0)" xlink:href="#E"/><use transform="matrix(0.05,0,0,0.05,41.900000000000006,0)" xlink:href="#N"/><use transform="matrix(0.05,0,0,0.05,45.85000000000001,0)" xlink:href="#O"/></g><path fill="#3a414a" d="M33 0v-248h34V0H33" id="P"/><g id="e"><use transform="matrix(0.05,0,0,0.05,0,0)" xlink:href="#P"/><use transform="matrix(0.05,0,0,0.05,5,0)" xlink:href="#O"/></g><path fill="#3a414a" d="M137 0h-34L2-248h35l83 218 83-218h36" id="Q"/><path fill="#3a414a" d="M85-194c31 0 48 13 60 33l-1-100h32l1 261h-30c-2-10 0-23-3-31C134-8 116 4 85 4 32 4 16-35 15-94c0-66 23-100 70-100zm9 24c-40 0-46 34-46 75 0 40 6 74 45 74 42 0 51-32 51-76 0-42-9-74-50-73" id="R"/><path fill="#3a414a" d="M103-251c84 0 111 97 45 133-19 10-37 24-39 52H78c0-63 77-55 77-114 0-30-21-42-52-43-32 0-53 17-56 46l-32-2c7-45 34-72 88-72zM77 0v-35h34V0H77" id="S"/><g id="f"><use transform="matrix(0.05,0,0,0.05,0,0)" xlink:href="#Q"/><use transform="matrix(0.05,0,0,0.05,10.65,0)" xlink:href="#H"/><use transform="matrix(0.05,0,0,0.05,20.65,0)" xlink:href="#N"/><use transform="matrix(0.05,0,0,0.05,24.599999999999998,0)" xlink:href="#E"/><use transform="matrix(0.05,0,0,0.05,28.549999999999997,0)" xlink:href="#R"/><use transform="matrix(0.05,0,0,0.05,38.55,0)" xlink:href="#S"/></g><path fill="#3a414a" d="M137-103V0h-34v-103L8-248h37l75 118 75-118h37" id="T"/><g id="g"><use transform="matrix(0.05,0,0,0.05,0,0)" xlink:href="#T"/><use transform="matrix(0.05,0,0,0.05,10.35,0)" xlink:href="#B"/><use transform="matrix(0.05,0,0,0.05,20.35,0)" xlink:href="#O"/></g><path fill="#3a414a" d="M106-169C34-169 62-67 57 0H25v-261h32l-1 103c12-21 28-36 61-36 89 0 53 116 60 194h-32v-121c2-32-8-49-39-48" id="U"/><path fill="#3a414a" d="M115-194c53 0 69 39 70 98 0 66-23 100-70 100C84 3 66-7 56-30L54 0H23l1-261h32v101c10-23 28-34 59-34zm-8 174c40 0 45-34 45-75 0-40-5-75-45-74-42 0-51 32-51 76 0 43 10 73 51 73" id="V"/><g id="h"><use transform="matrix(0.05,0,0,0.05,0,0)" xlink:href="#M"/><use transform="matrix(0.05,0,0,0.05,12.950000000000001,0)" xlink:href="#H"/><use transform="matrix(0.05,0,0,0.05,22.950000000000003,0)" xlink:href="#O"/><use transform="matrix(0.05,0,0,0.05,31.950000000000003,0)" xlink:href="#U"/><use transform="matrix(0.05,0,0,0.05,41.95,0)" xlink:href="#V"/><use transform="matrix(0.05,0,0,0.05,51.95,0)" xlink:href="#J"/><use transform="matrix(0.05,0,0,0.05,61.95,0)" xlink:href="#H"/><use transform="matrix(0.05,0,0,0.05,71.95,0)" xlink:href="#D"/><use transform="matrix(0.05,0,0,0.05,77.9,0)" xlink:href="#R"/></g><path fill="#3a414a" d="M84 4C-5 8 30-112 23-190h32v120c0 31 7 50 39 49 72-2 45-101 50-169h31l1 190h-30c-1-10 1-25-2-33-11 22-28 36-60 37" id="W"/><g id="i"><use transform="matrix(0.05,0,0,0.05,0,0)" xlink:href="#G"/><use transform="matrix(0.05,0,0,0.05,12,0)" xlink:href="#C"/><use transform="matrix(0.05,0,0,0.05,17,0)" xlink:href="#W"/><use transform="matrix(0.05,0,0,0.05,27,0)" xlink:href="#R"/><use transform="matrix(0.05,0,0,0.05,37,0)" xlink:href="#B"/><use transform="matrix(0.05,0,0,0.05,47,0)" xlink:href="#L"/><use transform="matrix(0.05,0,0,0.05,57,0)" xlink:href="#C"/></g><path fill="#3a414a" d="M96-169c-40 0-48 33-48 73s9 75 48 75c24 0 41-14 43-38l32 2c-6 37-31 61-74 61-59 0-76-41-82-99-10-93 101-131 147-64 4 7 5 14 7 22l-32 3c-4-21-16-35-41-35" id="X"/><g id="j"><use transform="matrix(0.05,0,0,0.05,0,0)" xlink:href="#A"/><use transform="matrix(0.05,0,0,0.05,12.950000000000001,0)" xlink:href="#B"/><use transform="matrix(0.05,0,0,0.05,22.950000000000003,0)" xlink:href="#X"/><use transform="matrix(0.05,0,0,0.05,31.950000000000003,0)" xlink:href="#J"/><use transform="matrix(0.05,0,0,0.05,41.95,0)" xlink:href="#D"/><use transform="matrix(0.05,0,0,0.05,47.900000000000006,0)" xlink:href="#R"/><use transform="matrix(0.05,0,0,0.05,57.900000000000006,0)" xlink:href="#O"/></g><path fill="#3a414a" d="M206 0h-36l-40-164L89 0H53L-1-190h32L70-26l43-164h34l41 164 42-164h31" id="Y"/><g id="k"><use transform="matrix(0.05,0,0,0.05,0,0)" xlink:href="#Q"/><use transform="matrix(0.05,0,0,0.05,11.65,0)" xlink:href="#E"/><use transform="matrix(0.05,0,0,0.05,15.600000000000001,0)" xlink:href="#B"/><use transform="matrix(0.05,0,0,0.05,25.6,0)" xlink:href="#Y"/></g><g id="l"><use transform="matrix(0.05,0,0,0.05,0,0)" xlink:href="#M"/><use transform="matrix(0.05,0,0,0.05,12.950000000000001,0)" xlink:href="#B"/><use transform="matrix(0.05,0,0,0.05,22.950000000000003,0)" xlink:href="#C"/><use transform="matrix(0.05,0,0,0.05,27.950000000000003,0)" xlink:href="#H"/><use transform="matrix(0.05,0,0,0.05,37.95,0)" xlink:href="#E"/><use transform="matrix(0.05,0,0,0.05,41.900000000000006,0)" xlink:href="#N"/><use transform="matrix(0.05,0,0,0.05,45.85000000000001,0)" xlink:href="#O"/></g><path fill="#3a414a" d="M232-93c-1 65-40 97-104 97C67 4 28-28 28-90v-158h33c8 89-33 224 67 224 102 0 64-133 71-224h33v155" id="Z"/><path fill="#3a414a" d="M115-194c55 1 70 41 70 98S169 2 115 4C84 4 66-9 55-30l1 105H24l-1-265h31l2 30c10-21 28-34 59-34zm-8 174c40 0 45-34 45-75s-6-73-45-74c-42 0-51 32-51 76 0 43 10 73 51 73" id="aa"/><g id="m"><use transform="matrix(0.05,0,0,0.05,0,0)" xlink:href="#Z"/><use transform="matrix(0.05,0,0,0.05,12.950000000000001,0)" xlink:href="#aa"/><use transform="matrix(0.05,0,0,0.05,22.950000000000003,0)" xlink:href="#R"/><use transform="matrix(0.05,0,0,0.05,32.95,0)" xlink:href="#H"/><use transform="matrix(0.05,0,0,0.05,42.95,0)" xlink:href="#C"/><use transform="matrix(0.05,0,0,0.05,47.95,0)" xlink:href="#E"/><use transform="matrix(0.05,0,0,0.05,51.900000000000006,0)" xlink:href="#J"/><use transform="matrix(0.05,0,0,0.05,61.900000000000006,0)" xlink:href="#L"/></g><path fill="#3a414a" d="M190 0L58-211 59 0H30v-248h39L202-35l-2-213h31V0h-41" id="ab"/><g id="n"><use transform="matrix(0.05,0,0,0.05,0,0)" xlink:href="#ab"/><use transform="matrix(0.05,0,0,0.05,12.950000000000001,0)" xlink:href="#B"/><use transform="matrix(0.05,0,0,0.05,22.950000000000003,0)" xlink:href="#B"/><use transform="matrix(0.05,0,0,0.05,32.95,0)" xlink:href="#R"/><use transform="matrix(0.05,0,0,0.05,42.95,0)" xlink:href="#B"/><use transform="matrix(0.05,0,0,0.05,52.95,0)" xlink:href="#R"/><use transform="matrix(0.05,0,0,0.05,62.95,0)" xlink:href="#S"/></g><g id="o"><use transform="matrix(0.05,0,0,0.05,0,0)" xlink:href="#Z"/><use transform="matrix(0.05,0,0,0.05,12.950000000000001,0)" xlink:href="#aa"/><use transform="matrix(0.05,0,0,0.05,22.950000000000003,0)" xlink:href="#R"/><use transform="matrix(0.05,0,0,0.05,32.95,0)" xlink:href="#H"/><use transform="matrix(0.05,0,0,0.05,42.95,0)" xlink:href="#C"/><use transform="matrix(0.05,0,0,0.05,47.95,0)" xlink:href="#B"/></g><g id="p"><use transform="matrix(0.05,0,0,0.05,0,0)" xlink:href="#G"/><use transform="matrix(0.05,0,0,0.05,12,0)" xlink:href="#H"/><use transform="matrix(0.05,0,0,0.05,22,0)" xlink:href="#F"/><use transform="matrix(0.05,0,0,0.05,31,0)" xlink:href="#B"/></g><path fill="#3a414a" d="M30-248c87 1 191-15 191 75 0 78-77 80-158 76V0H30v-248zm33 125c57 0 124 11 124-50 0-59-68-47-124-48v98" id="ac"/><g id="q"><use transform="matrix(0.05,0,0,0.05,0,0)" xlink:href="#ac"/><use transform="matrix(0.05,0,0,0.05,12,0)" xlink:href="#D"/><use transform="matrix(0.05,0,0,0.05,17.95,0)" xlink:href="#E"/><use transform="matrix(0.05,0,0,0.05,21.9,0)" xlink:href="#L"/><use transform="matrix(0.05,0,0,0.05,31.899999999999995,0)" xlink:href="#C"/></g><g id="r"><use transform="matrix(0.04999999999999996,0,0,0.04999999999999996,0,0)" xlink:href="#G"/><use transform="matrix(0.04999999999999996,0,0,0.04999999999999996,11.999999999999991,0)" xlink:href="#C"/><use transform="matrix(0.04999999999999996,0,0,0.04999999999999996,16.999999999999986,0)" xlink:href="#J"/><use transform="matrix(0.04999999999999996,0,0,0.04999999999999996,26.99999999999998,0)" xlink:href="#aa"/></g><g id="s"><use transform="matrix(0.05,0,0,0.05,0,0)" xlink:href="#M"/><use transform="matrix(0.05,0,0,0.05,12.950000000000001,0)" xlink:href="#H"/><use transform="matrix(0.05,0,0,0.05,22.950000000000003,0)" xlink:href="#C"/><use transform="matrix(0.05,0,0,0.05,27.950000000000003,0)" xlink:href="#H"/><use transform="matrix(0.05,0,0,0.05,37.95,0)" xlink:href="#V"/><use transform="matrix(0.05,0,0,0.05,47.95,0)" xlink:href="#H"/><use transform="matrix(0.05,0,0,0.05,57.95,0)" xlink:href="#O"/><use transform="matrix(0.05,0,0,0.05,66.95,0)" xlink:href="#B"/></g><g id="t"><use transform="matrix(0.05,0,0,0.05,0,0)" xlink:href="#G"/><use transform="matrix(0.05,0,0,0.05,12,0)" xlink:href="#C"/><use transform="matrix(0.05,0,0,0.05,17,0)" xlink:href="#J"/><use transform="matrix(0.05,0,0,0.05,27,0)" xlink:href="#D"/><use transform="matrix(0.05,0,0,0.05,32.95,0)" xlink:href="#B"/><use transform="matrix(0.05,0,0,0.05,42.95,0)" xlink:href="#R"/></g><g id="u"><use transform="matrix(0.05,0,0,0.05,0,0)" xlink:href="#M"/><use transform="matrix(0.05,0,0,0.05,12.950000000000001,0)" xlink:href="#H"/><use transform="matrix(0.05,0,0,0.05,22.950000000000003,0)" xlink:href="#C"/><use transform="matrix(0.05,0,0,0.05,27.950000000000003,0)" xlink:href="#H"/></g><g id="v"><use transform="matrix(0.05,0,0,0.05,0,0)" xlink:href="#ab"/><use transform="matrix(0.05,0,0,0.05,12.950000000000001,0)" xlink:href="#J"/></g><g id="w"><use transform="matrix(0.05,0,0,0.05,0,0)" xlink:href="#G"/><use transform="matrix(0.05,0,0,0.05,12,0)" xlink:href="#C"/><use transform="matrix(0.05,0,0,0.05,17,0)" xlink:href="#J"/><use transform="matrix(0.05,0,0,0.05,27,0)" xlink:href="#D"/><use transform="matrix(0.05,0,0,0.05,32.95,0)" xlink:href="#B"/></g><path fill="#3a414a" d="M101-234c-31-9-42 10-38 44h38v23H63V0H32v-167H5v-23h27c-7-52 17-82 69-68v24" id="ad"/><path fill="#3a414a" d="M210-169c-67 3-38 105-44 169h-31v-121c0-29-5-50-35-48C34-165 62-65 56 0H25l-1-190h30c1 10-1 24 2 32 10-44 99-50 107 0 11-21 27-35 58-36 85-2 47 119 55 194h-31v-121c0-29-5-49-35-48" id="ae"/><g id="x"><use transform="matrix(0.05,0,0,0.05,0,0)" xlink:href="#P"/><use transform="matrix(0.05,0,0,0.05,5,0)" xlink:href="#L"/><use transform="matrix(0.05,0,0,0.05,15,0)" xlink:href="#ad"/><use transform="matrix(0.05,0,0,0.05,20,0)" xlink:href="#J"/><use transform="matrix(0.05,0,0,0.05,30,0)" xlink:href="#D"/><use transform="matrix(0.05,0,0,0.05,35.95,0)" xlink:href="#ae"/><use transform="matrix(0.05,0,0,0.05,50.900000000000006,0)" xlink:href="#H"/><use transform="matrix(0.05,0,0,0.05,60.900000000000006,0)" xlink:href="#C"/><use transform="matrix(0.05,0,0,0.05,65.9,0)" xlink:href="#E"/><use transform="matrix(0.05,0,0,0.05,69.85000000000001,0)" xlink:href="#J"/><use transform="matrix(0.05,0,0,0.05,79.85000000000001,0)" xlink:href="#L"/></g><g id="y"><use transform="matrix(0.05,0,0,0.05,0,0)" xlink:href="#M"/><use transform="matrix(0.05,0,0,0.05,12.950000000000001,0)" xlink:href="#B"/><use transform="matrix(0.05,0,0,0.05,22.950000000000003,0)" xlink:href="#N"/><use transform="matrix(0.05,0,0,0.05,26.900000000000002,0)" xlink:href="#B"/><use transform="matrix(0.05,0,0,0.05,36.900000000000006,0)" xlink:href="#C"/><use transform="matrix(0.05,0,0,0.05,41.900000000000006,0)" xlink:href="#E"/><use transform="matrix(0.05,0,0,0.05,45.85000000000001,0)" xlink:href="#J"/><use transform="matrix(0.05,0,0,0.05,55.85,0)" xlink:href="#L"/></g><g id="z"><use transform="matrix(0.05,0,0,0.05,0,0)" xlink:href="#M"/><use transform="matrix(0.05,0,0,0.05,12.950000000000001,0)" xlink:href="#B"/><use transform="matrix(0.05,0,0,0.05,22.950000000000003,0)" xlink:href="#N"/><use transform="matrix(0.05,0,0,0.05,26.900000000000002,0)" xlink:href="#B"/><use transform="matrix(0.05,0,0,0.05,36.900000000000006,0)" xlink:href="#C"/><use transform="matrix(0.05,0,0,0.05,41.900000000000006,0)" xlink:href="#B"/></g></defs></g></svg>