<svg xmlns="http://www.w3.org/2000/svg" xmlns:xlink="http://www.w3.org/1999/xlink" xmlns:lucid="lucid" width="763" height="671"><g transform="translate(-850 -54)" lucid:page-tab-id="0_0"><path d="M1444.17 624h100v20h-100z" fill="none"/><use xlink:href="#a" transform="matrix(1,0,0,1,1444.1666666666667,624) translate(29.367283950617285 12.222222222222221)"/><path d="M1181.57 64c11.93 0 21.6 8.06 21.6 18s-9.67 18-21.6 18h-64.8c-11.93 0-21.6-8.06-21.6-18s9.67-18 21.6-18z" stroke="#c92d39" fill="#fff"/><use xlink:href="#b" transform="matrix(1,0,0,1,1100.1719876146294,69) translate(37.28703703703704 15.38888888888889)"/><path d="M1152.8 101v22.16" stroke="#3a414a" fill="none"/><path d="M1153.3 101h-1v-.5h1z" stroke="#3a414a" stroke-width=".05" fill="#3a414a"/><path d="M1152.8 137.93l-4.62-14.27h9.27z" stroke="#3a414a" fill="#3a414a"/><path d="M1100.25 147.73a10.4 10.4 0 0 1 10.06-7.73h87.67a6.15 6.15 0 0 1 5.94 7.73l-5.47 20.54a10.4 10.4 0 0 1-10.06 7.73h-87.66a6.15 6.15 0 0 1-5.93-7.73z" stroke="#3a414a" fill="#fff"/><use xlink:href="#c" transform="matrix(1,0,0,1,1097.7071161612662,145) translate(19.46796296296296 15.38888888888889)"/><use xlink:href="#d" transform="matrix(1,0,0,1,1097.7071161612662,145) translate(49.68401234567901 15.38888888888889)"/><path d="M1144.26 219.1a19.02 19.02 0 0 1 14.75 0l28.06 11.8a3.36 3.36 0 0 1 0 6.2L1159 248.9a19.02 19.02 0 0 1-14.74 0l-28.05-11.8a3.36 3.36 0 0 1 0-6.2z" stroke="#3a414a" fill="#fff"/><use xlink:href="#e" transform="matrix(1,0,0,1,1113.8335446848464,221) translate(16.656234567901237 15.38888888888889)"/><use xlink:href="#f" transform="matrix(1,0,0,1,1113.8335446848464,221) translate(28.384629629629632 15.38888888888889)"/><path d="M1151.63 176.95v23.78" stroke="#3a414a" fill="none"/><path d="M1152.13 176.96h-1v-.5h1z" stroke="#3a414a" stroke-width=".05" fill="#3a414a"/><path d="M1151.63 215.5l-4.63-14.27h9.27z" stroke="#3a414a" fill="#3a414a"/><path d="M1151.63 251.4v23.74" stroke="#54c45e" fill="none"/><path d="M1151.63 250.9l.5-.03v.53h-1v-.53z" stroke="#54c45e" stroke-width=".05" fill="#54c45e"/><path d="M1151.63 289.9l-4.63-14.26h9.27z" stroke="#54c45e" fill="#54c45e"/><use xlink:href="#g" transform="matrix(1,0,0,1,1125.5154600645244,260.732468295336) translate(0.005000000000000782 8.88888888888889)"/><path d="M1085.73 295.68a32.82 32.82 0 0 1 15.1-3.68h117.4c9.9 0 17.9 8.3 17.9 18.57 0 10.26-8 18.57-17.9 18.57h-117.4a32.82 32.82 0 0 1-15.1-3.68l-21.62-11.2a4.15 4.15 0 0 1 0-7.37z" stroke="#3a414a" fill="#fff"/><use xlink:href="#h" transform="matrix(1,0,0,1,1062.006007810866,297) translate(53.13154320987655 15.88888888888889)"/><use xlink:href="#i" transform="matrix(1,0,0,1,1062.006007810866,297) translate(94.48956790123457 15.88888888888889)"/><path d="M1147.87 330.14v22.14" stroke="#3a414a" fill="none"/><path d="M1148.37 330.16h-1v-.52h1z" stroke="#3a414a" stroke-width=".05" fill="#3a414a"/><path d="M1147.87 367.05l-4.63-14.27h9.27z" stroke="#3a414a" fill="#3a414a"/><path d="M1085.73 372.83a32.82 32.82 0 0 1 15.1-3.7h117.4c9.9 0 17.9 8.33 17.9 18.6 0 10.24-8 18.56-17.9 18.56h-117.4a32.82 32.82 0 0 1-15.1-3.7l-21.62-11.2a4.15 4.15 0 0 1 0-7.37z" stroke="#3a414a" fill="#fff"/><use xlink:href="#j" transform="matrix(1,0,0,1,1062.006007810866,374.14389627821964) translate(46.69635802469136 15.88888888888889)"/><use xlink:href="#k" transform="matrix(1,0,0,1,1062.006007810866,374.14389627821964) translate(100.92475308641976 15.88888888888889)"/><path d="M1147.87 407.3v23.15" stroke="#3a414a" fill="none"/><path d="M1148.37 407.3h-1v-.5h1z" stroke="#3a414a" stroke-width=".05" fill="#3a414a"/><path d="M1147.87 445.22l-4.63-14.27h9.27z" stroke="#3a414a" fill="#3a414a"/><path d="M1140.14 448.35a29.94 29.94 0 0 1 15.46 0l54.04 14.44a2.14 2.14 0 0 1 0 4.13l-54.04 14.44a29.94 29.94 0 0 1-15.46 0l-54.03-14.44a2.14 2.14 0 0 1 0-4.14z" stroke="#3a414a" fill="#fff"/><use xlink:href="#l" transform="matrix(1,0,0,1,1083.3781322261684,451.2877925564393) translate(29.026604938271607 15.88888888888889)"/><use xlink:href="#m" transform="matrix(1,0,0,1,1083.3781322261684,451.2877925564393) translate(63.59450617283951 15.88888888888889)"/><path d="M1084.13 607.73a10.4 10.4 0 0 1 10.06-7.73h122.25a6.15 6.15 0 0 1 5.94 7.73l-5.8 21.68a10.4 10.4 0 0 1-10.05 7.74H1084.3a6.15 6.15 0 0 1-5.95-7.73z" stroke="#3a414a" fill="#fff"/><use xlink:href="#n" transform="matrix(1,0,0,1,1081.2853057998427,605) translate(44.35993827160494 15.88888888888889)"/><path d="M1150.37 638.1v18.67a.06.06 0 0 1-.06.06.06.06 0 0 0-.05.06v2.78" stroke="#3a414a" fill="none"/><path d="M1150.87 638.1h-1v-.5h1z" stroke="#3a414a" stroke-width=".05" fill="#3a414a"/><path d="M1150.25 674.45l-4.63-14.27h9.27z" stroke="#3a414a" fill="#3a414a"/><path d="M1183.68 676.57c12.3 0 22.3 8.3 22.3 18.57 0 10.26-10 18.57-22.3 18.57h-66.85c-12.3 0-22.3-8.3-22.3-18.56 0-10.26 10-18.57 22.3-18.57z" stroke="#c92d39" fill="#fff"/><use xlink:href="#o" transform="matrix(1,0,0,1,1099.5388776162185,681.5683111653411) translate(39.58024691358025 15.88888888888889)"/><path d="M1604.17 474.42c0 6.63-26.87 12-60 12-33.14 0-60-5.37-60-12v-96c0-6.63 26.86-12 60-12 33.13 0 60 5.37 60 12z" stroke="#3a414a" fill="#fff"/><path d="M1604.17 378.42c0 6.63-26.87 12-60 12-33.14 0-60-5.37-60-12" stroke="#3a414a" fill="none"/><use xlink:href="#p" transform="matrix(1,0,0,1,1489.1666666666667,395.4180430912213) translate(31.25 46.513888888888886)"/><path d="M1490.17 564c-6.96 0-12.6 8.06-12.6 18s5.64 18 12.6 18H1376.77c-6.96 0-12.6-8.06-12.6-18s5.64-18 12.6-18z" stroke="#3a414a" fill="#fff"/><use xlink:href="#q" transform="matrix(1,0,0,1,1369.1666666666667,569) translate(24.401234567901238 15.63888888888889)"/><use xlink:href="#r" transform="matrix(1,0,0,1,1369.1666666666667,569) translate(60.172839506172835 15.63888888888889)"/><path d="M1544.17 487.42V628.5a12 12 0 0 1-12 12h-93a12 12 0 0 1-12-12v-11.62" stroke="#3a414a" fill="none"/><path d="M1544.17 486.92l.5-.02v.53h-1v-.53z" stroke="#3a414a" stroke-width=".05" fill="#3a414a"/><path d="M1427.17 602.12l4.63 14.26h-9.27z" stroke="#3a414a" fill="#3a414a"/><path d="M1427.17 563V306a12 12 0 0 0-12-12H1392a12 12 0 0 1-12-12v-36a12 12 0 0 0-12-12h-162" stroke="#3a414a" fill="none"/><path d="M1427.67 563.5h-1v-.5h1z" stroke="#3a414a" stroke-width=".05" fill="#3a414a"/><path d="M1191.24 234l14.27-4.64v9.28z" stroke="#3a414a" fill="#3a414a"/><path d="M1264.17 232h100v20h-100z" fill="none"/><use xlink:href="#a" transform="matrix(1,0,0,1,1264.1666666666667,232) translate(29.367283950617285 12.222222222222221)"/><path d="M1113.14 234H1022a12 12 0 0 1-12-12v-52a12 12 0 0 1 12-12h58.66" stroke="#e81313" fill="none"/><path d="M1113.64 234l.06.5h-.57v-1h.57z" stroke="#e81313" stroke-width=".05" fill="#e81313"/><path d="M1095.42 158l-14.26 4.64v-9.28z" stroke="#e81313" fill="#e81313"/><use xlink:href="#s" transform="matrix(1,0,0,1,1017.9999999999999,197.63510052242063) translate(0.004999999999999893 8.88888888888889)"/><path d="M1405.12 563V382a12 12 0 0 0-12-12h-16.95a12 12 0 0 1-12-12v-35.43a12 12 0 0 0-12-12h-99.14" stroke="#3a414a" fill="none"/><path d="M1405.62 563.5h-1v-.5h1z" stroke="#3a414a" stroke-width=".05" fill="#3a414a"/><path d="M1238.26 310.57l14.27-4.63v9.27z" stroke="#3a414a" fill="#3a414a"/><path d="M1264.17 309.14h100v20h-100z" fill="none"/><use xlink:href="#a" transform="matrix(1,0,0,1,1264.1666666666667,309.14389627821964) translate(29.367283950617285 12.222222222222221)"/><path d="M1391.23 563v-77a12 12 0 0 0-12-12H1362a12 12 0 0 1-12-12v-62.28a12 12 0 0 0-12-12h-84.97" stroke="#3a414a" fill="none"/><path d="M1391.73 563.5h-1v-.5h1z" stroke="#3a414a" stroke-width=".05" fill="#3a414a"/><path d="M1238.26 387.72l14.27-4.64v9.27z" stroke="#3a414a" fill="#3a414a"/><path d="M1264.17 386.3h100v20h-100z" fill="none"/><use xlink:href="#a" transform="matrix(1,0,0,1,1264.1666666666667,386.2877925564393) translate(29.367283950617285 12.222222222222221)"/><path d="M1394.28 601v37a12 12 0 0 1-12 12H1272a12 12 0 0 1-12-12V494.94a12 12 0 0 0-12-12h-16.35a12 12 0 0 0-12 12v11.62" stroke="#3a414a" fill="none"/><path d="M1394.78 601h-1v-.5h1z" stroke="#3a414a" stroke-width=".05" fill="#3a414a"/><path d="M1219.65 521.33l-4.64-14.27h9.28z" stroke="#3a414a" fill="#3a414a"/><path d="M1147.87 483.38V506.57" stroke="#54c45e" fill="none"/><path d="M1147.87 482.88h.5v.5h-1v-.5z" stroke="#54c45e" stroke-width=".05" fill="#54c45e"/><path d="M1147.87 521.34l-4.63-14.27h9.27z" stroke="#54c45e" fill="#54c45e"/><use xlink:href="#t" transform="matrix(1,0,0,1,1121.7559694494446,492.23189794212414) translate(0 8.88888888888889)"/><path d="M1087.03 527.1a32.82 32.82 0 0 1 15.1-3.67h117.4c9.9 0 17.9 8.32 17.9 18.57 0 10.26-8 18.58-17.9 18.58h-117.4a32.82 32.82 0 0 1-15.1-3.7l-21.62-11.2a4.15 4.15 0 0 1 0-7.36z" stroke="#3a414a" fill="#fff"/><use xlink:href="#u" transform="matrix(1,0,0,1,1063.3077260434957,528.4316888346589) translate(62.08216049382715 15.88888888888889)"/><path d="M1149.65 561.58v21.59" stroke="#3a414a" fill="none"/><path d="M1150.15 561.6h-1v-.52h1z" stroke="#3a414a" stroke-width=".05" fill="#3a414a"/><path d="M1149.65 597.93l-4.64-14.27h9.28z" stroke="#3a414a" fill="#3a414a"/><path d="M1280 630h100v20h-100z" fill="none"/><use xlink:href="#a" transform="matrix(1,0,0,1,1280,630) translate(29.367283950617285 12.222222222222221)"/><path d="M1083.52 464.86H949.95a6 6 0 0 0-6 6v76.3" stroke="#e81313" fill="none"/><path d="M1084.02 464.86l.06.5h-.58v-1h.58z" stroke="#e81313" stroke-width=".05" fill="#e81313"/><path d="M943.95 561.93l-4.63-14.26h9.27z" stroke="#e81313" fill="#e81313"/><use xlink:href="#v" transform="matrix(1,0,0,1,951.950324053112,483.4139040370292) translate(0 8.88888888888889)"/><path d="M860 572a8 8 0 0 1 8-8h151.9a8 8 0 0 1 8 8v21.14a8 8 0 0 1-8 8H868a8 8 0 0 1-8-8z" stroke="#3a414a" fill="#fff"/><g><use xlink:href="#w" transform="matrix(1,0,0,1,872,576) translate(23.959876543209873 10.63888888888889)"/><use xlink:href="#x" transform="matrix(1,0,0,1,872,576) translate(60.90432098765431 10.63888888888889)"/></g><path d="M943.95 602.1v87.04a6 6 0 0 0 6 6h127.7" stroke="#3a414a" fill="none"/><path d="M944.45 602.1h-1v-.5h1z" stroke="#3a414a" stroke-width=".05" fill="#3a414a"/><path d="M1092.42 695.14l-14.27 4.64v-9.28z" stroke="#3a414a" fill="#3a414a"/><defs><path fill="#3a414a" d="M233-177c-1 41-23 64-60 70L243 0h-38l-65-103H63V0H30v-248c88 3 205-21 203 71zM63-129c60-2 137 13 137-47 0-61-80-42-137-45v92" id="y"/><path fill="#3a414a" d="M100-194c63 0 86 42 84 106H49c0 40 14 67 53 68 26 1 43-12 49-29l28 8c-11 28-37 45-77 45C44 4 14-33 15-96c1-61 26-98 85-98zm52 81c6-60-76-77-97-28-3 7-6 17-6 28h103" id="z"/><path fill="#3a414a" d="M59-47c-2 24 18 29 38 22v24C64 9 27 4 27-40v-127H5v-23h24l9-43h21v43h35v23H59v120" id="A"/><path fill="#3a414a" d="M114-163C36-179 61-72 57 0H25l-1-190h30c1 12-1 29 2 39 6-27 23-49 58-41v29" id="B"/><path fill="#3a414a" d="M24-231v-30h32v30H24zM24 0v-190h32V0H24" id="C"/><path fill="#3a414a" d="M108 0H70L1-190h34L89-25l56-165h34" id="D"/><g id="a"><use transform="matrix(0.030864197530864196,0,0,0.030864197530864196,0,0)" xlink:href="#y"/><use transform="matrix(0.030864197530864196,0,0,0.030864197530864196,7.993827160493827,0)" xlink:href="#z"/><use transform="matrix(0.030864197530864196,0,0,0.030864197530864196,14.166666666666666,0)" xlink:href="#A"/><use transform="matrix(0.030864197530864196,0,0,0.030864197530864196,17.253086419753085,0)" xlink:href="#B"/><use transform="matrix(0.030864197530864196,0,0,0.030864197530864196,20.925925925925924,0)" xlink:href="#C"/><use transform="matrix(0.030864197530864196,0,0,0.030864197530864196,23.364197530864196,0)" xlink:href="#z"/><use transform="matrix(0.030864197530864196,0,0,0.030864197530864196,29.537037037037035,0)" xlink:href="#D"/><use transform="matrix(0.030864197530864196,0,0,0.030864197530864196,35.09259259259259,0)" xlink:href="#z"/></g><path fill="#3a414a" d="M185-189c-5-48-123-54-124 2 14 75 158 14 163 119 3 78-121 87-175 55-17-10-28-26-33-46l33-7c5 56 141 63 141-1 0-78-155-14-162-118-5-82 145-84 179-34 5 7 8 16 11 25" id="E"/><path fill="#3a414a" d="M141-36C126-15 110 5 73 4 37 3 15-17 15-53c-1-64 63-63 125-63 3-35-9-54-41-54-24 1-41 7-42 31l-33-3c5-37 33-52 76-52 45 0 72 20 72 64v82c-1 20 7 32 28 27v20c-31 9-61-2-59-35zM48-53c0 20 12 33 32 33 41-3 63-29 60-74-43 2-92-5-92 41" id="F"/><g id="b"><use transform="matrix(0.030864197530864196,0,0,0.030864197530864196,0,0)" xlink:href="#E"/><use transform="matrix(0.030864197530864196,0,0,0.030864197530864196,7.4074074074074066,0)" xlink:href="#A"/><use transform="matrix(0.030864197530864196,0,0,0.030864197530864196,10.493827160493826,0)" xlink:href="#F"/><use transform="matrix(0.030864197530864196,0,0,0.030864197530864196,16.666666666666664,0)" xlink:href="#B"/><use transform="matrix(0.030864197530864196,0,0,0.030864197530864196,20.339506172839503,0)" xlink:href="#A"/></g><path fill="#3a414a" d="M30 0v-248h33v221h125V0H30" id="G"/><path fill="#3a414a" d="M100-194c62-1 85 37 85 99 1 63-27 99-86 99S16-35 15-95c0-66 28-99 85-99zM99-20c44 1 53-31 53-75 0-43-8-75-51-75s-53 32-53 75 10 74 51 75" id="H"/><path fill="#3a414a" d="M177-190C167-65 218 103 67 71c-23-6-38-20-44-43l32-5c15 47 100 32 89-28v-30C133-14 115 1 83 1 29 1 15-40 15-95c0-56 16-97 71-98 29-1 48 16 59 35 1-10 0-23 2-32h30zM94-22c36 0 50-32 50-73 0-42-14-75-50-75-39 0-46 34-46 75s6 73 46 73" id="I"/><path fill="#3a414a" d="M117-194c89-4 53 116 60 194h-32v-121c0-31-8-49-39-48C34-167 62-67 57 0H25l-1-190h30c1 10-1 24 2 32 11-22 29-35 61-36" id="J"/><g id="c"><use transform="matrix(0.030864197530864196,0,0,0.030864197530864196,0,0)" xlink:href="#G"/><use transform="matrix(0.030864197530864196,0,0,0.030864197530864196,6.172839506172839,0)" xlink:href="#H"/><use transform="matrix(0.030864197530864196,0,0,0.030864197530864196,12.345679012345679,0)" xlink:href="#I"/><use transform="matrix(0.030864197530864196,0,0,0.030864197530864196,18.51851851851852,0)" xlink:href="#C"/><use transform="matrix(0.030864197530864196,0,0,0.030864197530864196,20.95679012345679,0)" xlink:href="#J"/></g><path fill="#3a414a" d="M30-248c118-7 216 8 213 122C240-48 200 0 122 0H30v-248zM63-27c89 8 146-16 146-99s-60-101-146-95v194" id="K"/><path fill="#3a414a" d="M24 0v-261h32V0H24" id="L"/><path fill="#3a414a" d="M135-143c-3-34-86-38-87 0 15 53 115 12 119 90S17 21 10-45l28-5c4 36 97 45 98 0-10-56-113-15-118-90-4-57 82-63 122-42 12 7 21 19 24 35" id="M"/><g id="d"><use transform="matrix(0.030864197530864196,0,0,0.030864197530864196,0,0)" xlink:href="#K"/><use transform="matrix(0.030864197530864196,0,0,0.030864197530864196,7.993827160493827,0)" xlink:href="#z"/><use transform="matrix(0.030864197530864196,0,0,0.030864197530864196,14.166666666666666,0)" xlink:href="#A"/><use transform="matrix(0.030864197530864196,0,0,0.030864197530864196,17.253086419753085,0)" xlink:href="#F"/><use transform="matrix(0.030864197530864196,0,0,0.030864197530864196,23.425925925925924,0)" xlink:href="#C"/><use transform="matrix(0.030864197530864196,0,0,0.030864197530864196,25.864197530864196,0)" xlink:href="#L"/><use transform="matrix(0.030864197530864196,0,0,0.030864197530864196,28.30246913580247,0)" xlink:href="#M"/></g><path fill="#3a414a" d="M33 0v-248h34V0H33" id="N"/><g id="e"><use transform="matrix(0.030864197530864196,0,0,0.030864197530864196,0,0)" xlink:href="#N"/><use transform="matrix(0.030864197530864196,0,0,0.030864197530864196,3.0864197530864197,0)" xlink:href="#M"/></g><path fill="#3a414a" d="M137 0h-34L2-248h35l83 218 83-218h36" id="O"/><path fill="#3a414a" d="M85-194c31 0 48 13 60 33l-1-100h32l1 261h-30c-2-10 0-23-3-31C134-8 116 4 85 4 32 4 16-35 15-94c0-66 23-100 70-100zm9 24c-40 0-46 34-46 75 0 40 6 74 45 74 42 0 51-32 51-76 0-42-9-74-50-73" id="P"/><path fill="#3a414a" d="M103-251c84 0 111 97 45 133-19 10-37 24-39 52H78c0-63 77-55 77-114 0-30-21-42-52-43-32 0-53 17-56 46l-32-2c7-45 34-72 88-72zM77 0v-35h34V0H77" id="Q"/><g id="f"><use transform="matrix(0.030864197530864196,0,0,0.030864197530864196,0,0)" xlink:href="#O"/><use transform="matrix(0.030864197530864196,0,0,0.030864197530864196,6.5740740740740735,0)" xlink:href="#F"/><use transform="matrix(0.030864197530864196,0,0,0.030864197530864196,12.746913580246913,0)" xlink:href="#L"/><use transform="matrix(0.030864197530864196,0,0,0.030864197530864196,15.185185185185183,0)" xlink:href="#C"/><use transform="matrix(0.030864197530864196,0,0,0.030864197530864196,17.623456790123456,0)" xlink:href="#P"/><use transform="matrix(0.030864197530864196,0,0,0.030864197530864196,23.796296296296294,0)" xlink:href="#Q"/></g><path fill="#3a414a" d="M137-103V0h-34v-103L8-248h37l75 118 75-118h37" id="R"/><g id="g"><use transform="matrix(0.030864197530864196,0,0,0.030864197530864196,0,0)" xlink:href="#R"/><use transform="matrix(0.030864197530864196,0,0,0.030864197530864196,6.388888888888888,0)" xlink:href="#z"/><use transform="matrix(0.030864197530864196,0,0,0.030864197530864196,12.561728395061728,0)" xlink:href="#M"/></g><path fill="#3a414a" d="M84 4C-5 8 30-112 23-190h32v120c0 31 7 50 39 49 72-2 45-101 50-169h31l1 190h-30c-1-10 1-25-2-33-11 22-28 36-60 37" id="S"/><g id="h"><use transform="matrix(0.030864197530864196,0,0,0.030864197530864196,0,0)" xlink:href="#E"/><use transform="matrix(0.030864197530864196,0,0,0.030864197530864196,7.4074074074074066,0)" xlink:href="#A"/><use transform="matrix(0.030864197530864196,0,0,0.030864197530864196,10.493827160493826,0)" xlink:href="#S"/><use transform="matrix(0.030864197530864196,0,0,0.030864197530864196,16.666666666666664,0)" xlink:href="#P"/><use transform="matrix(0.030864197530864196,0,0,0.030864197530864196,22.839506172839503,0)" xlink:href="#z"/><use transform="matrix(0.030864197530864196,0,0,0.030864197530864196,29.01234567901234,0)" xlink:href="#J"/><use transform="matrix(0.030864197530864196,0,0,0.030864197530864196,35.18518518518518,0)" xlink:href="#A"/></g><path fill="#3a414a" d="M30-248c87 1 191-15 191 75 0 78-77 80-158 76V0H30v-248zm33 125c57 0 124 11 124-50 0-59-68-47-124-48v98" id="T"/><path fill="#3a414a" d="M101-234c-31-9-42 10-38 44h38v23H63V0H32v-167H5v-23h27c-7-52 17-82 69-68v24" id="U"/><g id="i"><use transform="matrix(0.030864197530864196,0,0,0.030864197530864196,0,0)" xlink:href="#T"/><use transform="matrix(0.030864197530864196,0,0,0.030864197530864196,7.4074074074074066,0)" xlink:href="#B"/><use transform="matrix(0.030864197530864196,0,0,0.030864197530864196,11.080246913580247,0)" xlink:href="#H"/><use transform="matrix(0.030864197530864196,0,0,0.030864197530864196,17.253086419753085,0)" xlink:href="#U"/><use transform="matrix(0.030864197530864196,0,0,0.030864197530864196,20.339506172839506,0)" xlink:href="#C"/><use transform="matrix(0.030864197530864196,0,0,0.030864197530864196,22.77777777777778,0)" xlink:href="#L"/><use transform="matrix(0.030864197530864196,0,0,0.030864197530864196,25.21604938271605,0)" xlink:href="#z"/></g><path fill="#3a414a" d="M205 0l-28-72H64L36 0H1l101-248h38L239 0h-34zm-38-99l-47-123c-12 45-31 82-46 123h93" id="V"/><path fill="#3a414a" d="M210-169c-67 3-38 105-44 169h-31v-121c0-29-5-50-35-48C34-165 62-65 56 0H25l-1-190h30c1 10-1 24 2 32 10-44 99-50 107 0 11-21 27-35 58-36 85-2 47 119 55 194h-31v-121c0-29-5-49-35-48" id="W"/><g id="j"><use transform="matrix(0.030864197530864196,0,0,0.030864197530864196,0,0)" xlink:href="#V"/><use transform="matrix(0.030864197530864196,0,0,0.030864197530864196,7.4074074074074066,0)" xlink:href="#P"/><use transform="matrix(0.030864197530864196,0,0,0.030864197530864196,13.580246913580247,0)" xlink:href="#W"/><use transform="matrix(0.030864197530864196,0,0,0.030864197530864196,22.80864197530864,0)" xlink:href="#C"/><use transform="matrix(0.030864197530864196,0,0,0.030864197530864196,25.24691358024691,0)" xlink:href="#M"/><use transform="matrix(0.030864197530864196,0,0,0.030864197530864196,30.80246913580247,0)" xlink:href="#M"/><use transform="matrix(0.030864197530864196,0,0,0.030864197530864196,36.358024691358025,0)" xlink:href="#C"/><use transform="matrix(0.030864197530864196,0,0,0.030864197530864196,38.7962962962963,0)" xlink:href="#H"/><use transform="matrix(0.030864197530864196,0,0,0.030864197530864196,44.96913580246914,0)" xlink:href="#J"/></g><g id="k"><use transform="matrix(0.030864197530864196,0,0,0.030864197530864196,0,0)" xlink:href="#T"/><use transform="matrix(0.030864197530864196,0,0,0.030864197530864196,7.4074074074074066,0)" xlink:href="#B"/><use transform="matrix(0.030864197530864196,0,0,0.030864197530864196,11.080246913580247,0)" xlink:href="#H"/><use transform="matrix(0.030864197530864196,0,0,0.030864197530864196,17.253086419753085,0)" xlink:href="#U"/><use transform="matrix(0.030864197530864196,0,0,0.030864197530864196,20.339506172839506,0)" xlink:href="#C"/><use transform="matrix(0.030864197530864196,0,0,0.030864197530864196,22.77777777777778,0)" xlink:href="#L"/><use transform="matrix(0.030864197530864196,0,0,0.030864197530864196,25.21604938271605,0)" xlink:href="#z"/></g><g id="l"><use transform="matrix(0.030864197530864196,0,0,0.030864197530864196,0,0)" xlink:href="#E"/><use transform="matrix(0.030864197530864196,0,0,0.030864197530864196,7.4074074074074066,0)" xlink:href="#A"/><use transform="matrix(0.030864197530864196,0,0,0.030864197530864196,10.493827160493826,0)" xlink:href="#F"/><use transform="matrix(0.030864197530864196,0,0,0.030864197530864196,16.666666666666664,0)" xlink:href="#A"/><use transform="matrix(0.030864197530864196,0,0,0.030864197530864196,19.753086419753085,0)" xlink:href="#S"/><use transform="matrix(0.030864197530864196,0,0,0.030864197530864196,25.925925925925924,0)" xlink:href="#M"/></g><path fill="#3a414a" d="M96-169c-40 0-48 33-48 73s9 75 48 75c24 0 41-14 43-38l32 2c-6 37-31 61-74 61-59 0-76-41-82-99-10-93 101-131 147-64 4 7 5 14 7 22l-32 3c-4-21-16-35-41-35" id="X"/><g id="m"><use transform="matrix(0.030864197530864196,0,0,0.030864197530864196,0,0)" xlink:href="#V"/><use transform="matrix(0.030864197530864196,0,0,0.030864197530864196,7.4074074074074066,0)" xlink:href="#X"/><use transform="matrix(0.030864197530864196,0,0,0.030864197530864196,12.962962962962962,0)" xlink:href="#A"/><use transform="matrix(0.030864197530864196,0,0,0.030864197530864196,16.049382716049383,0)" xlink:href="#C"/><use transform="matrix(0.030864197530864196,0,0,0.030864197530864196,18.487654320987655,0)" xlink:href="#D"/><use transform="matrix(0.030864197530864196,0,0,0.030864197530864196,24.04320987654321,0)" xlink:href="#z"/><use transform="matrix(0.030864197530864196,0,0,0.030864197530864196,30.216049382716047,0)" xlink:href="#Q"/></g><path fill="#3a414a" d="M206 0h-36l-40-164L89 0H53L-1-190h32L70-26l43-164h34l41 164 42-164h31" id="Y"/><g id="n"><use transform="matrix(0.030864197530864196,0,0,0.030864197530864196,0,0)" xlink:href="#K"/><use transform="matrix(0.030864197530864196,0,0,0.030864197530864196,7.993827160493827,0)" xlink:href="#H"/><use transform="matrix(0.030864197530864196,0,0,0.030864197530864196,14.166666666666666,0)" xlink:href="#Y"/><use transform="matrix(0.030864197530864196,0,0,0.030864197530864196,22.160493827160494,0)" xlink:href="#J"/><use transform="matrix(0.030864197530864196,0,0,0.030864197530864196,28.333333333333332,0)" xlink:href="#L"/><use transform="matrix(0.030864197530864196,0,0,0.030864197530864196,30.771604938271604,0)" xlink:href="#H"/><use transform="matrix(0.030864197530864196,0,0,0.030864197530864196,36.94444444444444,0)" xlink:href="#F"/><use transform="matrix(0.030864197530864196,0,0,0.030864197530864196,43.117283950617285,0)" xlink:href="#P"/></g><path fill="#3a414a" d="M115-194c55 1 70 41 70 98S169 2 115 4C84 4 66-9 55-30l1 105H24l-1-265h31l2 30c10-21 28-34 59-34zm-8 174c40 0 45-34 45-75s-6-73-45-74c-42 0-51 32-51 76 0 43 10 73 51 73" id="Z"/><g id="o"><use transform="matrix(0.030864197530864196,0,0,0.030864197530864196,0,0)" xlink:href="#E"/><use transform="matrix(0.030864197530864196,0,0,0.030864197530864196,7.4074074074074066,0)" xlink:href="#A"/><use transform="matrix(0.030864197530864196,0,0,0.030864197530864196,10.493827160493826,0)" xlink:href="#H"/><use transform="matrix(0.030864197530864196,0,0,0.030864197530864196,16.666666666666664,0)" xlink:href="#Z"/></g><path fill="#3a414a" d="M115-194c53 0 69 39 70 98 0 66-23 100-70 100C84 3 66-7 56-30L54 0H23l1-261h32v101c10-23 28-34 59-34zm-8 174c40 0 45-34 45-75 0-40-5-75-45-74-42 0-51 32-51 76 0 43 10 73 51 73" id="aa"/><g id="p"><use transform="matrix(0.030864197530864196,0,0,0.030864197530864196,0,0)" xlink:href="#K"/><use transform="matrix(0.030864197530864196,0,0,0.030864197530864196,7.993827160493827,0)" xlink:href="#F"/><use transform="matrix(0.030864197530864196,0,0,0.030864197530864196,14.166666666666666,0)" xlink:href="#A"/><use transform="matrix(0.030864197530864196,0,0,0.030864197530864196,17.253086419753085,0)" xlink:href="#F"/><use transform="matrix(0.030864197530864196,0,0,0.030864197530864196,23.425925925925924,0)" xlink:href="#aa"/><use transform="matrix(0.030864197530864196,0,0,0.030864197530864196,29.598765432098762,0)" xlink:href="#F"/><use transform="matrix(0.030864197530864196,0,0,0.030864197530864196,35.7716049382716,0)" xlink:href="#M"/><use transform="matrix(0.030864197530864196,0,0,0.030864197530864196,41.32716049382716,0)" xlink:href="#z"/></g><g id="q"><use transform="matrix(0.030864197530864196,0,0,0.030864197530864196,0,0)" xlink:href="#E"/><use transform="matrix(0.030864197530864196,0,0,0.030864197530864196,7.4074074074074066,0)" xlink:href="#A"/><use transform="matrix(0.030864197530864196,0,0,0.030864197530864196,10.493827160493826,0)" xlink:href="#H"/><use transform="matrix(0.030864197530864196,0,0,0.030864197530864196,16.666666666666664,0)" xlink:href="#B"/><use transform="matrix(0.030864197530864196,0,0,0.030864197530864196,20.339506172839503,0)" xlink:href="#z"/><use transform="matrix(0.030864197530864196,0,0,0.030864197530864196,26.51234567901234,0)" xlink:href="#P"/></g><g id="r"><use transform="matrix(0.030864197530864196,0,0,0.030864197530864196,0,0)" xlink:href="#K"/><use transform="matrix(0.030864197530864196,0,0,0.030864197530864196,7.993827160493827,0)" xlink:href="#F"/><use transform="matrix(0.030864197530864196,0,0,0.030864197530864196,14.166666666666666,0)" xlink:href="#A"/><use transform="matrix(0.030864197530864196,0,0,0.030864197530864196,17.253086419753085,0)" xlink:href="#F"/></g><path fill="#3a414a" d="M190 0L58-211 59 0H30v-248h39L202-35l-2-213h31V0h-41" id="ab"/><g id="s"><use transform="matrix(0.030864197530864196,0,0,0.030864197530864196,0,0)" xlink:href="#ab"/><use transform="matrix(0.030864197530864196,0,0,0.030864197530864196,7.993827160493827,0)" xlink:href="#H"/></g><path fill="#333" d="M137-103V0h-34v-103L8-248h37l75 118 75-118h37" id="ac"/><path fill="#333" d="M100-194c63 0 86 42 84 106H49c0 40 14 67 53 68 26 1 43-12 49-29l28 8c-11 28-37 45-77 45C44 4 14-33 15-96c1-61 26-98 85-98zm52 81c6-60-76-77-97-28-3 7-6 17-6 28h103" id="ad"/><path fill="#333" d="M135-143c-3-34-86-38-87 0 15 53 115 12 119 90S17 21 10-45l28-5c4 36 97 45 98 0-10-56-113-15-118-90-4-57 82-63 122-42 12 7 21 19 24 35" id="ae"/><g id="t"><use transform="matrix(0.030864197530864196,0,0,0.030864197530864196,0,0)" xlink:href="#ac"/><use transform="matrix(0.030864197530864196,0,0,0.030864197530864196,6.388888888888888,0)" xlink:href="#ad"/><use transform="matrix(0.030864197530864196,0,0,0.030864197530864196,12.561728395061728,0)" xlink:href="#ae"/></g><g id="u"><use transform="matrix(0.030864197530864196,0,0,0.030864197530864196,0,0)" xlink:href="#K"/><use transform="matrix(0.030864197530864196,0,0,0.030864197530864196,7.993827160493827,0)" xlink:href="#H"/><use transform="matrix(0.030864197530864196,0,0,0.030864197530864196,14.166666666666666,0)" xlink:href="#Y"/><use transform="matrix(0.030864197530864196,0,0,0.030864197530864196,22.160493827160494,0)" xlink:href="#J"/><use transform="matrix(0.030864197530864196,0,0,0.030864197530864196,28.333333333333332,0)" xlink:href="#L"/><use transform="matrix(0.030864197530864196,0,0,0.030864197530864196,30.771604938271604,0)" xlink:href="#H"/><use transform="matrix(0.030864197530864196,0,0,0.030864197530864196,36.94444444444444,0)" xlink:href="#F"/><use transform="matrix(0.030864197530864196,0,0,0.030864197530864196,43.117283950617285,0)" xlink:href="#P"/><use transform="matrix(0.030864197530864196,0,0,0.030864197530864196,49.29012345679013,0)" xlink:href="#M"/></g><path fill="#333" d="M190 0L58-211 59 0H30v-248h39L202-35l-2-213h31V0h-41" id="af"/><path fill="#333" d="M100-194c62-1 85 37 85 99 1 63-27 99-86 99S16-35 15-95c0-66 28-99 85-99zM99-20c44 1 53-31 53-75 0-43-8-75-51-75s-53 32-53 75 10 74 51 75" id="ag"/><g id="v"><use transform="matrix(0.030864197530864196,0,0,0.030864197530864196,0,0)" xlink:href="#af"/><use transform="matrix(0.030864197530864196,0,0,0.030864197530864196,7.993827160493827,0)" xlink:href="#ag"/></g><g id="w"><use transform="matrix(0.030864197530864196,0,0,0.030864197530864196,0,0)" xlink:href="#V"/><use transform="matrix(0.030864197530864196,0,0,0.030864197530864196,7.4074074074074066,0)" xlink:href="#L"/><use transform="matrix(0.030864197530864196,0,0,0.030864197530864196,9.845679012345677,0)" xlink:href="#S"/><use transform="matrix(0.030864197530864196,0,0,0.030864197530864196,16.018518518518515,0)" xlink:href="#W"/><use transform="matrix(0.030864197530864196,0,0,0.030864197530864196,25.24691358024691,0)" xlink:href="#J"/><use transform="matrix(0.030864197530864196,0,0,0.030864197530864196,31.41975308641975,0)" xlink:href="#C"/></g><g id="x"><use transform="matrix(0.030864197530864196,0,0,0.030864197530864196,0,0)" xlink:href="#y"/><use transform="matrix(0.030864197530864196,0,0,0.030864197530864196,7.993827160493827,0)" xlink:href="#z"/><use transform="matrix(0.030864197530864196,0,0,0.030864197530864196,14.166666666666666,0)" xlink:href="#I"/><use transform="matrix(0.030864197530864196,0,0,0.030864197530864196,20.339506172839506,0)" xlink:href="#C"/><use transform="matrix(0.030864197530864196,0,0,0.030864197530864196,22.77777777777778,0)" xlink:href="#M"/><use transform="matrix(0.030864197530864196,0,0,0.030864197530864196,28.333333333333336,0)" xlink:href="#A"/><use transform="matrix(0.030864197530864196,0,0,0.030864197530864196,31.419753086419757,0)" xlink:href="#B"/><use transform="matrix(0.030864197530864196,0,0,0.030864197530864196,35.092592592592595,0)" xlink:href="#F"/><use transform="matrix(0.030864197530864196,0,0,0.030864197530864196,41.26543209876544,0)" xlink:href="#A"/><use transform="matrix(0.030864197530864196,0,0,0.030864197530864196,44.351851851851855,0)" xlink:href="#C"/><use transform="matrix(0.030864197530864196,0,0,0.030864197530864196,46.79012345679013,0)" xlink:href="#H"/><use transform="matrix(0.030864197530864196,0,0,0.030864197530864196,52.96296296296297,0)" xlink:href="#J"/></g></defs></g></svg>