<svg xmlns="http://www.w3.org/2000/svg" width="254.049" height="465.453" viewBox="0 0 254.049 465.453">
  <g id="Plant_Office" data-name="Plant Office" transform="translate(-263.451 -499.538)">
    <path id="Leaf-Bottom" d="M156.313,12.153c3.514-.5,6.942,2.566,3.967,5.95s-9.853,1.509-13.561.172c.388,0,2.867-3.363,3.471-3.816A13.691,13.691,0,0,1,156.313,12.153Zm-3.428,20.094a3.751,3.751,0,0,1-.97,5.217l-.388.237c-2.35,1.358-5.455.259-7.74-.711-1.013-.431-6.468-2.738-4.872-3.234h-.647l-.819,1.229h0a53.684,53.684,0,0,1-10.025,10.78,13.237,13.237,0,0,1,3.191.194c3.061.6,8.495,4.937,3.9,7.762s-7.977-2.932-11.384-4.678A179.235,179.235,0,0,1,107.178,59.3a.992.992,0,0,1,.431.668,25.182,25.182,0,0,1,5.541-.711c2.307.259,6.813,1.423,7.8,3.9,1.207,3.018-1.574,4.312-4.075,3.924-3.665-.5-7.589-3.644-10.521-5.864a1.078,1.078,0,0,1-.906-.69l-.194-.129c-5.562,3.126-11.211,6.058-16.8,8.9h.129a12.332,12.332,0,0,1,4.075-.431,10.219,10.219,0,0,1,8.344,4.312,5.886,5.886,0,0,1-1.962,8.473c-6.468,3.148-10.176-10.133-12.5-11.427-5.67,2.846-11.513,5.347-17.377,7.718a9.4,9.4,0,0,1,1.725.194C75.528,79.2,84.238,88.216,76.93,91.795c-6.468,3.148-8.9-7.783-11.728-12.246-5.519,2.156-11.06,4.312-16.515,6.727a12.936,12.936,0,0,1,6.985,2.35c2.285,1.617,5.778,4.894,3.018,7.8s-7.223-.259-9.422-2.156a71.4,71.4,0,0,0-5.541-5.735,89.56,89.56,0,0,0-24.125,16A78.067,78.067,0,0,0,7.9,118.766c-2.156,3.3-5.994,8.753-7.179,13.561C2.053,122.345,9,112.1,15.2,104.838A74.338,74.338,0,0,1,35.47,88.668c0-4.657-9.723-14.574-1.445-16.148,4.312-.819,7.093,3.838,6.705,7.74a16.083,16.083,0,0,1-3.838,7.611c2.35-1.294,4.765-2.479,7.223-3.6,3.363-1.574,6.791-3.018,10.219-4.463-3.04-5.584-3.3-18.779,3.256-18.757,9.659,0,.129,14.768-1.488,17.593a.539.539,0,0,1-.345-.3v.949c6.468-2.716,13.173-5.3,19.662-8.15a26.377,26.377,0,0,1-.97-2.867A26.862,26.862,0,0,1,72.7,62.236c-.474-3.3-.345-8.257,3.945-8.624,4.657-.474,4.894,5.261,3.9,8.322a40.232,40.232,0,0,1-2.889,5.886c-.3.625-.906,3.644-1.38,2.156a5.929,5.929,0,0,1-.3,1.056l3.493-1.574a.8.8,0,0,1,0-.388,1.078,1.078,0,0,1,1.358-.755,1.035,1.035,0,0,1,.474.259c1.531-.711,3.061-1.466,4.592-2.156,3.212-1.639,6.468-3.32,9.767-5.088-.367-.625,0-1.186-.28-1.833s-1.229-1.229-1.66-1.854A15.092,15.092,0,0,1,91.569,52.1c-.6-3.277-.6-9.465,4.032-9.357s5.217,6.252,4.312,9.68a90.555,90.555,0,0,1-3.665,8.387c6.08-3.256,12.138-6.748,17.808-10.435a16.536,16.536,0,0,1-4.312-4.959c-1.143-2.156-2.652-6.77.992-7.74,3.212-.841,5.649,2.738,5.994,5.541a35.9,35.9,0,0,1-1.013,6.058c2.35-1.574,4.657-3.191,6.834-4.851a39.894,39.894,0,0,0,4.2-3.471,2.631,2.631,0,0,1-.388-.776c-4.183-2.156-7.546-10.974-1.552-11.664,2.867-.323,4.765,2.911,5.347,5.261a25.457,25.457,0,0,1-.345,4.312,86.886,86.886,0,0,0,11.039-13.669,1.035,1.035,0,0,1-.474-1.143,14.057,14.057,0,0,1-3.816-6.468c-.453-1.768-1.013-5.649,1.983-5.562,3.9.129,4.312,6.3,3.751,9.077a16.941,16.941,0,0,1-.647,2.156,1.057,1.057,0,0,1,.367.129c1.919-3.061,3.687-6.231,5.325-9.422-1.746-1.272,1.294-11.6,3.083-12.634,3.967-2.285,4.441,3.083,3.471,5.519a17.248,17.248,0,0,1-5.713,6.942c-.259.194-.216.194-.129-.172a.776.776,0,0,1-.3.345c-.367,1.531-.8,3.04-1.315,4.528a108.928,108.928,0,0,1-5.217,11.276c-.453.884-.949,1.746-1.466,2.609a23.585,23.585,0,0,1,5.455-1.4C147.667,29.854,151.332,29.918,152.885,32.247ZM.414,132.348a11.9,11.9,0,0,0-.388,3.9A29.9,29.9,0,0,1,.414,132.348Z" transform="translate(302.544 580.245) rotate(-30)" fill="#9c3b11" fill-rule="evenodd"/>
    <path id="Leaf-Bottom-2" data-name="Leaf-Bottom" d="M91.775,7.135c2.063-.291,4.076,1.506,2.329,3.494s-5.785.886-7.962.1c.228,0,1.684-1.975,2.038-2.241A8.038,8.038,0,0,1,91.775,7.135Zm-2.013,11.8A2.2,2.2,0,0,1,89.193,22l-.228.139c-1.38.8-3.2.152-4.544-.418-.595-.253-3.8-1.608-2.861-1.9h-.38l-.481.722h0a31.519,31.519,0,0,1-5.886,6.329,7.771,7.771,0,0,1,1.873.114c1.8.354,4.987,2.9,2.291,4.557s-4.684-1.722-6.684-2.747a105.229,105.229,0,0,1-9.367,6.025.582.582,0,0,1,.253.392,14.784,14.784,0,0,1,3.253-.418c1.354.152,4,.835,4.582,2.291.709,1.772-.924,2.532-2.392,2.3-2.152-.291-4.456-2.139-6.177-3.443a.633.633,0,0,1-.532-.405l-.114-.076c-3.266,1.835-6.582,3.557-9.861,5.228h.076a7.24,7.24,0,0,1,2.392-.253,6,6,0,0,1,4.9,2.532,3.456,3.456,0,0,1-1.152,4.975c-3.8,1.848-5.975-5.949-7.342-6.709-3.329,1.671-6.76,3.139-10.2,4.532a5.519,5.519,0,0,1,1.013.114c2.722.62,7.835,5.911,3.544,8.013-3.8,1.848-5.228-4.57-6.886-7.19-3.241,1.266-6.494,2.532-9.7,3.949a7.6,7.6,0,0,1,4.1,1.38c1.342.949,3.392,2.873,1.772,4.582s-4.241-.152-5.532-1.266a41.922,41.922,0,0,0-3.253-3.367,52.583,52.583,0,0,0-14.165,9.392A45.836,45.836,0,0,0,4.636,69.73C3.37,71.667,1.117,74.87.42,77.692c.785-5.861,4.861-11.873,8.506-16.139a43.645,43.645,0,0,1,11.9-9.494c0-2.734-5.709-8.557-.848-9.481,2.532-.481,4.165,2.253,3.937,4.544a9.443,9.443,0,0,1-2.253,4.468c1.38-.759,2.8-1.456,4.241-2.114,1.975-.924,3.987-1.772,6-2.62-1.785-3.278-1.937-11.025,1.911-11.013,5.671,0,.076,8.671-.873,10.329a.316.316,0,0,1-.2-.177v.557c3.8-1.595,7.734-3.114,11.544-4.785a15.483,15.483,0,0,1-.57-1.684,15.772,15.772,0,0,1-1.025-3.544c-.278-1.937-.2-4.848,2.316-5.063,2.734-.278,2.873,3.089,2.291,4.886a23.621,23.621,0,0,1-1.7,3.456c-.177.367-.532,2.139-.81,1.266a3.483,3.483,0,0,1-.177.62l2.051-.924a.469.469,0,0,1,0-.228.633.633,0,0,1,.8-.443.608.608,0,0,1,.278.152c.9-.418,1.8-.861,2.7-1.266,1.886-.962,3.8-1.949,5.734-2.987-.215-.367,0-.7-.165-1.076s-.722-.722-.975-1.089a8.861,8.861,0,0,1-1.266-3.253c-.354-1.924-.354-5.557,2.367-5.494s3.063,3.671,2.532,5.684a53.166,53.166,0,0,1-2.152,4.924c3.57-1.911,7.127-3.962,10.456-6.127a9.709,9.709,0,0,1-2.532-2.911c-.671-1.266-1.557-3.975.582-4.544,1.886-.494,3.316,1.608,3.519,3.253a21.078,21.078,0,0,1-.595,3.557c1.38-.924,2.734-1.873,4.013-2.848a23.422,23.422,0,0,0,2.468-2.038,1.545,1.545,0,0,1-.228-.456c-2.456-1.266-4.43-6.443-.911-6.848,1.684-.19,2.8,1.709,3.139,3.089a14.947,14.947,0,0,1-.2,2.532A51.011,51.011,0,0,0,82.7,14.338a.608.608,0,0,1-.278-.671,8.253,8.253,0,0,1-2.241-3.8c-.266-1.038-.595-3.316,1.165-3.266,2.291.076,2.532,3.7,2.2,5.329a9.951,9.951,0,0,1-.38,1.266.621.621,0,0,1,.215.076c1.127-1.8,2.165-3.658,3.127-5.532C85.484,7,87.269.933,88.319.325c2.329-1.342,2.608,1.81,2.038,3.241A10.127,10.127,0,0,1,87,7.642c-.152.114-.127.114-.076-.1a.456.456,0,0,1-.177.2c-.215.9-.468,1.785-.772,2.658a63.958,63.958,0,0,1-3.063,6.62c-.266.519-.557,1.025-.861,1.532a13.848,13.848,0,0,1,3.2-.823C86.7,17.528,88.851,17.566,89.762,18.933ZM.243,77.705A6.988,6.988,0,0,0,.015,80,17.555,17.555,0,0,1,.243,77.705Z" transform="matrix(0.438, -0.899, 0.899, 0.438, 319.83, 601.007)" fill="#9c3b11" fill-rule="evenodd"/>
    <path id="Leaf-Me-Alone_" data-name="Leaf-Me-Alone!" d="M135.834,78.069c12.976,1.03,21.307,9.592,25.184,21.569,2.09,6.454,2.33,13.084,3.492,19.717,1.747,9.979,5.506,17.541,12.853,24.651a24.8,24.8,0,0,1,5.144,6.881,29.312,29.312,0,0,1,5.94,8.488c1.933,4.267,2.48,9.386.248,13.64a13.979,13.979,0,0,1-3.649,4.482,87.846,87.846,0,0,1,8.644,39.456c-.218,8.169-.616,16.341-1.082,24.5-.125,2.191-.839,5.809-1.91,2.134-.981-3.361.249-8.637.363-12.147.554-17.1,1.027-32.654-6.013-48.634-.739-1.675-1.521-3.336-2.336-4.984a1.624,1.624,0,0,1-.138-.094c-.031.024-.059.049-.09.073-.052-.093-.123-.2-.206-.327a4.448,4.448,0,0,1-.632-.886,6.434,6.434,0,0,1-1.335-2.439s0-.011,0-.015a230.291,230.291,0,0,0-14.449-20.428c.038.048-5.531-7.535-4.67-3.342.415,2.021,4.512,5.869,6.166,8.01A199.461,199.461,0,0,1,178.888,175a8.4,8.4,0,0,1,1.651,2.642c.271.512.524,1.027.773,1.477-12.655,4.181-22.5-4.241-29.211-14.036l-.023-.035a42.578,42.578,0,0,0-6.75-7.534c-4.361-3.571-9.032-4.2-14.174-5.958-14.023-4.791-19.985-22.965-21.879-36.45-2.137-15.213,8.314-38.542,26.559-37.042" transform="matrix(0.961, -0.276, 0.276, 0.961, 137.174, 759.371)" fill="#ab753f" fill-rule="evenodd"/>
    <path id="Leaf-Me-Alone_2" data-name="Leaf-Me-Alone!" d="M167.665,300.521h2.193a73.636,73.636,0,0,0-.813-8.219c-1.76-10.407-7.261-25.691-19.326-27.38a31.16,31.16,0,0,0-4.066.043,7.324,7.324,0,0,0-3.1-.916c-10.272-.757-21.744,7.53-26.7,16.154-3.995,6.953-3.322,16.084-.855,23.471,1.652,4.946,5.258,12,11.271,12.066,7.523.086,7.886-9.213,8.032-14.648.193-7.227,1.106-13.522,6.8-18.449,1.327-1.147,2.778-2.157,4.118-3.289,2.1-1.771,4.419-3.585,4.69-6.515.373-4.043-1.909-4.77-5.393-4.019-.594.128-6.577,2.813-5.691.691a3.946,3.946,0,0,1,2.505-1.547c3.226-.351,7.074-.758,8.181-.515,11.937,2.619,16.585,19.155,17.82,29.661C167.463,298.244,167.57,299.381,167.665,300.521Z" transform="translate(158.073 655.875) rotate(-11)" fill="#ab753f" fill-rule="evenodd"/>
    <path id="Leaf" d="M167.591,107.623c3.517-5.015,10.045-17.753,14.995-19.545,3.189-1.154,2.259,10.786,2.3,13.062a190.889,190.889,0,0,1-1.763,26.295c-1.908,15.753-8.146,29.781-16.7,43.188-4.4,6.9-9.568,13.882-16.721,18.185-3.292,1.983-7.253,2.314-10.505,4.023-3.787,1.988-1.725.381-3.432,4.326-2.37,5.479-3.128,12.547-4.224,18.393-5.034,26.836-17.224,168.7-15.111,195.995.187,2.42-3.186,3-3.355.044-.895-15.661,6.851-124.117,10.76-159.584s7.863-66.8,11.828-79.073c4.811-14.888,13.5-32.79,20.731-46.673A165.154,165.154,0,0,1,167.591,107.623Z" transform="translate(269.091 495.049)" fill="#21c8b0" fill-rule="evenodd"/>
    <path id="Leaf-2" data-name="Leaf" d="M193.046,318.907c9.152-6.719,19.06,5.962,10.777,12.682-4.578,3.715-9.365,2.394-12.059-.7-1.749,2.133-3.386,4.362-4.96,6.245-4.793,5.739-9.323,11.614-13.653,17.626-8.994,12.491-16.7,25.687-24.762,38.641-7.953,12.786-15.843,25.637-23.052,38.747-6.107,11.107-14.246,24.173-16.337,36.35,3.172-25.825,15.21-50.646,29.544-73.412,14.218-22.579,30.534-47.238,52.549-65.057A7.8,7.8,0,0,1,193.046,318.907Z" transform="translate(268.999 457.719)" fill="#21c8b0" fill-rule="evenodd"/>
    <path id="Leaf-3" data-name="Leaf" d="M1.6,244.026c5.122,1,13.491,12.587,17.712,17a165.325,165.325,0,0,1,13.86,16.7,282.391,282.391,0,0,1,24.523,40,371.781,371.781,0,0,1,27.285,71.009,292.821,292.821,0,0,1,8.279,46.576c.3,2.95,3.387,25.686-1.068,26.3-4.007.552-2.769-17.264-2.962-19.688-2.185-27.34-8.731-53.942-17.837-79.713-1.983-5.614-3.826-12.49-7-17.542-2.284-3.638-.016-2.37-4.03-3.746-3.447-1.184-7.374-.894-10.9-2.343-7.667-3.144-13.807-9.248-19.188-15.388-10.458-11.933-18.746-24.842-23.066-40.132A193.189,193.189,0,0,1,1.388,257.31C1.072,255.051-1.7,243.381,1.6,244.026Z" transform="translate(292.5 469.619)" fill="#21c8b0" fill-rule="evenodd"/>
    <path id="Leaf-4" data-name="Leaf" d="M23.769,10.98c19.293,32,35.146,67.153,45.383,102.756,6.2,21.572,10.54,43.708,14.85,65.684,6.672,34.027,12.984,68.052,14.78,102.683,1.806,34.832,5.378,75.007-6.547,108.556,5.957-34.061.285-70.317-.719-104.589-.48-16.361-1.87-32.562-3.694-48.828-1.77-15.778-4.662-31.482-7.355-47.136q-1.968-11.436-4.092-22.845c-.419-2.27-.6-9.006-2.1-10.557s-9.246-2.2-11.674-3.343a62.768,62.768,0,0,1-13.554-9.045c-7.8-6.637-14.586-15.309-19.941-23.858-12.392-19.78-17.346-43.919-17.1-66.827.048-4.448,7.527-52.342,4.523-53q.271-.3.513-.629C19.319,3.641,21.551,7.308,23.769,10.98Z" transform="translate(290.544 527.186)" fill="#21c8b0" fill-rule="evenodd"/>
    <path id="Leaf-5" data-name="Leaf" d="M247.975,157.253c.3-.429,2.236-3.415,1.26-3.224,1.986-.389-2.732,3.293,2.217,1.034-2.35,2.22-.994,5.1-.963,8.09a72.468,72.468,0,0,1-1.673,14.405,98.792,98.792,0,0,1-6.715,21.773c-6.8,15.206-18.353,29.843-32.065,39.349-6.77,4.693-13.4,6.292-21.124,8.452-4.877,1.365-5.264,3.888-7.853,8.62-5.389,9.856-10.682,19.677-15.435,29.866-5.675,12.167-11.184,24.347-16.381,36.728-17.507,41.7-31.756,84.909-39.239,129.623-.183-26.349,5.913-53.488,13.6-78.6,5.6-18.3,12.892-35.938,20.669-53.4,1.884-4.229,4.74-9.671,5.541-14.341.56-3.273-1.153-6.419-1.938-9.866-3.058-13.423-2.839-28.461-.154-41.956,2.961-14.881,11.524-21.788,26.009-23.9,5.3-.772,12.031-.489,16.888-2.748,5.292-2.459,7.475-10.544,10.485-15.734a213.969,213.969,0,0,1,28.714-39.058,93.152,93.152,0,0,1,9.82-9.035C241.837,161.577,246.477,159.415,247.975,157.253Z" transform="translate(266.048 484.29)" fill="#ab753f" fill-rule="evenodd"/>
    <path id="Base" d="M79.976,476h51.406a4.185,4.185,0,0,1,4.185,4.185,4.134,4.134,0,0,1-.045.61l-3.973,26.942a16.74,16.74,0,0,1-16.561,14.3H96.37a16.74,16.74,0,0,1-16.561-14.3L75.836,480.8a4.185,4.185,0,0,1,3.53-4.751A4.257,4.257,0,0,1,79.976,476Z" transform="translate(277.035 431.801)" fill="#00594c" fill-rule="evenodd"/>
  </g>
</svg>
