<svg xmlns="http://www.w3.org/2000/svg" width="23.332" height="14.789" viewBox="0 0 23.332 14.789">
  <g id="Application_Drop_Down_Arrow" data-name="Application Drop Down Arrow" transform="translate(1.414 1.414)">
    <path id="Line_26" data-name="Line 26" d="M1.208,14.5A1.208,1.208,0,0,1,0,13.29V1.208a1.208,1.208,0,0,1,2.416,0V13.29A1.208,1.208,0,0,1,1.208,14.5Z" transform="translate(18.795 0) rotate(45)" fill="#00594c"/>
    <path id="Line_26_-_Outline" data-name="Line 26 - Outline" d="M1.208,15.5h0A2.211,2.211,0,0,1-1,13.29V1.208A2.208,2.208,0,0,1,1.208-1,2.211,2.211,0,0,1,3.416,1.208V13.29A2.208,2.208,0,0,1,1.208,15.5Zm0-14.5A.208.208,0,0,0,1,1.208V13.29a.208.208,0,0,0,.208.208v0a.208.208,0,0,0,.208-.208V1.208A.208.208,0,0,0,1.208,1Z" transform="translate(18.795 0) rotate(45)" fill="#00594c"/>
    <path id="Line_27" data-name="Line 27" d="M1.208,14.5A1.208,1.208,0,0,1,0,13.29V1.208a1.208,1.208,0,0,1,2.416,0V13.29A1.208,1.208,0,0,1,1.208,14.5Z" transform="translate(11.961 10.252) rotate(135)" fill="#00594c"/>
    <path id="Line_27_-_Outline" data-name="Line 27 - Outline" d="M1.208,15.5h0A2.208,2.208,0,0,1-1,13.29V1.208A2.208,2.208,0,0,1,1.208-1,2.208,2.208,0,0,1,3.416,1.208V13.29A2.208,2.208,0,0,1,1.208,15.5Zm0-14.5A.208.208,0,0,0,1,1.208V13.29a.208.208,0,0,0,.208.208h0a.208.208,0,0,0,.208-.208V1.208A.208.208,0,0,0,1.208,1Z" transform="translate(11.961 10.252) rotate(135)" fill="#00594c"/>
  </g>
</svg>
