<svg xmlns="http://www.w3.org/2000/svg" width="103.91" height="105.139" viewBox="0 0 103.91 105.139">
  <g id="Bag_Left" data-name="Bag Left" transform="matrix(0.966, -0.259, 0.259, 0.966, 0, 23.024)">
    <path id="Path_50" data-name="Path 50" d="M30.1,67.234C-1.99,19.966,19.167,7.3,23.1,5.443c.368-.173.6-.26.606-.264A2.466,2.466,0,0,0,25.01,2.4,2.5,2.5,0,0,0,22.575.5H12.55c-9.375,0-22.564,27.188,2.5,69.206.373.625,12.539,0,12.539,0C28.972,69.706,30.863,68.368,30.1,67.234ZM77.757.5H67.871a2.473,2.473,0,0,0-1.112,4.679c.01,0,.235.091.6.264C71.232,7.3,92.1,19.966,60.456,67.234c-.759,1.134,1.107,2.472,2.472,2.472,0,0,12,.625,12.363,0C100.007,27.688,87,.5,77.757.5Z" transform="translate(-0.592 -0.5)" fill="#c1694f"/>
    <path id="Path_51" data-name="Path 51" d="M16.724,68.829l.01.025c-.158-.724,13.256-3.428,12.489-4.563-32.087-47.268-10.93-59.932-7-61.791H11.672C2.3,2.5-8.38,29.688,16.724,68.829ZM76.889,2.5H66.484c3.876,1.859,24.741,14.523-6.9,61.791-.759,1.134,12.319,4.546,12.324,4.538C96.663,29.688,86.133,2.5,76.889,2.5Z" transform="translate(0.281 2.444)" fill="#662113"/>
    <path id="Path_52" data-name="Path 52" d="M18.3,20.273A2.49,2.49,0,0,1,15.787,17.8c0-8.2-5.013-12.358-10.025-12.358-1.162,0-.2-1.933.072-3.045A2.5,2.5,0,0,1,8.268.5H20.8c9.37,0,12.205,15.166,12.5,16.894a2.455,2.455,0,0,1-.559,2,2.536,2.536,0,0,1-1.916.875Zm40.325,0A2.471,2.471,0,0,0,61.092,17.8c0-8.2,4.943-12.358,9.887-12.358,1.144,0,.193-1.933-.072-3.045a2.467,2.467,0,0,0-2.4-1.9H56.149C46.91.5,44.114,15.666,43.825,17.393a2.472,2.472,0,0,0,2.437,2.879Z" transform="translate(6.191 -0.5)" fill="#c1694f"/>
    <path id="Path_53" data-name="Path 53" d="M6.583,70.763s0,9.887,9.887,9.887H56.016s9.887,0,9.887-9.887V16.386S65.9,6.5,56.016,6.5H16.47c-9.887,0-9.887,9.887-9.887,9.887Z" transform="translate(8.224 8.33)" fill="#be1931"/>
    <path id="Path_54" data-name="Path 54" d="M46.658,54.989H17a7.207,7.207,0,0,1-7.415-7.415v-34.6a2.472,2.472,0,0,1,4.943,0v34.6A2.262,2.262,0,0,0,17,50.046h29.66a2.261,2.261,0,0,0,2.472-2.472v-34.6a2.472,2.472,0,0,1,4.943,0v34.6A7.207,7.207,0,0,1,46.658,54.989Z" transform="translate(12.639 14.217)" fill="#a0041e"/>
    <path id="Path_55" data-name="Path 55" d="M16.583,26.971A2.421,2.421,0,0,1,19.055,24.5H24a2.421,2.421,0,0,1,2.472,2.472V39.33A2.421,2.421,0,0,1,24,41.8H19.055a2.421,2.421,0,0,1-2.472-2.472Z" transform="translate(22.941 34.82)" fill="#fff"/>
  </g>
</svg>
