<svg xmlns="http://www.w3.org/2000/svg" width="25.702" height="25.702" viewBox="0 0 25.702 25.702">
  <g id="Dashboard" transform="translate(-899 -549)">
    <path id="Rectangle_132" data-name="Rectangle 132" d="M2.989,2.989h0V8.966s0,0,0,0H8.966V2.989s0,0,0,0H2.989M2.989,0H8.966a2.989,2.989,0,0,1,2.989,2.989V8.966a2.989,2.989,0,0,1-2.989,2.989H2.989A2.989,2.989,0,0,1,0,8.966V2.989A2.989,2.989,0,0,1,2.989,0Z" transform="translate(899 549)" fill="#fff"/>
    <path id="Rectangle_134" data-name="Rectangle 134" d="M2.989,2.989h0V8.966s0,0,0,0H8.966V2.989s0,0,0,0H2.989M2.989,0H8.966a2.989,2.989,0,0,1,2.989,2.989V8.966a2.989,2.989,0,0,1-2.989,2.989H2.989A2.989,2.989,0,0,1,0,8.966V2.989A2.989,2.989,0,0,1,2.989,0Z" transform="translate(899 562.747)" fill="#fff"/>
    <path id="Rectangle_135" data-name="Rectangle 135" d="M2.989,2.989h0V8.966s0,0,0,0H8.966V2.989s0,0,0,0H2.989M2.989,0H8.966a2.989,2.989,0,0,1,2.989,2.989V8.966a2.989,2.989,0,0,1-2.989,2.989H2.989A2.989,2.989,0,0,1,0,8.966V2.989A2.989,2.989,0,0,1,2.989,0Z" transform="translate(912.747 562.747)" fill="#fff"/>
    <path id="Rectangle_133" data-name="Rectangle 133" d="M2.989,2.989h0V8.966s0,0,0,0H8.966V2.989s0,0,0,0H2.989M2.989,0H8.966a2.989,2.989,0,0,1,2.989,2.989V8.966a2.989,2.989,0,0,1-2.989,2.989H2.989A2.989,2.989,0,0,1,0,8.966V2.989A2.989,2.989,0,0,1,2.989,0Z" transform="translate(912.747 549)" fill="#fff"/>
  </g>
</svg>
