<svg xmlns="http://www.w3.org/2000/svg" width="69.944" height="58.716" viewBox="0 0 69.944 58.716">
  <g id="Download_Large_Green" data-name="Download Large Green" transform="translate(-233 -1622.816)">
    <path id="Rectangle_92" data-name="Rectangle 92" d="M6.994,6.994h0V37.3H62.95V6.994H6.994M6.994,0H62.95a6.994,6.994,0,0,1,6.994,6.994V37.3A6.994,6.994,0,0,1,62.95,44.3H6.994A6.994,6.994,0,0,1,0,37.3V6.994A6.994,6.994,0,0,1,6.994,0Z" transform="translate(233 1637.234)" fill="#00594c"/>
    <path id="Line_31" data-name="Line 31" d="M34.972,7.5H0v-9H34.972Z" transform="translate(251.652 1637.734)" fill="#fdf2e3"/>
    <path id="Line_25" data-name="Line 25" d="M2.594,38.135A4.326,4.326,0,0,1-1.5,33.618V3.017A4.326,4.326,0,0,1,2.594-1.5,4.326,4.326,0,0,1,6.688,3.017v30.6A4.326,4.326,0,0,1,2.594,38.135Z" transform="translate(265.378 1624.316)" fill="#00594c"/>
    <path id="Line_26" data-name="Line 26" d="M4.094,25.815A4.1,4.1,0,0,1,0,21.721V4.094a4.094,4.094,0,0,1,8.188,0V21.721A4.1,4.1,0,0,1,4.094,25.815Z" transform="translate(280.436 1647.225) rotate(45)" fill="#00594c"/>
    <path id="Line_27" data-name="Line 27" d="M4.095,25.815h0A4.1,4.1,0,0,1,0,21.721V4.094a4.094,4.094,0,0,1,8.188,0V21.721a4.094,4.094,0,0,1-4.094,4.094Z" transform="translate(273.763 1665.48) rotate(135)" fill="#00594c"/>
    <circle id="Ellipse_104" data-name="Ellipse 104" cx="3.497" cy="3.497" r="3.497" transform="translate(248.155 1637.234)" fill="#00594c"/>
    <circle id="Ellipse_105" data-name="Ellipse 105" cx="3.497" cy="3.497" r="3.497" transform="translate(283.127 1637.234)" fill="#00594c"/>
  </g>
</svg>
