<svg xmlns="http://www.w3.org/2000/svg" width="10.652" height="15.932" viewBox="0 0 10.652 15.932">
  <path id="Facebook_Green_Small" data-name="Facebook Green Small" d="M15.345,2.579H18.7a.8.8,0,0,1,.8.8V6.245a.8.8,0,0,1-.8.8h-2.21V8.79H18.7a.8.8,0,0,1,.791.922l-.441,2.865a.8.8,0,0,1-.791.678H16.492v4.456a.8.8,0,0,1-.8.8h-3.31a.8.8,0,0,1-.8-.8V13.255H9.65a.8.8,0,0,1-.8-.8V9.59a.8.8,0,0,1,.8-.8h1.907l.025-1.921,0-.485a3.767,3.767,0,0,1,3.767-3.805Zm2.557,1.6H15.345a2.168,2.168,0,0,0-2.167,2.189l0,.494q0,.009,0,.018L13.147,9.6a.8.8,0,0,1-.8.789h-1.9v1.265h1.933a.8.8,0,0,1,.8.8v4.456h1.71V12.455a.8.8,0,0,1,.8-.8h1.882l.195-1.265H15.692a.8.8,0,0,1-.8-.8v-2.6a1.544,1.544,0,0,1,1.542-1.542H17.9Z" transform="translate(-8.85 -2.579)" fill="#00594c"/>
</svg>
