<svg xmlns="http://www.w3.org/2000/svg" width="25.3" height="37.842" viewBox="0 0 25.3 37.842">
  <path id="Facebook_Green" data-name="Facebook Green" d="M24.276,2.579H32.25a1.9,1.9,0,0,1,1.9,1.9v6.808a1.9,1.9,0,0,1-1.9,1.9H27v4.143H32.25a1.9,1.9,0,0,1,1.878,2.189l-1.047,6.806A1.9,1.9,0,0,1,31.2,27.937H27V38.521a1.9,1.9,0,0,1-1.9,1.9H17.24a1.9,1.9,0,0,1-1.9-1.9V27.937H10.75a1.9,1.9,0,0,1-1.9-1.9V19.231a1.9,1.9,0,0,1,1.9-1.9h4.531l.059-4.562-.011-1.152a8.948,8.948,0,0,1,8.947-9.038Zm6.074,3.8H24.276a5.148,5.148,0,0,0-5.148,5.2l.012,1.174q0,.022,0,.044l-.084,6.459a1.9,1.9,0,0,1-1.9,1.875H12.65v3.006h4.59a1.9,1.9,0,0,1,1.9,1.9V36.621H23.2V26.037a1.9,1.9,0,0,1,1.9-1.9h4.471l.462-3.006H25.1a1.9,1.9,0,0,1-1.9-1.9V13.05a3.666,3.666,0,0,1,3.662-3.662H30.35Z" transform="translate(-8.85 -2.579)" fill="#00594c"/>
</svg>
