<svg xmlns="http://www.w3.org/2000/svg" width="412.962" height="381.409" viewBox="0 0 412.962 381.409">
  <g id="Flower_Brown_Right" data-name="Flower Brown Right" transform="translate(412.962 191.927) rotate(133)">
    <path id="Leaf-Bottom" d="M138.771,172.071c3.648,1.383,8.131-1.073,5.747-5.461s-10.254-4.03-14.546-3.458c.429,0,2.385,4.34,2.814,4.984A14.689,14.689,0,0,0,138.771,172.071Zm1.216-22.51a4.173,4.173,0,0,0,.238-5.89,2.553,2.553,0,0,0-.382-.334c-2.194-2.027-5.818-1.6-8.513-1.121-1.216.215-7.7,1.359-6.057,2.385l-.668-.238c-.191-.5-.382-1.025-.6-1.526h0a59.615,59.615,0,0,0-8.179-14.141,14.164,14.164,0,0,0,3.481.572c3.458,0,10.373-3.243,6.128-7.416s-9.348,1.216-13.425,2.385A197.937,197.937,0,0,0,97.3,109.285a1.1,1.1,0,0,0,.62-.644,29.139,29.139,0,0,0,5.818,2.146c2.528.286,7.678,0,9.348-2.385,2.075-2.957-.644-4.96-3.434-5.222-4.054-.382-9.061,2.075-12.757,3.744a1.264,1.264,0,0,0-1.168.525h-.238C90.269,102.68,84.9,98.173,79.562,93.738h.143A13.115,13.115,0,0,0,84,95.216a11.231,11.231,0,0,0,10.039-2.623,6.486,6.486,0,0,0,0-9.538C87.789,78.071,80.588,91.5,77.75,92.307A207.731,207.731,0,0,0,60.819,79.693a8.489,8.489,0,0,0,1.908.191c5.246-.191,16.907-7.631,10.015-13.306C66.638,61.641,61.2,72.8,57.076,76.927c-5.413-3.72-10.874-7.416-16.167-11.279a14.308,14.308,0,0,0,8.084-.835c2.885-1.192,7.44-3.887,5.2-7.7s-7.869-1.478-10.731,0a78.373,78.373,0,0,1-7.368,4.769A98.484,98.484,0,0,1,13.986,38.726,85.057,85.057,0,0,1,4.83,20.531C3.327,16.454.514,9.634.418,4.149-.583,15.238,4.377,28,9.313,37.343A81.839,81.839,0,0,0,27.221,59.734c-1.145,5.008-14.045,13.33-5.508,17.05,4.555,1.979,8.584-2.385,9.133-6.677a18.051,18.051,0,0,0-2.385-9.181c2.242,1.979,4.531,3.863,6.891,5.675,3.267,2.385,6.605,4.912,9.968,7.3-4.769,5.27-8.155,19.458-1.1,21.032,10.421,2.385,3.744-15.905,2.718-19.339a.525.525,0,0,0-.453.215V74.78c6.415,4.531,12.924,8.942,19.244,13.592a29.805,29.805,0,0,0-1.765,2.861,29.665,29.665,0,0,0-3.148,6.248c-1.312,3.434-2.385,8.823,2.122,10.349,4.912,1.645,6.581-4.483,6.271-8.036a48.24,48.24,0,0,0-1.693-7.154c-.167-.739,0-4.149-.954-2.6a6.532,6.532,0,0,0,0-1.192c1.145.835,2.385,1.693,3.386,2.551a1.193,1.193,0,0,0,0,.405,1.216,1.216,0,0,0,1.288,1.168,1.264,1.264,0,0,0,.572-.191c1.478,1.168,2.957,2.385,4.411,3.553,3.052,2.552,6.176,5.175,9.3,7.869-.572.6-.262,1.312-.763,1.908s-1.622,1.025-2.242,1.622a16.692,16.692,0,0,0-3.625,5.461c-1.359,3.243-2.909,9.92,2.122,10.921s7.154-5.437,7.154-9.371c-.477-3.338-1.121-6.653-1.908-9.92,5.747,5.008,11.446,10.23,16.692,15.6a18.314,18.314,0,0,0-5.866,4.292c-1.765,2.122-4.507,6.677-.835,8.584,3.267,1.693,6.8-1.55,7.821-4.483a38.151,38.151,0,0,0,.405-6.8c2.17,2.385,4.245,4.578,6.176,6.915a59.236,59.236,0,0,1,3.7,4.769,2.384,2.384,0,0,0-.6.739c-5.055,1.359-10.826,9.991-4.531,12.209,3,1.025,5.842-2,7.034-4.364a28.259,28.259,0,0,0,.692-4.769,95.863,95.863,0,0,1,8.465,17.455,1.1,1.1,0,0,0-.763,1.121,15.047,15.047,0,0,0-5.675,5.914c-.93,1.812-2.385,5.866.763,6.51,4.245.811,6.224-5.747,6.271-8.871a12.915,12.915,0,0,0-.191-2.385.882.882,0,0,0,.429,0c1.312,3.768,2.385,7.631,3.434,11.494-2.194.93-1.431,12.805.238,14.307,3.72,3.434,5.556-2.242,5.1-5.1a19.267,19.267,0,0,0-4.483-8.871c-.238-.286-.167-.262-.191.143a.715.715,0,0,0-.238-.453,47.169,47.169,0,0,0-.31-5.2,116.845,116.845,0,0,0-2.861-13.425c-.286-1.073-.6-2.122-.954-3.171a28.853,28.853,0,0,0,5.532,2.838c2.242,1.025,6.176,1.86,8.465-.262ZM.013,4.316A13.235,13.235,0,0,1,.537,0,37.417,37.417,0,0,0,.013,4.316Z" transform="translate(120.412 132.845)" fill="#9c3b11" fill-rule="evenodd"/>
    <path id="Leaf-Bottom-2" data-name="Leaf-Bottom" d="M172.887,137.256c3.887.548,7.678-2.838,4.388-6.581s-10.9-1.669-15-.191c.429,0,3.171,3.72,3.839,4.221A15.142,15.142,0,0,0,172.887,137.256ZM169.1,115.032a4.149,4.149,0,0,0-1.073-5.771l-.429-.262c-2.6-1.5-6.033-.286-8.561.787-1.121.477-7.154,3.028-5.389,3.577h-.715L152.022,112h0a59.376,59.376,0,0,0-11.088-11.923,14.64,14.64,0,0,0,3.529-.215c3.386-.668,9.4-5.461,4.316-8.584s-8.823,3.243-12.591,5.175a198.243,198.243,0,0,0-17.646-11.351,1.1,1.1,0,0,0,.477-.739,27.852,27.852,0,0,0,6.128.787c2.551-.286,7.535-1.574,8.632-4.316,1.335-3.338-1.741-4.769-4.507-4.34-4.054.548-8.394,4.03-11.637,6.486a1.192,1.192,0,0,0-1,.763l-.215.143c-6.152-3.458-12.4-6.7-18.576-9.848h.143a13.639,13.639,0,0,0,4.507.477,11.3,11.3,0,0,0,9.228-4.769,6.51,6.51,0,0,0-2.17-9.371C102.4,56.9,98.3,71.585,95.722,73.016,89.451,69.868,82.988,67.1,76.5,64.479a10.4,10.4,0,0,0,1.908-.215C83.537,63.1,93.171,53.129,85.087,49.17c-7.154-3.481-9.848,8.608-12.972,13.544-6.1-2.385-12.233-4.769-18.266-7.44a14.307,14.307,0,0,0,7.726-2.6c2.528-1.788,6.391-5.413,3.338-8.632s-7.988.286-10.421,2.385a78.978,78.978,0,0,1-6.128,6.343A99.057,99.057,0,0,1,21.681,35.077,86.346,86.346,0,0,1,8.733,19.339C6.348,15.691,2.1,9.658.792,4.34c1.478,11.041,9.157,22.367,16.024,30.4A82.22,82.22,0,0,0,39.231,52.628c0,5.151-10.754,16.12-1.6,17.86,4.769.906,7.845-4.245,7.416-8.561a17.789,17.789,0,0,0-4.245-8.418c2.6,1.431,5.27,2.742,7.988,3.982,3.72,1.741,7.511,3.338,11.3,4.936C56.734,68.6,56.448,83.2,63.7,83.174c10.683,0,.143-16.334-1.645-19.458a.6.6,0,0,0-.382.334V63c7.154,3,14.57,5.866,21.747,9.014a29.174,29.174,0,0,0-1.073,3.171,29.713,29.713,0,0,0-1.932,6.677c-.525,3.648-.382,9.133,4.364,9.538,5.151.525,5.413-5.818,4.316-9.2a44.5,44.5,0,0,0-3.2-6.51c-.334-.692-1-4.03-1.526-2.385a6.558,6.558,0,0,0-.334-1.168L87.9,73.874a.882.882,0,0,0,0,.429,1.192,1.192,0,0,0,1.5.835,1.145,1.145,0,0,0,.525-.286c1.693.787,3.386,1.622,5.079,2.385,3.553,1.812,7.154,3.672,10.8,5.628-.405.692,0,1.312-.31,2.027s-1.359,1.359-1.836,2.051a16.692,16.692,0,0,0-2.385,6.128c-.668,3.625-.668,10.468,4.459,10.349s5.771-6.915,4.769-10.707a100.155,100.155,0,0,0-4.054-9.276c6.724,3.6,13.425,7.464,19.7,11.541a18.29,18.29,0,0,0-4.769,5.485c-1.264,2.385-2.933,7.488,1.1,8.561,3.553.93,6.248-3.028,6.629-6.128a39.706,39.706,0,0,0-1.121-6.7c2.6,1.741,5.151,3.529,7.559,5.365a44.123,44.123,0,0,1,4.65,3.839,2.91,2.91,0,0,0-.429.858c-4.626,2.385-8.346,12.138-1.717,12.9,3.171.358,5.27-3.219,5.914-5.818a28.155,28.155,0,0,0-.382-4.769,96.1,96.1,0,0,1,12.209,15.118,1.145,1.145,0,0,0-.525,1.264,15.547,15.547,0,0,0-4.221,7.154c-.5,1.955-1.121,6.248,2.194,6.152,4.316-.143,4.769-6.963,4.149-10.039a18.74,18.74,0,0,0-.715-2.385,1.168,1.168,0,0,0,.405-.143c2.122,3.386,4.078,6.891,5.89,10.421-1.931,1.407,1.431,12.829,3.41,13.974,4.388,2.528,4.912-3.41,3.839-6.1A19.077,19.077,0,0,0,163.9,136.3c-.286-.215-.238-.215-.143.191a.859.859,0,0,0-.334-.382c-.405-1.693-.882-3.362-1.455-5.008a120.473,120.473,0,0,0-5.771-12.471c-.5-.978-1.049-1.932-1.621-2.885a26.085,26.085,0,0,0,6.033,1.55C163.325,117.679,167.379,117.607,169.1,115.032ZM.458,4.316A13.163,13.163,0,0,1,.029,0,33.071,33.071,0,0,0,.458,4.316Z" transform="translate(121.159 43.543)" fill="#9c3b11" fill-rule="evenodd"/>
    <path id="Leaf-Bottom-3" data-name="Leaf-Bottom" d="M11.721,73.278c.668,1.121,2.385,1.383,2.6-.262s-1.86-3.124-3.124-3.887a12.639,12.639,0,0,1-.262,1.884A4.769,4.769,0,0,0,11.721,73.278Zm4.769-5.651a1.359,1.359,0,0,0,1.24-1.5.406.406,0,0,0,0-.167c-.167-.978-1.192-1.6-2-2.027-.358-.191-2.385-1.192-2.051-.62l-.143-.191A.638.638,0,0,1,13.7,62.6h0a20.339,20.339,0,0,0,.715-5.365,4.483,4.483,0,0,0,.787.858c.882.739,3.386,1.264,3.124-.715s-2.695-1.574-3.982-2.122a67.558,67.558,0,0,0-.835-6.915.31.31,0,0,0,.286,0,8.082,8.082,0,0,0,1.1,1.741c.62.6,2,1.6,2.933,1.312s.835-1.455.143-2.075a9.4,9.4,0,0,0-4.1-1.622.429.429,0,0,0-.405,0h0c-.405-2.385-.906-4.578-1.407-6.82h0a4.769,4.769,0,0,0,.811,1.264,3.768,3.768,0,0,0,3.243,1.216,2.146,2.146,0,0,0,1.932-2.528c-.644-2.575-5.246-.5-6.152-.882C11.363,37.557,10.7,35.435,10,33.217a4.053,4.053,0,0,0,.453.453c1.383,1.049,5.961,1.431,5.27-1.478-.6-2.551-4.292-.715-6.2-.453-.668-2.1-1.359-4.173-1.955-6.248A4.769,4.769,0,0,0,9.956,26.9c1,.286,2.742.5,2.909-.954S11.1,23.965,10.028,23.8a26.087,26.087,0,0,1-2.909-.238A33.574,33.574,0,0,1,6,13,29.852,29.852,0,0,1,7.286,6.343a19.481,19.481,0,0,1,2.17-5.2A21.461,21.461,0,0,0,5.02,11.637a27.136,27.136,0,0,0,.167,9.538c-1.335,1.073-6.415.644-4.912,3.362.787,1.431,2.742,1.1,3.744,0a5.866,5.866,0,0,0,1.264-2.885c.191.978.405,1.932.668,2.909S6.69,27.184,7.095,28.5c-2.385.429-6.1,3.458-4.555,5.294,2.385,2.742,4.2-3.41,4.626-4.531a.191.191,0,0,0-.167,0L7.238,29C8,31.381,8.812,33.98,9.623,36.484L8.6,36.866a11.231,11.231,0,0,0-2.122.93c-1.049.644-2.385,1.836-1.55,3.148s2.647.143,3.291-.835a16.244,16.244,0,0,0,.978-2.194c0-.238.835-1.121.286-.882l.215-.334a4.846,4.846,0,0,0,.382,1.359h0a.429.429,0,0,0,0,.572h.191l.429,1.812c.286,1.288.572,2.623.835,3.958-.262,0-.31.286-.572.358a4.042,4.042,0,0,1-.93,0,5.413,5.413,0,0,0-2.051.715c-1.025.572-2.766,2.027-1.645,3.291s2.981,0,3.744-1.025A26.974,26.974,0,0,0,11.6,44.759c.5,2.385.93,5.008,1.216,7.464a6.32,6.32,0,0,0-2.385,0c-.906.191-2.551.835-1.979,2.075s2.1.978,2.981.405a14.309,14.309,0,0,0,1.478-1.693c0,1.025.191,2.051.215,3.076a14.04,14.04,0,0,1,0,2,.739.739,0,0,0-.31,0c-1.6-.668-4.769.429-3.648,2.385.572.882,1.932.668,2.718.286a12.447,12.447,0,0,0,1.145-1.1,33.193,33.193,0,0,1-1.312,6.3.381.381,0,0,0-.429.143,4.96,4.96,0,0,0-2.695.405c-.62.286-1.86,1.025-1.121,1.86s2.79-.238,3.458-1.049l.405-.668h.143q-.644,1.908-1.431,3.72c-.763-.191-2.981,3.076-2.861,3.815.286,1.669,1.932.548,2.385-.31a6.319,6.319,0,0,0,.62-3.243c0-.119,0,0,0,0a.31.31,0,0,0,0-.143c.358-.477.668-.954.978-1.455a40.535,40.535,0,0,0,1.979-4.1c.143-.334.262-.692.382-1.025a8.321,8.321,0,0,0,.882,1.86c.286.93,1.145,1.955,2.194,1.86ZM9.17,1.025a4.532,4.532,0,0,1,1-1.025,13.5,13.5,0,0,0-.882,1.025Z" transform="translate(188.134 109.572)" fill="#9c3b11" fill-rule="evenodd"/>
    <path id="Leaf-Bottom-4" data-name="Leaf-Bottom" d="M20.94,262.4c.334-1,.405-7.035.93-7.154-5.365,1.383-14.713,4.292-15.571,11.088-.692,6.343,5.747,7.154,9.538,3.7a19.077,19.077,0,0,0,5.1-7.631Zm-6.868-22.153a32.955,32.955,0,0,0,5.175-6.033,36.1,36.1,0,0,0,.405,4.221,149.939,149.939,0,0,0,3.076,17.241,60.116,60.116,0,0,0,2.146,6.343.93.93,0,0,0,0,.62c-.215-.477-.167-.525-.286,0A24.346,24.346,0,0,0,23.564,275.3c.835,3.625,5.747,9.538,8.489,3.577,1.216-2.623-3.6-17.026-6.629-17.1-.692-5.031-1.216-10.134-1.455-15.237a2.146,2.146,0,0,0,.525-.143c.334,1.192.715,2.385.906,2.909,1.55,3.7,7.154,10.492,11.684,7.464,3.553-2.385-.262-6.367-2.218-8.036a19.41,19.41,0,0,0-9.538-4.292,1.455,1.455,0,0,0-1.455-.954,124.165,124.165,0,0,1,1.622-24.7,36.774,36.774,0,0,0,3.076,5.2c2.551,2.242,7.368,4.459,10.421,1.788,6.319-5.747-4.7-13.234-11.327-12.352a2.6,2.6,0,0,0-1.073-.572q.858-3.768,2.075-7.44c1.168-3.7,2.528-7.416,3.982-11.16a50.576,50.576,0,0,0,3.744,7.869c2.647,2.957,8.37,5.127,11.4,1.55,3.434-4.054-1.979-8.108-5.1-9.753-1.288-.668-7.154-2.766-9.014-2.385,3.6-8.871,7.8-17.789,12.185-26.469.644,4.245,1.478,8.489,2.528,12.662,1.836,4.769,7.273,11.374,12.9,7.678s.453-10.778-2.742-13.95a20.865,20.865,0,0,0-6.915-4.769c-1-.405-2.385-.358-3.41-.835s-.882-1.455-1.812-1.884c2.385-4.769,4.769-9.3,7.154-13.807q1.717-3.2,3.505-6.3a1.383,1.383,0,0,0,.763,0,1.55,1.55,0,0,0,.954-1.979,1.169,1.169,0,0,0-.262-.477l2.79-4.65a10.371,10.371,0,0,0,.477,1.455c-1.788-1.407,0,2.575,0,3.553A62.452,62.452,0,0,0,63.2,150.92c1.335,4.34,6.271,10.8,11.279,6.486,4.6-3.958.763-9.824-2.385-13.258a37.914,37.914,0,0,0-6.844-5.532,32.929,32.929,0,0,0-3.458-2.385c5.246-8.561,10.8-16.907,16.215-25.348.238.405.429.811.62,1.168a.763.763,0,0,0-.644,0c.429,4.578,1.288,29.33,12.519,21.461,7.583-5.27-3.386-20.34-11.422-24.37,2.838-4.411,5.6-8.871,8.251-13.4q2.909-4.936,5.437-10.015a22.63,22.63,0,0,0,1.717,11.923c2.695,4.769,9.538,8.06,14,3.529,8.346-8.513-10.945-12.137-14.689-17.527a105.184,105.184,0,0,0,10.373-35.1c1.335-13.449,1.1-31-5.437-43.566,2.528,6.534,2.385,15.977,2.671,21.461a110.024,110.024,0,0,1-2.075,25.92,125.906,125.906,0,0,1-15,38.153,102.809,102.809,0,0,1-11.041-2.17c-4.149-.5-11.923-.668-12.734,5.031s5.866,6.581,9.824,6.605a18.29,18.29,0,0,0,9.991-2.909c-4.435,7.154-9.085,14.117-13.687,21.127-6.868-2.885-18.671-13.473-23.512-4.769-5.556,10.063,11.923,13.425,18.051,10.9a13.286,13.286,0,0,0,2.146-1.145c-4.888,7.511-9.538,15.094-13.878,22.963-3.744.429-18.743-11.923-23.727-3.1-2.5,4.459.262,9.371,4.578,11.4s9.252.525,13.139-1.741a16.693,16.693,0,0,0,4.364-3.815h.191c-4.173,7.821-8.346,15.786-12.257,23.846h-.334a1.645,1.645,0,0,0-1.622,0c-5.2-.286-12.352-.739-16.907,1.645-3.171,1.669-5.413,5.318-1.55,7.845,3.148,2.051,9.324-.215,12.185-1.788a33.909,33.909,0,0,0,5.842-5.341,1.431,1.431,0,0,0,1.049.453,243.466,243.466,0,0,0-10.182,24.776c-5.341.715-14.069-2.933-16.978,3.768s6.772,7.631,10.826,5.842a18.506,18.506,0,0,0,3.815-2.385,77.475,77.475,0,0,0-2.838,20.674h0c0,.715,0,1.407,0,2.1a5.2,5.2,0,0,1-.668.6c1.5-1.884-6.748-.119-8.274.215-3.41.715-7.917,1.955-9.538,5.413a4.507,4.507,0,0,0-.262.6,5.318,5.318,0,0,0,3.124,6.844C7.158,245.4,11.426,242.512,14.073,240.246ZM96.388,0a16.073,16.073,0,0,1,2.695,4.769A41.738,41.738,0,0,0,96.388,0Z" transform="translate(0 0)" fill="#9c3b11" fill-rule="evenodd"/>
    <path id="Leaf-Bottom-5" data-name="Leaf-Bottom" d="M43.712,338.61c0-1.335-2.385-8.441-1.884-8.871-5.7,4.1-15.571,11.255-13.664,19.6,1.788,7.726,9.681,5.961,12.567.453a23.846,23.846,0,0,0,2.981-11.184ZM26.519,315.456a42.207,42.207,0,0,0,3.672-9.085c.692,1.6,1.407,3.2,2.194,4.769A195.32,195.32,0,0,0,43.116,330.1a79.619,79.619,0,0,0,5.1,6.51,1.288,1.288,0,0,0,.191.787c-.453-.477-.405-.548-.382,0a30.236,30.236,0,0,0,4.03,15.261c2.385,3.887,10.635,8.7,11.422.692.358-3.577-11.231-18.48-14.832-17.312-2.885-5.6-5.58-11.374-7.988-17.241a2.384,2.384,0,0,0,.572-.405c.882,1.264,1.86,2.6,2.242,3.052,3.362,3.672,12.614,9.371,16.692,3.935,3.2-4.2-2.933-7.368-5.914-8.537a24.3,24.3,0,0,0-12.972-1.073,1.836,1.836,0,0,0-2.122-.525,151.637,151.637,0,0,1-8.251-29.616,48.356,48.356,0,0,0,5.723,4.769c3.911,1.55,10.492,2.17,12.948-2.218,5.175-9.252-10.778-13.449-18.194-9.753a3.625,3.625,0,0,0-1.5-.238c-.358-3.171-.572-6.343-.644-9.538q-.167-7.154,0-14.713a60.712,60.712,0,0,0,7.607,7.654c4.316,2.385,11.923,2.575,14.021-2.885,2.385-6.128-5.675-8.68-10.015-9.324-1.788-.238-9.658-.238-11.494,1.073.548-11.923,1.812-24.06,3.362-36.055a132.315,132.315,0,0,0,8.2,13.807c4.054,4.769,13.211,10.349,18.266,3.672s-3.911-12.805-8.966-15.214a25.9,25.9,0,0,0-10.039-2.695,40.893,40.893,0,0,1-4.364.429c-1.24-.191-1.622-1.335-2.909-1.455.858-6.462,1.812-12.877,2.766-19.077.477-2.957.978-5.914,1.5-8.847a1.86,1.86,0,0,0,.882-.382,1.955,1.955,0,0,0,.31-2.742,2.17,2.17,0,0,0-.5-.429c.429-2.194.882-4.388,1.335-6.581a11.565,11.565,0,0,0,1.168,1.5c-2.671-.906,1,3.052,1.574,4.1a74.157,74.157,0,0,0,5.437,10.158c3.338,4.531,11.78,10.087,15.881,2.957,3.768-6.534-3.172-11.923-8.346-14.522a46.356,46.356,0,0,0-10.421-3.7,41.52,41.52,0,0,0-5.079-1.526c2.623-12.185,5.7-24.275,8.561-36.389.429.358.835.739,1.216,1.1a.93.93,0,0,0-.787.215c2.385,5.175,13.616,33.861,23.56,20.126,6.725-9.3-12.352-22.439-23.417-23.846,1.478-6.367,2.909-12.734,4.149-19.077.906-4.626,1.645-9.3,2.241-13.974,1.264,4.578,3.386,10.182,6.915,13.282,5.151,4.531,14.546,5.485,17.884-1.622,6.248-13.425-17.837-9.729-24.466-14.474a130.627,130.627,0,0,0-2.385-45.45C48.886,37.438,41.4,17.074,28.546,4.912,34.2,11.541,38.084,22.63,40.469,29.044a136.492,136.492,0,0,1,8.251,31.262,155.809,155.809,0,0,1-1.908,50.768c-4.626,1.407-11.064,1.383-13.831,2-5.055,1.145-14.188,4.125-12.829,11.16s9.538,5.318,14.307,3.7A22.773,22.773,0,0,0,44.952,120.4c-2.242,10.182-4.769,20.293-7.321,30.4-9.038-.572-27.232-8.179-29.283,4.2-2.385,14.093,19.387,10.874,25.634,5.341a14.044,14.044,0,0,0,2.051-2.242c-2.623,10.8-5.055,21.652-6.8,32.645-4.221,2.027-26.9-6.343-29.092,6.152-1.1,6.248,4.173,10.874,10.063,11.47s11.064-3.2,14.689-7.464a20.412,20.412,0,0,0,3.553-6.271l.191-.143c-1.669,10.874-3.291,21.938-4.531,33.05h-.382a2.027,2.027,0,0,0-1.932.62c-6.152,1.884-14.689,4.268-19.077,8.966-3.028,3.267-4.149,8.465,1.407,9.824,4.531,1.121,10.826-4.078,13.568-7.154a42.733,42.733,0,0,0,4.6-8.489,1.717,1.717,0,0,0,1.407,0,309.749,309.749,0,0,0-1.717,33.241c-5.961,3.076-17.694,2.384-18.337,11.446-.668,9.538,11.088,6.128,15.094,2.385a22.01,22.01,0,0,0,3.505-4.34,96.36,96.36,0,0,0,5.151,25.4h0c.286.811.6,1.622.906,2.385a7.868,7.868,0,0,1-.5,1.025c1-2.814-7.941,2.647-9.538,3.648-3.7,2.265-8.441,5.556-8.942,10.3v.787a6.605,6.605,0,0,0,6.3,6.724c5.031.143,8.751-4.984,10.9-8.751ZM23.967,0a20.484,20.484,0,0,1,5.151,4.578A55.186,55.186,0,0,0,23.967,0Z" transform="translate(74.734 2.695)" fill="#9c3b11" fill-rule="evenodd"/>
  </g>
</svg>
