<svg xmlns="http://www.w3.org/2000/svg" width="302.142" height="402.293" viewBox="0 0 302.142 402.293">
  <g id="Flower_With_Leaf" data-name="Flower With Leaf" transform="translate(65.554 -336.127)">
    <path id="Leaf" d="M122.073,2.878c.264-.38,1.978-3.021,1.115-2.853,1.757-.344-2.417,2.913,1.962.915C123.07,2.9,124.271,5.455,124.3,8.1a64.115,64.115,0,0,1-1.48,12.745,87.407,87.407,0,0,1-5.941,19.263c-6.018,13.453-16.238,26.4-28.37,34.815-5.989,4.152-11.859,5.567-18.69,7.478-4.315,1.208-4.657,3.44-6.948,7.627-4.768,8.72-9.451,17.409-13.656,26.424-5.021,10.765-9.895,21.541-14.493,32.5C19.231,185.841,6.624,224.068,0,263.629c-.162-23.313,5.231-47.324,12.034-69.545,4.956-16.19,11.406-31.8,18.287-47.245,1.667-3.742,4.194-8.557,4.9-12.688.5-2.9-1.02-5.679-1.714-8.729A91.352,91.352,0,0,1,33.376,88.3C36,75.135,43.572,69.024,56.388,67.159c4.687-.683,10.644-.432,14.942-2.431,4.682-2.176,6.614-9.329,9.277-13.921a189.31,189.31,0,0,1,25.4-34.557A82.419,82.419,0,0,1,114.7,8.257C116.643,6.7,120.749,4.791,122.073,2.878Z" transform="matrix(0.788, 0.616, -0.616, 0.788, 137.969, 453.627)" fill="#ab753f" fill-rule="evenodd"/>
    <path id="Leaf-Bottom" d="M109.9,8.545c2.471-.349,4.881,1.8,2.789,4.184s-6.927,1.061-9.535.121c.273,0,2.016-2.365,2.441-2.683A9.626,9.626,0,0,1,109.9,8.545Zm-2.41,14.128a2.638,2.638,0,0,1-.682,3.668l-.273.167c-1.652.955-3.835.182-5.442-.5-.712-.3-4.548-1.925-3.426-2.274h-.455l-.576.864h0a37.745,37.745,0,0,1-7.049,7.579,9.307,9.307,0,0,1,2.243.136c2.153.424,5.972,3.471,2.744,5.457s-5.609-2.062-8-3.289A126.019,126.019,0,0,1,75.356,41.7a.7.7,0,0,1,.3.47,17.7,17.7,0,0,1,3.9-.5c1.622.182,4.79,1,5.487,2.744.849,2.122-1.107,3.032-2.865,2.759-2.577-.349-5.336-2.562-7.4-4.123a.758.758,0,0,1-.637-.485l-.136-.091c-3.911,2.2-7.882,4.26-11.808,6.26h.091a8.671,8.671,0,0,1,2.865-.3,7.185,7.185,0,0,1,5.866,3.032,4.138,4.138,0,0,1-1.379,5.957c-4.548,2.213-7.155-7.124-8.792-8.034-3.987,2-8.095,3.759-12.218,5.427a6.607,6.607,0,0,1,1.213.136c3.259.743,9.383,7.079,4.244,9.6-4.548,2.213-6.26-5.472-8.246-8.61-3.881,1.516-7.776,3.032-11.611,4.729a9.1,9.1,0,0,1,4.911,1.652c1.607,1.137,4.062,3.441,2.122,5.487s-5.078-.182-6.624-1.516a50.2,50.2,0,0,0-3.9-4.032A62.969,62.969,0,0,0,13.782,73.5a54.888,54.888,0,0,0-8.231,10C4.035,85.823,1.337,89.658.5,93.038,1.443,86.02,6.324,78.82,10.69,73.711A52.267,52.267,0,0,1,24.939,62.342c0-3.274-6.837-10.247-1.016-11.354,3.032-.576,4.987,2.7,4.714,5.442a11.308,11.308,0,0,1-2.7,5.351c1.652-.91,3.35-1.743,5.078-2.531,2.365-1.107,4.775-2.122,7.185-3.138-2.137-3.926-2.319-13.2,2.289-13.188,6.791,0,.091,10.384-1.046,12.369a.379.379,0,0,1-.243-.212v.667c4.548-1.91,9.262-3.729,13.825-5.73A18.545,18.545,0,0,1,52.346,48a18.886,18.886,0,0,1-1.228-4.244c-.333-2.319-.243-5.806,2.774-6.063,3.274-.334,3.441,3.7,2.744,5.851A28.288,28.288,0,0,1,54.6,47.684c-.212.44-.637,2.562-.97,1.516a4.169,4.169,0,0,1-.212.743l2.456-1.107a.561.561,0,0,1,0-.273.758.758,0,0,1,.955-.531.728.728,0,0,1,.334.182c1.076-.5,2.153-1.031,3.229-1.516,2.259-1.152,4.548-2.334,6.867-3.577-.258-.44,0-.834-.2-1.288s-.864-.864-1.167-1.3a10.611,10.611,0,0,1-1.516-3.9c-.424-2.3-.424-6.655,2.835-6.579s3.668,4.4,3.032,6.806a63.67,63.67,0,0,1-2.577,5.9c4.275-2.289,8.534-4.745,12.521-7.337a11.627,11.627,0,0,1-3.032-3.486c-.8-1.516-1.865-4.76.7-5.442,2.259-.591,3.972,1.925,4.214,3.9a25.24,25.24,0,0,1-.712,4.26c1.652-1.107,3.274-2.243,4.805-3.411A28.049,28.049,0,0,0,89.12,28.8a1.85,1.85,0,0,1-.273-.546c-2.941-1.516-5.306-7.716-1.091-8.2,2.016-.227,3.35,2.046,3.759,3.7a17.9,17.9,0,0,1-.243,3.032,61.089,61.089,0,0,0,7.761-9.611.728.728,0,0,1-.333-.8,9.883,9.883,0,0,1-2.683-4.548c-.318-1.243-.712-3.972,1.395-3.911,2.744.091,3.032,4.426,2.638,6.382a11.91,11.91,0,0,1-.455,1.516.743.743,0,0,1,.258.091c1.349-2.153,2.592-4.381,3.744-6.624-1.228-.894.909-8.155,2.168-8.883,2.789-1.607,3.123,2.168,2.441,3.881a12.127,12.127,0,0,1-4.017,4.881c-.182.136-.152.136-.091-.121a.546.546,0,0,1-.212.243c-.258,1.076-.561,2.137-.925,3.183a76.586,76.586,0,0,1-3.668,7.928c-.318.622-.667,1.228-1.031,1.834a16.582,16.582,0,0,1,3.835-.985C103.824,20.99,106.4,21.035,107.492,22.673ZM.291,93.054A8.368,8.368,0,0,0,.018,95.8,21.023,21.023,0,0,1,.291,93.054Z" transform="matrix(1, 0.017, -0.017, 1, 99.027, 407.306)" fill="#9c3b11" fill-rule="evenodd"/>
    <path id="Leaf-Bottom-2" data-name="Leaf-Bottom" d="M64.527,5.017c1.451-.2,2.866,1.059,1.638,2.456s-4.067.623-5.6.071c.16,0,1.184-1.388,1.433-1.575A5.651,5.651,0,0,1,64.527,5.017Zm-1.415,8.295a1.549,1.549,0,0,1-.4,2.154l-.16.1c-.97.561-2.252.107-3.2-.294-.418-.178-2.67-1.13-2.011-1.335h-.267l-.338.507h0a22.161,22.161,0,0,1-4.138,4.45,5.464,5.464,0,0,1,1.317.08c1.264.249,3.507,2.038,1.611,3.2s-3.293-1.21-4.7-1.931a73.987,73.987,0,0,1-6.586,4.236.409.409,0,0,1,.178.276,10.394,10.394,0,0,1,2.287-.294c.952.107,2.812.587,3.222,1.611.5,1.246-.65,1.78-1.682,1.62-1.513-.2-3.133-1.5-4.343-2.421a.445.445,0,0,1-.374-.285l-.08-.053c-2.3,1.291-4.628,2.5-6.933,3.676h.053a5.09,5.09,0,0,1,1.682-.178,4.219,4.219,0,0,1,3.444,1.78,2.43,2.43,0,0,1-.81,3.5c-2.67,1.3-4.2-4.183-5.162-4.717-2.341,1.175-4.753,2.207-7.173,3.186a3.881,3.881,0,0,1,.712.08c1.913.436,5.509,4.156,2.492,5.634-2.67,1.3-3.676-3.213-4.842-5.055-2.278.89-4.566,1.78-6.817,2.777a5.34,5.34,0,0,1,2.884.97c.943.667,2.385,2.02,1.246,3.222s-2.981-.107-3.889-.89a29.475,29.475,0,0,0-2.287-2.367,36.971,36.971,0,0,0-9.959,6.6,32.227,32.227,0,0,0-4.833,5.874A20.8,20.8,0,0,0,.3,54.625C.847,50.5,3.713,46.277,6.276,43.278A30.687,30.687,0,0,1,14.642,36.6c0-1.922-4.014-6.016-.6-6.666,1.78-.338,2.928,1.584,2.768,3.2a6.639,6.639,0,0,1-1.584,3.142c.97-.534,1.967-1.024,2.981-1.486,1.388-.65,2.8-1.246,4.219-1.842-1.255-2.305-1.362-7.752,1.344-7.743,3.987,0,.053,6.1-.614,7.262a.222.222,0,0,1-.142-.125v.392c2.67-1.121,5.438-2.189,8.117-3.364a10.885,10.885,0,0,1-.4-1.184,11.089,11.089,0,0,1-.721-2.492c-.2-1.362-.142-3.409,1.629-3.56,1.922-.2,2.02,2.172,1.611,3.435A16.608,16.608,0,0,1,32.06,28c-.125.258-.374,1.5-.57.89a2.449,2.449,0,0,1-.125.436l1.442-.65a.329.329,0,0,1,0-.16.445.445,0,0,1,.561-.312.428.428,0,0,1,.2.107c.632-.294,1.264-.605,1.9-.89,1.326-.676,2.67-1.371,4.032-2.1-.151-.258,0-.49-.116-.756s-.507-.507-.685-.765a6.23,6.23,0,0,1-.89-2.287c-.249-1.353-.249-3.907,1.664-3.863s2.154,2.581,1.78,4A37.38,37.38,0,0,1,39.731,25.1c2.51-1.344,5.011-2.786,7.351-4.308A6.827,6.827,0,0,1,45.3,18.75c-.472-.89-1.095-2.795.409-3.2,1.326-.347,2.332,1.13,2.474,2.287a14.82,14.82,0,0,1-.418,2.5c.97-.65,1.922-1.317,2.821-2a16.469,16.469,0,0,0,1.735-1.433,1.086,1.086,0,0,1-.16-.32c-1.727-.89-3.115-4.53-.641-4.815,1.184-.134,1.967,1.2,2.207,2.172a10.508,10.508,0,0,1-.142,1.78,35.866,35.866,0,0,0,4.557-5.643.427.427,0,0,1-.2-.472,5.8,5.8,0,0,1-1.575-2.67c-.187-.73-.418-2.332.819-2.3,1.611.053,1.78,2.6,1.549,3.747a7,7,0,0,1-.267.89.436.436,0,0,1,.151.053c.792-1.264,1.522-2.572,2.2-3.889C60.1,4.919,61.358.656,62.1.229,63.735-.715,63.93,1.5,63.53,2.507a7.12,7.12,0,0,1-2.359,2.866c-.107.08-.089.08-.053-.071a.32.32,0,0,1-.125.142c-.151.632-.329,1.255-.543,1.869A44.971,44.971,0,0,1,58.3,11.968c-.187.365-.392.721-.605,1.077a9.736,9.736,0,0,1,2.252-.579C60.958,12.324,62.471,12.35,63.112,13.312ZM.171,54.634a4.913,4.913,0,0,0-.16,1.611A12.343,12.343,0,0,1,.171,54.634Z" transform="matrix(0.839, -0.545, 0.545, 0.839, 101.927, 426.079)" fill="#9c3b11" fill-rule="evenodd"/>
    <path id="Leaf-Bottom-3" data-name="Leaf-Bottom" d="M69.65,55.3c1.566.221,3.093-1.143,1.768-2.651s-4.39-.672-6.043-.077c.173,0,1.278,1.5,1.547,1.7A6.1,6.1,0,0,0,69.65,55.3Zm-1.527-8.953a1.672,1.672,0,0,0-.432-2.325l-.173-.106c-1.047-.605-2.43-.115-3.449.317-.452.192-2.882,1.22-2.171,1.441h-.288l-.365-.548h0a23.92,23.92,0,0,0-4.467-4.8,5.9,5.9,0,0,0,1.422-.086c1.364-.269,3.785-2.2,1.739-3.458s-3.554,1.307-5.072,2.085a79.863,79.863,0,0,0-7.109-4.573.442.442,0,0,0,.192-.3,11.22,11.22,0,0,0,2.469.317c1.028-.115,3.036-.634,3.478-1.739.538-1.345-.7-1.921-1.816-1.748-1.633.221-3.382,1.624-4.688,2.613a.48.48,0,0,0-.4.307L46.9,33.8c-2.478-1.393-5-2.7-7.484-3.968h.058a5.5,5.5,0,0,0,1.816.192A4.554,4.554,0,0,0,45.009,28.1a2.623,2.623,0,0,0-.874-3.775c-2.882-1.4-4.534,4.515-5.572,5.092-2.527-1.268-5.13-2.382-7.743-3.439a4.187,4.187,0,0,0,.769-.086c2.065-.471,5.947-4.486,2.69-6.081-2.882-1.4-3.968,3.468-5.226,5.457-2.459-.961-4.928-1.921-7.359-3a5.764,5.764,0,0,0,3.113-1.047c1.018-.72,2.575-2.181,1.345-3.478s-3.218.115-4.2.961a31.813,31.813,0,0,1-2.469,2.555,39.906,39.906,0,0,1-10.75-7.128,34.786,34.786,0,0,1-5.216-6.34c-.961-1.47-2.671-3.9-3.2-6.043C.915,6.2,4.008,10.759,6.775,14a33.124,33.124,0,0,0,9.03,7.2c0,2.075-4.333,6.494-.644,7.2,1.921.365,3.161-1.71,2.988-3.449a7.167,7.167,0,0,0-1.71-3.391c1.047.576,2.123,1.1,3.218,1.6,1.5.7,3.026,1.345,4.554,1.989-1.355,2.488-1.47,8.367,1.451,8.358,4.3,0,.058-6.581-.663-7.839a.24.24,0,0,0-.154.134v-.423c2.882,1.21,5.87,2.363,8.761,3.631a11.754,11.754,0,0,0-.432,1.278,11.969,11.969,0,0,0-.778,2.69c-.211,1.47-.154,3.679,1.758,3.843,2.075.211,2.181-2.344,1.739-3.708a17.927,17.927,0,0,0-1.287-2.623c-.135-.279-.4-1.624-.615-.961a2.642,2.642,0,0,0-.134-.471l1.556.7a.355.355,0,0,0,0,.173.48.48,0,0,0,.605.336.461.461,0,0,0,.211-.115c.682.317,1.364.653,2.046.961,1.431.73,2.882,1.479,4.352,2.267-.163.279,0,.528-.125.817s-.548.548-.74.826a6.725,6.725,0,0,0-.961,2.469c-.269,1.46-.269,4.217,1.8,4.169s2.325-2.786,1.921-4.313a40.351,40.351,0,0,0-1.633-3.737c2.709,1.451,5.409,3.007,7.935,4.65a7.368,7.368,0,0,0-1.921,2.21c-.509.961-1.182,3.016.442,3.449,1.431.375,2.517-1.22,2.671-2.469a16,16,0,0,0-.452-2.7c1.047.7,2.075,1.422,3.045,2.162a17.775,17.775,0,0,1,1.873,1.547,1.172,1.172,0,0,0-.173.346c-1.864.961-3.362,4.89-.692,5.2,1.278.144,2.123-1.3,2.382-2.344a11.344,11.344,0,0,0-.154-1.921,38.715,38.715,0,0,1,4.919,6.091.461.461,0,0,0-.211.509,6.263,6.263,0,0,0-1.7,2.882c-.2.788-.452,2.517.884,2.479,1.739-.058,1.921-2.805,1.672-4.044a7.548,7.548,0,0,0-.288-.961.471.471,0,0,0,.163-.058c.855,1.364,1.643,2.776,2.373,4.2-.778.567.576,5.168,1.374,5.629C68.8,61.483,69.006,59.09,68.574,58a7.686,7.686,0,0,0-2.546-3.093c-.115-.086-.1-.086-.058.077a.346.346,0,0,0-.134-.154c-.163-.682-.355-1.355-.586-2.017a48.535,48.535,0,0,0-2.325-5.024c-.2-.394-.423-.778-.653-1.162a10.509,10.509,0,0,0,2.43.624C65.8,47.409,67.431,47.38,68.123,46.342ZM.185,1.739A5.3,5.3,0,0,1,.012,0,13.323,13.323,0,0,0,.185,1.739Z" transform="translate(47.67 601.738) rotate(-45)" fill="#9c3b11" fill-rule="evenodd"/>
    <path id="Leaf-Bottom-4" data-name="Leaf-Bottom" d="M40.893,32.466c.919.13,1.816-.671,1.038-1.557s-2.578-.395-3.548-.045c.1,0,.75.88.908,1A3.582,3.582,0,0,0,40.893,32.466ZM40,27.209a.981.981,0,0,0-.254-1.365l-.1-.062a2.38,2.38,0,0,0-2.025.186c-.265.113-1.692.716-1.275.846h-.169l-.214-.321h0a14.045,14.045,0,0,0-2.623-2.82,3.462,3.462,0,0,0,.835-.051c.8-.158,2.222-1.292,1.021-2.031s-2.087.767-2.978,1.224a46.888,46.888,0,0,0-4.174-2.685.259.259,0,0,0,.113-.175,6.587,6.587,0,0,0,1.45.186c.6-.068,1.782-.372,2.042-1.021.316-.79-.412-1.128-1.066-1.027a6.88,6.88,0,0,0-2.752,1.534.282.282,0,0,0-.237.18l-.051.034c-1.455-.818-2.933-1.585-4.394-2.329h.034a3.226,3.226,0,0,0,1.066.113A2.673,2.673,0,0,0,26.426,16.5a1.54,1.54,0,0,0-.513-2.217c-1.692-.823-2.662,2.651-3.271,2.989-1.483-.745-3.012-1.4-4.546-2.019a2.459,2.459,0,0,0,.451-.051c1.213-.276,3.491-2.634,1.579-3.57-1.692-.823-2.329,2.036-3.068,3.2-1.444-.564-2.893-1.128-4.32-1.76a3.384,3.384,0,0,0,1.827-.615c.6-.423,1.512-1.28.79-2.042s-1.89.068-2.465.564a18.68,18.68,0,0,1-1.45,1.5A23.43,23.43,0,0,1,5.128,8.3,20.424,20.424,0,0,1,2.066,4.574,13.184,13.184,0,0,1,.187,1.027c.35,2.611,2.166,5.291,3.79,7.191a19.448,19.448,0,0,0,5.3,4.23c0,1.218-2.544,3.813-.378,4.225,1.128.214,1.856-1,1.754-2.025a4.208,4.208,0,0,0-1-1.991c.615.338,1.247.649,1.89.942.88.412,1.777.79,2.673,1.168-.8,1.461-.863,4.913.852,4.907,2.527,0,.034-3.864-.389-4.6a.141.141,0,0,0-.09.079V14.9c1.692.711,3.446,1.388,5.144,2.132a6.9,6.9,0,0,0-.254.75,7.028,7.028,0,0,0-.457,1.579c-.124.863-.09,2.16,1.032,2.256,1.218.124,1.28-1.376,1.021-2.177a10.525,10.525,0,0,0-.756-1.54c-.079-.164-.237-.953-.361-.564a1.552,1.552,0,0,0-.079-.276l.914.412a.209.209,0,0,0,0,.1.282.282,0,0,0,.355.2.271.271,0,0,0,.124-.068c.4.186.8.384,1.2.564.84.429,1.692.869,2.555,1.331-.1.164,0,.31-.073.479s-.322.322-.434.485a3.948,3.948,0,0,0-.564,1.45c-.158.857-.158,2.476,1.055,2.448s1.365-1.636,1.128-2.533a23.688,23.688,0,0,0-.959-2.194c1.591.852,3.175,1.765,4.659,2.73a4.326,4.326,0,0,0-1.128,1.3c-.3.564-.694,1.771.259,2.025.84.22,1.478-.716,1.568-1.45a9.392,9.392,0,0,0-.265-1.585c.615.412,1.218.835,1.788,1.269a10.437,10.437,0,0,1,1.1.908.688.688,0,0,0-.1.2c-1.094.564-1.974,2.871-.406,3.051.75.085,1.247-.761,1.4-1.376a6.66,6.66,0,0,0-.09-1.128,22.73,22.73,0,0,1,2.888,3.576.271.271,0,0,0-.124.3,3.678,3.678,0,0,0-1,1.692c-.118.463-.265,1.478.519,1.455,1.021-.034,1.128-1.647.981-2.375a4.434,4.434,0,0,0-.169-.564.277.277,0,0,0,.1-.034c.5.8.964,1.63,1.393,2.465-.457.333.338,3.034.807,3.305,1.038.6,1.162-.807.908-1.444a4.512,4.512,0,0,0-1.495-1.816c-.068-.051-.056-.051-.034.045a.2.2,0,0,0-.079-.09c-.1-.4-.209-.8-.344-1.184a28.5,28.5,0,0,0-1.365-2.95c-.118-.231-.248-.457-.384-.682a6.171,6.171,0,0,0,1.427.367C38.632,27.835,39.591,27.818,40,27.209ZM.108,1.021A3.114,3.114,0,0,1,.007,0,7.822,7.822,0,0,0,.108,1.021Z" transform="translate(76.854 599.843) rotate(-11)" fill="#9c3b11" fill-rule="evenodd"/>
    <path id="Leaf-Bottom-5" data-name="Leaf-Bottom" d="M89.416,70.988c2.01.284,3.971-1.468,2.269-3.4s-5.636-.863-7.757-.1c.222,0,1.64,1.924,1.986,2.183A7.831,7.831,0,0,0,89.416,70.988ZM87.455,59.494a2.146,2.146,0,0,0-.555-2.985l-.222-.136c-1.344-.777-3.12-.148-4.428.407-.58.247-3.7,1.566-2.787,1.85h-.37l-.469-.7h0a30.709,30.709,0,0,0-5.735-6.166,7.572,7.572,0,0,0,1.825-.111c1.751-.345,4.859-2.824,2.232-4.44s-4.563,1.677-6.512,2.676a102.527,102.527,0,0,0-9.126-5.87.567.567,0,0,0,.247-.382,14.4,14.4,0,0,0,3.17.407c1.32-.148,3.9-.814,4.464-2.232.691-1.727-.9-2.467-2.331-2.245-2.1.284-4.341,2.084-6.018,3.355a.617.617,0,0,0-.518.395l-.111.074C57.03,41.6,53.8,39.922,50.6,38.294h.074a7.055,7.055,0,0,0,2.331.247,5.846,5.846,0,0,0,4.773-2.467,3.367,3.367,0,0,0-1.122-4.847c-3.7-1.8-5.821,5.8-7.153,6.536-3.244-1.628-6.586-3.059-9.94-4.415a5.375,5.375,0,0,0,.987-.111c2.652-.6,7.634-5.759,3.453-7.807-3.7-1.8-5.093,4.452-6.709,7.005C34.14,31.2,30.97,29.969,27.85,28.588a7.4,7.4,0,0,0,4-1.344c1.307-.925,3.305-2.8,1.727-4.465s-4.132.148-5.389,1.233a40.841,40.841,0,0,1-3.17,3.281,51.231,51.231,0,0,1-13.8-9.151A44.657,44.657,0,0,1,4.517,10C3.283,8.115,1.088,4.995.41,2.245,1.174,7.955,5.145,13.813,8.7,17.969a42.524,42.524,0,0,0,11.593,9.25c0,2.664-5.562,8.337-.826,9.237,2.467.469,4.058-2.2,3.836-4.427a9.2,9.2,0,0,0-2.2-4.354c1.344.74,2.726,1.418,4.132,2.06,1.924.9,3.885,1.727,5.846,2.553-1.739,3.194-1.887,10.742,1.862,10.73,5.525,0,.074-8.448-.851-10.064a.308.308,0,0,0-.2.173v-.543c3.7,1.554,7.535,3.034,11.248,4.662a15.09,15.09,0,0,0-.555,1.64,15.366,15.366,0,0,0-1,3.453c-.271,1.887-.2,4.724,2.257,4.933,2.664.271,2.8-3.009,2.232-4.76a23.015,23.015,0,0,0-1.653-3.367c-.173-.358-.518-2.084-.789-1.233a3.392,3.392,0,0,0-.173-.6l2,.9a.456.456,0,0,0,0,.222.617.617,0,0,0,.777.432.592.592,0,0,0,.271-.148c.876.407,1.751.839,2.627,1.233,1.838.937,3.7,1.9,5.587,2.911-.21.358,0,.678-.16,1.048s-.7.7-.95,1.061a8.633,8.633,0,0,0-1.233,3.17c-.345,1.875-.345,5.414,2.306,5.352s2.985-3.577,2.467-5.537a51.8,51.8,0,0,0-2.1-4.8c3.478,1.862,6.943,3.86,10.187,5.969a9.46,9.46,0,0,0-2.467,2.837c-.654,1.233-1.517,3.873.567,4.428,1.838.481,3.231-1.566,3.429-3.17a20.535,20.535,0,0,0-.58-3.466c1.344.9,2.664,1.825,3.909,2.775a22.82,22.82,0,0,1,2.4,1.986,1.5,1.5,0,0,0-.222.444c-2.393,1.233-4.317,6.277-.888,6.672,1.64.185,2.726-1.665,3.059-3.009a14.563,14.563,0,0,0-.2-2.467,49.7,49.7,0,0,1,6.314,7.819.592.592,0,0,0-.271.654,8.041,8.041,0,0,0-2.183,3.7c-.259,1.011-.58,3.231,1.135,3.182,2.232-.074,2.467-3.6,2.146-5.192a9.691,9.691,0,0,0-.37-1.233.6.6,0,0,0,.21-.074c1.1,1.751,2.109,3.564,3.046,5.389-1,.728.74,6.635,1.764,7.227,2.269,1.307,2.541-1.764,1.986-3.157a9.867,9.867,0,0,0-3.268-3.971c-.148-.111-.123-.111-.074.1a.444.444,0,0,0-.173-.2c-.21-.876-.456-1.739-.752-2.59a62.309,62.309,0,0,0-2.985-6.45c-.259-.506-.543-1-.839-1.492a13.491,13.491,0,0,0,3.12.8C84.47,60.863,86.567,60.826,87.455,59.494ZM.237,2.232A6.808,6.808,0,0,1,.015,0,17.1,17.1,0,0,0,.237,2.232Z" transform="matrix(-0.777, -0.629, 0.629, -0.777, 60.652, 564.413)" fill="#9c3b11" fill-rule="evenodd"/>
    <path id="Leaf-Bottom-6" data-name="Leaf-Bottom" d="M52.5,41.679c1.18.167,2.332-.862,1.332-2s-3.309-.507-4.555-.058c.13,0,.963,1.13,1.166,1.282A4.6,4.6,0,0,0,52.5,41.679ZM51.347,34.93a1.26,1.26,0,0,0-.326-1.752l-.13-.08a3.055,3.055,0,0,0-2.6.239c-.34.145-2.172.92-1.636,1.086h-.217l-.275-.413h0A18.03,18.03,0,0,0,42.8,30.39a4.445,4.445,0,0,0,1.072-.065c1.028-.2,2.853-1.658,1.311-2.607S42.5,28.7,41.355,29.29A60.194,60.194,0,0,0,36,25.843a.333.333,0,0,0,.145-.224A8.457,8.457,0,0,0,38,25.857c.775-.087,2.288-.478,2.621-1.311.405-1.014-.529-1.448-1.369-1.318a8.832,8.832,0,0,0-3.534,1.97.362.362,0,0,0-.3.232l-.065.043c-1.868-1.05-3.765-2.035-5.641-2.991h.043a4.142,4.142,0,0,0,1.369.145,3.432,3.432,0,0,0,2.8-1.448,1.977,1.977,0,0,0-.659-2.846c-2.172-1.057-3.418,3.4-4.2,3.838-1.9-.956-3.867-1.8-5.836-2.592a3.157,3.157,0,0,0,.579-.065c1.557-.355,4.482-3.382,2.027-4.584-2.172-1.057-2.991,2.614-3.939,4.113-1.854-.724-3.715-1.448-5.547-2.259A4.344,4.344,0,0,0,18.7,16c.768-.543,1.941-1.644,1.014-2.621s-2.426.087-3.164.724a23.982,23.982,0,0,1-1.861,1.926,30.079,30.079,0,0,1-8.1-5.373A26.22,26.22,0,0,1,2.652,5.872,16.926,16.926,0,0,1,.241,1.318C.689,4.67,3.021,8.11,5.106,10.55a24.967,24.967,0,0,0,6.807,5.431c0,1.564-3.266,4.895-.485,5.423,1.448.275,2.382-1.289,2.252-2.6a5.4,5.4,0,0,0-1.289-2.556c.789.434,1.6.833,2.426,1.209,1.13.529,2.281,1.014,3.432,1.5-1.021,1.875-1.108,6.307,1.093,6.3,3.244,0,.043-4.96-.5-5.909a.181.181,0,0,0-.116.1v-.319c2.172.912,4.424,1.781,6.6,2.737a8.856,8.856,0,0,0-.326.963,9.022,9.022,0,0,0-.587,2.027c-.159,1.108-.116,2.773,1.325,2.9,1.564.159,1.644-1.767,1.311-2.8a13.512,13.512,0,0,0-.97-1.977c-.1-.21-.3-1.224-.463-.724a1.992,1.992,0,0,0-.1-.355l1.173.529a.268.268,0,0,0,0,.13.362.362,0,0,0,.456.253.348.348,0,0,0,.159-.087c.514.239,1.028.492,1.542.724,1.079.55,2.172,1.115,3.28,1.709-.123.21,0,.4-.094.615s-.413.413-.558.623a5.069,5.069,0,0,0-.724,1.861c-.2,1.1-.2,3.179,1.354,3.143s1.752-2.1,1.448-3.251a30.411,30.411,0,0,0-1.231-2.817c2.042,1.093,4.077,2.266,5.981,3.5a5.554,5.554,0,0,0-1.448,1.665c-.384.724-.891,2.274.333,2.6,1.079.282,1.9-.92,2.013-1.861a12.057,12.057,0,0,0-.34-2.035c.789.529,1.564,1.072,2.3,1.629a13.4,13.4,0,0,1,1.412,1.166.884.884,0,0,0-.13.261c-1.4.724-2.534,3.686-.521,3.917.963.109,1.6-.978,1.8-1.767a8.549,8.549,0,0,0-.116-1.448,29.181,29.181,0,0,1,3.707,4.591.348.348,0,0,0-.159.384,4.721,4.721,0,0,0-1.282,2.172c-.152.594-.34,1.9.666,1.868,1.311-.043,1.448-2.114,1.26-3.048a5.693,5.693,0,0,0-.217-.724.355.355,0,0,0,.123-.043c.644,1.028,1.238,2.093,1.789,3.164-.587.427.434,3.9,1.035,4.243,1.332.768,1.492-1.035,1.166-1.854a5.793,5.793,0,0,0-1.919-2.332c-.087-.065-.072-.065-.043.058a.261.261,0,0,0-.1-.116c-.123-.514-.268-1.021-.442-1.521a36.59,36.59,0,0,0-1.752-3.787c-.152-.3-.319-.587-.492-.876a7.922,7.922,0,0,0,1.832.471C49.595,35.734,50.826,35.712,51.347,34.93ZM.139,1.311A4,4,0,0,1,.009,0,10.042,10.042,0,0,0,.139,1.311Z" transform="translate(54.316 527.405) rotate(-107)" fill="#9c3b11" fill-rule="evenodd"/>
    <path id="Leaf-2" data-name="Leaf" d="M48.3,17.362C51.412,12.924,57.187,1.655,61.566.069c2.821-1.021,2,9.543,2.034,11.557a168.891,168.891,0,0,1-1.56,23.265C60.352,48.828,54.833,61.24,47.262,73.1c-3.9,6.1-8.465,12.282-14.794,16.09-2.913,1.754-6.417,2.048-9.294,3.559-3.351,1.759-1.526.337-3.036,3.828-2.1,4.848-2.767,11.1-3.737,16.273C11.946,136.594,1.161,262.107,3.031,286.258,3.2,288.4.213,288.911.063,286.3-.728,272.441,6.124,176.485,9.583,145.1S16.539,86,20.047,75.145C24.3,61.973,31.99,46.134,38.389,33.85A146.121,146.121,0,0,1,48.3,17.362Z" transform="matrix(0.788, 0.616, -0.616, 0.788, 172.272, 418.405)" fill="#21c8b0" fill-rule="evenodd"/>
    <path id="Leaf-3" data-name="Leaf" d="M10.413,9.715c17.069,28.313,31.1,59.414,40.153,90.914,5.488,19.086,9.325,38.671,13.138,58.114,5.9,30.106,11.488,60.209,13.076,90.85,1.6,30.818,4.758,66.363-5.792,96.045,5.27-30.136.253-62.213-.636-92.536-.424-14.476-1.654-28.81-3.269-43.2-1.566-13.96-4.124-27.854-6.507-41.7q-1.741-10.118-3.621-20.212c-.37-2.009-.527-7.968-1.859-9.34s-8.181-1.944-10.328-2.958a55.534,55.534,0,0,1-11.992-8,92.455,92.455,0,0,1-17.643-21.109C4.17,89.075-.214,67.718.008,47.45.05,43.515,6.667,1.14,4.01.557Q4.25.288,4.464,0C6.476,3.222,8.45,6.465,10.413,9.715Z" transform="matrix(0.788, 0.616, -0.616, 0.788, 147.242, 336.127)" fill="#21c8b0" fill-rule="evenodd"/>
  </g>
</svg>
