<svg xmlns="http://www.w3.org/2000/svg" width="1000" height="250" viewBox="0 0 1000 250">
  <g id="Hiring_Workflow" data-name="Hiring Workflow" transform="translate(-460 -2552)">
    <path id="Rectangle_93" data-name="Rectangle 93" d="M20,2A18,18,0,0,0,2,20V230a18,18,0,0,0,18,18H980a18,18,0,0,0,18-18V20A18,18,0,0,0,980,2H20m0-2H980a20,20,0,0,1,20,20V230a20,20,0,0,1-20,20H20A20,20,0,0,1,0,230V20A20,20,0,0,1,20,0Z" transform="translate(460 2552)" fill="#7da496"/>
    <g id="Group_190" data-name="Group 190" transform="translate(128 290)">
      <path id="Line_33" data-name="Line 33" d="M794,2h0L0,1.5A1.5,1.5,0,0,1-1.5,0,1.5,1.5,0,0,1,0-1.5L794-1a1.5,1.5,0,0,1,0,3Z" transform="translate(460.5 2345)" fill="#c2c2c2"/>
      <g id="Group_184" data-name="Group 184">
        <g id="Group_178" data-name="Group 178" transform="translate(24 12)">
          <circle id="Ellipse_108" data-name="Ellipse 108" cx="25" cy="25" r="25" transform="translate(423 2308)" fill="rgba(30,236,119,0.6)"/>
          <circle id="Ellipse_107" data-name="Ellipse 107" cx="12.5" cy="12.5" r="12.5" transform="translate(435 2320)" fill="#1eec77"/>
        </g>
        <text id="_1" data-name="1" transform="translate(469 2351)" fill="#fff" font-size="15" font-family="Poppins-SemiBold, Poppins" font-weight="600" letter-spacing="0.1em"><tspan x="0" y="0">1</tspan></text>
      </g>
      <g id="Group_185" data-name="Group 185" transform="translate(20)">
        <g id="Group_179" data-name="Group 179" transform="translate(-25 12)">
          <circle id="Ellipse_109" data-name="Ellipse 109" cx="25" cy="25" r="25" transform="translate(648 2308)" fill="rgba(30,236,119,0.6)"/>
          <circle id="Ellipse_110" data-name="Ellipse 110" cx="12.5" cy="12.5" r="12.5" transform="translate(660 2320)" fill="#1eec77"/>
        </g>
        <text id="_2" data-name="2" transform="translate(643 2350)" fill="#fff" font-size="15" font-family="Poppins-SemiBold, Poppins" font-weight="600" letter-spacing="0.1em"><tspan x="0" y="0">2</tspan></text>
      </g>
      <g id="Group_186" data-name="Group 186" transform="translate(15)">
        <g id="Group_180" data-name="Group 180" transform="translate(-50 12)">
          <circle id="Ellipse_111" data-name="Ellipse 111" cx="25" cy="25" r="25" transform="translate(873 2308)" fill="rgba(30,236,119,0.6)"/>
          <circle id="Ellipse_112" data-name="Ellipse 112" cx="12.5" cy="12.5" r="12.5" transform="translate(885 2320)" fill="#1eec77"/>
        </g>
        <text id="_3" data-name="3" transform="translate(843 2350)" fill="#fff" font-size="15" font-family="Poppins-SemiBold, Poppins" font-weight="600" letter-spacing="0.1em"><tspan x="0" y="0">3</tspan></text>
      </g>
      <g id="Group_189" data-name="Group 189" transform="translate(11)">
        <g id="Group_181" data-name="Group 181" transform="translate(-75 12)">
          <circle id="Ellipse_113" data-name="Ellipse 113" cx="25" cy="25" r="25" transform="translate(1098 2308)" fill="rgba(30,236,119,0.6)"/>
          <circle id="Ellipse_114" data-name="Ellipse 114" cx="12.5" cy="12.5" r="12.5" transform="translate(1110 2320)" fill="#1eec77"/>
        </g>
        <text id="_4" data-name="4" transform="translate(1042 2350)" fill="#fff" font-size="15" font-family="Poppins-SemiBold, Poppins" font-weight="600" letter-spacing="0.1em"><tspan x="0" y="0">4</tspan></text>
      </g>
      <g id="Group_187" data-name="Group 187" transform="translate(5)">
        <g id="Group_182" data-name="Group 182" transform="translate(-99 12)">
          <circle id="Ellipse_115" data-name="Ellipse 115" cx="25" cy="25" r="25" transform="translate(1323 2308)" fill="rgba(30,236,119,0.6)"/>
          <circle id="Ellipse_116" data-name="Ellipse 116" cx="12.5" cy="12.5" r="12.5" transform="translate(1335 2320)" fill="#1eec77"/>
        </g>
        <text id="_5" data-name="5" transform="translate(1244 2350)" fill="#fff" font-size="15" font-family="Poppins-SemiBold, Poppins" font-weight="600" letter-spacing="0.1em"><tspan x="0" y="0">5</tspan></text>
      </g>
      <text id="Complete_An_Application" data-name="Complete
An Application" transform="translate(472 2408)" fill="#00594c" font-size="25" font-family="Poppins-SemiBold, Poppins" font-weight="600"><tspan x="-62.9" y="0">Complete</tspan><tspan x="-93.6" y="38">An Application</tspan></text>
      <text id="Schedule_Your_Vist" data-name="Schedule
Your Vist" transform="translate(668 2407)" fill="#00594c" font-size="25" font-family="Poppins-SemiBold, Poppins" font-weight="600"><tspan x="-59.038" y="0">Schedule</tspan><tspan x="-56.237" y="38">Your Vist</tspan></text>
      <text id="Visit_GGPS" data-name="Visit
GGPS" transform="translate(863 2407)" fill="#00594c" font-size="25" font-family="Poppins-SemiBold, Poppins" font-weight="600"><tspan x="-27.5" y="0">Visit</tspan><tspan x="-34.413" y="38">GGPS</tspan></text>
      <text id="Personal_Interview" data-name="Personal
Interview" transform="translate(1059 2408)" fill="#00594c" font-size="25" font-family="Poppins-SemiBold, Poppins" font-weight="600"><tspan x="-55.362" y="0">Personal</tspan><tspan x="-58.575" y="38">Interview</tspan></text>
      <text id="Offer" transform="translate(1254 2408)" fill="#00594c" font-size="25" font-family="Poppins-SemiBold, Poppins" font-weight="600"><tspan x="-31.2" y="0">Offer</tspan></text>
    </g>
  </g>
</svg>
