<svg xmlns="http://www.w3.org/2000/svg" width="15.998" height="15.998" viewBox="0 0 15.998 15.998">
  <path id="Instagram_Green_Small" data-name="Instagram Green Small" d="M8,0C5.826,0,5.555.01,4.7.048A5.9,5.9,0,0,0,2.76.42a3.917,3.917,0,0,0-1.417.923A3.9,3.9,0,0,0,.42,2.76,5.881,5.881,0,0,0,.048,4.7C.008,5.555,0,5.826,0,8s.01,2.444.048,3.3A5.9,5.9,0,0,0,.42,13.239a3.922,3.922,0,0,0,.923,1.417,3.911,3.911,0,0,0,1.417.923A5.906,5.906,0,0,0,4.7,15.95C5.555,15.99,5.826,16,8,16s2.444-.01,3.3-.048a5.92,5.92,0,0,0,1.942-.372,4.088,4.088,0,0,0,2.34-2.34A5.9,5.9,0,0,0,15.95,11.3c.04-.853.048-1.125.048-3.3s-.01-2.444-.048-3.3a5.916,5.916,0,0,0-.372-1.942,3.926,3.926,0,0,0-.923-1.417A3.9,3.9,0,0,0,13.239.42,5.885,5.885,0,0,0,11.3.048C10.444.008,10.172,0,8,0ZM8,1.44c2.135,0,2.39.011,3.233.047a4.407,4.407,0,0,1,1.485.277,2.633,2.633,0,0,1,1.519,1.518,4.417,4.417,0,0,1,.275,1.485c.038.844.047,1.1.047,3.233s-.01,2.39-.049,3.233a4.5,4.5,0,0,1-.281,1.485,2.54,2.54,0,0,1-.6.921,2.5,2.5,0,0,1-.92.6,4.449,4.449,0,0,1-1.49.275c-.849.038-1.1.047-3.239.047s-2.39-.01-3.239-.049a4.535,4.535,0,0,1-1.491-.281,2.477,2.477,0,0,1-.919-.6,2.429,2.429,0,0,1-.6-.92,4.54,4.54,0,0,1-.28-1.49c-.03-.84-.041-1.1-.041-3.229s.011-2.39.041-3.24a4.534,4.534,0,0,1,.28-1.489,2.371,2.371,0,0,1,.6-.921,2.366,2.366,0,0,1,.919-.6A4.427,4.427,0,0,1,4.73,1.46c.85-.03,1.1-.04,3.239-.04L8,1.44ZM8,3.892a4.108,4.108,0,1,0,2.9,1.2A4.107,4.107,0,0,0,8,3.892Zm0,6.774A2.666,2.666,0,1,1,10.666,8,2.666,2.666,0,0,1,8,10.666Zm5.23-6.936a.96.96,0,1,1-.281-.679.961.961,0,0,1,.281.679Z" fill="#00594c"/>
</svg>
