<svg xmlns="http://www.w3.org/2000/svg" width="21.538" height="30" viewBox="0 0 21.538 30">
  <path id="Location_Green" data-name="Location Green" d="M18.079,2.576A10.915,10.915,0,0,0,10.769,0a10.915,10.915,0,0,0-7.31,2.576C1.175,4.6,0,7.63,0,11.413c0,8.185,9.431,17.8,9.855,18.2a1.289,1.289,0,0,0,.914.391,1.236,1.236,0,0,0,.914-.391c.424-.391,9.855-10.011,9.855-18.2,0-3.783-1.175-6.815-3.459-8.837Zm-7.31,24.2a48.829,48.829,0,0,1-3.655-4.565c-2.937-4.174-4.5-7.891-4.5-10.793,0-8.152,6.233-8.8,8.159-8.8,7.571,0,8.159,6.75,8.159,8.8C18.928,17.152,13.086,24.228,10.769,26.772Zm0-21.13a5.267,5.267,0,1,0,5.189,5.25,5.242,5.242,0,0,0-5.189-5.25Zm0,8.25a3,3,0,1,1,2.9-3A2.953,2.953,0,0,1,10.769,13.891Z" fill="#00594c"/>
</svg>
