<svg xmlns="http://www.w3.org/2000/svg" width="18.598" height="15.018" viewBox="0 0 18.598 15.018">
  <g id="Manage" transform="translate(0 0)">
    <path id="Path_95" data-name="Path 95" d="M10.218,2.672a1.178,1.178,0,0,0-.43,1.607h0a1.178,1.178,0,0,0,1.607.43l.848-.489a6.289,6.289,0,0,1,.35,2.076q0,.234-.017.465l-.944-.253a1.178,1.178,0,0,0-.609,2.272l.946.253a6.309,6.309,0,0,1-1.56,2.031l-.487-.847a1.178,1.178,0,0,0-1.607-.43h0a1.178,1.178,0,0,0-.432,1.607l.489.848a6.289,6.289,0,0,1-2.075.35q-.234,0-.465-.017l.253-.944a1.178,1.178,0,0,0-.83-1.439h0a1.178,1.178,0,0,0-1.442.83l-.253.946a6.309,6.309,0,0,1-2.031-1.56l.847-.487A1.178,1.178,0,0,0,2.8,8.313h0A1.178,1.178,0,0,0,1.2,7.881L.35,8.371A6.289,6.289,0,0,1,0,6.3q0-.234.017-.465l.944.253A1.178,1.178,0,0,0,2.4,5.254h0a1.178,1.178,0,0,0-.832-1.441L.623,3.56a6.309,6.309,0,0,1,1.56-2.031l.489.845A1.178,1.178,0,0,0,4.711,1.2L4.221.35A6.289,6.289,0,0,1,6.3,0q.234,0,.465.017L6.508.962A1.178,1.178,0,0,0,7.338,2.4h0a1.178,1.178,0,0,0,1.441-.832L9.032.623a6.309,6.309,0,0,1,2.031,1.56ZM6.3,4.6a1.7,1.7,0,1,0,1.7,1.7A1.7,1.7,0,0,0,6.3,4.6Z" transform="translate(0 2.426)" fill="#fff"/>
    <path id="Path_96" data-name="Path 96" d="M237.965,154.306a.758.758,0,0,0,.087,1.069h0a.759.759,0,0,0,1.069-.086l.408-.481a4.051,4.051,0,0,1,.662,1.184q.051.143.091.286l-.627.051a.758.758,0,0,0,.122,1.512l.629-.051a4.077,4.077,0,0,1-.508,1.572l-.48-.408a.759.759,0,0,0-1.069.087h0a.759.759,0,0,0,.087,1.069l.481.408a4.053,4.053,0,0,1-1.184.664c-.095.034-.19.064-.286.091l-.051-.628a.758.758,0,0,0-.815-.695h0a.758.758,0,0,0-.695.815l.051.629a4.077,4.077,0,0,1-1.571-.508l.408-.48a.759.759,0,0,0-.087-1.069h0a.759.759,0,0,0-1.069.087l-.408.481a4.056,4.056,0,0,1-.666-1.185c-.034-.095-.064-.19-.091-.286l.629-.051a.759.759,0,0,0,.695-.815h0a.759.759,0,0,0-.815-.695l-.629.051a4.076,4.076,0,0,1,.508-1.571l.48.408a.758.758,0,1,0,.983-1.155l-.481-.408a4.052,4.052,0,0,1,1.184-.662c.1-.034.19-.063.286-.091l.051.627a.759.759,0,0,0,.815.695h0a.759.759,0,0,0,.7-.815l-.051-.629a4.076,4.076,0,0,1,1.572.508ZM236,156.324a1.1,1.1,0,1,0,1.4.664A1.1,1.1,0,0,0,236,156.324Z" transform="translate(-221.806 -153.32)" fill="#fff"/>
  </g>
</svg>
