<svg xmlns="http://www.w3.org/2000/svg" width="29.943" height="31.835" viewBox="0 0 29.943 31.835">
  <g id="Menu_Arrow_Large_Brown" data-name="Menu Arrow Large Brown" transform="translate(1.414 1.414)">
    <path id="Line_25" data-name="Line 25" d="M1.1-.5A1.6,1.6,0,0,0-.5,1.1V23.466a1.6,1.6,0,0,0,3.2,0V1.1A1.6,1.6,0,0,0,1.1-.5Z" transform="translate(12.46 4.357)" fill="#9c3b11"/>
    <path id="Line_25_-_Outline" data-name="Line 25 - Outline" d="M1.1-1.5A2.6,2.6,0,0,1,3.7,1.1V23.466a2.6,2.6,0,0,1-5.2,0V1.1A2.6,2.6,0,0,1,1.1-1.5Zm0,25.564a.6.6,0,0,0,.6-.6V1.1a.6.6,0,0,0-1.2,0V23.466A.6.6,0,0,0,1.1,24.064Z" transform="translate(12.46 4.357)" fill="#9c3b11"/>
    <path id="Line_26" data-name="Line 26" d="M1.6,0A1.6,1.6,0,0,0,0,1.6V17.575a1.6,1.6,0,0,0,3.2,0V1.6A1.6,1.6,0,0,0,1.6,0Z" transform="translate(11.298 2.26) rotate(-45)" fill="#9c3b11"/>
    <path id="Line_26_-_Outline" data-name="Line 26 - Outline" d="M1.6-1h0A2.6,2.6,0,0,1,4.2,1.6V17.575a2.6,2.6,0,1,1-5.2,0V1.6A2.6,2.6,0,0,1,1.6-1Zm0,19.173a.6.6,0,0,0,.6-.6V1.6A.6.6,0,1,0,1,1.6V17.575A.6.6,0,0,0,1.6,18.173Z" transform="translate(11.298 2.26) rotate(-45)" fill="#9c3b11"/>
    <path id="Line_27" data-name="Line 27" d="M1.6,0A1.6,1.6,0,0,0,0,1.6V17.575a1.6,1.6,0,0,0,3.2,0V1.6A1.6,1.6,0,0,0,1.6,0Z" transform="translate(2.26 15.817) rotate(-135)" fill="#9c3b11"/>
    <path id="Line_27_-_Outline" data-name="Line 27 - Outline" d="M1.6-1h0A2.6,2.6,0,0,1,4.2,1.6V17.575a2.6,2.6,0,1,1-5.2,0V1.6A2.6,2.6,0,0,1,1.6-1Zm0,19.173a.6.6,0,0,0,.6-.6V1.6A.6.6,0,0,0,1.6,1h0a.6.6,0,0,0-.6.6V17.575a.6.6,0,0,0,.6.6Z" transform="translate(2.26 15.817) rotate(-135)" fill="#9c3b11"/>
  </g>
</svg>
