<svg xmlns="http://www.w3.org/2000/svg" width="81" height="56" viewBox="0 0 81 56">
  <g id="News" transform="translate(-303 -1214)">
    <path id="Rectangle_98" data-name="Rectangle 98" d="M5,3A2,2,0,0,0,3,5V45a2,2,0,0,0,2,2H70a2,2,0,0,0,2-2V5a2,2,0,0,0-2-2H5M5,0H70a5,5,0,0,1,5,5V45a5,5,0,0,1-5,5H5a5,5,0,0,1-5-5V5A5,5,0,0,1,5,0Z" transform="translate(303 1220)" fill="#00594c"/>
    <rect id="Rectangle_97" data-name="Rectangle 97" width="75" height="50" rx="5" transform="translate(309 1214)" fill="#fff"/>
    <path id="Rectangle_97_-_Outline" data-name="Rectangle 97 - Outline" d="M5,3A2,2,0,0,0,3,5V45a2,2,0,0,0,2,2H70a2,2,0,0,0,2-2V5a2,2,0,0,0-2-2H5M5,0H70a5,5,0,0,1,5,5V45a5,5,0,0,1-5,5H5a5,5,0,0,1-5-5V5A5,5,0,0,1,5,0Z" transform="translate(309 1214)" fill="#00594c"/>
    <path id="Rectangle_99" data-name="Rectangle 99" d="M5,3A2,2,0,0,0,3,5V25a2,2,0,0,0,2,2H25a2,2,0,0,0,2-2V5a2,2,0,0,0-2-2H5M5,0H25a5,5,0,0,1,5,5V25a5,5,0,0,1-5,5H5a5,5,0,0,1-5-5V5A5,5,0,0,1,5,0Z" transform="translate(317 1222)" fill="#00594c"/>
    <path id="Line_42" data-name="Line 42" d="M10,1.5H0A1.5,1.5,0,0,1-1.5,0,1.5,1.5,0,0,1,0-1.5H10A1.5,1.5,0,0,1,11.5,0,1.5,1.5,0,0,1,10,1.5Z" transform="translate(354 1226.5)" fill="#00594c"/>
    <path id="Line_43" data-name="Line 43" d="M13,1.5H0A1.5,1.5,0,0,1-1.5,0,1.5,1.5,0,0,1,0-1.5H13A1.5,1.5,0,0,1,14.5,0,1.5,1.5,0,0,1,13,1.5Z" transform="translate(354 1231.5)" fill="#00594c"/>
    <path id="Line_44" data-name="Line 44" d="M20,1.5H0A1.5,1.5,0,0,1-1.5,0,1.5,1.5,0,0,1,0-1.5H20A1.5,1.5,0,0,1,21.5,0,1.5,1.5,0,0,1,20,1.5Z" transform="translate(354 1236.5)" fill="#00594c"/>
    <path id="Line_45" data-name="Line 45" d="M15,1.5H0A1.5,1.5,0,0,1-1.5,0,1.5,1.5,0,0,1,0-1.5H15A1.5,1.5,0,0,1,16.5,0,1.5,1.5,0,0,1,15,1.5Z" transform="translate(354 1241.5)" fill="#00594c"/>
    <path id="Line_46" data-name="Line 46" d="M20,1.5H0A1.5,1.5,0,0,1-1.5,0,1.5,1.5,0,0,1,0-1.5H20A1.5,1.5,0,0,1,21.5,0,1.5,1.5,0,0,1,20,1.5Z" transform="translate(354 1246.5)" fill="#00594c"/>
    <path id="Line_47" data-name="Line 47" d="M20,1.5H0A1.5,1.5,0,0,1-1.5,0,1.5,1.5,0,0,1,0-1.5H20A1.5,1.5,0,0,1,21.5,0,1.5,1.5,0,0,1,20,1.5Z" transform="translate(354 1251.5)" fill="#00594c"/>
    <path id="Line_48" data-name="Line 48" d="M27.5,1.5H0A1.5,1.5,0,0,1-1.5,0,1.5,1.5,0,0,1,0-1.5H27.5A1.5,1.5,0,0,1,29,0,1.5,1.5,0,0,1,27.5,1.5Z" transform="translate(319 1256.5)" fill="#00594c"/>
  </g>
</svg>
