<svg xmlns="http://www.w3.org/2000/svg" xmlns:xlink="http://www.w3.org/1999/xlink" width="40.768" height="61.967" viewBox="0 0 40.768 61.967">
  <defs>
    <clipPath id="clip-path">
      <rect id="Rectangle_120" data-name="Rectangle 120" width="9" height="9" rx="1" transform="translate(-0.091 -0.475)" fill="none" stroke="#707070" stroke-width="0.5"/>
    </clipPath>
  </defs>
  <g id="Notice_Board" data-name="Notice Board" transform="translate(-381 -517)">
    <ellipse id="Ellipse_120" data-name="Ellipse 120" cx="4.484" cy="4.892" rx="4.484" ry="4.892" transform="translate(396.899 517)" fill="#fff"/>
    <path id="Ellipse_120_-_Outline" data-name="Ellipse 120 - Outline" d="M4.484,2.038A2.677,2.677,0,0,0,2.038,4.892,2.677,2.677,0,0,0,4.484,7.746,2.677,2.677,0,0,0,6.93,4.892,2.677,2.677,0,0,0,4.484,2.038M4.484,0A4.7,4.7,0,0,1,8.969,4.892,4.7,4.7,0,0,1,4.484,9.784,4.7,4.7,0,0,1,0,4.892,4.7,4.7,0,0,1,4.484,0Z" transform="translate(396.899 517)" fill="#00594c"/>
    <path id="Rectangle_117" data-name="Rectangle 117" d="M4.892,2.038A2.857,2.857,0,0,0,2.038,4.892V49.736A2.857,2.857,0,0,0,4.892,52.59H35.875a2.857,2.857,0,0,0,2.854-2.854V4.892a2.857,2.857,0,0,0-2.854-2.854H4.892M4.892,0H35.875a4.892,4.892,0,0,1,4.892,4.892V49.736a4.892,4.892,0,0,1-4.892,4.892H4.892A4.892,4.892,0,0,1,0,49.736V4.892A4.892,4.892,0,0,1,4.892,0Z" transform="translate(381 524.338)" fill="#00594c"/>
    <path id="Rectangle_118" data-name="Rectangle 118" d="M2.446,2.038a.408.408,0,0,0-.408.408V42.4a.408.408,0,0,0,.408.408H30.168a.408.408,0,0,0,.408-.408V2.446a.408.408,0,0,0-.408-.408H2.446M2.446,0H30.168a2.446,2.446,0,0,1,2.446,2.446V42.4a2.446,2.446,0,0,1-2.446,2.446H2.446A2.446,2.446,0,0,1,0,42.4V2.446A2.446,2.446,0,0,1,2.446,0Z" transform="translate(385.077 529.23)" fill="#00594c"/>
    <path id="Line_54" data-name="Line 54" d="M.557,7.9-.884,6.454,6.454-.884,7.9.557Z" transform="translate(409.293 565.677)" fill="#00594c"/>
    <path id="Line_55" data-name="Line 55" d="M.223,10.007l-.577-.577L9.431-.354l.577.577Z" transform="translate(408.38 565.579)" fill="#fff"/>
    <path id="Line_56" data-name="Line 56" d="M.223,10.007l-.577-.577L9.431-.354l.577.577Z" transform="translate(409.195 565.579)" fill="#fff"/>
    <path id="Line_57" data-name="Line 57" d="M.223,7.561l-.577-.577L6.985-.354l.577.577Z" transform="translate(410.826 567.209)" fill="#fff"/>
    <path id="Line_58" data-name="Line 58" d="M.223,7.561l-.577-.577L6.985-.354l.577.577Z" transform="translate(411.641 567.209)" fill="#fff"/>
    <path id="Line_59" data-name="Line 59" d="M.223,7.561l-.577-.577L6.985-.354l.577.577Z" transform="translate(411.641 568.025)" fill="#fff"/>
    <path id="Line_60" data-name="Line 60" d="M.223,7.561l-.577-.577L6.985-.354l.577.577Z" transform="translate(411.641 568.84)" fill="#fff"/>
    <path id="Line_61" data-name="Line 61" d="M.223,7.561l-.577-.577L6.985-.354l.577.577Z" transform="translate(411.641 569.248)" fill="#fff"/>
    <path id="Line_62" data-name="Line 62" d="M.223,7.561l-.577-.577L6.985-.354l.577.577Z" transform="translate(411.641 569.248)" fill="#fff"/>
    <path id="Line_63" data-name="Line 63" d="M.231,6.33l-.6-.556L5.342-.341l.6.556Z" transform="translate(412.866 570.469)" fill="#fff"/>
    <path id="Line_64" data-name="Line 64" d="M.232,5.514l-.6-.553,4.892-5.3.6.553Z" transform="translate(414.09 570.876)" fill="#fff"/>
    <g id="Mask_Group_8" data-name="Mask Group 8" transform="translate(407.091 563.475)" clip-path="url(#clip-path)">
      <path id="Rectangle_119" data-name="Rectangle 119" d="M3.261,2.038A1.224,1.224,0,0,0,2.038,3.261V8.969a1.224,1.224,0,0,0,1.223,1.223H8.154A1.224,1.224,0,0,0,9.377,8.969V3.261A1.224,1.224,0,0,0,8.154,2.038H3.261M3.261,0H8.154a3.261,3.261,0,0,1,3.261,3.261V8.969A3.261,3.261,0,0,1,8.154,12.23H3.261A3.261,3.261,0,0,1,0,8.969V3.261A3.261,3.261,0,0,1,3.261,0Z" transform="translate(0 0)" fill="#00594c"/>
    </g>
    <path id="Rectangle_121" data-name="Rectangle 121" d="M5,0h9a5,5,0,0,1,5,5V9a1,1,0,0,1-1,1H1A1,1,0,0,1,0,9V5A5,5,0,0,1,5,0Z" transform="translate(392 522)" fill="#fff"/>
    <path id="Rectangle_121_-_Outline" data-name="Rectangle 121 - Outline" d="M4.077,2.038A2.041,2.041,0,0,0,2.038,4.077V8.561H17.53V4.077a2.041,2.041,0,0,0-2.038-2.038H4.077M4.077,0H15.492a4.077,4.077,0,0,1,4.077,4.077V9.784a.815.815,0,0,1-.815.815H.815A.815.815,0,0,1,0,9.784V4.077A4.077,4.077,0,0,1,4.077,0Z" transform="translate(391.6 521.892)" fill="#00594c"/>
    <circle id="Ellipse_121" data-name="Ellipse 121" cx="2.854" cy="2.854" r="2.854" transform="translate(398.53 518.631)" fill="#00594c"/>
    <path id="Ellipse_121_-_Outline" data-name="Ellipse 121 - Outline" d="M2.854.815A2.038,2.038,0,1,0,4.892,2.854,2.041,2.041,0,0,0,2.854.815m0-.815A2.854,2.854,0,1,1,0,2.854,2.854,2.854,0,0,1,2.854,0Z" transform="translate(398.53 518.631)" fill="#fff"/>
    <circle id="Ellipse_122" data-name="Ellipse 122" cx="0.408" cy="0.408" r="0.408" transform="translate(400.976 521.077)" fill="#fff"/>
    <path id="Rectangle_122" data-name="Rectangle 122" d="M1.631,1.631V8.154H8.154V1.631H1.631M1.631,0H8.154A1.631,1.631,0,0,1,9.784,1.631V8.154A1.631,1.631,0,0,1,8.154,9.784H1.631A1.631,1.631,0,0,1,0,8.154V1.631A1.631,1.631,0,0,1,1.631,0Z" transform="translate(389.969 535.753)" fill="#00594c"/>
    <path id="Line_65" data-name="Line 65" d="M7.969.631H-.185A.815.815,0,0,1-1-.185.815.815,0,0,1-.185-1H7.969a.815.815,0,0,1,.815.815A.815.815,0,0,1,7.969.631Z" transform="translate(404.014 539.199)" fill="#00594c"/>
    <path id="Line_66" data-name="Line 66" d="M7.969.631H-.185A.815.815,0,0,1-1-.185.815.815,0,0,1-.185-1H7.969a.815.815,0,0,1,.815.815A.815.815,0,0,1,7.969.631Z" transform="translate(404.014 544.907)" fill="#00594c"/>
    <path id="Line_70" data-name="Line 70" d="M7.969.631H-.185A.815.815,0,0,1-1-.185.815.815,0,0,1-.185-1H7.969a.815.815,0,0,1,.815.815A.815.815,0,0,1,7.969.631Z" transform="translate(391.784 567.736)" fill="#00594c"/>
    <path id="Line_67" data-name="Line 67" d="M20.2.631H-.185A.815.815,0,0,1-1-.185.815.815,0,0,1-.185-1H20.2a.815.815,0,0,1,.815.815A.815.815,0,0,1,20.2.631Z" transform="translate(391.784 550.614)" fill="#00594c"/>
    <path id="Line_68" data-name="Line 68" d="M20.2.631H-.185A.815.815,0,0,1-1-.185.815.815,0,0,1-.185-1H20.2a.815.815,0,0,1,.815.815A.815.815,0,0,1,20.2.631Z" transform="translate(391.784 556.322)" fill="#00594c"/>
    <path id="Line_69" data-name="Line 69" d="M20.2.631H-.185A.815.815,0,0,1-1-.185.815.815,0,0,1-.185-1H20.2a.815.815,0,0,1,.815.815A.815.815,0,0,1,20.2.631Z" transform="translate(391.784 562.029)" fill="#00594c"/>
  </g>
</svg>
