<svg xmlns="http://www.w3.org/2000/svg" width="27.289" height="21" viewBox="0 0 27.289 21">
  <g id="Office_Dashboard_Students_Small" data-name="Office Dashboard Students Small" transform="translate(-2581.693 -2955.104)">
    <path id="Vector8" d="M8.209,1.581,4.826.662a1.091,1.091,0,0,0-.567,0L.875,1.581a.247.247,0,0,0,0,.489l.59.16a.791.791,0,0,0-.217.5.336.336,0,0,0-.2.294.329.329,0,0,0,.168.275L.908,4.533a.178.178,0,0,0,.189.209h.681a.178.178,0,0,0,.189-.209L1.657,3.3a.329.329,0,0,0,.168-.275.334.334,0,0,0-.19-.288.5.5,0,0,1,.251-.394l2.372.644a1.092,1.092,0,0,0,.567,0L8.209,2.07a.247.247,0,0,0,0-.489ZM4.94,3.317a1.528,1.528,0,0,1-.8,0L2.386,2.839,2.214,4.056c0,.379,1.043.686,2.329.686s2.329-.307,2.329-.686L6.7,2.839,4.94,3.317Z" transform="translate(2581.032 2958.24)" fill="#00594c"/>
    <path id="Vector8-2" data-name="Vector8" d="M8.209,1.581,4.826.662a1.091,1.091,0,0,0-.567,0L.875,1.581a.247.247,0,0,0,0,.489l.59.16a.791.791,0,0,0-.217.5.336.336,0,0,0-.2.294.329.329,0,0,0,.168.275L.908,4.533a.178.178,0,0,0,.189.209h.681a.178.178,0,0,0,.189-.209L1.657,3.3a.329.329,0,0,0,.168-.275.334.334,0,0,0-.19-.288.5.5,0,0,1,.251-.394l2.372.644a1.092,1.092,0,0,0,.567,0L8.209,2.07a.247.247,0,0,0,0-.489ZM4.94,3.317a1.528,1.528,0,0,1-.8,0L2.386,2.839,2.214,4.056c0,.379,1.043.686,2.329.686s2.329-.307,2.329-.686L6.7,2.839,4.94,3.317Z" transform="translate(2600.163 2958.24)" fill="#00594c"/>
    <path id="Vector8-3" data-name="Vector8" d="M14.162,2.335,8.111.691A1.951,1.951,0,0,0,7.1.691L1.044,2.335a.441.441,0,0,0,0,.874L2.1,3.5a1.415,1.415,0,0,0-.388.9.6.6,0,0,0-.356.525.588.588,0,0,0,.3.492L1.1,7.616a.319.319,0,0,0,.339.373H2.658A.319.319,0,0,0,3,7.616l-.554-2.2a.588.588,0,0,0,.3-.492.6.6,0,0,0-.34-.515.887.887,0,0,1,.449-.7L7.1,4.853a1.953,1.953,0,0,0,1.015,0L14.162,3.21a.441.441,0,0,0,0-.875ZM8.314,5.44a2.733,2.733,0,0,1-1.423,0L3.745,4.586,3.438,6.762C3.438,7.44,5.3,7.989,7.6,7.989s4.165-.55,4.165-1.228l-.308-2.176L8.314,5.44Z" transform="translate(2587.544 2954.48)" fill="#00594c"/>
    <path id="Vector-6" d="M4.093,8.187A2.729,2.729,0,1,0,1.364,5.458,2.731,2.731,0,0,0,4.093,8.187Zm19.1,0a2.729,2.729,0,1,0-2.729-2.729A2.731,2.731,0,0,0,23.2,8.187ZM24.56,9.551H21.831a2.721,2.721,0,0,0-1.923.793,6.237,6.237,0,0,1,3.2,4.665h2.814a1.363,1.363,0,0,0,1.364-1.364V12.28A2.731,2.731,0,0,0,24.56,9.551Zm-10.916,0A4.776,4.776,0,1,0,8.869,4.776,4.773,4.773,0,0,0,13.645,9.551Zm3.275,1.364h-.354a6.593,6.593,0,0,1-5.842,0H10.37a4.913,4.913,0,0,0-4.912,4.912v1.228A2.047,2.047,0,0,0,7.5,19.1h12.28a2.047,2.047,0,0,0,2.047-2.047V15.828A4.913,4.913,0,0,0,16.919,10.916Zm-9.538-.571a2.721,2.721,0,0,0-1.923-.793H2.729A2.731,2.731,0,0,0,0,12.28v1.364a1.363,1.363,0,0,0,1.364,1.364h2.81A6.253,6.253,0,0,1,7.381,10.344Z" transform="translate(2581.693 2957.002)" fill="#00594c"/>
  </g>
</svg>
