<svg xmlns="http://www.w3.org/2000/svg" width="21.376" height="21.945" viewBox="0 0 21.376 21.945">
  <g id="Office_Upload_White" data-name="Office Upload White" transform="translate(-233 -1618.816)">
    <path id="Rectangle_92" data-name="Rectangle 92" d="M2.138,2.138h0V11.4h17.1V2.138H2.138M2.138,0h17.1a2.138,2.138,0,0,1,2.138,2.138V11.4a2.138,2.138,0,0,1-2.138,2.138H2.138A2.138,2.138,0,0,1,0,11.4V2.138A2.138,2.138,0,0,1,2.138,0Z" transform="translate(233 1627.222)" fill="#fff"/>
    <path id="Line_31" data-name="Line 31" d="M10.688.638H0V-1.5H10.688Z" transform="translate(238.7 1628.722)" fill="#1eec77"/>
    <path id="Line_25" data-name="Line 25" d="M-.249-1.5A1.322,1.322,0,0,0-1.5-.119V9.233A1.322,1.322,0,0,0-.249,10.613,1.322,1.322,0,0,0,1,9.233V-.119A1.322,1.322,0,0,0-.249-1.5Z" transform="translate(243.937 1623.011)" fill="#fff"/>
    <path id="Line_26" data-name="Line 26" d="M1.251,0A1.253,1.253,0,0,0,0,1.251V6.638a1.251,1.251,0,0,0,2.5,0V1.251A1.253,1.253,0,0,0,1.251,0Z" transform="translate(241.919 1620.585) rotate(-45)" fill="#fff"/>
    <path id="Line_27" data-name="Line 27" d="M1.251,0h0A1.253,1.253,0,0,0,0,1.251V6.638a1.251,1.251,0,0,0,2.5,0V1.251A1.251,1.251,0,0,0,1.251,0Z" transform="translate(239.879 1626.164) rotate(-135)" fill="#fff"/>
    <circle id="Ellipse_104" data-name="Ellipse 104" cx="1.069" cy="1.069" r="1.069" transform="translate(237.631 1627.222)" fill="#fff"/>
    <circle id="Ellipse_105" data-name="Ellipse 105" cx="1.069" cy="1.069" r="1.069" transform="translate(248.32 1627.222)" fill="#fff"/>
  </g>
</svg>
