<svg xmlns="http://www.w3.org/2000/svg" width="76.301" height="58.716" viewBox="0 0 76.301 58.716">
  <g id="Office_Students" data-name="Office Students" transform="translate(-2581.693 -2955.104)">
    <path id="Vector8" d="M21.766,3.3,12.306.729a3.049,3.049,0,0,0-1.587,0L1.26,3.3a.689.689,0,0,0,0,1.367l1.649.448A2.212,2.212,0,0,0,2.3,6.52a.939.939,0,0,0-.556.821.92.92,0,0,0,.47.769L1.35,11.554a.5.5,0,0,0,.529.584h1.9a.5.5,0,0,0,.53-.584L3.446,8.109a.92.92,0,0,0,.47-.769.933.933,0,0,0-.531-.806,1.387,1.387,0,0,1,.7-1.1l6.632,1.8a3.052,3.052,0,0,0,1.587,0l9.46-2.57a.69.69,0,0,0,0-1.367ZM12.625,8.153a4.272,4.272,0,0,1-2.224,0L5.483,6.817,5,10.219c0,1.06,2.915,1.919,6.511,1.919s6.511-.859,6.511-1.919l-.481-3.4L12.625,8.153Z" transform="translate(2581.032 2964.992)" fill="#00594c"/>
    <path id="Vector8-2" data-name="Vector8" d="M21.766,3.3,12.306.729a3.049,3.049,0,0,0-1.587,0L1.26,3.3a.689.689,0,0,0,0,1.367l1.649.448A2.212,2.212,0,0,0,2.3,6.52a.939.939,0,0,0-.556.821.92.92,0,0,0,.47.769L1.35,11.554a.5.5,0,0,0,.529.584h1.9a.5.5,0,0,0,.53-.584L3.446,8.109a.92.92,0,0,0,.47-.769.933.933,0,0,0-.531-.806,1.387,1.387,0,0,1,.7-1.1l6.632,1.8a3.052,3.052,0,0,0,1.587,0l9.46-2.57a.69.69,0,0,0,0-1.367ZM12.625,8.153a4.272,4.272,0,0,1-2.224,0L5.483,6.817,5,10.219c0,1.06,2.915,1.919,6.511,1.919s6.511-.859,6.511-1.919l-.481-3.4L12.625,8.153Z" transform="translate(2634.524 2964.992)" fill="#00594c"/>
    <path id="Vector8-3" data-name="Vector8" d="M38.41,5.408,21.49.812a5.454,5.454,0,0,0-2.838,0l-16.92,4.6a1.233,1.233,0,0,0,0,2.445l2.95.8A3.957,3.957,0,0,0,3.6,11.169a1.679,1.679,0,0,0-1,1.468,1.645,1.645,0,0,0,.841,1.376L1.894,20.174a.891.891,0,0,0,.947,1.044h3.4a.891.891,0,0,0,.947-1.044L5.643,14.013a1.645,1.645,0,0,0,.841-1.376,1.669,1.669,0,0,0-.95-1.441A2.481,2.481,0,0,1,6.789,9.227l11.863,3.223a5.459,5.459,0,0,0,2.838,0l16.92-4.6a1.233,1.233,0,0,0,0-2.446ZM22.06,14.09a7.642,7.642,0,0,1-3.978,0L9.285,11.7l-.86,6.085c0,1.9,5.214,3.432,11.646,3.432s11.646-1.537,11.646-3.432l-.86-6.085-8.8,2.39Z" transform="translate(2599.24 2954.48)" fill="#00594c"/>
    <path id="Vector-6" d="M11.445,22.89a7.63,7.63,0,1,0-7.63-7.63A7.637,7.637,0,0,0,11.445,22.89Zm53.411,0a7.63,7.63,0,1,0-7.63-7.63A7.637,7.637,0,0,0,64.856,22.89Zm3.815,3.815h-7.63a7.607,7.607,0,0,0-5.377,2.217,17.439,17.439,0,0,1,8.953,13.043h7.868A3.811,3.811,0,0,0,76.3,38.15V34.335A7.637,7.637,0,0,0,68.671,26.705Zm-30.52,0A13.353,13.353,0,1,0,24.8,13.353,13.346,13.346,0,0,0,38.15,26.705Zm9.156,3.815h-.989a18.435,18.435,0,0,1-16.333,0h-.99A13.738,13.738,0,0,0,15.26,44.254v3.434a5.724,5.724,0,0,0,5.723,5.723H55.318a5.724,5.724,0,0,0,5.723-5.723V44.254A13.738,13.738,0,0,0,47.306,30.52Zm-26.67-1.6a7.608,7.608,0,0,0-5.377-2.217H7.63A7.637,7.637,0,0,0,0,34.335V38.15a3.811,3.811,0,0,0,3.815,3.815h7.857A17.482,17.482,0,0,1,20.637,28.923Z" transform="translate(2581.693 2960.41)" fill="#00594c"/>
  </g>
</svg>
