<svg xmlns="http://www.w3.org/2000/svg" width="51.374" height="58.716" viewBox="0 0 51.374 58.716">
  <path id="Office_Alumni" data-name="Office Alumni" d="M36.627,36.768l-10.94,10.94-10.94-10.94A15.378,15.378,0,0,0,0,52.111v1.1a5.506,5.506,0,0,0,5.5,5.5H45.87a5.506,5.506,0,0,0,5.5-5.5v-1.1A15.378,15.378,0,0,0,36.627,36.768ZM1.56,9.154l.734.172v6.7a2.649,2.649,0,0,0-.1,4.587L.4,27.754c-.195.791.241,1.605.872,1.605H6.066c.631,0,1.066-.814.872-1.605L5.149,20.61a2.649,2.649,0,0,0-.1-4.587V9.991l7.569,1.823a14.652,14.652,0,1,0,27.751,6.536,14.417,14.417,0,0,0-1.605-6.536L49.8,9.154a1.825,1.825,0,0,0,0-3.612L27.969.267a9.851,9.851,0,0,0-4.553,0L1.56,5.53a1.833,1.833,0,0,0,0,3.624Z" fill="#00594c"/>
</svg>
