<svg xmlns="http://www.w3.org/2000/svg" width="18.374" height="21" viewBox="0 0 18.374 21">
  <path id="Office_Dashboard_Alumni_Small" data-name="Office Dashboard Alumni Small" d="M13.1,13.15,9.187,17.063,5.274,13.15A5.5,5.5,0,0,0,0,18.638v.394A1.969,1.969,0,0,0,1.969,21H16.405a1.969,1.969,0,0,0,1.969-1.969v-.394A5.5,5.5,0,0,0,13.1,13.15ZM.558,3.274l.262.062v2.4A.948.948,0,0,0,.783,7.371L.144,9.926c-.07.283.086.574.312.574H2.17c.226,0,.381-.291.312-.574l-.64-2.555A.948.948,0,0,0,1.8,5.731V3.573l2.707.652a5.24,5.24,0,1,0,9.925,2.338,5.156,5.156,0,0,0-.574-2.338l3.95-.952a.653.653,0,0,0,0-1.292L10,.1A3.523,3.523,0,0,0,8.375.1L.558,1.978a.655.655,0,0,0,0,1.3Z" fill="#00594c"/>
</svg>
