<svg xmlns="http://www.w3.org/2000/svg" width="138" height="96.6" viewBox="0 0 138 96.6">
  <path id="Parents" d="M41.4,48.3A24.15,24.15,0,1,0,17.25,24.15,24.138,24.138,0,0,0,41.4,48.3Zm16.56,6.9H56.17a33.343,33.343,0,0,1-29.541,0H24.84A24.846,24.846,0,0,0,0,80.04v6.21A10.353,10.353,0,0,0,10.35,96.6h62.1A10.352,10.352,0,0,0,82.8,86.25V80.04A24.846,24.846,0,0,0,57.96,55.2Zm45.54-6.9A20.7,20.7,0,1,0,82.8,27.6,20.705,20.705,0,0,0,103.5,48.3Zm10.35,6.9h-.819a27.192,27.192,0,0,1-19.062,0H93.15a23.949,23.949,0,0,0-12.01,3.321A31.556,31.556,0,0,1,89.7,80.04v8.28c0,.474-.108.927-.129,1.38H127.65A10.352,10.352,0,0,0,138,79.35,24.138,24.138,0,0,0,113.85,55.2Z" fill="#00594c"/>
</svg>
