<svg id="Pen" xmlns="http://www.w3.org/2000/svg" width="85.511" height="87.4" viewBox="0 0 85.511 87.4">
  <path id="Path_10" data-name="Path 10" d="M9.832,39.146C5.489,43.491,1.186,46.23.219,45.264s1.775-5.27,6.117-9.612,8.646-7.084,9.612-6.117S14.174,34.8,9.832,39.146Z" transform="translate(-0.025 41.943)" fill="#c1694f"/>
  <path id="Path_11" data-name="Path 11" d="M14.793,32.542,9.548,27.3A69.8,69.8,0,0,0,3.9,36.27,47.818,47.818,0,0,0,.811,43.027l1.747,1.747,1.747,1.747a48.033,48.033,0,0,0,6.757-3.092,69.646,69.646,0,0,0,8.97-5.645l-5.24-5.242Z" transform="translate(1.13 38.937)" fill="#ffcc4d"/>
  <path id="Path_12" data-name="Path 12" d="M77.832,2.691c-8.737-8.74-44.9,25.45-46.643,27.2S27.966,33.221,28.9,34.15l-5.242,5.242C18.408,44.637,2.679,63.859,4.426,65.607l5.245,5.245,5.242,5.242C16.661,77.841,35.885,62.112,41.13,56.87l5.242-5.242c.929.929,2.514-.549,4.261-2.3s35.938-37.9,27.2-46.64Z" transform="translate(6.253 0.625)" fill="#31373d"/>
  <path id="Path_13" data-name="Path 13" d="M36.154,33.426c.21-.208.895-.927,1.913-2.019L18.731,12.074c-1.092,1.016-1.809,1.7-2.019,1.913-1.747,1.747-3.223,3.332-2.294,4.261l8.737,8.74,8.74,8.737c.927.924,2.511-.551,4.259-2.3Z" transform="translate(20.733 16.533)" fill="#ffcc4d"/>
  <path id="Path_14" data-name="Path 14" d="M53.152,3.868C50.861,1.577,47.8-.826,43.434,1.359S25.359,12.336,19.019,18.673c-3.268,3.268-3.082,5.2-1.856,5.351,2.029.262,3.386.218,5.245-1.639a9.474,9.474,0,0,0,2.182-5.025s7.539-5.789,13.49-9.338,8.077-4.157,10.158-2.076,4.914-2.079,4.914-2.079Z" transform="translate(23.992 -0.5)" fill="#ffac33"/>
  <path id="Path_15" data-name="Path 15" d="M28.895,3.552,40.371,15.028a31.589,31.589,0,0,0,2.022-4.97L33.865,1.531a32.171,32.171,0,0,0-4.97,2.022Z" transform="translate(42.46 1.017)" fill="#ffac33"/>
</svg>
