<svg xmlns="http://www.w3.org/2000/svg" width="92.071" height="85.217" viewBox="0 0 92.071 85.217">
  <g id="Pencil" transform="translate(92.071 1.84) rotate(93)">
    <path id="Path_56" data-name="Path 56" d="M54.1,49.99c-1.6-5.193-4.214-14.976-5.747-18.7-1.238-3.006-2.4-6.026-3.816-7.45a3.8,3.8,0,0,0-5.3.143s-6.1,4.14-8.29,6.879c-2.739,2.18-6.884,8.3-6.884,8.3a3.792,3.792,0,0,0-.148,5.3c1.424,1.421,4.444,2.578,7.452,3.816,3.722,1.532,13.508,4.142,18.7,5.747C50.956,54.291,54.369,50.878,54.1,49.99Z" transform="translate(32.271 32.365)" fill="#d99e82"/>
    <path id="Path_57" data-name="Path 57" d="M33.616,12.933a7.281,7.281,0,0,1,0,10.3l-10.3,10.3a7.286,7.286,0,0,1-10.3,0l-10.3-10.3a7.286,7.286,0,0,1,0-10.3l10.3-10.3a7.281,7.281,0,0,1,10.3,0Z" transform="translate(-0.583 -0.5)" fill="#ea596e"/>
    <path id="Path_58" data-name="Path 58" d="M66.92,46.236,56.613,56.543,46.324,66.837,7.7,28.213l20.6-20.6Z" transform="translate(9.885 9.97)" fill="#ffcc4d"/>
    <path id="Path_59" data-name="Path 59" d="M32.383,38.926s6.7,3.68,8.5,1.871S39,32.307,39,32.307s-6.342.119-6.614,6.619Z" transform="translate(46.214 46.309)" fill="#292f33"/>
    <path id="Path_60" data-name="Path 60" d="M2.488,23.005l20.6-20.6L35.962,15.279l-20.6,20.6Z" transform="translate(2.219 2.303)" fill="#ccd6dd"/>
    <path id="Path_61" data-name="Path 61" d="M3.53,24.045l20.6-20.6L26.7,6.021l-20.6,20.6ZM8.678,29.2l20.6-20.6,2.575,2.575-20.6,20.6Z" transform="translate(3.753 3.836)" fill="#99aab5"/>
  </g>
</svg>
