<svg xmlns="http://www.w3.org/2000/svg" width="22" height="22" viewBox="0 0 22 22">
  <path id="Phone_White" data-name="Phone White" d="M19.847,11.7l-6.5-.5-1.4,2.694a3.775,3.775,0,0,1-.743-.262,5.4,5.4,0,0,1-.88-.473,6.806,6.806,0,0,1-1.5-1.425,5.321,5.321,0,0,1-.542-.852,4.7,4.7,0,0,1-.368-.833l2.292-1.846L8.929,1.266,1,0,.714.957a17.388,17.388,0,0,0,.416,11.1,15.991,15.991,0,0,0,4.86,6.76,14.224,14.224,0,0,0,7.372,3.1,13.862,13.862,0,0,0,7.8-1.432L22,20.06Zm-1.579,7.43a11.747,11.747,0,0,1-6.233.149A12.373,12.373,0,0,1,6.488,16.19a13.838,13.838,0,0,1-3.521-5.575A14.825,14.825,0,0,1,2.322,3.9c.057-.42.133-.84.227-1.252l4.537.724.7,3.817L5.4,9.105l.156.751a8.97,8.97,0,0,0,2.46,4.37,7.88,7.88,0,0,0,4.287,2.154l.1.013.709.074,1.458-2.8,3.581.278,1.234,4.786C19.02,18.876,18.644,19.01,18.269,19.126Z" fill="#fff"/>
</svg>
