<svg xmlns="http://www.w3.org/2000/svg" width="151" height="220.035" viewBox="0 0 151 220.035">
  <g id="Plant_Small" data-name="Plant Small" transform="translate(-14983.893 2869.715)">
    <path id="Leaf" d="M24.438,244.007c-1.346.263-3.546,3.308-4.656,4.469a43.454,43.454,0,0,0-3.643,4.388,74.221,74.221,0,0,0-6.446,10.513,97.717,97.717,0,0,0-7.172,18.664A76.965,76.965,0,0,0,.347,294.283c-.078.775-.89,6.751.281,6.912,1.053.145.728-4.538.779-5.175a82.731,82.731,0,0,1,4.688-20.951,23.881,23.881,0,0,1,1.839-4.611c.6-.956,0-.623,1.059-.985.906-.311,1.938-.235,2.866-.616a14.254,14.254,0,0,0,5.043-4.045,27.181,27.181,0,0,0,6.063-10.548,50.777,50.777,0,0,0,1.53-6.767C24.578,246.9,25.305,243.837,24.438,244.007Z" transform="translate(15069.584 -3041.466)" fill="#21c8b0" fill-rule="evenodd"/>
    <path id="Leaf-Bottom" d="M73.869,5.743c1.661-.234,3.281,1.212,1.875,2.812s-4.656.713-6.409.082c.183,0,1.355-1.589,1.64-1.8A6.47,6.47,0,0,1,73.869,5.743Zm-1.62,9.5a1.773,1.773,0,0,1-.458,2.466l-.183.112c-1.111.642-2.578.122-3.658-.336-.479-.2-3.057-1.294-2.3-1.528h-.306l-.387.581h0a25.37,25.37,0,0,1-4.738,5.094,6.255,6.255,0,0,1,1.508.092c1.447.285,4.014,2.333,1.844,3.668S59.8,24,58.189,23.176a84.7,84.7,0,0,1-7.54,4.85.469.469,0,0,1,.2.316,11.9,11.9,0,0,1,2.618-.336c1.09.122,3.22.672,3.688,1.844.571,1.426-.744,2.038-1.926,1.854-1.732-.234-3.586-1.722-4.972-2.771a.509.509,0,0,1-.428-.326l-.092-.061c-2.629,1.477-5.3,2.863-7.937,4.208h.061a5.828,5.828,0,0,1,1.926-.2,4.829,4.829,0,0,1,3.943,2.038,2.781,2.781,0,0,1-.927,4C43.752,40.079,42,33.8,40.9,33.191c-2.68,1.345-5.441,2.527-8.212,3.648a4.441,4.441,0,0,1,.815.092c2.191.5,6.307,4.758,2.853,6.449-3.057,1.488-4.208-3.678-5.543-5.787-2.608,1.019-5.227,2.038-7.8,3.179a6.113,6.113,0,0,1,3.3,1.111c1.08.764,2.731,2.313,1.426,3.688s-3.413-.122-4.452-1.019a33.74,33.74,0,0,0-2.618-2.71,42.324,42.324,0,0,0-11.4,7.56,36.893,36.893,0,0,0-5.532,6.724C2.712,57.685.9,60.262.338,62.534c.632-4.717,3.912-9.557,6.847-12.99A35.13,35.13,0,0,1,16.762,41.9c0-2.2-4.6-6.887-.683-7.631,2.038-.387,3.352,1.814,3.169,3.658a7.6,7.6,0,0,1-1.814,3.6c1.111-.611,2.252-1.172,3.413-1.7,1.589-.744,3.209-1.426,4.829-2.109-1.437-2.639-1.559-8.874,1.538-8.864,4.564,0,.061,6.979-.7,8.314a.255.255,0,0,1-.163-.143v.448c3.057-1.284,6.225-2.506,9.292-3.851a12.465,12.465,0,0,1-.458-1.355,12.694,12.694,0,0,1-.825-2.853c-.224-1.559-.163-3.9,1.865-4.075,2.2-.224,2.313,2.486,1.844,3.933A19.013,19.013,0,0,1,36.7,32.05c-.143.3-.428,1.722-.652,1.019a2.8,2.8,0,0,1-.143.5l1.651-.744a.377.377,0,0,1,0-.183.509.509,0,0,1,.642-.357.489.489,0,0,1,.224.122c.723-.336,1.447-.693,2.17-1.019,1.518-.774,3.057-1.569,4.615-2.4-.173-.3,0-.56-.132-.866s-.581-.581-.785-.876a7.132,7.132,0,0,1-1.019-2.618c-.285-1.549-.285-4.473,1.905-4.422s2.466,2.955,2.038,4.575a42.794,42.794,0,0,1-1.732,3.963C48.357,27.2,51.22,25.55,53.9,23.808a7.815,7.815,0,0,1-2.038-2.343c-.54-1.019-1.253-3.2.469-3.658,1.518-.4,2.669,1.294,2.832,2.618a16.965,16.965,0,0,1-.479,2.863c1.111-.744,2.2-1.508,3.23-2.292a18.852,18.852,0,0,0,1.987-1.64,1.243,1.243,0,0,1-.183-.367c-1.977-1.019-3.566-5.186-.734-5.512,1.355-.153,2.252,1.375,2.527,2.486A12.03,12.03,0,0,1,61.348,18a41.06,41.06,0,0,0,5.217-6.46A.489.489,0,0,1,66.34,11a6.643,6.643,0,0,1-1.8-3.057c-.214-.835-.479-2.669.937-2.629,1.844.061,2.038,2.975,1.773,4.289a8.005,8.005,0,0,1-.306,1.019.5.5,0,0,1,.173.061c.907-1.447,1.742-2.944,2.517-4.452-.825-.6.611-5.481,1.457-5.971,1.875-1.08,2.1,1.457,1.64,2.608a8.151,8.151,0,0,1-2.7,3.281c-.122.092-.1.092-.061-.082a.367.367,0,0,1-.143.163c-.173.723-.377,1.437-.622,2.14A51.476,51.476,0,0,1,66.737,13.7c-.214.418-.448.825-.693,1.233a11.146,11.146,0,0,1,2.578-.662C69.784,14.108,71.516,14.139,72.25,15.239ZM.2,62.545a5.624,5.624,0,0,0-.183,1.844A14.13,14.13,0,0,1,.2,62.545Z" transform="translate(15036.639 -2831.575) rotate(-30)" fill="#9c3b11" fill-rule="evenodd"/>
    <path id="Leaf-Bottom-2" data-name="Leaf-Bottom" d="M43.371,3.372c.975-.138,1.926.712,1.1,1.651s-2.734.419-3.763.048c.108,0,.8-.933.963-1.059A3.8,3.8,0,0,1,43.371,3.372ZM42.42,8.947a1.041,1.041,0,0,1-.269,1.448l-.108.066a2.524,2.524,0,0,1-2.148-.2c-.281-.12-1.795-.76-1.352-.9h-.179l-.227.341h0A14.9,14.9,0,0,1,35.355,12.7a3.672,3.672,0,0,1,.885.054c.849.167,2.357,1.37,1.083,2.154s-2.213-.814-3.158-1.3a49.729,49.729,0,0,1-4.427,2.847.275.275,0,0,1,.12.185,6.986,6.986,0,0,1,1.537-.2c.64.072,1.89.395,2.165,1.083.335.837-.437,1.2-1.131,1.089a7.3,7.3,0,0,1-2.919-1.627.3.3,0,0,1-.251-.191l-.054-.036c-1.543.867-3.111,1.681-4.66,2.471h.036a3.421,3.421,0,0,1,1.131-.12,2.835,2.835,0,0,1,2.315,1.2,1.633,1.633,0,0,1-.544,2.351c-1.795.873-2.823-2.812-3.47-3.17-1.573.79-3.194,1.484-4.821,2.142a2.608,2.608,0,0,1,.479.054c1.286.293,3.7,2.794,1.675,3.787-1.795.873-2.471-2.16-3.254-3.4-1.531.6-3.069,1.2-4.582,1.866a3.589,3.589,0,0,1,1.938.652c.634.449,1.6,1.358.837,2.165s-2-.072-2.614-.6a19.811,19.811,0,0,0-1.537-1.591A24.85,24.85,0,0,0,5.439,29a21.661,21.661,0,0,0-3.248,3.948A13.983,13.983,0,0,0,.2,36.716c.371-2.77,2.3-5.611,4.02-7.627A20.626,20.626,0,0,1,9.842,24.6c0-1.292-2.7-4.044-.4-4.481,1.2-.227,1.968,1.065,1.86,2.148a4.463,4.463,0,0,1-1.065,2.112c.652-.359,1.322-.688,2-1,.933-.437,1.884-.837,2.835-1.238-.843-1.549-.915-5.21.9-5.2,2.68,0,.036,4.1-.413,4.881a.15.15,0,0,1-.1-.084V22c1.795-.754,3.655-1.472,5.456-2.261a7.316,7.316,0,0,1-.269-.8,7.454,7.454,0,0,1-.485-1.675c-.132-.915-.1-2.291,1.095-2.393,1.292-.132,1.358,1.46,1.083,2.309a11.163,11.163,0,0,1-.8,1.633c-.084.173-.251,1.011-.383.6a1.646,1.646,0,0,1-.084.293l.969-.437a.221.221,0,0,1,0-.108.3.3,0,0,1,.377-.209.287.287,0,0,1,.132.072c.425-.2.849-.407,1.274-.6.891-.455,1.795-.921,2.71-1.412-.1-.173,0-.329-.078-.508s-.341-.341-.461-.514a4.187,4.187,0,0,1-.6-1.537c-.168-.909-.168-2.626,1.119-2.6s1.448,1.735,1.2,2.686A25.125,25.125,0,0,1,26.7,16.873c1.687-.9,3.368-1.872,4.941-2.9a4.588,4.588,0,0,1-1.2-1.376c-.317-.6-.736-1.878.275-2.148.891-.233,1.567.76,1.663,1.537a9.961,9.961,0,0,1-.281,1.681c.652-.437,1.292-.885,1.9-1.346a11.069,11.069,0,0,0,1.166-.963.73.73,0,0,1-.108-.215c-1.161-.6-2.094-3.045-.431-3.236.8-.09,1.322.808,1.484,1.46a7.063,7.063,0,0,1-.1,1.2,24.107,24.107,0,0,0,3.063-3.793.287.287,0,0,1-.132-.317,3.9,3.9,0,0,1-1.059-1.795c-.126-.491-.281-1.567.55-1.543,1.083.036,1.2,1.747,1.041,2.518a4.7,4.7,0,0,1-.179.6.293.293,0,0,1,.1.036c.532-.849,1.023-1.729,1.478-2.614-.485-.353.359-3.218.855-3.505,1.1-.634,1.232.855.963,1.531a4.786,4.786,0,0,1-1.585,1.926c-.072.054-.06.054-.036-.048a.215.215,0,0,1-.084.1c-.1.425-.221.843-.365,1.256a30.227,30.227,0,0,1-1.448,3.129c-.126.245-.263.485-.407.724a6.544,6.544,0,0,1,1.513-.389C40.972,8.283,41.989,8.3,42.42,8.947ZM.115,36.722A3.3,3.3,0,0,0,.007,37.8,8.3,8.3,0,0,1,.115,36.722Z" transform="matrix(0.438, -0.899, 0.899, 0.438, 15044.808, -2821.763)" fill="#9c3b11" fill-rule="evenodd"/>
    <path id="Leaf-Me-Alone_" data-name="Leaf-Me-Alone!" d="M38.04.023C30.278.434,21.2,5.944,21.263,14.422c.043,6.16.867,12.22.581,18.406A49.565,49.565,0,0,1,18.87,47.262c-1.606,4.478-5.484,8.554-6.113,13.223a19.639,19.639,0,0,0,1.7,9.751c1.547,3.326.889,3.119-1.167,6.262C9.257,82.657,5.705,88.913,3.473,96c-3.215,10.205-4.8,21.906-2.1,32.424.343,1.336,1.092,6.179,3,6.323,2.126.161.858-2.521.652-3.409C3.708,125.673,2.55,120.723,2.794,114.8c.941-22.836,15.516-39.349,24.015-59.54.474-1.045,1.447-3.517,2.132-5.152,1.082-2.582,1.939-7.369,3.56-9.369,3.054-3.769.637,3.417.11,4.795-.667,1.744-1.406,3.6-2.115,5.142-3.235,7.138-6.862,14.94-10.2,22.3,18.026,2.161,28.2-20.307,31.462-34.718C54.441,26.39,56.281-.9,38.04.023" transform="translate(15076.938 -2808.111) rotate(6)" fill="#ab753f" fill-rule="evenodd"/>
    <path id="Leaf-Me-Alone_2" data-name="Leaf-Me-Alone!" d="M135.834,78.069c12.976,1.03,21.307,9.592,25.184,21.569,2.09,6.454,2.33,13.084,3.492,19.717,1.747,9.979,5.506,17.541,12.853,24.651a24.8,24.8,0,0,1,5.144,6.881,29.312,29.312,0,0,1,5.94,8.488c1.933,4.267,2.48,9.386.248,13.64a13.979,13.979,0,0,1-3.649,4.482,87.846,87.846,0,0,1,8.644,39.456c-.218,8.169-.616,16.341-1.082,24.5-.125,2.191-.839,5.809-1.91,2.134-.981-3.361.249-8.637.363-12.147.554-17.1,1.027-32.654-6.013-48.634-.739-1.675-1.521-3.336-2.336-4.984a1.624,1.624,0,0,1-.138-.094c-.031.024-.059.049-.09.073-.052-.093-.123-.2-.206-.327a4.448,4.448,0,0,1-.632-.886,6.434,6.434,0,0,1-1.335-2.439s0-.011,0-.015a230.291,230.291,0,0,0-14.449-20.428c.038.048-5.531-7.535-4.67-3.342.415,2.021,4.512,5.869,6.166,8.01A199.461,199.461,0,0,1,178.888,175a8.4,8.4,0,0,1,1.651,2.642c.271.512.524,1.027.773,1.477-12.655,4.181-22.5-4.241-29.211-14.036l-.023-.035a42.578,42.578,0,0,0-6.75-7.534c-4.361-3.571-9.032-4.2-14.174-5.958-14.023-4.791-19.985-22.965-21.879-36.45-2.137-15.213,8.314-38.542,26.559-37.042" transform="translate(14874.894 -2903.586)" fill="#ab753f" fill-rule="evenodd"/>
    <path id="Leaf-Me-Alone_3" data-name="Leaf-Me-Alone!" d="M55.77,172.119C40.652,160.246,31.6,142.1,24.044,124.913,15.6,105.715,9.025,85.939,5.961,65.175,3.948,51.533,1.646,37.845.526,24.093a146.563,146.563,0,0,1-.5-14.7C.031,8.986.245-1.955,2.239.308c1.134,1.287-.2,11.347-.178,12.988a210.411,210.411,0,0,0,2.492,27.57c2.209,15.049,3.871,30.1,7.506,44.887a51.313,51.313,0,0,0,1.893,6.653c.893,2.251.03,1.335,2,2,1.914.646,4.107.207,6.12,1.071,7.988,3.429,13.364,14.364,17.352,21.475,4.561,8.131,7.887,17.017,10.786,25.841a191.176,191.176,0,0,1,5.343,19.642,52.511,52.511,0,0,0,1.482,6.35,14.65,14.65,0,0,1,.945,1.966c.105,1.062-.445,1.772-.372,2.666q-.933-.629-1.839-1.3" transform="translate(15067.634 -2689.915) rotate(-172)" fill="#21c8b0" fill-rule="evenodd"/>
    <path id="Leaf-Me-Alone_4" data-name="Leaf-Me-Alone!" d="M167.665,300.521h2.193a73.636,73.636,0,0,0-.813-8.219c-1.76-10.407-7.261-25.691-19.326-27.38a31.16,31.16,0,0,0-4.066.043,7.324,7.324,0,0,0-3.1-.916c-10.272-.757-21.744,7.53-26.7,16.154-3.995,6.953-3.322,16.084-.855,23.471,1.652,4.946,5.258,12,11.271,12.066,7.523.086,7.886-9.213,8.032-14.648.193-7.227,1.106-13.522,6.8-18.449,1.327-1.147,2.778-2.157,4.118-3.289,2.1-1.771,4.419-3.585,4.69-6.515.373-4.043-1.909-4.77-5.393-4.019-.594.128-6.577,2.813-5.691.691a3.946,3.946,0,0,1,2.505-1.547c3.226-.351,7.074-.758,8.181-.515,11.937,2.619,16.585,19.155,17.82,29.661C167.463,298.244,167.57,299.381,167.665,300.521Z" transform="translate(14896.479 -2983.831)" fill="#ab753f" fill-rule="evenodd"/>
    <path id="Base" d="M79.864,476H129.9a4.074,4.074,0,0,1,4.073,4.073,4.023,4.023,0,0,1-.044.594l-3.867,26.222A16.293,16.293,0,0,1,113.94,520.8H95.82A16.293,16.293,0,0,1,79.7,506.889l-3.867-26.222a4.073,4.073,0,0,1,3.435-4.624A4.145,4.145,0,0,1,79.864,476Z" transform="translate(14962.502 -3170.484)" fill="#00594c" fill-rule="evenodd"/>
  </g>
</svg>
