<svg xmlns="http://www.w3.org/2000/svg" width="21.376" height="17.944" viewBox="0 0 21.376 17.944">
  <g id="Process_Button" data-name="Process Button" transform="translate(-233 -1622.816)">
    <path id="Rectangle_92" data-name="Rectangle 92" d="M2.138,2.138h0V11.4h17.1V2.138H2.138M2.138,0h17.1a2.138,2.138,0,0,1,2.138,2.138V11.4a2.138,2.138,0,0,1-2.138,2.138H2.138A2.138,2.138,0,0,1,0,11.4V2.138A2.138,2.138,0,0,1,2.138,0Z" transform="translate(233 1627.222)" fill="#fff"/>
    <path id="Line_31" data-name="Line 31" d="M10.688.638H0V-1.5H10.688Z" transform="translate(238.7 1628.722)" fill="#1eec77"/>
    <path id="Line_25" data-name="Line 25" d="M-.249,10.613A1.322,1.322,0,0,1-1.5,9.233V-.119A1.322,1.322,0,0,1-.249-1.5,1.322,1.322,0,0,1,1-.119V9.233A1.322,1.322,0,0,1-.249,10.613Z" transform="translate(243.937 1624.316)" fill="#fff"/>
    <path id="Line_26" data-name="Line 26" d="M1.251,7.889A1.253,1.253,0,0,1,0,6.638V1.251a1.251,1.251,0,0,1,2.5,0V6.638A1.253,1.253,0,0,1,1.251,7.889Z" transform="translate(247.497 1630.276) rotate(45)" fill="#fff"/>
    <path id="Line_27" data-name="Line 27" d="M1.251,7.889h0A1.253,1.253,0,0,1,0,6.638V1.251a1.251,1.251,0,0,1,2.5,0V6.638A1.251,1.251,0,0,1,1.251,7.889Z" transform="translate(245.458 1635.855) rotate(135)" fill="#fff"/>
    <circle id="Ellipse_104" data-name="Ellipse 104" cx="1.069" cy="1.069" r="1.069" transform="translate(237.631 1627.222)" fill="#fff"/>
    <circle id="Ellipse_105" data-name="Ellipse 105" cx="1.069" cy="1.069" r="1.069" transform="translate(248.32 1627.222)" fill="#fff"/>
  </g>
</svg>
