<svg id="Rocket_1" data-name="Rocket 1" xmlns="http://www.w3.org/2000/svg" width="86.572" height="86.508" viewBox="0 0 86.572 86.508">
  <path id="Path_62" data-name="Path 62" d="M.588,27.8,20.361,10.5l39.547,2.472,2.472,39.546-17.3,19.773s0-14.827-14.83-29.66S.588,27.8.588,27.8Z" transform="translate(-0.521 14.217)" fill="#a0041e"/>
  <path id="Path_63" data-name="Path 63" d="M.561,55.832S.472,36.111,7.938,28.644s27.292-6.953,27.292-6.953,0,19.311-7.417,26.726S.561,55.832.561,55.832Z" transform="translate(-0.561 30.675)" fill="#ffac33"/>
  <path id="Path_64" data-name="Path 64" d="M14.473,43.273a9.887,9.887,0,1,0-9.887-9.887A9.887,9.887,0,0,0,14.473,43.273Z" transform="translate(5.364 33.348)" fill="#ffcc4d"/>
  <path id="Path_65" data-name="Path 65" d="M75.61.5S50.893.5,21.234,25.216C6.4,37.574,6.4,59.819,11.347,64.762s27.188,4.943,39.547-9.887C75.61,25.216,75.61.5,75.61.5Z" transform="translate(10.962 -0.5)" fill="#55acee"/>
  <path id="Path_66" data-name="Path 66" d="M31.945,5.5a9.877,9.877,0,0,0-9,5.833A9.853,9.853,0,0,1,36,24.383,9.875,9.875,0,0,0,31.945,5.5Z" transform="translate(32.382 6.858)"/>
  <path id="Path_67" data-name="Path 67" d="M7.588,50.678s0-9.887,2.472-12.358S42.193,11.134,44.662,13.6s-22.247,32.131-24.719,34.6S7.588,50.678,7.588,50.678Z" transform="translate(9.781 18.529)" fill="#a0041e"/>
</svg>
