<svg id="Scale" xmlns="http://www.w3.org/2000/svg" width="86.185" height="86.187" viewBox="0 0 86.185 86.187">
  <path id="Path_16" data-name="Path 16" d="M73.429,83.791a9.882,9.882,0,0,1-13.98,0L3.519,27.862a9.885,9.885,0,0,1,0-13.982L14.006,3.4a9.887,9.887,0,0,1,13.982,0L83.912,59.323a9.887,9.887,0,0,1,0,13.98L73.429,83.791Z" transform="translate(-0.622 -0.5)" fill="#ffcc4d"/>
  <path id="Path_17" data-name="Path 17" d="M12.085,13.907a2.472,2.472,0,1,1-3.495-3.5l8.74-8.74,3.495,3.5ZM26.064,17.4a2.471,2.471,0,1,1-3.495-3.495l3.5-3.5,3.495,3.5-3.5,3.495Zm3.5,13.979a2.471,2.471,0,0,1-3.495-3.495l8.74-8.74c1.2,1.2,2.3,2.294,3.495,3.5Zm13.98,3.495a2.47,2.47,0,1,1-3.492-3.495l3.495-3.5c1.2,1.2,2.294,2.293,3.495,3.5l-3.5,3.495Zm3.5,13.982a2.472,2.472,0,0,1-3.5-3.495l8.74-8.737,3.495,3.495ZM64.516,66.336a2.471,2.471,0,0,1-3.495-3.495L69.76,54.1,73.255,57.6Zm-3.5-13.982a2.47,2.47,0,1,1-3.495-3.492l3.5-3.495,3.492,3.492-3.495,3.5Z" transform="translate(10.039 1.223)" fill="#292f33"/>
</svg>
