<svg xmlns="http://www.w3.org/2000/svg" width="18.47" height="18.471" viewBox="0 0 18.47 18.471">
  <g id="Search_Icon" data-name="Search Icon" transform="translate(-1011.5 -1163.368)">
    <path id="Ellipse_119" data-name="Ellipse 119" d="M7.277,1.746a5.53,5.53,0,1,0,5.53,5.53,5.536,5.536,0,0,0-5.53-5.53M7.277,0A7.277,7.277,0,1,1,0,7.277,7.277,7.277,0,0,1,7.277,0Z" transform="translate(1012 1163.868)" fill="#fff"/>
    <path id="Ellipse_119_-_Outline" data-name="Ellipse 119 - Outline" d="M7.277-.5A7.777,7.777,0,1,1-.5,7.277,7.785,7.785,0,0,1,7.277-.5Zm0,14.553A6.777,6.777,0,1,0,.5,7.277,6.784,6.784,0,0,0,7.277,14.053Zm0-12.807a6.03,6.03,0,1,1-6.03,6.03A6.037,6.037,0,0,1,7.277,1.246Zm0,11.06a5.03,5.03,0,1,0-5.03-5.03A5.036,5.036,0,0,0,7.277,12.307Z" transform="translate(1012 1163.868)" fill="#fff"/>
    <path id="Line_35" data-name="Line 35" d="M6.694,1.746H.873A.873.873,0,1,1,.873,0H6.694a.873.873,0,0,1,0,1.746Z" transform="translate(1023.912 1174.546) rotate(45)" fill="#fff"/>
    <path id="Line_35_-_Outline" data-name="Line 35 - Outline" d="M6.694,2.246H.873A1.373,1.373,0,1,1,.873-.5H6.694a1.373,1.373,0,0,1,0,2.746ZM.873.5a.373.373,0,0,0,0,.746H6.694a.373.373,0,1,0,0-.746Z" transform="translate(1023.912 1174.546) rotate(45)" fill="#fff"/>
  </g>
</svg>
