<svg xmlns="http://www.w3.org/2000/svg" width="20.242" height="20.244" viewBox="0 0 20.242 20.244">
  <g id="Send_Message" data-name="Send Message" transform="translate(0 0.002)">
    <g id="Layer_1" data-name="Layer 1" transform="translate(0 -0.002)">
      <g id="Layer_2" data-name="Layer 2">
        <g id="Layer_1-2" data-name="Layer 1-2">
          <path id="Path_90" data-name="Path 90" d="M3.343,1.25a2.1,2.1,0,0,1,.937.222L19.364,9.013a2.094,2.094,0,0,1,.012,3.746h0L4.28,20.3a2.078,2.078,0,0,1-2.039-.094L2.229,20.2a2.156,2.156,0,0,1-.978-1.745v-.022a9.253,9.253,0,0,1,1.337-4.125,8.014,8.014,0,0,0,1.167-3.418A8.741,8.741,0,0,0,2.581,7.455,9.891,9.891,0,0,1,1.25,3.345a2.072,2.072,0,0,1,.221-.936A2.09,2.09,0,0,1,3.343,1.25ZM18.68,11.376a.546.546,0,0,0,.241-.733l0,0a.529.529,0,0,0-.24-.238l-.006,0L3.586,2.856a.542.542,0,0,0-.729.244l0,.006A.517.517,0,0,0,2.8,3.34v0A8.741,8.741,0,0,0,3.972,6.776,9.888,9.888,0,0,1,5.3,10.887a9.243,9.243,0,0,1-1.335,4.12A8.06,8.06,0,0,0,2.8,18.419a.608.608,0,0,0,.269.479.53.53,0,0,0,.515.02l0,0Z" transform="translate(-0.766 -0.765)"/>
          <path id="Path_91" data-name="Path 91" d="M3.8,20.693a1.846,1.846,0,0,1-.944-.271A1.869,1.869,0,0,1,2,18.874a9.089,9.089,0,0,1,1.3-3.991A8.162,8.162,0,0,0,4.5,11.33,9.058,9.058,0,0,0,3.3,7.77,9.549,9.549,0,0,1,2,3.8a1.8,1.8,0,0,1,2.609-1.61L19.7,9.74a1.808,1.808,0,0,1,0,3.224L4.609,20.5a1.885,1.885,0,0,1-.809.194Zm0-17.727a.8.8,0,0,0-.437.128.817.817,0,0,0-.387.708,9.058,9.058,0,0,0,1.2,3.561,9.809,9.809,0,0,1,1.3,3.983,9.091,9.091,0,0,1-1.316,3.991,8.131,8.131,0,0,0-1.2,3.553.9.9,0,0,0,.387.708.832.832,0,0,0,.813.039l15.1-7.544a.84.84,0,0,0,.461-.747.817.817,0,0,0-.461-.747L4.175,3.055A.836.836,0,0,0,3.8,2.966Z" transform="translate(-1.226 -1.223)" fill="#231f20"/>
          <path id="Path_91_-_Outline" data-name="Path 91 - Outline" d="M2.575,20.242H2.566a2.621,2.621,0,0,1-1.34-.385l-.016-.01A2.637,2.637,0,0,1,0,17.658v-.009A9.486,9.486,0,0,1,1.342,13.4l.093-.186A7.3,7.3,0,0,0,2.5,10.1,8.6,8.6,0,0,0,1.38,6.885,10.183,10.183,0,0,1,0,2.578,2.57,2.57,0,0,1,3.731.275l15.1,7.549a2.582,2.582,0,0,1,0,4.605l0,0-15.1,7.538a2.676,2.676,0,0,1-1.141.273Zm-.022-2.52.017,0a.057.057,0,0,0,.026-.006l15.092-7.542a.066.066,0,0,0,.036-.058v-.009a.043.043,0,0,0-.024-.039l-.009,0L2.6,2.522a.064.064,0,0,0-.029-.007h0a.027.027,0,0,0-.015,0l-.012.008a.043.043,0,0,0-.02.037v.013A8.606,8.606,0,0,0,3.649,5.8l.058.12a10.019,10.019,0,0,1,1.325,4.2,9.613,9.613,0,0,1-1.361,4.264l-.054.107a7.6,7.6,0,0,0-1.1,3.154A.129.129,0,0,0,2.553,17.722Z" transform="translate(0 0.002)" fill="#fff"/>
          <path id="Path_92" data-name="Path 92" d="M18.583,25.868H9.294a.484.484,0,1,1,0-.968h9.289a.484.484,0,0,1,0,.968Z" transform="translate(-5.4 -15.261)" fill="#231f20"/>
          <path id="Path_92_-_Outline" data-name="Path 92 - Outline" d="M16.666,25.416H7.985a1.261,1.261,0,0,1,0-2.516h8.68a1.261,1.261,0,0,1,0,2.516Z" transform="translate(-4.174 -14.035)" fill="#fff"/>
        </g>
      </g>
    </g>
  </g>
</svg>
