<svg id="Snow" xmlns="http://www.w3.org/2000/svg" width="82.391" height="88.979" viewBox="0 0 82.391 88.979">
  <path id="Path_38" data-name="Path 38" d="M28.3,68.683V21.3L40.237,9.363a2.472,2.472,0,0,0-3.495-3.5L28.3,14.306V2.971a2.472,2.472,0,0,0-4.943,0V14.306L14.922,5.866a2.472,2.472,0,0,0-3.495,3.5L23.36,21.3V68.683L11.427,80.616a2.471,2.471,0,0,0,3.495,3.495l8.438-8.438V87.007a2.472,2.472,0,0,0,4.943,0V75.672l8.438,8.438a2.471,2.471,0,1,0,3.495-3.495Z" transform="translate(15.361 -0.5)" fill="#88c9f9"/>
  <path id="Path_39" data-name="Path 39" d="M82.4,44.724a2.421,2.421,0,0,0-3.028-1.747l-16.3,4.367L22.039,23.651,17.671,7.35A2.472,2.472,0,0,0,12.9,8.63l3.09,11.528-9.817-5.67a2.421,2.421,0,0,0-3.376.9,2.421,2.421,0,0,0,.9,3.376l9.815,5.668L1.984,27.524A2.419,2.419,0,0,0,.236,30.551,2.421,2.421,0,0,0,3.264,32.3l16.3-4.367L60.6,51.627l4.367,16.3a2.472,2.472,0,0,0,4.775-1.28l-3.09-11.528,9.817,5.667a2.471,2.471,0,1,0,2.472-4.281l-9.815-5.668,11.525-3.087a2.426,2.426,0,0,0,1.747-3.03Z" transform="translate(-0.126 6.849)" fill="#88c9f9"/>
  <path id="Path_40" data-name="Path 40" d="M80.655,27.528l-11.528-3.09,9.817-5.667a2.473,2.473,0,1,0-2.472-4.283l-9.815,5.665L69.745,8.627a2.472,2.472,0,0,0-4.775-1.28L60.6,23.648l-41.039,23.7-16.3-4.37A2.421,2.421,0,0,0,.237,44.726a2.418,2.418,0,0,0,1.747,3.028L13.51,50.841,3.7,56.508a2.472,2.472,0,0,0,2.472,4.281l9.817-5.668-3.09,11.525a2.473,2.473,0,0,0,4.778,1.283l4.37-16.305L63.081,27.934l16.3,4.37a2.471,2.471,0,1,0,1.273-4.775Z" transform="translate(-0.125 6.845)" fill="#88c9f9"/>
</svg>
