<svg xmlns="http://www.w3.org/2000/svg" width="106.27" height="92.987" viewBox="0 0 106.27 92.987">
  <g id="Spaceship" transform="translate(21.814 -1.481) rotate(16)">
    <path id="Path_18" data-name="Path 18" d="M80.812,33.06c-1.7,8.011-22.764,15.376-42.794,11.12S1.744,24.627,3.447,16.616,24.671,8.492,44.7,12.75,82.515,25.049,80.812,33.06Z" transform="translate(0.335 7.583)" fill="#ffd983"/>
    <path id="Path_19" data-name="Path 19" d="M68.578,62.842l-4.943-34.6L21.617,15.88,1.844,62.842Z" transform="translate(-1.844 16.297)" fill="#ffd983"/>
    <path id="Path_20" data-name="Path 20" d="M85.007,35.362c2.144-10.089-14.518-22.179-37.217-27S4.951,7.8,2.807,17.89s14.518,22.179,37.217,27S82.862,45.451,85.007,35.362Z" transform="translate(-0.7 2.305)" fill="#67757f"/>
    <path id="Path_21" data-name="Path 21" d="M2.258,9.857l1.023,5.722L84.514,32.846,88,27.591Z" transform="translate(-1.234 7.434)" fill="#67757f"/>
    <path id="Path_22" data-name="Path 22" d="M89.4,34.085C91.673,23.4,74.03,10.6,50,5.494S4.637,4.9,2.367,15.586,17.739,39.068,41.773,44.176,87.132,44.767,89.4,34.085Z" transform="translate(-1.363 -2.082)" fill="#9aaab4"/>
    <path id="Path_23" data-name="Path 23" d="M78.209,27.6c1.7-8.011-13.153-17.957-33.181-22.214S7.382,4.175,5.679,12.186,18.832,30.143,38.861,34.4,76.506,35.614,78.209,27.6Z" transform="translate(3.605 -1.974)" fill="#ccd6dd"/>
    <path id="Path_24" data-name="Path 24" d="M55.435,17.9c.851-4.006-8.2-9.323-20.217-11.878s-22.449-1.378-23.3,2.628,8.2,9.323,20.217,11.878S54.583,21.908,55.435,17.9Z" transform="translate(12.899 -0.194)" fill="#e1e8ed"/>
    <path id="Path_25" data-name="Path 25" d="M11.918,11.317C12.768,7.31,19.323.256,36.246,3.852s20.04,12.707,19.19,16.713-11.283,5.183-23.3,2.627-21.071-7.87-20.218-11.876Z" transform="translate(12.9 -2.862)" fill="#5dadec"/>
    <path id="Path_26" data-name="Path 26" d="M20.08,21.879a2.472,2.472,0,1,0-2.472-2.472A2.472,2.472,0,0,0,20.08,21.879Z" transform="translate(21.357 17.85)" fill="#8ccaf7"/>
    <path id="Path_27" data-name="Path 27" d="M28.113,22.564a2.472,2.472,0,1,0-2.472-2.472A2.472,2.472,0,0,0,28.113,22.564Z" transform="translate(33.179 18.858)" fill="#8ccaf7"/>
    <path id="Path_28" data-name="Path 28" d="M35.584,21.085a2.472,2.472,0,1,0-2.472-2.472A2.472,2.472,0,0,0,35.584,21.085Z" transform="translate(44.173 16.682)" fill="#8ccaf7"/>
    <path id="Path_29" data-name="Path 29" d="M39.175,15.6c.431-.529-.077-1.657-1.135-2.52s-2.265-1.133-2.7-.6.077,1.657,1.135,2.52S38.744,16.128,39.175,15.6Z" transform="translate(47.23 10.888)" fill="#8ccaf7"/>
    <path id="Path_30" data-name="Path 30" d="M6.4,8.278c1.317-.358,2.24-1.181,2.062-1.84s-1.392-.9-2.709-.545-2.24,1.182-2.062,1.84S5.086,8.636,6.4,8.278Z" transform="translate(0.847 1.357)" fill="#8ccaf7"/>
    <path id="Path_31" data-name="Path 31" d="M6.239,14.847a2.472,2.472,0,1,0-2.472-2.472A2.472,2.472,0,0,0,6.239,14.847Z" transform="translate(0.988 7.501)" fill="#8ccaf7"/>
    <path id="Path_32" data-name="Path 32" d="M12.463,19.237a2.472,2.472,0,1,0-2.472-2.472A2.472,2.472,0,0,0,12.463,19.237Z" transform="translate(10.147 13.962)" fill="#8ccaf7"/>
    <path id="Path_33" data-name="Path 33" d="M40.717,9.947c.426-2-4.641-4.777-11.317-6.2S16.966,2.806,16.541,4.808,21.182,9.585,27.858,11,40.291,11.95,40.717,9.947Z" transform="translate(19.748 -2.756)" fill="#8ccaf7"/>
  </g>
</svg>
