<svg xmlns="http://www.w3.org/2000/svg" width="125.53" height="96.6" viewBox="0 0 125.53 96.6">
  <g id="Students_Enrolled" data-name="Students Enrolled" transform="translate(-2581.693 -2955.104)">
    <path id="Vector8" d="M35.382,5.024,19.82.8a5.017,5.017,0,0,0-2.61,0L1.646,5.024a1.134,1.134,0,0,0,0,2.249l2.713.737a3.639,3.639,0,0,0-1,2.314,1.544,1.544,0,0,0-.916,1.35,1.513,1.513,0,0,0,.773,1.265L1.8,18.606a.82.82,0,0,0,.871.96H5.8a.82.82,0,0,0,.871-.96L5.244,12.939a1.513,1.513,0,0,0,.773-1.265,1.535,1.535,0,0,0-.874-1.325A2.282,2.282,0,0,1,6.3,8.537L17.209,11.5a5.021,5.021,0,0,0,2.61,0L35.382,7.274a1.135,1.135,0,0,0,0-2.249ZM20.344,13.01a7.029,7.029,0,0,1-3.659,0l-8.091-2.2-.791,5.6c0,1.744,4.8,3.157,10.712,3.157s10.712-1.413,10.712-3.157l-.791-5.6-8.091,2.2Z" transform="translate(2581.032 2971.774)" fill="#00594c"/>
    <path id="Vector8-2" data-name="Vector8" d="M35.382,5.024,19.82.8a5.017,5.017,0,0,0-2.61,0L1.646,5.024a1.134,1.134,0,0,0,0,2.249l2.713.737a3.639,3.639,0,0,0-1,2.314,1.544,1.544,0,0,0-.916,1.35,1.513,1.513,0,0,0,.773,1.265L1.8,18.606a.82.82,0,0,0,.871.96H5.8a.82.82,0,0,0,.871-.96L5.244,12.939a1.513,1.513,0,0,0,.773-1.265,1.535,1.535,0,0,0-.874-1.325A2.282,2.282,0,0,1,6.3,8.537L17.209,11.5a5.021,5.021,0,0,0,2.61,0L35.382,7.274a1.135,1.135,0,0,0,0-2.249ZM20.344,13.01a7.029,7.029,0,0,1-3.659,0l-8.091-2.2-.791,5.6c0,1.744,4.8,3.157,10.712,3.157s10.712-1.413,10.712-3.157l-.791-5.6-8.091,2.2Z" transform="translate(2669.037 2971.774)" fill="#00594c"/>
    <path id="Vector8-3" data-name="Vector8" d="M62.765,8.494,34.929.933a8.973,8.973,0,0,0-4.669,0L2.423,8.494c-2.349.638-2.349,3.385,0,4.022l4.853,1.318a6.51,6.51,0,0,0-1.784,4.138,2.762,2.762,0,0,0-1.638,2.415,2.706,2.706,0,0,0,1.383,2.263L2.689,32.787a1.466,1.466,0,0,0,1.558,1.718h5.6a1.467,1.467,0,0,0,1.559-1.718L8.858,22.651a2.706,2.706,0,0,0,1.383-2.263,2.745,2.745,0,0,0-1.563-2.371,4.082,4.082,0,0,1,2.065-3.24l19.516,5.3a8.982,8.982,0,0,0,4.669,0l27.837-7.561c2.35-.639,2.35-3.385,0-4.023Zm-26.9,14.284a12.573,12.573,0,0,1-6.545,0L14.849,18.847,13.434,28.858c0,3.119,8.578,5.647,19.16,5.647s19.16-2.528,19.16-5.647L50.339,18.847,35.866,22.778Z" transform="translate(2610.988 2954.48)" fill="#00594c"/>
    <path id="Vector-6" d="M18.83,37.659A12.553,12.553,0,1,0,6.277,25.106,12.565,12.565,0,0,0,18.83,37.659Zm87.871,0A12.553,12.553,0,1,0,94.148,25.106,12.565,12.565,0,0,0,106.7,37.659Zm6.277,6.277H100.424a12.516,12.516,0,0,0-8.846,3.648,28.69,28.69,0,0,1,14.73,21.458h12.945a6.27,6.27,0,0,0,6.276-6.277V56.489A12.565,12.565,0,0,0,112.977,43.936Zm-50.212,0A21.968,21.968,0,1,0,40.8,21.968,21.957,21.957,0,0,0,62.765,43.936Zm15.064,6.277H76.2a30.33,30.33,0,0,1-26.871,0H47.7a22.6,22.6,0,0,0-22.6,22.6v5.649a9.417,9.417,0,0,0,9.415,9.415H91.009a9.417,9.417,0,0,0,9.415-9.415V72.808A22.6,22.6,0,0,0,77.829,50.212ZM33.952,47.584a12.516,12.516,0,0,0-8.846-3.648H12.553A12.565,12.565,0,0,0,0,56.489v6.277a6.27,6.27,0,0,0,6.277,6.277H19.2A28.762,28.762,0,0,1,33.952,47.584Z" transform="translate(2581.693 2963.833)" fill="#00594c"/>
  </g>
</svg>
