<svg xmlns="http://www.w3.org/2000/svg" width="18" height="18" viewBox="0 0 18 18">
  <g id="Student_Records_Add_New" data-name="Student Records Add New" transform="translate(-1570 -510)">
    <path id="Line_58" data-name="Line 58" d="M0,16.5A1.5,1.5,0,0,1-1.5,15V0A1.5,1.5,0,0,1,0-1.5,1.5,1.5,0,0,1,1.5,0V15A1.5,1.5,0,0,1,0,16.5Z" transform="translate(1579 511.5)" fill="#00594c"/>
    <path id="Line_59" data-name="Line 59" d="M0,16.5A1.5,1.5,0,0,1-1.5,15V0A1.5,1.5,0,0,1,0-1.5,1.5,1.5,0,0,1,1.5,0V15A1.5,1.5,0,0,1,0,16.5Z" transform="translate(1586.5 519) rotate(90)" fill="#00594c"/>
  </g>
</svg>
