<svg xmlns="http://www.w3.org/2000/svg" width="11.589" height="11.589" viewBox="0 0 11.589 11.589">
  <g id="Student_Records_Search_White" data-name="Student Records Search White" transform="translate(-1011.5 -1163.368)">
    <path id="Ellipse_119" data-name="Ellipse 119" d="M4.376,1.05A3.326,3.326,0,1,0,7.7,4.376,3.329,3.329,0,0,0,4.376,1.05m0-1.05A4.376,4.376,0,1,1,0,4.376,4.376,4.376,0,0,1,4.376,0Z" transform="translate(1012 1163.868)" fill="#fff"/>
    <path id="Ellipse_119_-_Outline" data-name="Ellipse 119 - Outline" d="M4.376-.5A4.876,4.876,0,1,1-.5,4.376,4.881,4.881,0,0,1,4.376-.5Zm0,8.752A3.876,3.876,0,1,0,.5,4.376,3.88,3.88,0,0,0,4.376,8.252Zm0-7.7A3.826,3.826,0,1,1,.55,4.376,3.83,3.83,0,0,1,4.376.55Zm0,6.651A2.826,2.826,0,1,0,1.55,4.376,2.829,2.829,0,0,0,4.376,7.2Z" transform="translate(1012 1163.868)" fill="#fff"/>
    <path id="Line_35" data-name="Line 35" d="M4.026,1.05H.525A.525.525,0,0,1,.525,0h3.5a.525.525,0,0,1,0,1.05Z" transform="translate(1019.164 1170.289) rotate(45)" fill="#fff"/>
    <path id="Line_35_-_Outline" data-name="Line 35 - Outline" d="M4.026,1.55H.525a1.025,1.025,0,0,1,0-2.05h3.5a1.025,1.025,0,0,1,0,2.05ZM.525.5a.025.025,0,0,0,0,.05h3.5a.025.025,0,0,0,0-.05Z" transform="translate(1019.164 1170.289) rotate(45)" fill="#fff"/>
  </g>
</svg>
