<svg xmlns="http://www.w3.org/2000/svg" width="120.756" height="96.605" viewBox="0 0 120.756 96.605">
  <path id="Teacher" d="M39.246,66.416a4.318,4.318,0,0,0-1.332.206,24.9,24.9,0,0,1-7.725,1.3,24.919,24.919,0,0,1-7.726-1.3,4.306,4.306,0,0,0-1.33-.206A21.134,21.134,0,0,0,0,87.665,9.033,9.033,0,0,0,9.057,96.6H51.322a9.034,9.034,0,0,0,9.057-8.94A21.134,21.134,0,0,0,39.246,66.416Zm-9.057-6.038A18.113,18.113,0,1,0,12.076,42.265,18.113,18.113,0,0,0,30.189,60.378ZM111.7,0H39.246a9.221,9.221,0,0,0-9.057,9.357v8.757a23.877,23.877,0,0,1,12.076,3.359v-9.4h66.416v54.34H96.605V54.34H72.454V66.416H58.069a24.047,24.047,0,0,1,7.489,12.076H111.7a9.221,9.221,0,0,0,9.057-9.357V9.357A9.221,9.221,0,0,0,111.7,0Z" fill="#00594c"/>
</svg>
