<svg xmlns="http://www.w3.org/2000/svg" width="18.043" height="15.998" viewBox="0 0 18.043 15.998">
  <path id="Twitter_Green_Small" data-name="Twitter Green Small" d="M11.368,23.82h-.08a10.863,10.863,0,0,1-4.647-1.089,1.379,1.379,0,0,1-.779-1.439,1.409,1.409,0,0,1,1.159-1.179,6.624,6.624,0,0,0,2.538-.889A9.483,9.483,0,0,1,6.052,10.16a1.409,1.409,0,0,1,1-1.149,1.349,1.349,0,0,1,1.429.41,7.085,7.085,0,0,0,4.876,2.748,4.488,4.488,0,0,1,7.774-2.908.7.7,0,0,0,.779.1,1.389,1.389,0,0,1,1.939,1.6,6.655,6.655,0,0,1-1.279,2.6,10.782,10.782,0,0,1-11.2,10.262Zm0-2h.08a8.783,8.783,0,0,0,9.083-8.584,1.319,1.319,0,0,1,.37-.849,5.184,5.184,0,0,0,.62-1,2.558,2.558,0,0,1-1.909-.849,2.448,2.448,0,0,0-1.759-.709,2.5,2.5,0,0,0-1.789.689,2.528,2.528,0,0,0-.719,2.418l.26,1.139-1.169.08a8.294,8.294,0,0,1-6.535-2.4,7.115,7.115,0,0,0,3.727,6.455l.949.54-.63.9A5.616,5.616,0,0,1,9.27,21.572a8.334,8.334,0,0,0,2.088.25Z" transform="translate(-5.849 -7.83)" fill="#00594c"/>
</svg>
