<svg xmlns="http://www.w3.org/2000/svg" width="111.417" height="112.229" viewBox="0 0 111.417 112.229">
  <g id="Watch_Right" data-name="Watch Right" transform="translate(32.087 -2.816) rotate(25)">
    <path id="Path_3" data-name="Path 3" d="M26.473,15.433a4.943,4.943,0,1,1-9.887,0V5.478a4.943,4.943,0,1,1,9.887,0Z" transform="translate(22.96 -0.5)" fill="#ffcc4d"/>
    <path id="Path_4" data-name="Path 4" d="M11.96,67.622a3.679,3.679,0,0,1-1.646-.393,3.76,3.76,0,0,1-1.649-5.01l22.1-44.8a3.662,3.662,0,0,1,6.589,0l22.1,44.8a3.759,3.759,0,0,1-1.646,5.01,3.662,3.662,0,0,1-4.941-1.671l-18.8-38.125-18.8,38.125A3.683,3.683,0,0,1,11.96,67.622Z" transform="translate(10.73 21.357)" fill="#ffac33"/>
    <path id="Path_5" data-name="Path 5" d="M40.635,44.606a2.435,2.435,0,0,1-1.735-.729L4.527,9.029a2.513,2.513,0,0,1,0-3.52,2.43,2.43,0,0,1,3.47,0L40.635,38.594,73.268,5.507a2.433,2.433,0,0,1,3.473,0,2.512,2.512,0,0,1,0,3.52L42.373,43.876a2.451,2.451,0,0,1-1.738.729Z" transform="translate(4.154 5.796)" fill="#58595b"/>
    <path id="Path_6" data-name="Path 6" d="M81.381,43.6c0,21.993-17.586,39.82-39.284,39.82S2.815,65.59,2.815,43.6,20.4,3.772,42.1,3.772,81.381,21.6,81.381,43.6Z" transform="translate(2.692 4.315)" fill="#dd2e44"/>
    <path id="Path_7" data-name="Path 7" d="M65.71,37.67A29.664,29.664,0,0,1,36.248,67.537,29.665,29.665,0,0,1,6.789,37.67,29.665,29.665,0,0,1,36.248,7.8,29.663,29.663,0,0,1,65.71,37.67Z" transform="translate(8.541 10.243)" fill="#e6e7e8"/>
    <path id="Path_8" data-name="Path 8" d="M74.835,1.757A14.579,14.579,0,0,0,64.42,6.132L85.253,27.249A14.989,14.989,0,0,0,89.566,16.69,14.836,14.836,0,0,0,74.835,1.757Zm-59.517,0A14.584,14.584,0,0,1,25.733,6.132L4.9,27.249A14.989,14.989,0,0,1,.587,16.69,14.834,14.834,0,0,1,15.318,1.757Z" transform="translate(-0.587 1.35)" fill="#ffcc4d"/>
    <path id="Path_9" data-name="Path 9" d="M32.417,36.688H20.058a2.471,2.471,0,0,1-2.472-2.472V11.972a2.472,2.472,0,1,1,4.943,0V31.745h9.887a2.472,2.472,0,1,1,0,4.943Z" transform="translate(24.432 12.745)" fill="#414042"/>
  </g>
</svg>
